<svg width="124" height="495" viewBox="0 0 124 495" fill="none" xmlns="http://www.w3.org/2000/svg">
<path d="M54.2696 0.30429C45.2697 0.801995 43.1545 1.21674 41.6614 2.75126C40.4587 3.954 40.3757 4.20287 40.2513 7.85258C40.1269 10.7972 39.9195 11.8756 39.3389 12.4976C38.7583 13.1613 38.5509 14.447 38.3435 19.5897C38.0532 25.562 38.0947 25.9352 38.9656 27.4283C40.0025 29.1703 40.0025 28.3822 38.7168 70.5614C38.385 81.2617 38.0947 93.3721 38.0947 97.3951C38.0947 106.188 37.4311 116.349 36.6016 120.33C35.5233 125.763 34.1546 127.796 26.2331 135.925C15.1595 147.288 9.7264 155.334 5.82784 166.159C2.46844 175.532 1.68043 179.929 1.18274 192.288C-0.0614804 223.31 -0.476221 475.929 0.685053 477.339C0.933897 477.629 1.68043 479.62 2.38549 481.777C4.70804 488.993 5.95226 490.196 12.3807 491.689C21.5465 493.846 34.9426 494.634 63.6012 494.634C99.7666 494.634 111.545 493.182 117.476 487.956C118.596 487.003 119.176 485.883 120.172 482.897C121.831 477.795 122.204 475.39 122.66 466.846C122.909 462.699 123.117 400.197 123.158 321.894C123.282 178.104 123.365 183.246 121.623 175.698C119.757 167.528 115.402 157.947 109.845 149.569C107.025 145.339 105.075 143.058 99.3519 137.335C92.2598 130.201 90.9326 128.501 89.481 124.644C87.3659 119.128 86.7438 112.989 86.2046 93.1647C85.8313 79.6442 84.9604 51.4418 84.3797 35.0181C84.2138 29.9997 84.2553 29.6265 85.2092 27.8431C86.1216 26.1012 86.2046 25.479 86.2046 20.2119C86.2046 14.7788 86.1631 14.447 85.1677 13.1198C84.2553 11.8756 84.1309 11.2949 84.1309 8.30878C84.1309 6.27656 83.882 4.32729 83.5088 3.45634C82.9281 2.08769 82.7208 1.96327 79.9005 1.29965C74.2186 0.0139575 65.4676 -0.31783 54.2696 0.30429Z" fill="#D0CCD2"/>
<rect x="1" y="212" width="122" height="151" fill="#EFEEEE"/>
<path d="M29.984 325.54C30.344 325.54 30.644 325.528 30.884 325.504V325.744C30.436 325.848 30.12 326.196 29.936 326.788L27.668 334.06H27.572H27.476L25.388 327.88L23.48 334.06H23.384H23.288L20.744 326.512C20.576 326.016 20.3 325.76 19.916 325.744V325.504C20.244 325.528 20.672 325.54 21.2 325.54C21.776 325.54 22.208 325.528 22.496 325.504V325.744C22.28 325.76 22.128 325.8 22.04 325.864C21.952 325.928 21.908 326.028 21.908 326.164C21.908 326.292 21.952 326.488 22.04 326.752L23.792 332.104L25.256 327.46L24.932 326.512C24.772 326.016 24.536 325.76 24.224 325.744V325.504C24.512 325.528 24.9 325.54 25.388 325.54C26.076 325.54 26.588 325.528 26.924 325.504V325.744C26.62 325.76 26.408 325.796 26.288 325.852C26.168 325.9 26.108 326.008 26.108 326.176C26.108 326.32 26.148 326.512 26.228 326.752L27.956 332.092L29.432 327.448C29.56 327.056 29.624 326.732 29.624 326.476C29.624 326.212 29.544 326.028 29.384 325.924C29.224 325.812 28.964 325.752 28.604 325.744V325.504C29.06 325.528 29.52 325.54 29.984 325.54ZM36.9876 332.992C37.1796 333.488 37.4556 333.744 37.8156 333.76V334C37.4956 333.976 37.0676 333.964 36.5316 333.964C35.8436 333.964 35.3316 333.976 34.9956 334V333.76C35.2996 333.744 35.5156 333.708 35.6436 333.652C35.7796 333.588 35.8476 333.476 35.8476 333.316C35.8476 333.18 35.7996 332.992 35.7036 332.752L34.9716 330.784H32.0676L31.5756 332.056C31.4156 332.488 31.3356 332.816 31.3356 333.04C31.3356 333.288 31.4196 333.468 31.5876 333.58C31.7636 333.692 32.0276 333.752 32.3796 333.76V334C31.9236 333.976 31.4636 333.964 30.9996 333.964C30.6396 333.964 30.3396 333.976 30.0996 334V333.76C30.4996 333.664 30.8156 333.316 31.0476 332.716L33.8676 325.444H34.0596L36.9876 332.992ZM34.8756 330.544L33.5316 326.956L32.1636 330.544H34.8756ZM45.5478 325.744C45.2678 325.76 45.0598 325.804 44.9238 325.876C44.7878 325.94 44.6958 326.052 44.6478 326.212C44.5998 326.364 44.5758 326.592 44.5758 326.896V334.06H44.2998L39.2598 326.272V332.608C39.2598 332.92 39.2838 333.152 39.3318 333.304C39.3878 333.456 39.4918 333.568 39.6438 333.64C39.7958 333.704 40.0318 333.744 40.3518 333.76V334C40.0638 333.976 39.6558 333.964 39.1278 333.964C38.6478 333.964 38.2758 333.976 38.0118 334V333.76C38.2918 333.744 38.4998 333.704 38.6358 333.64C38.7718 333.568 38.8638 333.456 38.9118 333.304C38.9598 333.144 38.9838 332.912 38.9838 332.608V326.776C38.9838 326.472 38.9598 326.252 38.9118 326.116C38.8638 325.98 38.7718 325.888 38.6358 325.84C38.5078 325.792 38.2998 325.76 38.0118 325.744V325.504C38.2758 325.528 38.6478 325.54 39.1278 325.54C39.4878 325.54 39.7998 325.528 40.0638 325.504L44.2998 332.032V326.896C44.2998 326.584 44.2718 326.352 44.2158 326.2C44.1678 326.048 44.0678 325.94 43.9158 325.876C43.7638 325.804 43.5278 325.76 43.2078 325.744V325.504C43.4958 325.528 43.9038 325.54 44.4318 325.54C44.9118 325.54 45.2838 325.528 45.5478 325.504V325.744ZM50.4104 325.336C50.8824 325.336 51.2704 325.404 51.5744 325.54C51.8784 325.668 52.2104 325.86 52.5704 326.116C52.6744 326.196 52.7544 326.236 52.8104 326.236C52.9624 326.236 53.0624 325.992 53.1104 325.504H53.3864C53.3544 326.024 53.3384 326.944 53.3384 328.264H53.0624C52.9904 327.84 52.9144 327.492 52.8344 327.22C52.7544 326.94 52.6304 326.696 52.4624 326.488C52.2304 326.2 51.9264 325.972 51.5504 325.804C51.1824 325.636 50.7944 325.552 50.3864 325.552C49.8584 325.552 49.3944 325.724 48.9944 326.068C48.5944 326.412 48.2864 326.904 48.0704 327.544C47.8544 328.176 47.7464 328.916 47.7464 329.764C47.7464 331.204 47.9744 332.26 48.4304 332.932C48.8944 333.596 49.6184 333.928 50.6024 333.928C51.0824 333.928 51.4984 333.804 51.8504 333.556C51.9944 333.46 52.0864 333.368 52.1264 333.28C52.1744 333.184 52.1984 333.056 52.1984 332.896V331.744C52.1984 331.408 52.1664 331.164 52.1024 331.012C52.0384 330.86 51.9264 330.756 51.7664 330.7C51.6064 330.644 51.3464 330.608 50.9864 330.592V330.352C51.4024 330.376 51.9664 330.388 52.6784 330.388C53.2224 330.388 53.6384 330.376 53.9264 330.352V330.592C53.7424 330.608 53.6064 330.64 53.5184 330.688C53.4384 330.736 53.3824 330.828 53.3504 330.964C53.3264 331.1 53.3144 331.32 53.3144 331.624V334H53.0744C53.0664 333.84 53.0344 333.688 52.9784 333.544C52.9224 333.392 52.8464 333.316 52.7504 333.316C52.7024 333.316 52.6544 333.328 52.6064 333.352C52.5584 333.376 52.4744 333.432 52.3544 333.52C52.0744 333.736 51.7824 333.896 51.4784 334C51.1824 334.112 50.8504 334.168 50.4824 334.168C49.6584 334.168 48.9504 334 48.3584 333.664C47.7744 333.32 47.3264 332.828 47.0144 332.188C46.7024 331.548 46.5464 330.784 46.5464 329.896C46.5464 328.984 46.7104 328.184 47.0384 327.496C47.3744 326.8 47.8344 326.268 48.4184 325.9C49.0024 325.524 49.6664 325.336 50.4104 325.336ZM66.9098 325.54C67.2698 325.54 67.5698 325.528 67.8098 325.504V325.744C67.3618 325.848 67.0458 326.196 66.8618 326.788L64.5938 334.06H64.4978H64.4018L62.3138 327.88L60.4058 334.06H60.3098H60.2138L57.6698 326.512C57.5018 326.016 57.2258 325.76 56.8418 325.744V325.504C57.1698 325.528 57.5978 325.54 58.1258 325.54C58.7018 325.54 59.1338 325.528 59.4218 325.504V325.744C59.2058 325.76 59.0538 325.8 58.9658 325.864C58.8778 325.928 58.8338 326.028 58.8338 326.164C58.8338 326.292 58.8778 326.488 58.9658 326.752L60.7178 332.104L62.1818 327.46L61.8578 326.512C61.6978 326.016 61.4618 325.76 61.1498 325.744V325.504C61.4378 325.528 61.8258 325.54 62.3138 325.54C63.0018 325.54 63.5138 325.528 63.8498 325.504V325.744C63.5458 325.76 63.3338 325.796 63.2138 325.852C63.0938 325.9 63.0338 326.008 63.0338 326.176C63.0338 326.32 63.0738 326.512 63.1538 326.752L64.8818 332.092L66.3578 327.448C66.4858 327.056 66.5498 326.732 66.5498 326.476C66.5498 326.212 66.4698 326.028 66.3098 325.924C66.1498 325.812 65.8898 325.752 65.5298 325.744V325.504C65.9858 325.528 66.4458 325.54 66.9098 325.54ZM71.3531 325.744C71.0651 325.76 70.8531 325.792 70.7171 325.84C70.5891 325.888 70.5011 325.98 70.4531 326.116C70.4051 326.252 70.3811 326.472 70.3811 326.776V332.728C70.3811 333.032 70.4051 333.252 70.4531 333.388C70.5011 333.524 70.5891 333.616 70.7171 333.664C70.8531 333.712 71.0651 333.744 71.3531 333.76V334C70.9851 333.976 70.4771 333.964 69.8291 333.964C69.1411 333.964 68.6291 333.976 68.2931 334V333.76C68.5811 333.744 68.7891 333.712 68.9171 333.664C69.0531 333.616 69.1451 333.524 69.1931 333.388C69.2411 333.252 69.2651 333.032 69.2651 332.728V326.776C69.2651 326.472 69.2411 326.252 69.1931 326.116C69.1451 325.98 69.0531 325.888 68.9171 325.84C68.7891 325.792 68.5811 325.76 68.2931 325.744V325.504C68.6291 325.528 69.1411 325.54 69.8291 325.54C70.4691 325.54 70.9771 325.528 71.3531 325.504V325.744ZM79.8955 325.744C79.6155 325.76 79.4075 325.804 79.2715 325.876C79.1355 325.94 79.0435 326.052 78.9955 326.212C78.9475 326.364 78.9235 326.592 78.9235 326.896V334.06H78.6475L73.6075 326.272V332.608C73.6075 332.92 73.6315 333.152 73.6795 333.304C73.7355 333.456 73.8395 333.568 73.9915 333.64C74.1435 333.704 74.3795 333.744 74.6995 333.76V334C74.4115 333.976 74.0035 333.964 73.4755 333.964C72.9955 333.964 72.6235 333.976 72.3595 334V333.76C72.6395 333.744 72.8475 333.704 72.9835 333.64C73.1195 333.568 73.2115 333.456 73.2595 333.304C73.3075 333.144 73.3315 332.912 73.3315 332.608V326.776C73.3315 326.472 73.3075 326.252 73.2595 326.116C73.2115 325.98 73.1195 325.888 72.9835 325.84C72.8555 325.792 72.6475 325.76 72.3595 325.744V325.504C72.6235 325.528 72.9955 325.54 73.4755 325.54C73.8355 325.54 74.1475 325.528 74.4115 325.504L78.6475 332.032V326.896C78.6475 326.584 78.6195 326.352 78.5635 326.2C78.5155 326.048 78.4155 325.94 78.2635 325.876C78.1115 325.804 77.8755 325.76 77.5555 325.744V325.504C77.8435 325.528 78.2515 325.54 78.7795 325.54C79.2595 325.54 79.6315 325.528 79.8955 325.504V325.744ZM86.9761 332.464C86.9761 332.92 87.0041 333.432 87.0601 334C86.5161 333.976 85.6001 333.964 84.3121 333.964C82.7761 333.964 81.6161 333.976 80.8321 334V333.76C81.1201 333.744 81.3281 333.712 81.4561 333.664C81.5921 333.616 81.6841 333.524 81.7321 333.388C81.7801 333.252 81.8041 333.032 81.8041 332.728V326.776C81.8041 326.472 81.7801 326.252 81.7321 326.116C81.6841 325.98 81.5921 325.888 81.4561 325.84C81.3281 325.792 81.1201 325.76 80.8321 325.744V325.504C81.6161 325.528 82.7761 325.54 84.3121 325.54C85.4881 325.54 86.3241 325.528 86.8201 325.504C86.7641 326.032 86.7361 326.504 86.7361 326.92C86.7361 327.232 86.7481 327.48 86.7721 327.664H86.4961C86.4401 327.144 86.3681 326.76 86.2801 326.512C86.1921 326.256 86.0441 326.072 85.8361 325.96C85.6281 325.84 85.3121 325.78 84.8881 325.78H83.8921C83.6041 325.78 83.3921 325.804 83.2561 325.852C83.1281 325.892 83.0401 325.98 82.9921 326.116C82.9441 326.252 82.9201 326.472 82.9201 326.776V329.608H83.7121C83.9921 329.608 84.2081 329.544 84.3601 329.416C84.5121 329.28 84.6121 329.124 84.6601 328.948C84.7161 328.764 84.7601 328.536 84.7921 328.264L84.8281 328.024H85.1041C85.0801 328.36 85.0681 328.736 85.0681 329.152V329.728C85.0681 330.136 85.0921 330.704 85.1401 331.432H84.8641C84.8561 331.376 84.8321 331.184 84.7921 330.856C84.7521 330.52 84.6401 330.268 84.4561 330.1C84.2801 329.932 84.0321 329.848 83.7121 329.848H82.9201V332.728C82.9201 333.032 82.9441 333.252 82.9921 333.388C83.0401 333.524 83.1281 333.616 83.2561 333.664C83.3921 333.704 83.6041 333.724 83.8921 333.724H84.7681C85.2641 333.724 85.6401 333.66 85.8961 333.532C86.1601 333.396 86.3521 333.184 86.4721 332.896C86.5921 332.6 86.6801 332.168 86.7361 331.6H87.0121C86.9881 331.816 86.9761 332.104 86.9761 332.464ZM95.5606 333.4C95.3766 333.672 95.1926 333.868 95.0086 333.988C94.8246 334.108 94.5806 334.168 94.2766 334.168C93.9486 334.168 93.6766 334.072 93.4606 333.88C93.2526 333.688 93.0966 333.352 92.9926 332.872L92.7286 331.672C92.6326 331.256 92.5406 330.936 92.4526 330.712C92.3726 330.488 92.2486 330.308 92.0806 330.172C91.9126 330.036 91.6766 329.968 91.3726 329.968H90.2326V332.728C90.2326 333.032 90.2566 333.252 90.3046 333.388C90.3526 333.524 90.4406 333.616 90.5686 333.664C90.7046 333.712 90.9166 333.744 91.2046 333.76V334C90.8366 333.976 90.3286 333.964 89.6806 333.964C88.9926 333.964 88.4806 333.976 88.1446 334V333.76C88.4326 333.744 88.6406 333.712 88.7686 333.664C88.9046 333.616 88.9966 333.524 89.0446 333.388C89.0926 333.252 89.1166 333.032 89.1166 332.728V326.776C89.1166 326.472 89.0926 326.252 89.0446 326.116C88.9966 325.98 88.9046 325.888 88.7686 325.84C88.6406 325.792 88.4326 325.76 88.1446 325.744V325.504C88.4806 325.528 88.9686 325.54 89.6086 325.54L90.9046 325.528C91.0566 325.52 91.2286 325.516 91.4206 325.516C92.3486 325.516 93.0606 325.712 93.5566 326.104C94.0606 326.488 94.3126 326.988 94.3126 327.604C94.3126 327.916 94.2366 328.232 94.0846 328.552C93.9406 328.864 93.6926 329.148 93.3406 329.404C92.9966 329.652 92.5446 329.82 91.9846 329.908L92.1286 329.932C92.6566 330.02 93.0406 330.18 93.2806 330.412C93.5206 330.644 93.6966 331.012 93.8086 331.516L94.1086 332.74C94.1886 333.108 94.2726 333.364 94.3606 333.508C94.4486 333.652 94.5686 333.724 94.7206 333.724C94.8566 333.724 94.9686 333.688 95.0566 333.616C95.1526 333.544 95.2606 333.428 95.3806 333.268L95.5606 333.4ZM91.1206 325.744C90.8726 325.744 90.6846 325.772 90.5566 325.828C90.4366 325.884 90.3526 325.984 90.3046 326.128C90.2566 326.272 90.2326 326.488 90.2326 326.776V329.728H91.0366C91.8286 329.728 92.3726 329.552 92.6686 329.2C92.9646 328.848 93.1126 328.36 93.1126 327.736C93.1126 327.08 92.9566 326.584 92.6446 326.248C92.3326 325.912 91.8246 325.744 91.1206 325.744ZM101.027 325.54C101.387 325.54 101.687 325.528 101.927 325.504V325.744C101.767 325.784 101.611 325.888 101.459 326.056C101.307 326.216 101.143 326.468 100.967 326.812L99.0831 330.544V332.728C99.0831 333.032 99.1071 333.252 99.1551 333.388C99.2031 333.524 99.2911 333.616 99.4191 333.664C99.5551 333.712 99.7671 333.744 100.055 333.76V334C99.6871 333.976 99.1791 333.964 98.5311 333.964C97.8431 333.964 97.3311 333.976 96.9951 334V333.76C97.2831 333.744 97.4911 333.712 97.6191 333.664C97.7551 333.616 97.8471 333.524 97.8951 333.388C97.9431 333.252 97.9671 333.032 97.9671 332.728V330.928L95.5311 326.428C95.3871 326.164 95.2591 325.988 95.1471 325.9C95.0431 325.804 94.9391 325.756 94.8351 325.756V325.504C95.1471 325.528 95.4991 325.54 95.8911 325.54C96.6671 325.54 97.2271 325.528 97.5711 325.504V325.756C97.0111 325.756 96.7311 325.908 96.7311 326.212C96.7311 326.332 96.7711 326.472 96.8511 326.632L98.8431 330.46L100.379 327.412C100.595 326.988 100.703 326.644 100.703 326.38C100.703 326.156 100.615 325.996 100.439 325.9C100.263 325.804 99.9991 325.752 99.6471 325.744V325.504C100.103 325.528 100.563 325.54 101.027 325.54Z" fill="#786F84"/>
<path d="M51.9217 271.992C51.5804 272.013 51.3297 272.056 51.1697 272.12C51.0204 272.184 50.919 272.307 50.8657 272.488C50.8124 272.669 50.7857 272.963 50.7857 273.368V281.304C50.7857 281.709 50.8124 282.003 50.8657 282.184C50.9297 282.365 51.0364 282.488 51.1857 282.552C51.335 282.616 51.5804 282.659 51.9217 282.68V283C51.271 282.968 50.327 282.952 49.0897 282.952C47.799 282.952 46.8497 282.968 46.2417 283V282.68C46.6257 282.659 46.903 282.616 47.0737 282.552C47.255 282.488 47.3777 282.365 47.4417 282.184C47.5057 282.003 47.5377 281.709 47.5377 281.304V273.128L43.6817 282.984H43.4257L38.9137 272.712V279.864C38.9137 280.653 38.9457 281.224 39.0097 281.576C39.0737 281.917 39.2124 282.168 39.4257 282.328C39.6497 282.488 40.0177 282.605 40.5297 282.68V283C40.0924 282.968 39.495 282.952 38.7377 282.952C38.1724 282.952 37.7297 282.968 37.4097 283V282.68C37.7404 282.605 37.9857 282.493 38.1457 282.344C38.3057 282.184 38.4124 281.944 38.4657 281.624C38.519 281.304 38.5457 280.824 38.5457 280.184V273.368C38.5457 272.963 38.5137 272.669 38.4497 272.488C38.3964 272.307 38.295 272.184 38.1457 272.12C37.9964 272.056 37.751 272.013 37.4097 271.992V271.672C37.7297 271.704 38.1724 271.72 38.7377 271.72C40.0177 271.72 41.1217 271.704 42.0497 271.672L45.0737 278.472L47.6977 271.72H49.0897C50.327 271.72 51.271 271.704 51.9217 271.672V271.992ZM57.3827 281.48C58.1614 281.48 58.8067 281.123 59.3187 280.408L59.5907 280.504C59.356 281.251 58.956 281.891 58.3907 282.424C57.836 282.957 57.1214 283.224 56.2467 283.224C55.1267 283.224 54.2307 282.877 53.5587 282.184C52.8867 281.491 52.5507 280.381 52.5507 278.856C52.5507 277.395 52.924 276.301 53.6707 275.576C54.428 274.84 55.4254 274.472 56.6627 274.472C58.6787 274.472 59.6867 275.667 59.6867 278.056H55.5587C55.548 278.184 55.5427 278.376 55.5427 278.632C55.5427 279.656 55.7187 280.387 56.0707 280.824C56.4334 281.261 56.8707 281.48 57.3827 281.48ZM56.5507 274.84C55.9534 274.84 55.6014 275.811 55.4947 277.752H57.3507C57.3614 276.899 57.2974 276.2 57.1587 275.656C57.0307 275.112 56.828 274.84 56.5507 274.84ZM66.1213 274.472C66.644 274.472 67.0173 274.632 67.2413 274.952C67.476 275.272 67.5933 275.651 67.5933 276.088C67.5933 276.568 67.4546 276.952 67.1773 277.24C66.9106 277.517 66.5586 277.656 66.1213 277.656C65.6626 277.656 65.3106 277.555 65.0653 277.352C64.82 277.139 64.6973 276.856 64.6973 276.504C64.6973 275.875 64.9693 275.379 65.5133 275.016C65.3213 275.016 65.1506 275.053 65.0013 275.128C64.7346 275.245 64.5106 275.437 64.3293 275.704C64.148 275.96 64.0573 276.243 64.0573 276.552V281.352C64.0573 281.853 64.1586 282.2 64.3613 282.392C64.5746 282.573 64.932 282.664 65.4333 282.664V283C65.2946 283 65.1773 282.995 65.0813 282.984C63.9613 282.952 63.2146 282.936 62.8413 282.936C62.5106 282.936 61.7693 282.952 60.6173 282.984C60.532 282.995 60.42 283 60.2813 283V282.664C60.612 282.664 60.8413 282.584 60.9693 282.424C61.108 282.253 61.1773 281.949 61.1773 281.512V276.44C61.1773 275.949 61.108 275.592 60.9693 275.368C60.8413 275.144 60.612 275.032 60.2813 275.032V274.696C60.6226 274.728 60.9533 274.744 61.2733 274.744C62.3826 274.744 63.3106 274.669 64.0573 274.52V275.672C64.4626 274.872 65.1506 274.472 66.1213 274.472ZM71.2281 281.512C71.2281 281.949 71.2921 282.253 71.4201 282.424C71.5587 282.584 71.7934 282.664 72.1241 282.664V283C70.9721 282.957 70.2147 282.936 69.8521 282.936C69.4894 282.936 68.6894 282.957 67.4521 283V282.664C67.7827 282.664 68.0121 282.584 68.1401 282.424C68.2787 282.253 68.3481 281.949 68.3481 281.512V272.408C68.3481 271.917 68.2787 271.56 68.1401 271.336C68.0121 271.112 67.7827 271 67.4521 271V270.664C67.7827 270.696 68.1134 270.712 68.4441 270.712C69.5534 270.712 70.4814 270.637 71.2281 270.488V281.512ZM76.8658 274.472C78.1778 274.472 79.1911 274.819 79.9058 275.512C80.6205 276.195 80.9778 277.309 80.9778 278.856C80.9778 280.403 80.6205 281.517 79.9058 282.2C79.1911 282.883 78.1778 283.224 76.8658 283.224C75.5538 283.224 74.5405 282.883 73.8258 282.2C73.1111 281.517 72.7538 280.403 72.7538 278.856C72.7538 277.309 73.1111 276.195 73.8258 275.512C74.5405 274.819 75.5538 274.472 76.8658 274.472ZM76.8658 274.792C76.5245 274.792 76.2525 275.128 76.0498 275.8C75.8471 276.472 75.7458 277.491 75.7458 278.856C75.7458 280.221 75.8471 281.24 76.0498 281.912C76.2525 282.573 76.5245 282.904 76.8658 282.904C77.2071 282.904 77.4791 282.573 77.6818 281.912C77.8845 281.24 77.9858 280.221 77.9858 278.856C77.9858 277.491 77.8845 276.472 77.6818 275.8C77.4791 275.128 77.2071 274.792 76.8658 274.792ZM85.5086 274.696H87.0766V275.016H85.5086V281.656C85.5086 281.869 85.5459 282.019 85.6206 282.104C85.6952 282.189 85.8179 282.232 85.9886 282.232C86.1166 282.232 86.2606 282.195 86.4206 282.12C86.5806 282.045 86.7246 281.928 86.8526 281.768L87.0926 281.96C86.6019 282.803 85.8446 283.224 84.8206 283.224C84.0846 283.224 83.5352 283.043 83.1726 282.68C82.9486 282.456 82.7992 282.179 82.7246 281.848C82.6606 281.517 82.6286 281.053 82.6286 280.456V275.016H81.4126V274.696H82.6286V272.808C83.2046 272.808 83.7219 272.755 84.1806 272.648C84.6499 272.531 85.0926 272.349 85.5086 272.104V274.696Z" fill="#786F84"/>
</svg>
