<svg width="124" height="495" viewBox="0 0 124 495" fill="none" xmlns="http://www.w3.org/2000/svg">
<path d="M54.2696 0.30429C45.2697 0.801995 43.1545 1.21674 41.6614 2.75126C40.4587 3.954 40.3757 4.20287 40.2513 7.85258C40.1269 10.7972 39.9195 11.8756 39.3389 12.4976C38.7583 13.1613 38.5509 14.447 38.3435 19.5897C38.0532 25.562 38.0947 25.9352 38.9656 27.4283C40.0025 29.1703 40.0025 28.3822 38.7168 70.5614C38.385 81.2617 38.0947 93.3721 38.0947 97.3951C38.0947 106.188 37.4311 116.349 36.6016 120.33C35.5233 125.763 34.1546 127.796 26.2331 135.925C15.1595 147.288 9.7264 155.334 5.82784 166.159C2.46844 175.532 1.68043 179.929 1.18274 192.288C-0.0614804 223.31 -0.476221 475.929 0.685053 477.339C0.933897 477.629 1.68043 479.62 2.38549 481.777C4.70804 488.993 5.95226 490.196 12.3807 491.689C21.5465 493.846 34.9426 494.634 63.6012 494.634C99.7666 494.634 111.545 493.182 117.476 487.956C118.596 487.003 119.176 485.883 120.172 482.897C121.831 477.795 122.204 475.39 122.66 466.846C122.909 462.699 123.117 400.197 123.158 321.894C123.282 178.104 123.365 183.246 121.623 175.698C119.757 167.528 115.402 157.947 109.845 149.569C107.025 145.339 105.075 143.058 99.3519 137.335C92.2598 130.201 90.9326 128.501 89.481 124.644C87.3659 119.128 86.7438 112.989 86.2046 93.1647C85.8313 79.6442 84.9604 51.4418 84.3797 35.0181C84.2138 29.9997 84.2553 29.6265 85.2092 27.8431C86.1216 26.1012 86.2046 25.479 86.2046 20.2119C86.2046 14.7788 86.1631 14.447 85.1677 13.1198C84.2553 11.8756 84.1309 11.2949 84.1309 8.30878C84.1309 6.27656 83.882 4.32729 83.5088 3.45634C82.9281 2.08769 82.7208 1.96327 79.9005 1.29965C74.2186 0.0139575 65.4676 -0.31783 54.2696 0.30429Z" fill="#D0CCD2"/>
<rect x="1" y="212" width="122" height="151" fill="#EFEEEE"/>
<path d="M29.984 325.54C30.344 325.54 30.644 325.528 30.884 325.504V325.744C30.436 325.848 30.12 326.196 29.936 326.788L27.668 334.06H27.572H27.476L25.388 327.88L23.48 334.06H23.384H23.288L20.744 326.512C20.576 326.016 20.3 325.76 19.916 325.744V325.504C20.244 325.528 20.672 325.54 21.2 325.54C21.776 325.54 22.208 325.528 22.496 325.504V325.744C22.28 325.76 22.128 325.8 22.04 325.864C21.952 325.928 21.908 326.028 21.908 326.164C21.908 326.292 21.952 326.488 22.04 326.752L23.792 332.104L25.256 327.46L24.932 326.512C24.772 326.016 24.536 325.76 24.224 325.744V325.504C24.512 325.528 24.9 325.54 25.388 325.54C26.076 325.54 26.588 325.528 26.924 325.504V325.744C26.62 325.76 26.408 325.796 26.288 325.852C26.168 325.9 26.108 326.008 26.108 326.176C26.108 326.32 26.148 326.512 26.228 326.752L27.956 332.092L29.432 327.448C29.56 327.056 29.624 326.732 29.624 326.476C29.624 326.212 29.544 326.028 29.384 325.924C29.224 325.812 28.964 325.752 28.604 325.744V325.504C29.06 325.528 29.52 325.54 29.984 325.54ZM36.9876 332.992C37.1796 333.488 37.4556 333.744 37.8156 333.76V334C37.4956 333.976 37.0676 333.964 36.5316 333.964C35.8436 333.964 35.3316 333.976 34.9956 334V333.76C35.2996 333.744 35.5156 333.708 35.6436 333.652C35.7796 333.588 35.8476 333.476 35.8476 333.316C35.8476 333.18 35.7996 332.992 35.7036 332.752L34.9716 330.784H32.0676L31.5756 332.056C31.4156 332.488 31.3356 332.816 31.3356 333.04C31.3356 333.288 31.4196 333.468 31.5876 333.58C31.7636 333.692 32.0276 333.752 32.3796 333.76V334C31.9236 333.976 31.4636 333.964 30.9996 333.964C30.6396 333.964 30.3396 333.976 30.0996 334V333.76C30.4996 333.664 30.8156 333.316 31.0476 332.716L33.8676 325.444H34.0596L36.9876 332.992ZM34.8756 330.544L33.5316 326.956L32.1636 330.544H34.8756ZM45.5478 325.744C45.2678 325.76 45.0598 325.804 44.9238 325.876C44.7878 325.94 44.6958 326.052 44.6478 326.212C44.5998 326.364 44.5758 326.592 44.5758 326.896V334.06H44.2998L39.2598 326.272V332.608C39.2598 332.92 39.2838 333.152 39.3318 333.304C39.3878 333.456 39.4918 333.568 39.6438 333.64C39.7958 333.704 40.0318 333.744 40.3518 333.76V334C40.0638 333.976 39.6558 333.964 39.1278 333.964C38.6478 333.964 38.2758 333.976 38.0118 334V333.76C38.2918 333.744 38.4998 333.704 38.6358 333.64C38.7718 333.568 38.8638 333.456 38.9118 333.304C38.9598 333.144 38.9838 332.912 38.9838 332.608V326.776C38.9838 326.472 38.9598 326.252 38.9118 326.116C38.8638 325.98 38.7718 325.888 38.6358 325.84C38.5078 325.792 38.2998 325.76 38.0118 325.744V325.504C38.2758 325.528 38.6478 325.54 39.1278 325.54C39.4878 325.54 39.7998 325.528 40.0638 325.504L44.2998 332.032V326.896C44.2998 326.584 44.2718 326.352 44.2158 326.2C44.1678 326.048 44.0678 325.94 43.9158 325.876C43.7638 325.804 43.5278 325.76 43.2078 325.744V325.504C43.4958 325.528 43.9038 325.54 44.4318 325.54C44.9118 325.54 45.2838 325.528 45.5478 325.504V325.744ZM50.4104 325.336C50.8824 325.336 51.2704 325.404 51.5744 325.54C51.8784 325.668 52.2104 325.86 52.5704 326.116C52.6744 326.196 52.7544 326.236 52.8104 326.236C52.9624 326.236 53.0624 325.992 53.1104 325.504H53.3864C53.3544 326.024 53.3384 326.944 53.3384 328.264H53.0624C52.9904 327.84 52.9144 327.492 52.8344 327.22C52.7544 326.94 52.6304 326.696 52.4624 326.488C52.2304 326.2 51.9264 325.972 51.5504 325.804C51.1824 325.636 50.7944 325.552 50.3864 325.552C49.8584 325.552 49.3944 325.724 48.9944 326.068C48.5944 326.412 48.2864 326.904 48.0704 327.544C47.8544 328.176 47.7464 328.916 47.7464 329.764C47.7464 331.204 47.9744 332.26 48.4304 332.932C48.8944 333.596 49.6184 333.928 50.6024 333.928C51.0824 333.928 51.4984 333.804 51.8504 333.556C51.9944 333.46 52.0864 333.368 52.1264 333.28C52.1744 333.184 52.1984 333.056 52.1984 332.896V331.744C52.1984 331.408 52.1664 331.164 52.1024 331.012C52.0384 330.86 51.9264 330.756 51.7664 330.7C51.6064 330.644 51.3464 330.608 50.9864 330.592V330.352C51.4024 330.376 51.9664 330.388 52.6784 330.388C53.2224 330.388 53.6384 330.376 53.9264 330.352V330.592C53.7424 330.608 53.6064 330.64 53.5184 330.688C53.4384 330.736 53.3824 330.828 53.3504 330.964C53.3264 331.1 53.3144 331.32 53.3144 331.624V334H53.0744C53.0664 333.84 53.0344 333.688 52.9784 333.544C52.9224 333.392 52.8464 333.316 52.7504 333.316C52.7024 333.316 52.6544 333.328 52.6064 333.352C52.5584 333.376 52.4744 333.432 52.3544 333.52C52.0744 333.736 51.7824 333.896 51.4784 334C51.1824 334.112 50.8504 334.168 50.4824 334.168C49.6584 334.168 48.9504 334 48.3584 333.664C47.7744 333.32 47.3264 332.828 47.0144 332.188C46.7024 331.548 46.5464 330.784 46.5464 329.896C46.5464 328.984 46.7104 328.184 47.0384 327.496C47.3744 326.8 47.8344 326.268 48.4184 325.9C49.0024 325.524 49.6664 325.336 50.4104 325.336ZM66.9098 325.54C67.2698 325.54 67.5698 325.528 67.8098 325.504V325.744C67.3618 325.848 67.0458 326.196 66.8618 326.788L64.5938 334.06H64.4978H64.4018L62.3138 327.88L60.4058 334.06H60.3098H60.2138L57.6698 326.512C57.5018 326.016 57.2258 325.76 56.8418 325.744V325.504C57.1698 325.528 57.5978 325.54 58.1258 325.54C58.7018 325.54 59.1338 325.528 59.4218 325.504V325.744C59.2058 325.76 59.0538 325.8 58.9658 325.864C58.8778 325.928 58.8338 326.028 58.8338 326.164C58.8338 326.292 58.8778 326.488 58.9658 326.752L60.7178 332.104L62.1818 327.46L61.8578 326.512C61.6978 326.016 61.4618 325.76 61.1498 325.744V325.504C61.4378 325.528 61.8258 325.54 62.3138 325.54C63.0018 325.54 63.5138 325.528 63.8498 325.504V325.744C63.5458 325.76 63.3338 325.796 63.2138 325.852C63.0938 325.9 63.0338 326.008 63.0338 326.176C63.0338 326.32 63.0738 326.512 63.1538 326.752L64.8818 332.092L66.3578 327.448C66.4858 327.056 66.5498 326.732 66.5498 326.476C66.5498 326.212 66.4698 326.028 66.3098 325.924C66.1498 325.812 65.8898 325.752 65.5298 325.744V325.504C65.9858 325.528 66.4458 325.54 66.9098 325.54ZM71.3531 325.744C71.0651 325.76 70.8531 325.792 70.7171 325.84C70.5891 325.888 70.5011 325.98 70.4531 326.116C70.4051 326.252 70.3811 326.472 70.3811 326.776V332.728C70.3811 333.032 70.4051 333.252 70.4531 333.388C70.5011 333.524 70.5891 333.616 70.7171 333.664C70.8531 333.712 71.0651 333.744 71.3531 333.76V334C70.9851 333.976 70.4771 333.964 69.8291 333.964C69.1411 333.964 68.6291 333.976 68.2931 334V333.76C68.5811 333.744 68.7891 333.712 68.9171 333.664C69.0531 333.616 69.1451 333.524 69.1931 333.388C69.2411 333.252 69.2651 333.032 69.2651 332.728V326.776C69.2651 326.472 69.2411 326.252 69.1931 326.116C69.1451 325.98 69.0531 325.888 68.9171 325.84C68.7891 325.792 68.5811 325.76 68.2931 325.744V325.504C68.6291 325.528 69.1411 325.54 69.8291 325.54C70.4691 325.54 70.9771 325.528 71.3531 325.504V325.744ZM79.8955 325.744C79.6155 325.76 79.4075 325.804 79.2715 325.876C79.1355 325.94 79.0435 326.052 78.9955 326.212C78.9475 326.364 78.9235 326.592 78.9235 326.896V334.06H78.6475L73.6075 326.272V332.608C73.6075 332.92 73.6315 333.152 73.6795 333.304C73.7355 333.456 73.8395 333.568 73.9915 333.64C74.1435 333.704 74.3795 333.744 74.6995 333.76V334C74.4115 333.976 74.0035 333.964 73.4755 333.964C72.9955 333.964 72.6235 333.976 72.3595 334V333.76C72.6395 333.744 72.8475 333.704 72.9835 333.64C73.1195 333.568 73.2115 333.456 73.2595 333.304C73.3075 333.144 73.3315 332.912 73.3315 332.608V326.776C73.3315 326.472 73.3075 326.252 73.2595 326.116C73.2115 325.98 73.1195 325.888 72.9835 325.84C72.8555 325.792 72.6475 325.76 72.3595 325.744V325.504C72.6235 325.528 72.9955 325.54 73.4755 325.54C73.8355 325.54 74.1475 325.528 74.4115 325.504L78.6475 332.032V326.896C78.6475 326.584 78.6195 326.352 78.5635 326.2C78.5155 326.048 78.4155 325.94 78.2635 325.876C78.1115 325.804 77.8755 325.76 77.5555 325.744V325.504C77.8435 325.528 78.2515 325.54 78.7795 325.54C79.2595 325.54 79.6315 325.528 79.8955 325.504V325.744ZM86.9761 332.464C86.9761 332.92 87.0041 333.432 87.0601 334C86.5161 333.976 85.6001 333.964 84.3121 333.964C82.7761 333.964 81.6161 333.976 80.8321 334V333.76C81.1201 333.744 81.3281 333.712 81.4561 333.664C81.5921 333.616 81.6841 333.524 81.7321 333.388C81.7801 333.252 81.8041 333.032 81.8041 332.728V326.776C81.8041 326.472 81.7801 326.252 81.7321 326.116C81.6841 325.98 81.5921 325.888 81.4561 325.84C81.3281 325.792 81.1201 325.76 80.8321 325.744V325.504C81.6161 325.528 82.7761 325.54 84.3121 325.54C85.4881 325.54 86.3241 325.528 86.8201 325.504C86.7641 326.032 86.7361 326.504 86.7361 326.92C86.7361 327.232 86.7481 327.48 86.7721 327.664H86.4961C86.4401 327.144 86.3681 326.76 86.2801 326.512C86.1921 326.256 86.0441 326.072 85.8361 325.96C85.6281 325.84 85.3121 325.78 84.8881 325.78H83.8921C83.6041 325.78 83.3921 325.804 83.2561 325.852C83.1281 325.892 83.0401 325.98 82.9921 326.116C82.9441 326.252 82.9201 326.472 82.9201 326.776V329.608H83.7121C83.9921 329.608 84.2081 329.544 84.3601 329.416C84.5121 329.28 84.6121 329.124 84.6601 328.948C84.7161 328.764 84.7601 328.536 84.7921 328.264L84.8281 328.024H85.1041C85.0801 328.36 85.0681 328.736 85.0681 329.152V329.728C85.0681 330.136 85.0921 330.704 85.1401 331.432H84.8641C84.8561 331.376 84.8321 331.184 84.7921 330.856C84.7521 330.52 84.6401 330.268 84.4561 330.1C84.2801 329.932 84.0321 329.848 83.7121 329.848H82.9201V332.728C82.9201 333.032 82.9441 333.252 82.9921 333.388C83.0401 333.524 83.1281 333.616 83.2561 333.664C83.3921 333.704 83.6041 333.724 83.8921 333.724H84.7681C85.2641 333.724 85.6401 333.66 85.8961 333.532C86.1601 333.396 86.3521 333.184 86.4721 332.896C86.5921 332.6 86.6801 332.168 86.7361 331.6H87.0121C86.9881 331.816 86.9761 332.104 86.9761 332.464ZM95.5606 333.4C95.3766 333.672 95.1926 333.868 95.0086 333.988C94.8246 334.108 94.5806 334.168 94.2766 334.168C93.9486 334.168 93.6766 334.072 93.4606 333.88C93.2526 333.688 93.0966 333.352 92.9926 332.872L92.7286 331.672C92.6326 331.256 92.5406 330.936 92.4526 330.712C92.3726 330.488 92.2486 330.308 92.0806 330.172C91.9126 330.036 91.6766 329.968 91.3726 329.968H90.2326V332.728C90.2326 333.032 90.2566 333.252 90.3046 333.388C90.3526 333.524 90.4406 333.616 90.5686 333.664C90.7046 333.712 90.9166 333.744 91.2046 333.76V334C90.8366 333.976 90.3286 333.964 89.6806 333.964C88.9926 333.964 88.4806 333.976 88.1446 334V333.76C88.4326 333.744 88.6406 333.712 88.7686 333.664C88.9046 333.616 88.9966 333.524 89.0446 333.388C89.0926 333.252 89.1166 333.032 89.1166 332.728V326.776C89.1166 326.472 89.0926 326.252 89.0446 326.116C88.9966 325.98 88.9046 325.888 88.7686 325.84C88.6406 325.792 88.4326 325.76 88.1446 325.744V325.504C88.4806 325.528 88.9686 325.54 89.6086 325.54L90.9046 325.528C91.0566 325.52 91.2286 325.516 91.4206 325.516C92.3486 325.516 93.0606 325.712 93.5566 326.104C94.0606 326.488 94.3126 326.988 94.3126 327.604C94.3126 327.916 94.2366 328.232 94.0846 328.552C93.9406 328.864 93.6926 329.148 93.3406 329.404C92.9966 329.652 92.5446 329.82 91.9846 329.908L92.1286 329.932C92.6566 330.02 93.0406 330.18 93.2806 330.412C93.5206 330.644 93.6966 331.012 93.8086 331.516L94.1086 332.74C94.1886 333.108 94.2726 333.364 94.3606 333.508C94.4486 333.652 94.5686 333.724 94.7206 333.724C94.8566 333.724 94.9686 333.688 95.0566 333.616C95.1526 333.544 95.2606 333.428 95.3806 333.268L95.5606 333.4ZM91.1206 325.744C90.8726 325.744 90.6846 325.772 90.5566 325.828C90.4366 325.884 90.3526 325.984 90.3046 326.128C90.2566 326.272 90.2326 326.488 90.2326 326.776V329.728H91.0366C91.8286 329.728 92.3726 329.552 92.6686 329.2C92.9646 328.848 93.1126 328.36 93.1126 327.736C93.1126 327.08 92.9566 326.584 92.6446 326.248C92.3326 325.912 91.8246 325.744 91.1206 325.744ZM101.027 325.54C101.387 325.54 101.687 325.528 101.927 325.504V325.744C101.767 325.784 101.611 325.888 101.459 326.056C101.307 326.216 101.143 326.468 100.967 326.812L99.0831 330.544V332.728C99.0831 333.032 99.1071 333.252 99.1551 333.388C99.2031 333.524 99.2911 333.616 99.4191 333.664C99.5551 333.712 99.7671 333.744 100.055 333.76V334C99.6871 333.976 99.1791 333.964 98.5311 333.964C97.8431 333.964 97.3311 333.976 96.9951 334V333.76C97.2831 333.744 97.4911 333.712 97.6191 333.664C97.7551 333.616 97.8471 333.524 97.8951 333.388C97.9431 333.252 97.9671 333.032 97.9671 332.728V330.928L95.5311 326.428C95.3871 326.164 95.2591 325.988 95.1471 325.9C95.0431 325.804 94.9391 325.756 94.8351 325.756V325.504C95.1471 325.528 95.4991 325.54 95.8911 325.54C96.6671 325.54 97.2271 325.528 97.5711 325.504V325.756C97.0111 325.756 96.7311 325.908 96.7311 326.212C96.7311 326.332 96.7711 326.472 96.8511 326.632L98.8431 330.46L100.379 327.412C100.595 326.988 100.703 326.644 100.703 326.38C100.703 326.156 100.615 325.996 100.439 325.9C100.263 325.804 99.9991 325.752 99.6471 325.744V325.504C100.103 325.528 100.563 325.54 101.027 325.54Z" fill="#786F84"/>
<path d="M27.7929 278.424V281.144C27.7929 281.592 27.8356 281.917 27.9209 282.12C28.0169 282.323 28.1823 282.461 28.4169 282.536C28.6623 282.6 29.0463 282.632 29.5689 282.632V283C28.1289 282.968 27.0303 282.952 26.2729 282.952C25.7716 282.952 25.0729 282.963 24.1769 282.984L23.4089 283V282.68C23.7503 282.659 23.9956 282.616 24.1449 282.552C24.3049 282.488 24.4116 282.365 24.4649 282.184C24.5183 282.003 24.5449 281.709 24.5449 281.304V273.368C24.5449 272.963 24.5129 272.669 24.4489 272.488C24.3956 272.307 24.2943 272.184 24.1449 272.12C23.9956 272.056 23.7503 272.013 23.4089 271.992V271.672C24.0169 271.704 24.9343 271.72 26.1609 271.72L28.0009 271.704C28.2143 271.693 28.4596 271.688 28.7369 271.688C30.3156 271.688 31.5103 271.976 32.3209 272.552C33.1423 273.117 33.5529 273.88 33.5529 274.84C33.5529 275.427 33.3929 275.992 33.0729 276.536C32.7529 277.069 32.2089 277.517 31.4409 277.88C30.6729 278.243 29.6543 278.424 28.3849 278.424H27.7929ZM28.6569 271.992C28.4116 271.992 28.2249 272.029 28.0969 272.104C27.9796 272.179 27.8996 272.312 27.8569 272.504C27.8143 272.696 27.7929 272.984 27.7929 273.368V278.104H28.2249C28.9716 278.104 29.4836 277.827 29.7609 277.272C30.0489 276.717 30.1929 275.965 30.1929 275.016C30.1929 273.981 30.0756 273.219 29.8409 272.728C29.6063 272.237 29.2116 271.992 28.6569 271.992ZM36.3807 270.488C36.9354 270.488 37.362 270.605 37.6607 270.84C37.97 271.075 38.1247 271.416 38.1247 271.864C38.1247 272.312 37.97 272.653 37.6607 272.888C37.362 273.123 36.9354 273.24 36.3807 273.24C35.8154 273.24 35.3834 273.123 35.0847 272.888C34.786 272.653 34.6367 272.312 34.6367 271.864C34.6367 271.416 34.786 271.075 35.0847 270.84C35.3834 270.605 35.8154 270.488 36.3807 270.488ZM37.9167 281.512C37.9167 281.949 37.9807 282.253 38.1087 282.424C38.2474 282.584 38.482 282.664 38.8127 282.664V283C37.6607 282.957 36.9034 282.936 36.5407 282.936C36.178 282.936 35.378 282.957 34.1407 283V282.664C34.4714 282.664 34.7007 282.584 34.8287 282.424C34.9674 282.253 35.0367 281.949 35.0367 281.512V276.44C35.0367 275.949 34.9674 275.592 34.8287 275.368C34.7007 275.144 34.4714 275.032 34.1407 275.032V274.696C34.482 274.728 34.8127 274.744 35.1327 274.744C36.242 274.744 37.17 274.669 37.9167 274.52V281.512ZM45.7419 274.472C46.5953 274.472 47.1979 274.685 47.5499 275.112C47.7099 275.304 47.8273 275.565 47.9019 275.896C47.9766 276.216 48.0139 276.643 48.0139 277.176V281.512C48.0139 281.949 48.0779 282.253 48.2059 282.424C48.3446 282.584 48.5793 282.664 48.9099 282.664V283C47.7579 282.957 47.0113 282.936 46.6699 282.936C46.3073 282.936 45.5499 282.957 44.3979 283V282.664C44.6753 282.664 44.8673 282.584 44.9739 282.424C45.0806 282.253 45.1339 281.949 45.1339 281.512V276.312C45.1339 275.971 45.0699 275.72 44.9419 275.56C44.8246 275.389 44.6273 275.304 44.3499 275.304C44.0406 275.304 43.7686 275.416 43.5339 275.64C43.3099 275.853 43.1979 276.125 43.1979 276.456V281.512C43.1979 281.949 43.2513 282.253 43.3579 282.424C43.4646 282.584 43.6566 282.664 43.9339 282.664V283C42.8673 282.957 42.1633 282.936 41.8219 282.936C41.4593 282.936 40.6593 282.957 39.4219 283V282.664C39.7526 282.664 39.9819 282.584 40.1099 282.424C40.2486 282.253 40.3179 281.949 40.3179 281.512V276.44C40.3179 275.949 40.2486 275.592 40.1099 275.368C39.9819 275.144 39.7526 275.032 39.4219 275.032V274.696C39.7633 274.728 40.0939 274.744 40.4139 274.744C41.5233 274.744 42.4513 274.669 43.1979 274.52V275.672C43.6779 274.872 44.5259 274.472 45.7419 274.472ZM53.6939 274.472C55.0059 274.472 56.0193 274.819 56.7339 275.512C57.4486 276.195 57.8059 277.309 57.8059 278.856C57.8059 280.403 57.4486 281.517 56.7339 282.2C56.0193 282.883 55.0059 283.224 53.6939 283.224C52.3819 283.224 51.3686 282.883 50.6539 282.2C49.9393 281.517 49.5819 280.403 49.5819 278.856C49.5819 277.309 49.9393 276.195 50.6539 275.512C51.3686 274.819 52.3819 274.472 53.6939 274.472ZM53.6939 274.792C53.3526 274.792 53.0806 275.128 52.8779 275.8C52.6753 276.472 52.5739 277.491 52.5739 278.856C52.5739 280.221 52.6753 281.24 52.8779 281.912C53.0806 282.573 53.3526 282.904 53.6939 282.904C54.0353 282.904 54.3073 282.573 54.5099 281.912C54.7126 281.24 54.8139 280.221 54.8139 278.856C54.8139 277.491 54.7126 276.472 54.5099 275.8C54.3073 275.128 54.0353 274.792 53.6939 274.792ZM62.3367 274.696H63.9047V275.016H62.3367V281.656C62.3367 281.869 62.374 282.019 62.4487 282.104C62.5234 282.189 62.646 282.232 62.8167 282.232C62.9447 282.232 63.0887 282.195 63.2487 282.12C63.4087 282.045 63.5527 281.928 63.6807 281.768L63.9207 281.96C63.43 282.803 62.6727 283.224 61.6487 283.224C60.9127 283.224 60.3634 283.043 60.0007 282.68C59.7767 282.456 59.6274 282.179 59.5527 281.848C59.4887 281.517 59.4567 281.053 59.4567 280.456V275.016H58.2407V274.696H59.4567V272.808C60.0327 272.808 60.55 272.755 61.0087 272.648C61.478 272.531 61.9207 272.349 62.3367 272.104V274.696ZM78.7889 271.992C78.4583 272.067 78.2129 272.184 78.0529 272.344C77.8929 272.493 77.7863 272.728 77.7329 273.048C77.6796 273.368 77.6529 273.848 77.6529 274.488V283C77.4396 282.979 77.2636 282.968 77.1249 282.968C77.0076 282.968 76.8103 282.979 76.5329 283L69.4449 275.256V279.864C69.4449 280.653 69.4769 281.224 69.5409 281.576C69.6049 281.917 69.7436 282.168 69.9569 282.328C70.1809 282.488 70.5489 282.605 71.0609 282.68V283C70.6236 282.968 70.0263 282.952 69.2689 282.952C68.7036 282.952 68.2609 282.968 67.9409 283V282.68C68.2716 282.605 68.5169 282.493 68.6769 282.344C68.8369 282.184 68.9436 281.944 68.9969 281.624C69.0503 281.304 69.0769 280.824 69.0769 280.184V273.368C69.0769 272.963 69.0449 272.669 68.9809 272.488C68.9276 272.307 68.8263 272.184 68.6769 272.12C68.5276 272.056 68.2823 272.013 67.9409 271.992V271.672C68.2609 271.704 68.7036 271.72 69.2689 271.72C69.8449 271.72 70.3356 271.704 70.7409 271.672L77.2849 278.584V274.808C77.2849 274.019 77.2529 273.453 77.1889 273.112C77.1249 272.76 76.9809 272.504 76.7569 272.344C76.5436 272.184 76.1809 272.067 75.6689 271.992V271.672C76.1063 271.704 76.7036 271.72 77.4609 271.72C78.0263 271.72 78.4689 271.704 78.7889 271.672V271.992ZM83.4439 274.472C84.7559 274.472 85.7693 274.819 86.4839 275.512C87.1986 276.195 87.5559 277.309 87.5559 278.856C87.5559 280.403 87.1986 281.517 86.4839 282.2C85.7693 282.883 84.7559 283.224 83.4439 283.224C82.1319 283.224 81.1186 282.883 80.4039 282.2C79.6893 281.517 79.3319 280.403 79.3319 278.856C79.3319 277.309 79.6893 276.195 80.4039 275.512C81.1186 274.819 82.1319 274.472 83.4439 274.472ZM83.4439 274.792C83.1026 274.792 82.8306 275.128 82.6279 275.8C82.4253 276.472 82.3239 277.491 82.3239 278.856C82.3239 280.221 82.4253 281.24 82.6279 281.912C82.8306 282.573 83.1026 282.904 83.4439 282.904C83.7853 282.904 84.0573 282.573 84.2599 281.912C84.4626 281.24 84.5639 280.221 84.5639 278.856C84.5639 277.491 84.4626 276.472 84.2599 275.8C84.0573 275.128 83.7853 274.792 83.4439 274.792ZM90.6307 270.488C91.1854 270.488 91.612 270.605 91.9107 270.84C92.22 271.075 92.3747 271.416 92.3747 271.864C92.3747 272.312 92.22 272.653 91.9107 272.888C91.612 273.123 91.1854 273.24 90.6307 273.24C90.0654 273.24 89.6334 273.123 89.3347 272.888C89.036 272.653 88.8867 272.312 88.8867 271.864C88.8867 271.416 89.036 271.075 89.3347 270.84C89.6334 270.605 90.0654 270.488 90.6307 270.488ZM92.1667 281.512C92.1667 281.949 92.2307 282.253 92.3587 282.424C92.4974 282.584 92.732 282.664 93.0627 282.664V283C91.9107 282.957 91.1534 282.936 90.7907 282.936C90.428 282.936 89.628 282.957 88.3907 283V282.664C88.7214 282.664 88.9507 282.584 89.0787 282.424C89.2174 282.253 89.2867 281.949 89.2867 281.512V276.44C89.2867 275.949 89.2174 275.592 89.0787 275.368C88.9507 275.144 88.7214 275.032 88.3907 275.032V274.696C88.732 274.728 89.0627 274.744 89.3827 274.744C90.492 274.744 91.42 274.669 92.1667 274.52V281.512ZM99.5119 274.472C100.035 274.472 100.408 274.632 100.632 274.952C100.867 275.272 100.984 275.651 100.984 276.088C100.984 276.568 100.845 276.952 100.568 277.24C100.301 277.517 99.9493 277.656 99.5119 277.656C99.0533 277.656 98.7013 277.555 98.4559 277.352C98.2106 277.139 98.0879 276.856 98.0879 276.504C98.0879 275.875 98.3599 275.379 98.9039 275.016C98.7119 275.016 98.5413 275.053 98.3919 275.128C98.1253 275.245 97.9013 275.437 97.7199 275.704C97.5386 275.96 97.4479 276.243 97.4479 276.552V281.352C97.4479 281.853 97.5493 282.2 97.7519 282.392C97.9653 282.573 98.3226 282.664 98.8239 282.664V283C98.6853 283 98.5679 282.995 98.4719 282.984C97.3519 282.952 96.6053 282.936 96.2319 282.936C95.9013 282.936 95.1599 282.952 94.0079 282.984C93.9226 282.995 93.8106 283 93.6719 283V282.664C94.0026 282.664 94.2319 282.584 94.3599 282.424C94.4986 282.253 94.5679 281.949 94.5679 281.512V276.44C94.5679 275.949 94.4986 275.592 94.3599 275.368C94.2319 275.144 94.0026 275.032 93.6719 275.032V274.696C94.0133 274.728 94.3439 274.744 94.6639 274.744C95.7733 274.744 96.7013 274.669 97.4479 274.52V275.672C97.8533 274.872 98.5413 274.472 99.5119 274.472Z" fill="#786F84"/>
</svg>
