<svg width="124" height="495" viewBox="0 0 124 495" fill="none" xmlns="http://www.w3.org/2000/svg">
<path d="M54.2696 0.30429C45.2697 0.801995 43.1545 1.21674 41.6614 2.75126C40.4587 3.954 40.3757 4.20287 40.2513 7.85258C40.1269 10.7972 39.9195 11.8756 39.3389 12.4976C38.7583 13.1613 38.5509 14.447 38.3435 19.5897C38.0532 25.562 38.0947 25.9352 38.9656 27.4283C40.0025 29.1703 40.0025 28.3822 38.7168 70.5614C38.385 81.2617 38.0947 93.3721 38.0947 97.3951C38.0947 106.188 37.4311 116.349 36.6016 120.33C35.5233 125.763 34.1546 127.796 26.2331 135.925C15.1595 147.288 9.7264 155.334 5.82784 166.159C2.46844 175.532 1.68043 179.929 1.18274 192.288C-0.0614804 223.31 -0.476221 475.929 0.685053 477.339C0.933897 477.629 1.68043 479.62 2.38549 481.777C4.70804 488.993 5.95226 490.196 12.3807 491.689C21.5465 493.846 34.9426 494.634 63.6012 494.634C99.7666 494.634 111.545 493.182 117.476 487.956C118.596 487.003 119.176 485.883 120.172 482.897C121.831 477.795 122.204 475.39 122.66 466.846C122.909 462.699 123.117 400.197 123.158 321.894C123.282 178.104 123.365 183.246 121.623 175.698C119.757 167.528 115.402 157.947 109.845 149.569C107.025 145.339 105.075 143.058 99.3519 137.335C92.2598 130.201 90.9326 128.501 89.481 124.644C87.3659 119.128 86.7438 112.989 86.2046 93.1647C85.8313 79.6442 84.9604 51.4418 84.3797 35.0181C84.2138 29.9997 84.2553 29.6265 85.2092 27.8431C86.1216 26.1012 86.2046 25.479 86.2046 20.2119C86.2046 14.7788 86.1631 14.447 85.1677 13.1198C84.2553 11.8756 84.1309 11.2949 84.1309 8.30878C84.1309 6.27656 83.882 4.32729 83.5088 3.45634C82.9281 2.08769 82.7208 1.96327 79.9005 1.29965C74.2186 0.0139575 65.4676 -0.31783 54.2696 0.30429Z" fill="#D0CCD2"/>
<rect x="1" y="212" width="122" height="151" fill="#EFEEEE"/>
<path d="M29.984 325.54C30.344 325.54 30.644 325.528 30.884 325.504V325.744C30.436 325.848 30.12 326.196 29.936 326.788L27.668 334.06H27.572H27.476L25.388 327.88L23.48 334.06H23.384H23.288L20.744 326.512C20.576 326.016 20.3 325.76 19.916 325.744V325.504C20.244 325.528 20.672 325.54 21.2 325.54C21.776 325.54 22.208 325.528 22.496 325.504V325.744C22.28 325.76 22.128 325.8 22.04 325.864C21.952 325.928 21.908 326.028 21.908 326.164C21.908 326.292 21.952 326.488 22.04 326.752L23.792 332.104L25.256 327.46L24.932 326.512C24.772 326.016 24.536 325.76 24.224 325.744V325.504C24.512 325.528 24.9 325.54 25.388 325.54C26.076 325.54 26.588 325.528 26.924 325.504V325.744C26.62 325.76 26.408 325.796 26.288 325.852C26.168 325.9 26.108 326.008 26.108 326.176C26.108 326.32 26.148 326.512 26.228 326.752L27.956 332.092L29.432 327.448C29.56 327.056 29.624 326.732 29.624 326.476C29.624 326.212 29.544 326.028 29.384 325.924C29.224 325.812 28.964 325.752 28.604 325.744V325.504C29.06 325.528 29.52 325.54 29.984 325.54ZM36.9876 332.992C37.1796 333.488 37.4556 333.744 37.8156 333.76V334C37.4956 333.976 37.0676 333.964 36.5316 333.964C35.8436 333.964 35.3316 333.976 34.9956 334V333.76C35.2996 333.744 35.5156 333.708 35.6436 333.652C35.7796 333.588 35.8476 333.476 35.8476 333.316C35.8476 333.18 35.7996 332.992 35.7036 332.752L34.9716 330.784H32.0676L31.5756 332.056C31.4156 332.488 31.3356 332.816 31.3356 333.04C31.3356 333.288 31.4196 333.468 31.5876 333.58C31.7636 333.692 32.0276 333.752 32.3796 333.76V334C31.9236 333.976 31.4636 333.964 30.9996 333.964C30.6396 333.964 30.3396 333.976 30.0996 334V333.76C30.4996 333.664 30.8156 333.316 31.0476 332.716L33.8676 325.444H34.0596L36.9876 332.992ZM34.8756 330.544L33.5316 326.956L32.1636 330.544H34.8756ZM45.5478 325.744C45.2678 325.76 45.0598 325.804 44.9238 325.876C44.7878 325.94 44.6958 326.052 44.6478 326.212C44.5998 326.364 44.5758 326.592 44.5758 326.896V334.06H44.2998L39.2598 326.272V332.608C39.2598 332.92 39.2838 333.152 39.3318 333.304C39.3878 333.456 39.4918 333.568 39.6438 333.64C39.7958 333.704 40.0318 333.744 40.3518 333.76V334C40.0638 333.976 39.6558 333.964 39.1278 333.964C38.6478 333.964 38.2758 333.976 38.0118 334V333.76C38.2918 333.744 38.4998 333.704 38.6358 333.64C38.7718 333.568 38.8638 333.456 38.9118 333.304C38.9598 333.144 38.9838 332.912 38.9838 332.608V326.776C38.9838 326.472 38.9598 326.252 38.9118 326.116C38.8638 325.98 38.7718 325.888 38.6358 325.84C38.5078 325.792 38.2998 325.76 38.0118 325.744V325.504C38.2758 325.528 38.6478 325.54 39.1278 325.54C39.4878 325.54 39.7998 325.528 40.0638 325.504L44.2998 332.032V326.896C44.2998 326.584 44.2718 326.352 44.2158 326.2C44.1678 326.048 44.0678 325.94 43.9158 325.876C43.7638 325.804 43.5278 325.76 43.2078 325.744V325.504C43.4958 325.528 43.9038 325.54 44.4318 325.54C44.9118 325.54 45.2838 325.528 45.5478 325.504V325.744ZM50.4104 325.336C50.8824 325.336 51.2704 325.404 51.5744 325.54C51.8784 325.668 52.2104 325.86 52.5704 326.116C52.6744 326.196 52.7544 326.236 52.8104 326.236C52.9624 326.236 53.0624 325.992 53.1104 325.504H53.3864C53.3544 326.024 53.3384 326.944 53.3384 328.264H53.0624C52.9904 327.84 52.9144 327.492 52.8344 327.22C52.7544 326.94 52.6304 326.696 52.4624 326.488C52.2304 326.2 51.9264 325.972 51.5504 325.804C51.1824 325.636 50.7944 325.552 50.3864 325.552C49.8584 325.552 49.3944 325.724 48.9944 326.068C48.5944 326.412 48.2864 326.904 48.0704 327.544C47.8544 328.176 47.7464 328.916 47.7464 329.764C47.7464 331.204 47.9744 332.26 48.4304 332.932C48.8944 333.596 49.6184 333.928 50.6024 333.928C51.0824 333.928 51.4984 333.804 51.8504 333.556C51.9944 333.46 52.0864 333.368 52.1264 333.28C52.1744 333.184 52.1984 333.056 52.1984 332.896V331.744C52.1984 331.408 52.1664 331.164 52.1024 331.012C52.0384 330.86 51.9264 330.756 51.7664 330.7C51.6064 330.644 51.3464 330.608 50.9864 330.592V330.352C51.4024 330.376 51.9664 330.388 52.6784 330.388C53.2224 330.388 53.6384 330.376 53.9264 330.352V330.592C53.7424 330.608 53.6064 330.64 53.5184 330.688C53.4384 330.736 53.3824 330.828 53.3504 330.964C53.3264 331.1 53.3144 331.32 53.3144 331.624V334H53.0744C53.0664 333.84 53.0344 333.688 52.9784 333.544C52.9224 333.392 52.8464 333.316 52.7504 333.316C52.7024 333.316 52.6544 333.328 52.6064 333.352C52.5584 333.376 52.4744 333.432 52.3544 333.52C52.0744 333.736 51.7824 333.896 51.4784 334C51.1824 334.112 50.8504 334.168 50.4824 334.168C49.6584 334.168 48.9504 334 48.3584 333.664C47.7744 333.32 47.3264 332.828 47.0144 332.188C46.7024 331.548 46.5464 330.784 46.5464 329.896C46.5464 328.984 46.7104 328.184 47.0384 327.496C47.3744 326.8 47.8344 326.268 48.4184 325.9C49.0024 325.524 49.6664 325.336 50.4104 325.336ZM66.9098 325.54C67.2698 325.54 67.5698 325.528 67.8098 325.504V325.744C67.3618 325.848 67.0458 326.196 66.8618 326.788L64.5938 334.06H64.4978H64.4018L62.3138 327.88L60.4058 334.06H60.3098H60.2138L57.6698 326.512C57.5018 326.016 57.2258 325.76 56.8418 325.744V325.504C57.1698 325.528 57.5978 325.54 58.1258 325.54C58.7018 325.54 59.1338 325.528 59.4218 325.504V325.744C59.2058 325.76 59.0538 325.8 58.9658 325.864C58.8778 325.928 58.8338 326.028 58.8338 326.164C58.8338 326.292 58.8778 326.488 58.9658 326.752L60.7178 332.104L62.1818 327.46L61.8578 326.512C61.6978 326.016 61.4618 325.76 61.1498 325.744V325.504C61.4378 325.528 61.8258 325.54 62.3138 325.54C63.0018 325.54 63.5138 325.528 63.8498 325.504V325.744C63.5458 325.76 63.3338 325.796 63.2138 325.852C63.0938 325.9 63.0338 326.008 63.0338 326.176C63.0338 326.32 63.0738 326.512 63.1538 326.752L64.8818 332.092L66.3578 327.448C66.4858 327.056 66.5498 326.732 66.5498 326.476C66.5498 326.212 66.4698 326.028 66.3098 325.924C66.1498 325.812 65.8898 325.752 65.5298 325.744V325.504C65.9858 325.528 66.4458 325.54 66.9098 325.54ZM71.3531 325.744C71.0651 325.76 70.8531 325.792 70.7171 325.84C70.5891 325.888 70.5011 325.98 70.4531 326.116C70.4051 326.252 70.3811 326.472 70.3811 326.776V332.728C70.3811 333.032 70.4051 333.252 70.4531 333.388C70.5011 333.524 70.5891 333.616 70.7171 333.664C70.8531 333.712 71.0651 333.744 71.3531 333.76V334C70.9851 333.976 70.4771 333.964 69.8291 333.964C69.1411 333.964 68.6291 333.976 68.2931 334V333.76C68.5811 333.744 68.7891 333.712 68.9171 333.664C69.0531 333.616 69.1451 333.524 69.1931 333.388C69.2411 333.252 69.2651 333.032 69.2651 332.728V326.776C69.2651 326.472 69.2411 326.252 69.1931 326.116C69.1451 325.98 69.0531 325.888 68.9171 325.84C68.7891 325.792 68.5811 325.76 68.2931 325.744V325.504C68.6291 325.528 69.1411 325.54 69.8291 325.54C70.4691 325.54 70.9771 325.528 71.3531 325.504V325.744ZM79.8955 325.744C79.6155 325.76 79.4075 325.804 79.2715 325.876C79.1355 325.94 79.0435 326.052 78.9955 326.212C78.9475 326.364 78.9235 326.592 78.9235 326.896V334.06H78.6475L73.6075 326.272V332.608C73.6075 332.92 73.6315 333.152 73.6795 333.304C73.7355 333.456 73.8395 333.568 73.9915 333.64C74.1435 333.704 74.3795 333.744 74.6995 333.76V334C74.4115 333.976 74.0035 333.964 73.4755 333.964C72.9955 333.964 72.6235 333.976 72.3595 334V333.76C72.6395 333.744 72.8475 333.704 72.9835 333.64C73.1195 333.568 73.2115 333.456 73.2595 333.304C73.3075 333.144 73.3315 332.912 73.3315 332.608V326.776C73.3315 326.472 73.3075 326.252 73.2595 326.116C73.2115 325.98 73.1195 325.888 72.9835 325.84C72.8555 325.792 72.6475 325.76 72.3595 325.744V325.504C72.6235 325.528 72.9955 325.54 73.4755 325.54C73.8355 325.54 74.1475 325.528 74.4115 325.504L78.6475 332.032V326.896C78.6475 326.584 78.6195 326.352 78.5635 326.2C78.5155 326.048 78.4155 325.94 78.2635 325.876C78.1115 325.804 77.8755 325.76 77.5555 325.744V325.504C77.8435 325.528 78.2515 325.54 78.7795 325.54C79.2595 325.54 79.6315 325.528 79.8955 325.504V325.744ZM86.9761 332.464C86.9761 332.92 87.0041 333.432 87.0601 334C86.5161 333.976 85.6001 333.964 84.3121 333.964C82.7761 333.964 81.6161 333.976 80.8321 334V333.76C81.1201 333.744 81.3281 333.712 81.4561 333.664C81.5921 333.616 81.6841 333.524 81.7321 333.388C81.7801 333.252 81.8041 333.032 81.8041 332.728V326.776C81.8041 326.472 81.7801 326.252 81.7321 326.116C81.6841 325.98 81.5921 325.888 81.4561 325.84C81.3281 325.792 81.1201 325.76 80.8321 325.744V325.504C81.6161 325.528 82.7761 325.54 84.3121 325.54C85.4881 325.54 86.3241 325.528 86.8201 325.504C86.7641 326.032 86.7361 326.504 86.7361 326.92C86.7361 327.232 86.7481 327.48 86.7721 327.664H86.4961C86.4401 327.144 86.3681 326.76 86.2801 326.512C86.1921 326.256 86.0441 326.072 85.8361 325.96C85.6281 325.84 85.3121 325.78 84.8881 325.78H83.8921C83.6041 325.78 83.3921 325.804 83.2561 325.852C83.1281 325.892 83.0401 325.98 82.9921 326.116C82.9441 326.252 82.9201 326.472 82.9201 326.776V329.608H83.7121C83.9921 329.608 84.2081 329.544 84.3601 329.416C84.5121 329.28 84.6121 329.124 84.6601 328.948C84.7161 328.764 84.7601 328.536 84.7921 328.264L84.8281 328.024H85.1041C85.0801 328.36 85.0681 328.736 85.0681 329.152V329.728C85.0681 330.136 85.0921 330.704 85.1401 331.432H84.8641C84.8561 331.376 84.8321 331.184 84.7921 330.856C84.7521 330.52 84.6401 330.268 84.4561 330.1C84.2801 329.932 84.0321 329.848 83.7121 329.848H82.9201V332.728C82.9201 333.032 82.9441 333.252 82.9921 333.388C83.0401 333.524 83.1281 333.616 83.2561 333.664C83.3921 333.704 83.6041 333.724 83.8921 333.724H84.7681C85.2641 333.724 85.6401 333.66 85.8961 333.532C86.1601 333.396 86.3521 333.184 86.4721 332.896C86.5921 332.6 86.6801 332.168 86.7361 331.6H87.0121C86.9881 331.816 86.9761 332.104 86.9761 332.464ZM95.5606 333.4C95.3766 333.672 95.1926 333.868 95.0086 333.988C94.8246 334.108 94.5806 334.168 94.2766 334.168C93.9486 334.168 93.6766 334.072 93.4606 333.88C93.2526 333.688 93.0966 333.352 92.9926 332.872L92.7286 331.672C92.6326 331.256 92.5406 330.936 92.4526 330.712C92.3726 330.488 92.2486 330.308 92.0806 330.172C91.9126 330.036 91.6766 329.968 91.3726 329.968H90.2326V332.728C90.2326 333.032 90.2566 333.252 90.3046 333.388C90.3526 333.524 90.4406 333.616 90.5686 333.664C90.7046 333.712 90.9166 333.744 91.2046 333.76V334C90.8366 333.976 90.3286 333.964 89.6806 333.964C88.9926 333.964 88.4806 333.976 88.1446 334V333.76C88.4326 333.744 88.6406 333.712 88.7686 333.664C88.9046 333.616 88.9966 333.524 89.0446 333.388C89.0926 333.252 89.1166 333.032 89.1166 332.728V326.776C89.1166 326.472 89.0926 326.252 89.0446 326.116C88.9966 325.98 88.9046 325.888 88.7686 325.84C88.6406 325.792 88.4326 325.76 88.1446 325.744V325.504C88.4806 325.528 88.9686 325.54 89.6086 325.54L90.9046 325.528C91.0566 325.52 91.2286 325.516 91.4206 325.516C92.3486 325.516 93.0606 325.712 93.5566 326.104C94.0606 326.488 94.3126 326.988 94.3126 327.604C94.3126 327.916 94.2366 328.232 94.0846 328.552C93.9406 328.864 93.6926 329.148 93.3406 329.404C92.9966 329.652 92.5446 329.82 91.9846 329.908L92.1286 329.932C92.6566 330.02 93.0406 330.18 93.2806 330.412C93.5206 330.644 93.6966 331.012 93.8086 331.516L94.1086 332.74C94.1886 333.108 94.2726 333.364 94.3606 333.508C94.4486 333.652 94.5686 333.724 94.7206 333.724C94.8566 333.724 94.9686 333.688 95.0566 333.616C95.1526 333.544 95.2606 333.428 95.3806 333.268L95.5606 333.4ZM91.1206 325.744C90.8726 325.744 90.6846 325.772 90.5566 325.828C90.4366 325.884 90.3526 325.984 90.3046 326.128C90.2566 326.272 90.2326 326.488 90.2326 326.776V329.728H91.0366C91.8286 329.728 92.3726 329.552 92.6686 329.2C92.9646 328.848 93.1126 328.36 93.1126 327.736C93.1126 327.08 92.9566 326.584 92.6446 326.248C92.3326 325.912 91.8246 325.744 91.1206 325.744ZM101.027 325.54C101.387 325.54 101.687 325.528 101.927 325.504V325.744C101.767 325.784 101.611 325.888 101.459 326.056C101.307 326.216 101.143 326.468 100.967 326.812L99.0831 330.544V332.728C99.0831 333.032 99.1071 333.252 99.1551 333.388C99.2031 333.524 99.2911 333.616 99.4191 333.664C99.5551 333.712 99.7671 333.744 100.055 333.76V334C99.6871 333.976 99.1791 333.964 98.5311 333.964C97.8431 333.964 97.3311 333.976 96.9951 334V333.76C97.2831 333.744 97.4911 333.712 97.6191 333.664C97.7551 333.616 97.8471 333.524 97.8951 333.388C97.9431 333.252 97.9671 333.032 97.9671 332.728V330.928L95.5311 326.428C95.3871 326.164 95.2591 325.988 95.1471 325.9C95.0431 325.804 94.9391 325.756 94.8351 325.756V325.504C95.1471 325.528 95.4991 325.54 95.8911 325.54C96.6671 325.54 97.2271 325.528 97.5711 325.504V325.756C97.0111 325.756 96.7311 325.908 96.7311 326.212C96.7311 326.332 96.7711 326.472 96.8511 326.632L98.8431 330.46L100.379 327.412C100.595 326.988 100.703 326.644 100.703 326.38C100.703 326.156 100.615 325.996 100.439 325.9C100.263 325.804 99.9991 325.752 99.6471 325.744V325.504C100.103 325.528 100.563 325.54 101.027 325.54Z" fill="#786F84"/>
<path d="M32.4365 271.448C33.0765 271.448 33.6205 271.539 34.0685 271.72C34.5165 271.901 34.9538 272.157 35.3805 272.488C35.4872 272.584 35.5885 272.632 35.6845 272.632C35.8978 272.632 36.0365 272.312 36.1005 271.672H36.4685C36.4258 272.429 36.4045 273.763 36.4045 275.672H36.0365C35.9618 274.819 35.8232 274.147 35.6205 273.656C35.4178 273.165 35.0658 272.755 34.5645 272.424C34.0632 272.104 33.5672 271.944 33.0765 271.944C31.9672 271.944 31.1885 272.477 30.7405 273.544C30.2925 274.611 30.0685 275.885 30.0685 277.368C30.0685 278.851 30.2925 280.125 30.7405 281.192C31.1885 282.259 31.9672 282.792 33.0765 282.792C33.5672 282.792 34.0632 282.632 34.5645 282.312C35.0658 282.003 35.4178 281.587 35.6205 281.064C35.8232 280.541 35.9618 279.8 36.0365 278.84H36.4045C36.4045 280.835 36.4258 282.221 36.4685 283H36.1005C36.0685 282.659 36.0205 282.419 35.9565 282.28C35.9032 282.131 35.8232 282.056 35.7165 282.056C35.6312 282.056 35.5192 282.099 35.3805 282.184C34.9005 282.525 34.4418 282.787 34.0045 282.968C33.5672 283.139 33.0392 283.224 32.4205 283.224C31.2152 283.224 30.1592 282.995 29.2525 282.536C28.3458 282.077 27.6418 281.416 27.1405 280.552C26.6392 279.677 26.3885 278.637 26.3885 277.432C26.3885 276.259 26.6445 275.219 27.1565 274.312C27.6685 273.405 28.3832 272.701 29.3005 272.2C30.2178 271.699 31.2632 271.448 32.4365 271.448ZM39.6973 283.112C39.0146 283.112 38.4973 282.931 38.1453 282.568C37.8039 282.195 37.6333 281.731 37.6333 281.176C37.6333 280.696 37.7559 280.301 38.0013 279.992C38.2573 279.672 38.5559 279.427 38.8973 279.256C39.2386 279.085 39.6813 278.909 40.2253 278.728C40.8013 278.536 41.2226 278.36 41.4893 278.2C41.7559 278.04 41.8893 277.816 41.8893 277.528V276.104C41.8893 275.763 41.8039 275.459 41.6333 275.192C41.4626 274.925 41.1693 274.792 40.7533 274.792C40.4226 274.792 40.1239 274.883 39.8573 275.064C40.2199 275.192 40.4866 275.384 40.6573 275.64C40.8386 275.885 40.9293 276.163 40.9293 276.472C40.9293 276.888 40.7799 277.224 40.4813 277.48C40.1933 277.725 39.8413 277.848 39.4253 277.848C39.0093 277.848 38.6786 277.72 38.4333 277.464C38.1986 277.197 38.0813 276.861 38.0813 276.456C38.0813 276.136 38.1613 275.859 38.3213 275.624C38.4813 275.389 38.7319 275.176 39.0733 274.984C39.6706 274.643 40.5239 274.472 41.6333 274.472C42.2199 274.472 42.7266 274.531 43.1533 274.648C43.5799 274.755 43.9426 274.963 44.2413 275.272C44.4546 275.496 44.5933 275.779 44.6573 276.12C44.7319 276.451 44.7693 276.915 44.7693 277.512V281.8C44.7693 282.067 44.7853 282.248 44.8173 282.344C44.8599 282.44 44.9293 282.488 45.0253 282.488C45.0999 282.488 45.1799 282.467 45.2653 282.424C45.3506 282.371 45.4306 282.312 45.5052 282.248L45.6653 282.52C45.2066 282.915 44.5506 283.112 43.6973 283.112C43.0573 283.112 42.6093 283.005 42.3533 282.792C42.0973 282.568 41.9586 282.269 41.9373 281.896C41.4359 282.707 40.6893 283.112 39.6973 283.112ZM41.2973 281.832C41.5213 281.832 41.7186 281.741 41.8893 281.56V278.184C41.7933 278.344 41.6173 278.552 41.3613 278.808C41.0733 279.085 40.8546 279.357 40.7053 279.624C40.5559 279.88 40.4813 280.232 40.4813 280.68C40.4813 281.448 40.7533 281.832 41.2973 281.832ZM52.1013 274.472C52.9333 274.472 53.6053 274.813 54.1173 275.496C54.6293 276.179 54.8853 277.176 54.8853 278.488C54.8853 280.184 54.5439 281.4 53.8612 282.136C53.1786 282.861 52.2773 283.224 51.1573 283.224C50.8159 283.224 50.5279 283.213 50.2933 283.192C50.0693 283.171 49.8613 283.117 49.6693 283.032C49.2746 282.872 48.8639 282.792 48.4373 282.792C48.1173 282.792 47.8186 282.835 47.5413 282.92C47.2639 283.005 47.0506 283.117 46.9013 283.256L46.6773 283.096C46.7519 282.872 46.7893 282.579 46.7893 282.216V272.408C46.7893 271.917 46.7199 271.56 46.5813 271.336C46.4533 271.112 46.2239 271 45.8933 271V270.664C46.2239 270.696 46.5546 270.712 46.8853 270.712C47.9946 270.712 48.9226 270.637 49.6693 270.488V275.672C50.1599 274.872 50.9706 274.472 52.1013 274.472ZM50.4213 282.904C51.4026 282.904 51.8933 281.555 51.8933 278.856C51.8933 277.544 51.7973 276.627 51.6053 276.104C51.4133 275.571 51.1519 275.304 50.8213 275.304C50.5119 275.304 50.2399 275.416 50.0052 275.64C49.7813 275.853 49.6693 276.125 49.6693 276.456V282.712C49.9146 282.84 50.1653 282.904 50.4213 282.904ZM60.7186 281.48C61.4973 281.48 62.1426 281.123 62.6546 280.408L62.9266 280.504C62.692 281.251 62.292 281.891 61.7266 282.424C61.172 282.957 60.4573 283.224 59.5826 283.224C58.4626 283.224 57.5666 282.877 56.8946 282.184C56.2226 281.491 55.8866 280.381 55.8866 278.856C55.8866 277.395 56.26 276.301 57.0066 275.576C57.764 274.84 58.7613 274.472 59.9986 274.472C62.0146 274.472 63.0226 275.667 63.0226 278.056H58.8946C58.884 278.184 58.8786 278.376 58.8786 278.632C58.8786 279.656 59.0546 280.387 59.4066 280.824C59.7693 281.261 60.2066 281.48 60.7186 281.48ZM59.8866 274.84C59.2893 274.84 58.9373 275.811 58.8306 277.752H60.6866C60.6973 276.899 60.6333 276.2 60.4946 275.656C60.3666 275.112 60.164 274.84 59.8866 274.84ZM69.4573 274.472C69.9799 274.472 70.3533 274.632 70.5773 274.952C70.8119 275.272 70.9293 275.651 70.9293 276.088C70.9293 276.568 70.7906 276.952 70.5133 277.24C70.2466 277.517 69.8946 277.656 69.4573 277.656C68.9986 277.656 68.6466 277.555 68.4013 277.352C68.1559 277.139 68.0333 276.856 68.0333 276.504C68.0333 275.875 68.3053 275.379 68.8493 275.016C68.6573 275.016 68.4866 275.053 68.3373 275.128C68.0706 275.245 67.8466 275.437 67.6653 275.704C67.4839 275.96 67.3932 276.243 67.3932 276.552V281.352C67.3932 281.853 67.4946 282.2 67.6973 282.392C67.9106 282.573 68.2679 282.664 68.7693 282.664V283C68.6306 283 68.5133 282.995 68.4173 282.984C67.2973 282.952 66.5506 282.936 66.1773 282.936C65.8466 282.936 65.1053 282.952 63.9533 282.984C63.8679 282.995 63.7559 283 63.6173 283V282.664C63.9479 282.664 64.1773 282.584 64.3053 282.424C64.4439 282.253 64.5133 281.949 64.5133 281.512V276.44C64.5133 275.949 64.4439 275.592 64.3053 275.368C64.1773 275.144 63.9479 275.032 63.6173 275.032V274.696C63.9586 274.728 64.2893 274.744 64.6093 274.744C65.7186 274.744 66.6466 274.669 67.3932 274.52V275.672C67.7986 274.872 68.4866 274.472 69.4573 274.472ZM77.6404 274.472C78.4937 274.472 79.0964 274.685 79.4484 275.112C79.6084 275.304 79.7257 275.565 79.8004 275.896C79.875 276.216 79.9124 276.643 79.9124 277.176V281.512C79.9124 281.949 79.9764 282.253 80.1044 282.424C80.243 282.584 80.4777 282.664 80.8084 282.664V283C79.6564 282.957 78.9097 282.936 78.5684 282.936C78.2057 282.936 77.4484 282.957 76.2964 283V282.664C76.5737 282.664 76.7657 282.584 76.8724 282.424C76.979 282.253 77.0324 281.949 77.0324 281.512V276.312C77.0324 275.971 76.9684 275.72 76.8404 275.56C76.723 275.389 76.5257 275.304 76.2484 275.304C75.939 275.304 75.667 275.416 75.4324 275.64C75.2084 275.853 75.0964 276.125 75.0964 276.456V281.512C75.0964 281.949 75.1497 282.253 75.2564 282.424C75.363 282.584 75.555 282.664 75.8324 282.664V283C74.7657 282.957 74.0617 282.936 73.7204 282.936C73.3577 282.936 72.5577 282.957 71.3204 283V282.664C71.651 282.664 71.8804 282.584 72.0084 282.424C72.147 282.253 72.2164 281.949 72.2164 281.512V276.44C72.2164 275.949 72.147 275.592 72.0084 275.368C71.8804 275.144 71.651 275.032 71.3204 275.032V274.696C71.6617 274.728 71.9924 274.744 72.3124 274.744C73.4217 274.744 74.3497 274.669 75.0964 274.52V275.672C75.5764 274.872 76.4244 274.472 77.6404 274.472ZM86.3124 281.48C87.091 281.48 87.7364 281.123 88.2484 280.408L88.5204 280.504C88.2857 281.251 87.8857 281.891 87.3204 282.424C86.7657 282.957 86.051 283.224 85.1764 283.224C84.0564 283.224 83.1604 282.877 82.4884 282.184C81.8164 281.491 81.4804 280.381 81.4804 278.856C81.4804 277.395 81.8537 276.301 82.6004 275.576C83.3577 274.84 84.355 274.472 85.5924 274.472C87.6084 274.472 88.6164 275.667 88.6164 278.056H84.4884C84.4777 278.184 84.4724 278.376 84.4724 278.632C84.4724 279.656 84.6484 280.387 85.0004 280.824C85.363 281.261 85.8004 281.48 86.3124 281.48ZM85.4804 274.84C84.883 274.84 84.531 275.811 84.4244 277.752H86.2804C86.291 276.899 86.227 276.2 86.0884 275.656C85.9604 275.112 85.7577 274.84 85.4804 274.84ZM93.0633 274.696H94.6313V275.016H93.0633V281.656C93.0633 281.869 93.1006 282.019 93.1753 282.104C93.2499 282.189 93.3726 282.232 93.5433 282.232C93.6713 282.232 93.8153 282.195 93.9753 282.12C94.1353 282.045 94.2793 281.928 94.4073 281.768L94.6473 281.96C94.1566 282.803 93.3993 283.224 92.3753 283.224C91.6393 283.224 91.0899 283.043 90.7273 282.68C90.5033 282.456 90.3539 282.179 90.2793 281.848C90.2153 281.517 90.1833 281.053 90.1833 280.456V275.016H88.9672V274.696H90.1833V272.808C90.7593 272.808 91.2766 272.755 91.7353 272.648C92.2046 272.531 92.6473 272.349 93.0633 272.104V274.696ZM26.7773 292.448C27.3853 292.448 27.876 292.507 28.2493 292.624C28.6333 292.731 29.0066 292.885 29.3693 293.088C29.4866 293.152 29.588 293.205 29.6733 293.248C29.7693 293.291 29.8493 293.312 29.9133 293.312C30.0093 293.312 30.084 293.259 30.1373 293.152C30.1906 293.035 30.2333 292.853 30.2653 292.608H30.6333C30.58 293.376 30.5533 294.677 30.5533 296.512H30.1853C30.1426 295.904 30.004 295.323 29.7693 294.768C29.5346 294.213 29.2146 293.76 28.8093 293.408C28.404 293.056 27.9346 292.88 27.4013 292.88C26.9106 292.88 26.516 293.013 26.2173 293.28C25.9186 293.536 25.7693 293.899 25.7693 294.368C25.7693 294.731 25.8493 295.045 26.0093 295.312C26.1693 295.579 26.404 295.84 26.7133 296.096C27.0226 296.341 27.5293 296.709 28.2333 297.2C28.2973 297.232 28.356 297.269 28.4093 297.312C28.4733 297.355 28.532 297.397 28.5853 297.44C29.172 297.845 29.6413 298.208 29.9933 298.528C30.3453 298.837 30.628 299.2 30.8413 299.616C31.0653 300.032 31.1773 300.512 31.1773 301.056C31.1773 301.749 30.98 302.336 30.5853 302.816C30.2013 303.285 29.6786 303.637 29.0173 303.872C28.356 304.107 27.6253 304.224 26.8253 304.224C26.1746 304.224 25.6306 304.171 25.1933 304.064C24.7666 303.957 24.3666 303.813 23.9933 303.632C23.7586 303.483 23.5773 303.408 23.4493 303.408C23.3533 303.408 23.2786 303.467 23.2253 303.584C23.172 303.691 23.1293 303.867 23.0973 304.112H22.7293C22.772 303.387 22.7933 301.84 22.7933 299.472H23.1613C23.236 300.741 23.5026 301.771 23.9613 302.56C24.42 303.349 25.124 303.744 26.0733 303.744C26.66 303.744 27.124 303.605 27.4653 303.328C27.8173 303.051 27.9933 302.667 27.9933 302.176C27.9933 301.568 27.8013 301.051 27.4173 300.624C27.044 300.187 26.4573 299.701 25.6573 299.168C25.0173 298.741 24.5053 298.368 24.1213 298.048C23.7373 297.728 23.4226 297.36 23.1773 296.944C22.932 296.517 22.8093 296.027 22.8093 295.472C22.8093 294.8 22.9906 294.24 23.3533 293.792C23.716 293.333 24.196 292.997 24.7933 292.784C25.4013 292.56 26.0626 292.448 26.7773 292.448ZM34.1738 304.112C33.4911 304.112 32.9738 303.931 32.6218 303.568C32.2805 303.195 32.1098 302.731 32.1098 302.176C32.1098 301.696 32.2325 301.301 32.4778 300.992C32.7338 300.672 33.0325 300.427 33.3738 300.256C33.7151 300.085 34.1578 299.909 34.7018 299.728C35.2778 299.536 35.6991 299.36 35.9658 299.2C36.2325 299.04 36.3658 298.816 36.3658 298.528V297.104C36.3658 296.763 36.2805 296.459 36.1098 296.192C35.9391 295.925 35.6458 295.792 35.2298 295.792C34.8991 295.792 34.6005 295.883 34.3338 296.064C34.6965 296.192 34.9631 296.384 35.1338 296.64C35.3151 296.885 35.4058 297.163 35.4058 297.472C35.4058 297.888 35.2565 298.224 34.9578 298.48C34.6698 298.725 34.3178 298.848 33.9018 298.848C33.4858 298.848 33.1551 298.72 32.9098 298.464C32.6751 298.197 32.5578 297.861 32.5578 297.456C32.5578 297.136 32.6378 296.859 32.7978 296.624C32.9578 296.389 33.2085 296.176 33.5498 295.984C34.1471 295.643 35.0005 295.472 36.1098 295.472C36.6965 295.472 37.2031 295.531 37.6298 295.648C38.0565 295.755 38.4191 295.963 38.7178 296.272C38.9311 296.496 39.0698 296.779 39.1338 297.12C39.2085 297.451 39.2458 297.915 39.2458 298.512V302.8C39.2458 303.067 39.2618 303.248 39.2938 303.344C39.3365 303.44 39.4058 303.488 39.5018 303.488C39.5765 303.488 39.6565 303.467 39.7418 303.424C39.8271 303.371 39.9071 303.312 39.9818 303.248L40.1418 303.52C39.6831 303.915 39.0271 304.112 38.1738 304.112C37.5338 304.112 37.0858 304.005 36.8298 303.792C36.5738 303.568 36.4351 303.269 36.4138 302.896C35.9125 303.707 35.1658 304.112 34.1738 304.112ZM35.7738 302.832C35.9978 302.832 36.1951 302.741 36.3658 302.56V299.184C36.2698 299.344 36.0938 299.552 35.8378 299.808C35.5498 300.085 35.3311 300.357 35.1818 300.624C35.0325 300.88 34.9578 301.232 34.9578 301.68C34.9578 302.448 35.2298 302.832 35.7738 302.832ZM49.0258 302.256C49.0258 302.747 49.0898 303.104 49.2178 303.328C49.3565 303.552 49.5911 303.664 49.9218 303.664V304C49.5911 303.968 49.2605 303.952 48.9298 303.952C47.8205 303.952 46.8925 304.027 46.1458 304.176V303.024C45.6658 303.824 44.8178 304.224 43.6018 304.224C42.7485 304.224 42.1458 304.011 41.7938 303.584C41.6338 303.392 41.5165 303.136 41.4418 302.816C41.3671 302.485 41.3298 302.053 41.3298 301.52V297.44C41.3298 296.949 41.2605 296.592 41.1218 296.368C40.9938 296.144 40.7645 296.032 40.4338 296.032V295.696C40.7645 295.728 41.0951 295.744 41.4258 295.744C42.5351 295.744 43.4631 295.669 44.2098 295.52V302.384C44.2098 302.725 44.2685 302.981 44.3858 303.152C44.5138 303.312 44.7165 303.392 44.9938 303.392C45.3031 303.392 45.5698 303.285 45.7938 303.072C46.0285 302.848 46.1458 302.571 46.1458 302.24V297.44C46.1458 296.949 46.0765 296.592 45.9378 296.368C45.8098 296.144 45.5805 296.032 45.2498 296.032V295.696C45.5805 295.728 45.9111 295.744 46.2418 295.744C47.3511 295.744 48.2791 295.669 49.0258 295.52V302.256ZM57.2212 295.76C57.8292 295.76 58.2399 295.739 58.4532 295.696V296.032C58.2292 296.107 58.0212 296.261 57.8292 296.496C57.6479 296.731 57.4772 297.093 57.3172 297.584L55.1572 304C54.9865 303.979 54.7305 303.968 54.3892 303.968C54.0372 303.968 53.7759 303.979 53.6052 304L50.8212 296.928C50.5865 296.331 50.2772 296.032 49.8932 296.032V295.696C50.7359 295.76 51.6852 295.792 52.7412 295.792C53.2745 295.792 53.9679 295.76 54.8212 295.696V296.032C54.4905 296.032 54.2505 296.053 54.1012 296.096C53.9625 296.139 53.8932 296.251 53.8932 296.432C53.8932 296.464 53.9039 296.533 53.9252 296.64L55.6692 301.488L56.4052 299.28C56.6079 298.661 56.7092 298.117 56.7092 297.648C56.7092 297.147 56.6025 296.757 56.3892 296.48C56.1759 296.203 55.8932 296.053 55.5412 296.032V295.696C55.9359 295.739 56.4959 295.76 57.2212 295.76ZM61.0057 291.488C61.5604 291.488 61.987 291.605 62.2857 291.84C62.595 292.075 62.7497 292.416 62.7497 292.864C62.7497 293.312 62.595 293.653 62.2857 293.888C61.987 294.123 61.5604 294.24 61.0057 294.24C60.4404 294.24 60.0084 294.123 59.7097 293.888C59.411 293.653 59.2617 293.312 59.2617 292.864C59.2617 292.416 59.411 292.075 59.7097 291.84C60.0084 291.605 60.4404 291.488 61.0057 291.488ZM62.5417 302.512C62.5417 302.949 62.6057 303.253 62.7337 303.424C62.8724 303.584 63.107 303.664 63.4377 303.664V304C62.2857 303.957 61.5284 303.936 61.1657 303.936C60.803 303.936 60.003 303.957 58.7657 304V303.664C59.0964 303.664 59.3257 303.584 59.4537 303.424C59.5924 303.253 59.6617 302.949 59.6617 302.512V297.44C59.6617 296.949 59.5924 296.592 59.4537 296.368C59.3257 296.144 59.0964 296.032 58.7657 296.032V295.696C59.107 295.728 59.4377 295.744 59.7577 295.744C60.867 295.744 61.795 295.669 62.5417 295.52V302.512ZM71.9669 297.312C71.7429 297.312 71.5456 297.237 71.3749 297.088C71.2149 296.928 71.1349 296.709 71.1349 296.432C71.1349 296.176 71.2096 295.899 71.3589 295.6C70.8896 295.792 70.5429 296.064 70.3189 296.416C70.7136 296.832 70.9109 297.371 70.9109 298.032C70.9109 298.875 70.5963 299.515 69.9669 299.952C69.3483 300.379 68.5163 300.592 67.4709 300.592C67.2683 300.592 67.1189 300.587 67.0229 300.576C66.7456 300.768 66.6069 300.992 66.6069 301.248C66.6069 301.589 66.7989 301.76 67.1829 301.76H68.7349C69.8229 301.76 70.6709 301.947 71.2789 302.32C71.8976 302.683 72.2069 303.253 72.2069 304.032C72.2069 304.587 72.0256 305.088 71.6629 305.536C71.3109 305.984 70.7616 306.341 70.0149 306.608C69.2789 306.875 68.3563 307.008 67.2469 307.008C66.1483 307.008 65.2843 306.885 64.6549 306.64C64.0256 306.395 63.7109 306.048 63.7109 305.6C63.7109 305.291 63.8656 305.008 64.1749 304.752C64.4843 304.496 64.9536 304.293 65.5829 304.144L65.7429 304.4C65.4549 304.752 65.3109 305.093 65.3109 305.424C65.3109 305.84 65.4976 306.16 65.8709 306.384C66.2549 306.619 66.7883 306.736 67.4709 306.736C68.1749 306.736 68.7136 306.592 69.0869 306.304C69.4709 306.027 69.6629 305.653 69.6629 305.184C69.6629 304.853 69.5349 304.587 69.2789 304.384C69.0336 304.192 68.5963 304.096 67.9669 304.096H67.1029C66.3776 304.096 65.8229 303.957 65.4389 303.68C65.0549 303.403 64.8629 303.029 64.8629 302.56C64.8629 302.133 65.0123 301.76 65.3109 301.44C65.6203 301.12 66.0629 300.821 66.6389 300.544C65.8283 300.437 65.1883 300.176 64.7189 299.76C64.2603 299.333 64.0309 298.757 64.0309 298.032C64.0309 297.189 64.3403 296.555 64.9589 296.128C65.5883 295.691 66.4256 295.472 67.4709 295.472C68.5909 295.472 69.4549 295.707 70.0629 296.176C70.2656 295.899 70.5109 295.68 70.7989 295.52C71.0869 295.36 71.3909 295.28 71.7109 295.28C72.0629 295.28 72.3349 295.381 72.5269 295.584C72.7189 295.776 72.8149 296.027 72.8149 296.336C72.8149 296.635 72.7349 296.875 72.5749 297.056C72.4149 297.227 72.2123 297.312 71.9669 297.312ZM67.4709 300.304C67.6843 300.304 67.8443 300.133 67.9509 299.792C68.0683 299.44 68.1269 298.853 68.1269 298.032C68.1269 297.211 68.0683 296.629 67.9509 296.288C67.8443 295.936 67.6843 295.76 67.4709 295.76C67.2576 295.76 67.0923 295.936 66.9749 296.288C66.8683 296.629 66.8149 297.211 66.8149 298.032C66.8149 298.853 66.8683 299.44 66.9749 299.792C67.0923 300.133 67.2576 300.304 67.4709 300.304ZM79.4919 295.472C80.3453 295.472 80.9479 295.685 81.2999 296.112C81.4599 296.304 81.5773 296.565 81.6519 296.896C81.7266 297.216 81.7639 297.643 81.7639 298.176V302.512C81.7639 302.949 81.8279 303.253 81.9559 303.424C82.0946 303.584 82.3293 303.664 82.6599 303.664V304C81.5079 303.957 80.7613 303.936 80.4199 303.936C80.0573 303.936 79.2999 303.957 78.1479 304V303.664C78.4253 303.664 78.6173 303.584 78.7239 303.424C78.8306 303.253 78.8839 302.949 78.8839 302.512V297.312C78.8839 296.971 78.8199 296.72 78.6919 296.56C78.5746 296.389 78.3773 296.304 78.0999 296.304C77.7906 296.304 77.5186 296.416 77.2839 296.64C77.0599 296.853 76.9479 297.125 76.9479 297.456V302.512C76.9479 302.949 77.0013 303.253 77.1079 303.424C77.2146 303.584 77.4066 303.664 77.6839 303.664V304C76.6173 303.957 75.9133 303.936 75.5719 303.936C75.2093 303.936 74.4093 303.957 73.1719 304V303.664C73.5026 303.664 73.7319 303.584 73.8599 303.424C73.9986 303.253 74.0679 302.949 74.0679 302.512V297.44C74.0679 296.949 73.9986 296.592 73.8599 296.368C73.7319 296.144 73.5026 296.032 73.1719 296.032V295.696C73.5133 295.728 73.8439 295.744 74.1639 295.744C75.2733 295.744 76.2013 295.669 76.9479 295.52V296.672C77.4279 295.872 78.2759 295.472 79.4919 295.472ZM87.4439 295.472C88.7559 295.472 89.7693 295.819 90.4839 296.512C91.1986 297.195 91.5559 298.309 91.5559 299.856C91.5559 301.403 91.1986 302.517 90.4839 303.2C89.7693 303.883 88.7559 304.224 87.4439 304.224C86.1319 304.224 85.1186 303.883 84.4039 303.2C83.6893 302.517 83.3319 301.403 83.3319 299.856C83.3319 298.309 83.6893 297.195 84.4039 296.512C85.1186 295.819 86.1319 295.472 87.4439 295.472ZM87.4439 295.792C87.1026 295.792 86.8306 296.128 86.6279 296.8C86.4253 297.472 86.3239 298.491 86.3239 299.856C86.3239 301.221 86.4253 302.24 86.6279 302.912C86.8306 303.573 87.1026 303.904 87.4439 303.904C87.7853 303.904 88.0573 303.573 88.2599 302.912C88.4626 302.24 88.5639 301.221 88.5639 299.856C88.5639 298.491 88.4626 297.472 88.2599 296.8C88.0573 296.128 87.7853 295.792 87.4439 295.792ZM98.7107 295.472C99.564 295.472 100.167 295.685 100.519 296.112C100.679 296.304 100.796 296.565 100.871 296.896C100.945 297.216 100.983 297.643 100.983 298.176V302.512C100.983 302.949 101.047 303.253 101.175 303.424C101.313 303.584 101.548 303.664 101.879 303.664V304C100.727 303.957 99.98 303.936 99.6387 303.936C99.276 303.936 98.5187 303.957 97.3667 304V303.664C97.644 303.664 97.836 303.584 97.9427 303.424C98.0494 303.253 98.1027 302.949 98.1027 302.512V297.312C98.1027 296.971 98.0387 296.72 97.9107 296.56C97.7934 296.389 97.596 296.304 97.3187 296.304C97.0094 296.304 96.7374 296.416 96.5027 296.64C96.2787 296.853 96.1667 297.125 96.1667 297.456V302.512C96.1667 302.949 96.22 303.253 96.3267 303.424C96.4334 303.584 96.6254 303.664 96.9027 303.664V304C95.836 303.957 95.132 303.936 94.7907 303.936C94.428 303.936 93.628 303.957 92.3907 304V303.664C92.7214 303.664 92.9507 303.584 93.0787 303.424C93.2174 303.253 93.2867 302.949 93.2867 302.512V297.44C93.2867 296.949 93.2174 296.592 93.0787 296.368C92.9507 296.144 92.7214 296.032 92.3907 296.032V295.696C92.732 295.728 93.0627 295.744 93.3827 295.744C94.492 295.744 95.42 295.669 96.1667 295.52V296.672C96.6467 295.872 97.4947 295.472 98.7107 295.472Z" fill="#786F84"/>
</svg>
