<svg width="124" height="495" viewBox="0 0 124 495" fill="none" xmlns="http://www.w3.org/2000/svg">
<path d="M54.2696 0.30429C45.2697 0.801995 43.1545 1.21674 41.6614 2.75126C40.4587 3.954 40.3757 4.20287 40.2513 7.85258C40.1269 10.7972 39.9195 11.8756 39.3389 12.4976C38.7583 13.1613 38.5509 14.447 38.3435 19.5897C38.0532 25.562 38.0947 25.9352 38.9656 27.4283C40.0025 29.1703 40.0025 28.3822 38.7168 70.5614C38.385 81.2617 38.0947 93.3721 38.0947 97.3951C38.0947 106.188 37.4311 116.349 36.6016 120.33C35.5233 125.763 34.1546 127.796 26.2331 135.925C15.1595 147.288 9.7264 155.334 5.82784 166.159C2.46844 175.532 1.68043 179.929 1.18274 192.288C-0.0614804 223.31 -0.476221 475.929 0.685053 477.339C0.933897 477.629 1.68043 479.62 2.38549 481.777C4.70804 488.993 5.95226 490.196 12.3807 491.689C21.5465 493.846 34.9426 494.634 63.6012 494.634C99.7666 494.634 111.545 493.182 117.476 487.956C118.596 487.003 119.176 485.883 120.172 482.897C121.831 477.795 122.204 475.39 122.66 466.846C122.909 462.699 123.117 400.197 123.158 321.894C123.282 178.104 123.365 183.246 121.623 175.698C119.757 167.528 115.402 157.947 109.845 149.569C107.025 145.339 105.075 143.058 99.3519 137.335C92.2598 130.201 90.9326 128.501 89.481 124.644C87.3659 119.128 86.7438 112.989 86.2046 93.1647C85.8313 79.6442 84.9604 51.4418 84.3797 35.0181C84.2138 29.9997 84.2553 29.6265 85.2092 27.8431C86.1216 26.1012 86.2046 25.479 86.2046 20.2119C86.2046 14.7788 86.1631 14.447 85.1677 13.1198C84.2553 11.8756 84.1309 11.2949 84.1309 8.30878C84.1309 6.27656 83.882 4.32729 83.5088 3.45634C82.9281 2.08769 82.7208 1.96327 79.9005 1.29965C74.2186 0.0139575 65.4676 -0.31783 54.2696 0.30429Z" fill="#D0CCD2"/>
<rect x="1" y="212" width="122" height="151" fill="#EFEEEE"/>
<path d="M29.984 325.54C30.344 325.54 30.644 325.528 30.884 325.504V325.744C30.436 325.848 30.12 326.196 29.936 326.788L27.668 334.06H27.572H27.476L25.388 327.88L23.48 334.06H23.384H23.288L20.744 326.512C20.576 326.016 20.3 325.76 19.916 325.744V325.504C20.244 325.528 20.672 325.54 21.2 325.54C21.776 325.54 22.208 325.528 22.496 325.504V325.744C22.28 325.76 22.128 325.8 22.04 325.864C21.952 325.928 21.908 326.028 21.908 326.164C21.908 326.292 21.952 326.488 22.04 326.752L23.792 332.104L25.256 327.46L24.932 326.512C24.772 326.016 24.536 325.76 24.224 325.744V325.504C24.512 325.528 24.9 325.54 25.388 325.54C26.076 325.54 26.588 325.528 26.924 325.504V325.744C26.62 325.76 26.408 325.796 26.288 325.852C26.168 325.9 26.108 326.008 26.108 326.176C26.108 326.32 26.148 326.512 26.228 326.752L27.956 332.092L29.432 327.448C29.56 327.056 29.624 326.732 29.624 326.476C29.624 326.212 29.544 326.028 29.384 325.924C29.224 325.812 28.964 325.752 28.604 325.744V325.504C29.06 325.528 29.52 325.54 29.984 325.54ZM36.9876 332.992C37.1796 333.488 37.4556 333.744 37.8156 333.76V334C37.4956 333.976 37.0676 333.964 36.5316 333.964C35.8436 333.964 35.3316 333.976 34.9956 334V333.76C35.2996 333.744 35.5156 333.708 35.6436 333.652C35.7796 333.588 35.8476 333.476 35.8476 333.316C35.8476 333.18 35.7996 332.992 35.7036 332.752L34.9716 330.784H32.0676L31.5756 332.056C31.4156 332.488 31.3356 332.816 31.3356 333.04C31.3356 333.288 31.4196 333.468 31.5876 333.58C31.7636 333.692 32.0276 333.752 32.3796 333.76V334C31.9236 333.976 31.4636 333.964 30.9996 333.964C30.6396 333.964 30.3396 333.976 30.0996 334V333.76C30.4996 333.664 30.8156 333.316 31.0476 332.716L33.8676 325.444H34.0596L36.9876 332.992ZM34.8756 330.544L33.5316 326.956L32.1636 330.544H34.8756ZM45.5478 325.744C45.2678 325.76 45.0598 325.804 44.9238 325.876C44.7878 325.94 44.6958 326.052 44.6478 326.212C44.5998 326.364 44.5758 326.592 44.5758 326.896V334.06H44.2998L39.2598 326.272V332.608C39.2598 332.92 39.2838 333.152 39.3318 333.304C39.3878 333.456 39.4918 333.568 39.6438 333.64C39.7958 333.704 40.0318 333.744 40.3518 333.76V334C40.0638 333.976 39.6558 333.964 39.1278 333.964C38.6478 333.964 38.2758 333.976 38.0118 334V333.76C38.2918 333.744 38.4998 333.704 38.6358 333.64C38.7718 333.568 38.8638 333.456 38.9118 333.304C38.9598 333.144 38.9838 332.912 38.9838 332.608V326.776C38.9838 326.472 38.9598 326.252 38.9118 326.116C38.8638 325.98 38.7718 325.888 38.6358 325.84C38.5078 325.792 38.2998 325.76 38.0118 325.744V325.504C38.2758 325.528 38.6478 325.54 39.1278 325.54C39.4878 325.54 39.7998 325.528 40.0638 325.504L44.2998 332.032V326.896C44.2998 326.584 44.2718 326.352 44.2158 326.2C44.1678 326.048 44.0678 325.94 43.9158 325.876C43.7638 325.804 43.5278 325.76 43.2078 325.744V325.504C43.4958 325.528 43.9038 325.54 44.4318 325.54C44.9118 325.54 45.2838 325.528 45.5478 325.504V325.744ZM50.4104 325.336C50.8824 325.336 51.2704 325.404 51.5744 325.54C51.8784 325.668 52.2104 325.86 52.5704 326.116C52.6744 326.196 52.7544 326.236 52.8104 326.236C52.9624 326.236 53.0624 325.992 53.1104 325.504H53.3864C53.3544 326.024 53.3384 326.944 53.3384 328.264H53.0624C52.9904 327.84 52.9144 327.492 52.8344 327.22C52.7544 326.94 52.6304 326.696 52.4624 326.488C52.2304 326.2 51.9264 325.972 51.5504 325.804C51.1824 325.636 50.7944 325.552 50.3864 325.552C49.8584 325.552 49.3944 325.724 48.9944 326.068C48.5944 326.412 48.2864 326.904 48.0704 327.544C47.8544 328.176 47.7464 328.916 47.7464 329.764C47.7464 331.204 47.9744 332.26 48.4304 332.932C48.8944 333.596 49.6184 333.928 50.6024 333.928C51.0824 333.928 51.4984 333.804 51.8504 333.556C51.9944 333.46 52.0864 333.368 52.1264 333.28C52.1744 333.184 52.1984 333.056 52.1984 332.896V331.744C52.1984 331.408 52.1664 331.164 52.1024 331.012C52.0384 330.86 51.9264 330.756 51.7664 330.7C51.6064 330.644 51.3464 330.608 50.9864 330.592V330.352C51.4024 330.376 51.9664 330.388 52.6784 330.388C53.2224 330.388 53.6384 330.376 53.9264 330.352V330.592C53.7424 330.608 53.6064 330.64 53.5184 330.688C53.4384 330.736 53.3824 330.828 53.3504 330.964C53.3264 331.1 53.3144 331.32 53.3144 331.624V334H53.0744C53.0664 333.84 53.0344 333.688 52.9784 333.544C52.9224 333.392 52.8464 333.316 52.7504 333.316C52.7024 333.316 52.6544 333.328 52.6064 333.352C52.5584 333.376 52.4744 333.432 52.3544 333.52C52.0744 333.736 51.7824 333.896 51.4784 334C51.1824 334.112 50.8504 334.168 50.4824 334.168C49.6584 334.168 48.9504 334 48.3584 333.664C47.7744 333.32 47.3264 332.828 47.0144 332.188C46.7024 331.548 46.5464 330.784 46.5464 329.896C46.5464 328.984 46.7104 328.184 47.0384 327.496C47.3744 326.8 47.8344 326.268 48.4184 325.9C49.0024 325.524 49.6664 325.336 50.4104 325.336ZM66.9098 325.54C67.2698 325.54 67.5698 325.528 67.8098 325.504V325.744C67.3618 325.848 67.0458 326.196 66.8618 326.788L64.5938 334.06H64.4978H64.4018L62.3138 327.88L60.4058 334.06H60.3098H60.2138L57.6698 326.512C57.5018 326.016 57.2258 325.76 56.8418 325.744V325.504C57.1698 325.528 57.5978 325.54 58.1258 325.54C58.7018 325.54 59.1338 325.528 59.4218 325.504V325.744C59.2058 325.76 59.0538 325.8 58.9658 325.864C58.8778 325.928 58.8338 326.028 58.8338 326.164C58.8338 326.292 58.8778 326.488 58.9658 326.752L60.7178 332.104L62.1818 327.46L61.8578 326.512C61.6978 326.016 61.4618 325.76 61.1498 325.744V325.504C61.4378 325.528 61.8258 325.54 62.3138 325.54C63.0018 325.54 63.5138 325.528 63.8498 325.504V325.744C63.5458 325.76 63.3338 325.796 63.2138 325.852C63.0938 325.9 63.0338 326.008 63.0338 326.176C63.0338 326.32 63.0738 326.512 63.1538 326.752L64.8818 332.092L66.3578 327.448C66.4858 327.056 66.5498 326.732 66.5498 326.476C66.5498 326.212 66.4698 326.028 66.3098 325.924C66.1498 325.812 65.8898 325.752 65.5298 325.744V325.504C65.9858 325.528 66.4458 325.54 66.9098 325.54ZM71.3531 325.744C71.0651 325.76 70.8531 325.792 70.7171 325.84C70.5891 325.888 70.5011 325.98 70.4531 326.116C70.4051 326.252 70.3811 326.472 70.3811 326.776V332.728C70.3811 333.032 70.4051 333.252 70.4531 333.388C70.5011 333.524 70.5891 333.616 70.7171 333.664C70.8531 333.712 71.0651 333.744 71.3531 333.76V334C70.9851 333.976 70.4771 333.964 69.8291 333.964C69.1411 333.964 68.6291 333.976 68.2931 334V333.76C68.5811 333.744 68.7891 333.712 68.9171 333.664C69.0531 333.616 69.1451 333.524 69.1931 333.388C69.2411 333.252 69.2651 333.032 69.2651 332.728V326.776C69.2651 326.472 69.2411 326.252 69.1931 326.116C69.1451 325.98 69.0531 325.888 68.9171 325.84C68.7891 325.792 68.5811 325.76 68.2931 325.744V325.504C68.6291 325.528 69.1411 325.54 69.8291 325.54C70.4691 325.54 70.9771 325.528 71.3531 325.504V325.744ZM79.8955 325.744C79.6155 325.76 79.4075 325.804 79.2715 325.876C79.1355 325.94 79.0435 326.052 78.9955 326.212C78.9475 326.364 78.9235 326.592 78.9235 326.896V334.06H78.6475L73.6075 326.272V332.608C73.6075 332.92 73.6315 333.152 73.6795 333.304C73.7355 333.456 73.8395 333.568 73.9915 333.64C74.1435 333.704 74.3795 333.744 74.6995 333.76V334C74.4115 333.976 74.0035 333.964 73.4755 333.964C72.9955 333.964 72.6235 333.976 72.3595 334V333.76C72.6395 333.744 72.8475 333.704 72.9835 333.64C73.1195 333.568 73.2115 333.456 73.2595 333.304C73.3075 333.144 73.3315 332.912 73.3315 332.608V326.776C73.3315 326.472 73.3075 326.252 73.2595 326.116C73.2115 325.98 73.1195 325.888 72.9835 325.84C72.8555 325.792 72.6475 325.76 72.3595 325.744V325.504C72.6235 325.528 72.9955 325.54 73.4755 325.54C73.8355 325.54 74.1475 325.528 74.4115 325.504L78.6475 332.032V326.896C78.6475 326.584 78.6195 326.352 78.5635 326.2C78.5155 326.048 78.4155 325.94 78.2635 325.876C78.1115 325.804 77.8755 325.76 77.5555 325.744V325.504C77.8435 325.528 78.2515 325.54 78.7795 325.54C79.2595 325.54 79.6315 325.528 79.8955 325.504V325.744ZM86.9761 332.464C86.9761 332.92 87.0041 333.432 87.0601 334C86.5161 333.976 85.6001 333.964 84.3121 333.964C82.7761 333.964 81.6161 333.976 80.8321 334V333.76C81.1201 333.744 81.3281 333.712 81.4561 333.664C81.5921 333.616 81.6841 333.524 81.7321 333.388C81.7801 333.252 81.8041 333.032 81.8041 332.728V326.776C81.8041 326.472 81.7801 326.252 81.7321 326.116C81.6841 325.98 81.5921 325.888 81.4561 325.84C81.3281 325.792 81.1201 325.76 80.8321 325.744V325.504C81.6161 325.528 82.7761 325.54 84.3121 325.54C85.4881 325.54 86.3241 325.528 86.8201 325.504C86.7641 326.032 86.7361 326.504 86.7361 326.92C86.7361 327.232 86.7481 327.48 86.7721 327.664H86.4961C86.4401 327.144 86.3681 326.76 86.2801 326.512C86.1921 326.256 86.0441 326.072 85.8361 325.96C85.6281 325.84 85.3121 325.78 84.8881 325.78H83.8921C83.6041 325.78 83.3921 325.804 83.2561 325.852C83.1281 325.892 83.0401 325.98 82.9921 326.116C82.9441 326.252 82.9201 326.472 82.9201 326.776V329.608H83.7121C83.9921 329.608 84.2081 329.544 84.3601 329.416C84.5121 329.28 84.6121 329.124 84.6601 328.948C84.7161 328.764 84.7601 328.536 84.7921 328.264L84.8281 328.024H85.1041C85.0801 328.36 85.0681 328.736 85.0681 329.152V329.728C85.0681 330.136 85.0921 330.704 85.1401 331.432H84.8641C84.8561 331.376 84.8321 331.184 84.7921 330.856C84.7521 330.52 84.6401 330.268 84.4561 330.1C84.2801 329.932 84.0321 329.848 83.7121 329.848H82.9201V332.728C82.9201 333.032 82.9441 333.252 82.9921 333.388C83.0401 333.524 83.1281 333.616 83.2561 333.664C83.3921 333.704 83.6041 333.724 83.8921 333.724H84.7681C85.2641 333.724 85.6401 333.66 85.8961 333.532C86.1601 333.396 86.3521 333.184 86.4721 332.896C86.5921 332.6 86.6801 332.168 86.7361 331.6H87.0121C86.9881 331.816 86.9761 332.104 86.9761 332.464ZM95.5606 333.4C95.3766 333.672 95.1926 333.868 95.0086 333.988C94.8246 334.108 94.5806 334.168 94.2766 334.168C93.9486 334.168 93.6766 334.072 93.4606 333.88C93.2526 333.688 93.0966 333.352 92.9926 332.872L92.7286 331.672C92.6326 331.256 92.5406 330.936 92.4526 330.712C92.3726 330.488 92.2486 330.308 92.0806 330.172C91.9126 330.036 91.6766 329.968 91.3726 329.968H90.2326V332.728C90.2326 333.032 90.2566 333.252 90.3046 333.388C90.3526 333.524 90.4406 333.616 90.5686 333.664C90.7046 333.712 90.9166 333.744 91.2046 333.76V334C90.8366 333.976 90.3286 333.964 89.6806 333.964C88.9926 333.964 88.4806 333.976 88.1446 334V333.76C88.4326 333.744 88.6406 333.712 88.7686 333.664C88.9046 333.616 88.9966 333.524 89.0446 333.388C89.0926 333.252 89.1166 333.032 89.1166 332.728V326.776C89.1166 326.472 89.0926 326.252 89.0446 326.116C88.9966 325.98 88.9046 325.888 88.7686 325.84C88.6406 325.792 88.4326 325.76 88.1446 325.744V325.504C88.4806 325.528 88.9686 325.54 89.6086 325.54L90.9046 325.528C91.0566 325.52 91.2286 325.516 91.4206 325.516C92.3486 325.516 93.0606 325.712 93.5566 326.104C94.0606 326.488 94.3126 326.988 94.3126 327.604C94.3126 327.916 94.2366 328.232 94.0846 328.552C93.9406 328.864 93.6926 329.148 93.3406 329.404C92.9966 329.652 92.5446 329.82 91.9846 329.908L92.1286 329.932C92.6566 330.02 93.0406 330.18 93.2806 330.412C93.5206 330.644 93.6966 331.012 93.8086 331.516L94.1086 332.74C94.1886 333.108 94.2726 333.364 94.3606 333.508C94.4486 333.652 94.5686 333.724 94.7206 333.724C94.8566 333.724 94.9686 333.688 95.0566 333.616C95.1526 333.544 95.2606 333.428 95.3806 333.268L95.5606 333.4ZM91.1206 325.744C90.8726 325.744 90.6846 325.772 90.5566 325.828C90.4366 325.884 90.3526 325.984 90.3046 326.128C90.2566 326.272 90.2326 326.488 90.2326 326.776V329.728H91.0366C91.8286 329.728 92.3726 329.552 92.6686 329.2C92.9646 328.848 93.1126 328.36 93.1126 327.736C93.1126 327.08 92.9566 326.584 92.6446 326.248C92.3326 325.912 91.8246 325.744 91.1206 325.744ZM101.027 325.54C101.387 325.54 101.687 325.528 101.927 325.504V325.744C101.767 325.784 101.611 325.888 101.459 326.056C101.307 326.216 101.143 326.468 100.967 326.812L99.0831 330.544V332.728C99.0831 333.032 99.1071 333.252 99.1551 333.388C99.2031 333.524 99.2911 333.616 99.4191 333.664C99.5551 333.712 99.7671 333.744 100.055 333.76V334C99.6871 333.976 99.1791 333.964 98.5311 333.964C97.8431 333.964 97.3311 333.976 96.9951 334V333.76C97.2831 333.744 97.4911 333.712 97.6191 333.664C97.7551 333.616 97.8471 333.524 97.8951 333.388C97.9431 333.252 97.9671 333.032 97.9671 332.728V330.928L95.5311 326.428C95.3871 326.164 95.2591 325.988 95.1471 325.9C95.0431 325.804 94.9391 325.756 94.8351 325.756V325.504C95.1471 325.528 95.4991 325.54 95.8911 325.54C96.6671 325.54 97.2271 325.528 97.5711 325.504V325.756C97.0111 325.756 96.7311 325.908 96.7311 326.212C96.7311 326.332 96.7711 326.472 96.8511 326.632L98.8431 330.46L100.379 327.412C100.595 326.988 100.703 326.644 100.703 326.38C100.703 326.156 100.615 325.996 100.439 325.9C100.263 325.804 99.9991 325.752 99.6471 325.744V325.504C100.103 325.528 100.563 325.54 101.027 325.54Z" fill="#786F84"/>
<path d="M26.7773 271.448C27.3853 271.448 27.876 271.507 28.2493 271.624C28.6333 271.731 29.0066 271.885 29.3693 272.088C29.4866 272.152 29.588 272.205 29.6733 272.248C29.7693 272.291 29.8493 272.312 29.9133 272.312C30.0093 272.312 30.084 272.259 30.1373 272.152C30.1906 272.035 30.2333 271.853 30.2653 271.608H30.6333C30.58 272.376 30.5533 273.677 30.5533 275.512H30.1853C30.1426 274.904 30.004 274.323 29.7693 273.768C29.5346 273.213 29.2146 272.76 28.8093 272.408C28.404 272.056 27.9346 271.88 27.4013 271.88C26.9106 271.88 26.516 272.013 26.2173 272.28C25.9186 272.536 25.7693 272.899 25.7693 273.368C25.7693 273.731 25.8493 274.045 26.0093 274.312C26.1693 274.579 26.404 274.84 26.7133 275.096C27.0226 275.341 27.5293 275.709 28.2333 276.2C28.2973 276.232 28.356 276.269 28.4093 276.312C28.4733 276.355 28.532 276.397 28.5853 276.44C29.172 276.845 29.6413 277.208 29.9933 277.528C30.3453 277.837 30.628 278.2 30.8413 278.616C31.0653 279.032 31.1773 279.512 31.1773 280.056C31.1773 280.749 30.98 281.336 30.5853 281.816C30.2013 282.285 29.6786 282.637 29.0173 282.872C28.356 283.107 27.6253 283.224 26.8253 283.224C26.1746 283.224 25.6306 283.171 25.1933 283.064C24.7666 282.957 24.3666 282.813 23.9933 282.632C23.7586 282.483 23.5773 282.408 23.4493 282.408C23.3533 282.408 23.2786 282.467 23.2253 282.584C23.172 282.691 23.1293 282.867 23.0973 283.112H22.7293C22.772 282.387 22.7933 280.84 22.7933 278.472H23.1613C23.236 279.741 23.5026 280.771 23.9613 281.56C24.42 282.349 25.124 282.744 26.0733 282.744C26.66 282.744 27.124 282.605 27.4653 282.328C27.8173 282.051 27.9933 281.667 27.9933 281.176C27.9933 280.568 27.8013 280.051 27.4173 279.624C27.044 279.187 26.4573 278.701 25.6573 278.168C25.0173 277.741 24.5053 277.368 24.1213 277.048C23.7373 276.728 23.4226 276.36 23.1773 275.944C22.932 275.517 22.8093 275.027 22.8093 274.472C22.8093 273.8 22.9906 273.24 23.3533 272.792C23.716 272.333 24.196 271.997 24.7933 271.784C25.4013 271.56 26.0626 271.448 26.7773 271.448ZM34.1738 283.112C33.4911 283.112 32.9738 282.931 32.6218 282.568C32.2805 282.195 32.1098 281.731 32.1098 281.176C32.1098 280.696 32.2325 280.301 32.4778 279.992C32.7338 279.672 33.0325 279.427 33.3738 279.256C33.7151 279.085 34.1578 278.909 34.7018 278.728C35.2778 278.536 35.6991 278.36 35.9658 278.2C36.2325 278.04 36.3658 277.816 36.3658 277.528V276.104C36.3658 275.763 36.2805 275.459 36.1098 275.192C35.9391 274.925 35.6458 274.792 35.2298 274.792C34.8991 274.792 34.6005 274.883 34.3338 275.064C34.6965 275.192 34.9631 275.384 35.1338 275.64C35.3151 275.885 35.4058 276.163 35.4058 276.472C35.4058 276.888 35.2565 277.224 34.9578 277.48C34.6698 277.725 34.3178 277.848 33.9018 277.848C33.4858 277.848 33.1551 277.72 32.9098 277.464C32.6751 277.197 32.5578 276.861 32.5578 276.456C32.5578 276.136 32.6378 275.859 32.7978 275.624C32.9578 275.389 33.2085 275.176 33.5498 274.984C34.1471 274.643 35.0005 274.472 36.1098 274.472C36.6965 274.472 37.2031 274.531 37.6298 274.648C38.0565 274.755 38.4191 274.963 38.7178 275.272C38.9311 275.496 39.0698 275.779 39.1338 276.12C39.2085 276.451 39.2458 276.915 39.2458 277.512V281.8C39.2458 282.067 39.2618 282.248 39.2938 282.344C39.3365 282.44 39.4058 282.488 39.5018 282.488C39.5765 282.488 39.6565 282.467 39.7418 282.424C39.8271 282.371 39.9071 282.312 39.9818 282.248L40.1418 282.52C39.6831 282.915 39.0271 283.112 38.1738 283.112C37.5338 283.112 37.0858 283.005 36.8298 282.792C36.5738 282.568 36.4351 282.269 36.4138 281.896C35.9125 282.707 35.1658 283.112 34.1738 283.112ZM35.7738 281.832C35.9978 281.832 36.1951 281.741 36.3658 281.56V278.184C36.2698 278.344 36.0938 278.552 35.8378 278.808C35.5498 279.085 35.3311 279.357 35.1818 279.624C35.0325 279.88 34.9578 280.232 34.9578 280.68C34.9578 281.448 35.2298 281.832 35.7738 281.832ZM49.0258 281.256C49.0258 281.747 49.0898 282.104 49.2178 282.328C49.3565 282.552 49.5911 282.664 49.9218 282.664V283C49.5911 282.968 49.2605 282.952 48.9298 282.952C47.8205 282.952 46.8925 283.027 46.1458 283.176V282.024C45.6658 282.824 44.8178 283.224 43.6018 283.224C42.7485 283.224 42.1458 283.011 41.7938 282.584C41.6338 282.392 41.5165 282.136 41.4418 281.816C41.3671 281.485 41.3298 281.053 41.3298 280.52V276.44C41.3298 275.949 41.2605 275.592 41.1218 275.368C40.9938 275.144 40.7645 275.032 40.4338 275.032V274.696C40.7645 274.728 41.0951 274.744 41.4258 274.744C42.5351 274.744 43.4631 274.669 44.2098 274.52V281.384C44.2098 281.725 44.2685 281.981 44.3858 282.152C44.5138 282.312 44.7165 282.392 44.9938 282.392C45.3031 282.392 45.5698 282.285 45.7938 282.072C46.0285 281.848 46.1458 281.571 46.1458 281.24V276.44C46.1458 275.949 46.0765 275.592 45.9378 275.368C45.8098 275.144 45.5805 275.032 45.2498 275.032V274.696C45.5805 274.728 45.9111 274.744 46.2418 274.744C47.3511 274.744 48.2791 274.669 49.0258 274.52V281.256ZM57.2212 274.76C57.8292 274.76 58.2399 274.739 58.4532 274.696V275.032C58.2292 275.107 58.0212 275.261 57.8292 275.496C57.6479 275.731 57.4772 276.093 57.3172 276.584L55.1572 283C54.9865 282.979 54.7305 282.968 54.3892 282.968C54.0372 282.968 53.7759 282.979 53.6052 283L50.8212 275.928C50.5865 275.331 50.2772 275.032 49.8932 275.032V274.696C50.7359 274.76 51.6852 274.792 52.7412 274.792C53.2745 274.792 53.9679 274.76 54.8212 274.696V275.032C54.4905 275.032 54.2505 275.053 54.1012 275.096C53.9625 275.139 53.8932 275.251 53.8932 275.432C53.8932 275.464 53.9039 275.533 53.9252 275.64L55.6692 280.488L56.4052 278.28C56.6079 277.661 56.7092 277.117 56.7092 276.648C56.7092 276.147 56.6025 275.757 56.3892 275.48C56.1759 275.203 55.8932 275.053 55.5412 275.032V274.696C55.9359 274.739 56.4959 274.76 57.2212 274.76ZM61.0057 270.488C61.5604 270.488 61.987 270.605 62.2857 270.84C62.595 271.075 62.7497 271.416 62.7497 271.864C62.7497 272.312 62.595 272.653 62.2857 272.888C61.987 273.123 61.5604 273.24 61.0057 273.24C60.4404 273.24 60.0084 273.123 59.7097 272.888C59.411 272.653 59.2617 272.312 59.2617 271.864C59.2617 271.416 59.411 271.075 59.7097 270.84C60.0084 270.605 60.4404 270.488 61.0057 270.488ZM62.5417 281.512C62.5417 281.949 62.6057 282.253 62.7337 282.424C62.8724 282.584 63.107 282.664 63.4377 282.664V283C62.2857 282.957 61.5284 282.936 61.1657 282.936C60.803 282.936 60.003 282.957 58.7657 283V282.664C59.0964 282.664 59.3257 282.584 59.4537 282.424C59.5924 282.253 59.6617 281.949 59.6617 281.512V276.44C59.6617 275.949 59.5924 275.592 59.4537 275.368C59.3257 275.144 59.0964 275.032 58.7657 275.032V274.696C59.107 274.728 59.4377 274.744 59.7577 274.744C60.867 274.744 61.795 274.669 62.5417 274.52V281.512ZM71.9669 276.312C71.7429 276.312 71.5456 276.237 71.3749 276.088C71.2149 275.928 71.1349 275.709 71.1349 275.432C71.1349 275.176 71.2096 274.899 71.3589 274.6C70.8896 274.792 70.5429 275.064 70.3189 275.416C70.7136 275.832 70.9109 276.371 70.9109 277.032C70.9109 277.875 70.5963 278.515 69.9669 278.952C69.3483 279.379 68.5163 279.592 67.4709 279.592C67.2683 279.592 67.1189 279.587 67.0229 279.576C66.7456 279.768 66.6069 279.992 66.6069 280.248C66.6069 280.589 66.7989 280.76 67.1829 280.76H68.7349C69.8229 280.76 70.6709 280.947 71.2789 281.32C71.8976 281.683 72.2069 282.253 72.2069 283.032C72.2069 283.587 72.0256 284.088 71.6629 284.536C71.3109 284.984 70.7616 285.341 70.0149 285.608C69.2789 285.875 68.3563 286.008 67.2469 286.008C66.1483 286.008 65.2843 285.885 64.6549 285.64C64.0256 285.395 63.7109 285.048 63.7109 284.6C63.7109 284.291 63.8656 284.008 64.1749 283.752C64.4843 283.496 64.9536 283.293 65.5829 283.144L65.7429 283.4C65.4549 283.752 65.3109 284.093 65.3109 284.424C65.3109 284.84 65.4976 285.16 65.8709 285.384C66.2549 285.619 66.7883 285.736 67.4709 285.736C68.1749 285.736 68.7136 285.592 69.0869 285.304C69.4709 285.027 69.6629 284.653 69.6629 284.184C69.6629 283.853 69.5349 283.587 69.2789 283.384C69.0336 283.192 68.5963 283.096 67.9669 283.096H67.1029C66.3776 283.096 65.8229 282.957 65.4389 282.68C65.0549 282.403 64.8629 282.029 64.8629 281.56C64.8629 281.133 65.0123 280.76 65.3109 280.44C65.6203 280.12 66.0629 279.821 66.6389 279.544C65.8283 279.437 65.1883 279.176 64.7189 278.76C64.2603 278.333 64.0309 277.757 64.0309 277.032C64.0309 276.189 64.3403 275.555 64.9589 275.128C65.5883 274.691 66.4256 274.472 67.4709 274.472C68.5909 274.472 69.4549 274.707 70.0629 275.176C70.2656 274.899 70.5109 274.68 70.7989 274.52C71.0869 274.36 71.3909 274.28 71.7109 274.28C72.0629 274.28 72.3349 274.381 72.5269 274.584C72.7189 274.776 72.8149 275.027 72.8149 275.336C72.8149 275.635 72.7349 275.875 72.5749 276.056C72.4149 276.227 72.2123 276.312 71.9669 276.312ZM67.4709 279.304C67.6843 279.304 67.8443 279.133 67.9509 278.792C68.0683 278.44 68.1269 277.853 68.1269 277.032C68.1269 276.211 68.0683 275.629 67.9509 275.288C67.8443 274.936 67.6843 274.76 67.4709 274.76C67.2576 274.76 67.0923 274.936 66.9749 275.288C66.8683 275.629 66.8149 276.211 66.8149 277.032C66.8149 277.853 66.8683 278.44 66.9749 278.792C67.0923 279.133 67.2576 279.304 67.4709 279.304ZM79.4919 274.472C80.3453 274.472 80.9479 274.685 81.2999 275.112C81.4599 275.304 81.5773 275.565 81.6519 275.896C81.7266 276.216 81.7639 276.643 81.7639 277.176V281.512C81.7639 281.949 81.8279 282.253 81.9559 282.424C82.0946 282.584 82.3293 282.664 82.6599 282.664V283C81.5079 282.957 80.7613 282.936 80.4199 282.936C80.0573 282.936 79.2999 282.957 78.1479 283V282.664C78.4253 282.664 78.6173 282.584 78.7239 282.424C78.8306 282.253 78.8839 281.949 78.8839 281.512V276.312C78.8839 275.971 78.8199 275.72 78.6919 275.56C78.5746 275.389 78.3773 275.304 78.0999 275.304C77.7906 275.304 77.5186 275.416 77.2839 275.64C77.0599 275.853 76.9479 276.125 76.9479 276.456V281.512C76.9479 281.949 77.0013 282.253 77.1079 282.424C77.2146 282.584 77.4066 282.664 77.6839 282.664V283C76.6173 282.957 75.9133 282.936 75.5719 282.936C75.2093 282.936 74.4093 282.957 73.1719 283V282.664C73.5026 282.664 73.7319 282.584 73.8599 282.424C73.9986 282.253 74.0679 281.949 74.0679 281.512V276.44C74.0679 275.949 73.9986 275.592 73.8599 275.368C73.7319 275.144 73.5026 275.032 73.1719 275.032V274.696C73.5133 274.728 73.8439 274.744 74.1639 274.744C75.2733 274.744 76.2013 274.669 76.9479 274.52V275.672C77.4279 274.872 78.2759 274.472 79.4919 274.472ZM87.4439 274.472C88.7559 274.472 89.7693 274.819 90.4839 275.512C91.1986 276.195 91.5559 277.309 91.5559 278.856C91.5559 280.403 91.1986 281.517 90.4839 282.2C89.7693 282.883 88.7559 283.224 87.4439 283.224C86.1319 283.224 85.1186 282.883 84.4039 282.2C83.6893 281.517 83.3319 280.403 83.3319 278.856C83.3319 277.309 83.6893 276.195 84.4039 275.512C85.1186 274.819 86.1319 274.472 87.4439 274.472ZM87.4439 274.792C87.1026 274.792 86.8306 275.128 86.6279 275.8C86.4253 276.472 86.3239 277.491 86.3239 278.856C86.3239 280.221 86.4253 281.24 86.6279 281.912C86.8306 282.573 87.1026 282.904 87.4439 282.904C87.7853 282.904 88.0573 282.573 88.2599 281.912C88.4626 281.24 88.5639 280.221 88.5639 278.856C88.5639 277.491 88.4626 276.472 88.2599 275.8C88.0573 275.128 87.7853 274.792 87.4439 274.792ZM98.7107 274.472C99.564 274.472 100.167 274.685 100.519 275.112C100.679 275.304 100.796 275.565 100.871 275.896C100.945 276.216 100.983 276.643 100.983 277.176V281.512C100.983 281.949 101.047 282.253 101.175 282.424C101.313 282.584 101.548 282.664 101.879 282.664V283C100.727 282.957 99.98 282.936 99.6387 282.936C99.276 282.936 98.5187 282.957 97.3667 283V282.664C97.644 282.664 97.836 282.584 97.9427 282.424C98.0494 282.253 98.1027 281.949 98.1027 281.512V276.312C98.1027 275.971 98.0387 275.72 97.9107 275.56C97.7934 275.389 97.596 275.304 97.3187 275.304C97.0094 275.304 96.7374 275.416 96.5027 275.64C96.2787 275.853 96.1667 276.125 96.1667 276.456V281.512C96.1667 281.949 96.22 282.253 96.3267 282.424C96.4334 282.584 96.6254 282.664 96.9027 282.664V283C95.836 282.957 95.132 282.936 94.7907 282.936C94.428 282.936 93.628 282.957 92.3907 283V282.664C92.7214 282.664 92.9507 282.584 93.0787 282.424C93.2174 282.253 93.2867 281.949 93.2867 281.512V276.44C93.2867 275.949 93.2174 275.592 93.0787 275.368C92.9507 275.144 92.7214 275.032 92.3907 275.032V274.696C92.732 274.728 93.0627 274.744 93.3827 274.744C94.492 274.744 95.42 274.669 96.1667 274.52V275.672C96.6467 274.872 97.4947 274.472 98.7107 274.472ZM46.9316 298.064C47.977 298.117 48.8356 298.283 49.5076 298.56C50.1903 298.837 50.6863 299.184 50.9956 299.6C51.305 300.005 51.4596 300.437 51.4596 300.896C51.4596 301.941 51.0436 302.72 50.2116 303.232C49.3796 303.744 48.1956 304 46.6596 304C46.3503 304 46.089 303.995 45.8756 303.984C45.1503 303.963 44.441 303.952 43.7476 303.952C42.4996 303.952 41.5716 303.968 40.9636 304V303.68C41.305 303.659 41.5503 303.616 41.6996 303.552C41.8596 303.488 41.9663 303.365 42.0196 303.184C42.073 303.003 42.0996 302.709 42.0996 302.304V294.368C42.0996 293.963 42.0676 293.669 42.0036 293.488C41.9503 293.307 41.849 293.184 41.6996 293.12C41.5503 293.056 41.305 293.013 40.9636 292.992V292.672C41.5716 292.704 42.489 292.72 43.7156 292.72L45.5556 292.704C45.769 292.693 46.0143 292.688 46.2916 292.688C47.6996 292.688 48.7716 292.917 49.5076 293.376C50.2543 293.824 50.6276 294.432 50.6276 295.2C50.6276 295.595 50.489 295.995 50.2116 296.4C49.9343 296.795 49.5183 297.141 48.9636 297.44C48.409 297.739 47.7316 297.936 46.9316 298.032V298.064ZM46.2116 292.992C45.9663 292.992 45.7796 293.029 45.6516 293.104C45.5343 293.179 45.4543 293.312 45.4116 293.504C45.369 293.696 45.3476 293.984 45.3476 294.368V297.984H45.7796C46.3556 297.984 46.7556 297.749 46.9796 297.28C47.2143 296.8 47.3316 296.165 47.3316 295.376C47.3316 294.565 47.241 293.968 47.0596 293.584C46.889 293.189 46.6063 292.992 46.2116 292.992ZM46.3876 303.632C47.529 303.632 48.0996 302.699 48.0996 300.832C48.0996 299.989 47.897 299.349 47.4916 298.912C47.0863 298.475 46.4463 298.256 45.5716 298.256H45.3476V302.304C45.3476 302.688 45.3743 302.971 45.4276 303.152C45.481 303.333 45.577 303.461 45.7156 303.536C45.865 303.6 46.089 303.632 46.3876 303.632ZM55.7515 302.512C55.7515 302.949 55.8155 303.253 55.9435 303.424C56.0822 303.584 56.3168 303.664 56.6475 303.664V304C55.4955 303.957 54.7382 303.936 54.3755 303.936C54.0128 303.936 53.2128 303.957 51.9755 304V303.664C52.3062 303.664 52.5355 303.584 52.6635 303.424C52.8022 303.253 52.8715 302.949 52.8715 302.512V293.408C52.8715 292.917 52.8022 292.56 52.6635 292.336C52.5355 292.112 52.3062 292 51.9755 292V291.664C52.3062 291.696 52.6368 291.712 52.9675 291.712C54.0768 291.712 55.0048 291.637 55.7515 291.488V302.512ZM59.3535 304.112C58.6708 304.112 58.1535 303.931 57.8015 303.568C57.4602 303.195 57.2895 302.731 57.2895 302.176C57.2895 301.696 57.4122 301.301 57.6575 300.992C57.9135 300.672 58.2122 300.427 58.5535 300.256C58.8948 300.085 59.3375 299.909 59.8815 299.728C60.4575 299.536 60.8788 299.36 61.1455 299.2C61.4122 299.04 61.5455 298.816 61.5455 298.528V297.104C61.5455 296.763 61.4602 296.459 61.2895 296.192C61.1188 295.925 60.8255 295.792 60.4095 295.792C60.0788 295.792 59.7802 295.883 59.5135 296.064C59.8762 296.192 60.1428 296.384 60.3135 296.64C60.4948 296.885 60.5855 297.163 60.5855 297.472C60.5855 297.888 60.4362 298.224 60.1375 298.48C59.8495 298.725 59.4975 298.848 59.0815 298.848C58.6655 298.848 58.3348 298.72 58.0895 298.464C57.8548 298.197 57.7375 297.861 57.7375 297.456C57.7375 297.136 57.8175 296.859 57.9775 296.624C58.1375 296.389 58.3882 296.176 58.7295 295.984C59.3268 295.643 60.1802 295.472 61.2895 295.472C61.8762 295.472 62.3828 295.531 62.8095 295.648C63.2362 295.755 63.5988 295.963 63.8975 296.272C64.1108 296.496 64.2495 296.779 64.3135 297.12C64.3882 297.451 64.4255 297.915 64.4255 298.512V302.8C64.4255 303.067 64.4415 303.248 64.4735 303.344C64.5162 303.44 64.5855 303.488 64.6815 303.488C64.7562 303.488 64.8362 303.467 64.9215 303.424C65.0068 303.371 65.0868 303.312 65.1615 303.248L65.3215 303.52C64.8628 303.915 64.2068 304.112 63.3535 304.112C62.7135 304.112 62.2655 304.005 62.0095 303.792C61.7535 303.568 61.6148 303.269 61.5935 302.896C61.0922 303.707 60.3455 304.112 59.3535 304.112ZM60.9535 302.832C61.1775 302.832 61.3748 302.741 61.5455 302.56V299.184C61.4495 299.344 61.2735 299.552 61.0175 299.808C60.7295 300.085 60.5108 300.357 60.3615 300.624C60.2122 300.88 60.1375 301.232 60.1375 301.68C60.1375 302.448 60.4095 302.832 60.9535 302.832ZM72.0935 295.472C72.9468 295.472 73.5495 295.685 73.9015 296.112C74.0615 296.304 74.1788 296.565 74.2535 296.896C74.3282 297.216 74.3655 297.643 74.3655 298.176V302.512C74.3655 302.949 74.4295 303.253 74.5575 303.424C74.6962 303.584 74.9308 303.664 75.2615 303.664V304C74.1095 303.957 73.3628 303.936 73.0215 303.936C72.6588 303.936 71.9015 303.957 70.7495 304V303.664C71.0268 303.664 71.2188 303.584 71.3255 303.424C71.4322 303.253 71.4855 302.949 71.4855 302.512V297.312C71.4855 296.971 71.4215 296.72 71.2935 296.56C71.1762 296.389 70.9788 296.304 70.7015 296.304C70.3922 296.304 70.1202 296.416 69.8855 296.64C69.6615 296.853 69.5495 297.125 69.5495 297.456V302.512C69.5495 302.949 69.6028 303.253 69.7095 303.424C69.8162 303.584 70.0082 303.664 70.2855 303.664V304C69.2188 303.957 68.5148 303.936 68.1735 303.936C67.8108 303.936 67.0108 303.957 65.7735 304V303.664C66.1042 303.664 66.3335 303.584 66.4615 303.424C66.6002 303.253 66.6695 302.949 66.6695 302.512V297.44C66.6695 296.949 66.6002 296.592 66.4615 296.368C66.3335 296.144 66.1042 296.032 65.7735 296.032V295.696C66.1148 295.728 66.4455 295.744 66.7655 295.744C67.8748 295.744 68.8028 295.669 69.5495 295.52V296.672C70.0295 295.872 70.8775 295.472 72.0935 295.472ZM80.0295 295.472C80.4668 295.472 80.8668 295.52 81.2295 295.616C81.6028 295.701 81.9068 295.813 82.1415 295.952C82.4402 296.123 82.6748 296.352 82.8455 296.64C83.0162 296.928 83.1015 297.253 83.1015 297.616C83.1015 298.064 82.9575 298.437 82.6695 298.736C82.3815 299.024 82.0135 299.168 81.5655 299.168C81.1068 299.168 80.7442 299.04 80.4775 298.784C80.2215 298.517 80.0935 298.165 80.0935 297.728C80.0935 297.344 80.2162 297.008 80.4615 296.72C80.7175 296.421 81.0322 296.224 81.4055 296.128C81.2455 296 81.0322 295.936 80.7655 295.936C80.0828 295.936 79.6028 296.304 79.3255 297.04C79.0482 297.765 78.9095 298.629 78.9095 299.632C78.9095 300.656 79.1015 301.387 79.4855 301.824C79.8695 302.261 80.3442 302.48 80.9095 302.48C81.6882 302.48 82.3335 302.123 82.8455 301.408L83.1175 301.504C82.8828 302.251 82.4828 302.891 81.9175 303.424C81.3628 303.957 80.6482 304.224 79.7735 304.224C78.6108 304.224 77.6775 303.877 76.9735 303.184C76.2695 302.491 75.9175 301.381 75.9175 299.856C75.9175 298.395 76.2908 297.301 77.0375 296.576C77.7948 295.84 78.7922 295.472 80.0295 295.472Z" fill="#786F84"/>
</svg>
