<svg width="124" height="495" viewBox="0 0 124 495" fill="none" xmlns="http://www.w3.org/2000/svg">
<path d="M54.2696 0.30429C45.2697 0.801995 43.1545 1.21674 41.6614 2.75126C40.4587 3.954 40.3757 4.20287 40.2513 7.85258C40.1269 10.7972 39.9195 11.8756 39.3389 12.4976C38.7583 13.1613 38.5509 14.447 38.3435 19.5897C38.0532 25.562 38.0947 25.9352 38.9656 27.4283C40.0025 29.1703 40.0025 28.3822 38.7168 70.5614C38.385 81.2617 38.0947 93.3721 38.0947 97.3951C38.0947 106.188 37.4311 116.349 36.6016 120.33C35.5233 125.763 34.1546 127.796 26.2331 135.925C15.1595 147.288 9.7264 155.334 5.82784 166.159C2.46844 175.532 1.68043 179.929 1.18274 192.288C-0.0614804 223.31 -0.476221 475.929 0.685053 477.339C0.933897 477.629 1.68043 479.62 2.38549 481.777C4.70804 488.993 5.95226 490.196 12.3807 491.689C21.5465 493.846 34.9426 494.634 63.6012 494.634C99.7666 494.634 111.545 493.182 117.476 487.956C118.596 487.003 119.176 485.883 120.172 482.897C121.831 477.795 122.204 475.39 122.66 466.846C122.909 462.699 123.117 400.197 123.158 321.894C123.282 178.104 123.365 183.246 121.623 175.698C119.757 167.528 115.402 157.947 109.845 149.569C107.025 145.339 105.075 143.058 99.3519 137.335C92.2598 130.201 90.9326 128.501 89.481 124.644C87.3659 119.128 86.7438 112.989 86.2046 93.1647C85.8313 79.6442 84.9604 51.4418 84.3797 35.0181C84.2138 29.9997 84.2553 29.6265 85.2092 27.8431C86.1216 26.1012 86.2046 25.479 86.2046 20.2119C86.2046 14.7788 86.1631 14.447 85.1677 13.1198C84.2553 11.8756 84.1309 11.2949 84.1309 8.30878C84.1309 6.27656 83.882 4.32729 83.5088 3.45634C82.9281 2.08769 82.7208 1.96327 79.9005 1.29965C74.2186 0.0139575 65.4676 -0.31783 54.2696 0.30429Z" fill="#D0CCD2"/>
<rect x="1" y="212" width="122" height="151" fill="#EFEEEE"/>
<path d="M29.984 325.54C30.344 325.54 30.644 325.528 30.884 325.504V325.744C30.436 325.848 30.12 326.196 29.936 326.788L27.668 334.06H27.572H27.476L25.388 327.88L23.48 334.06H23.384H23.288L20.744 326.512C20.576 326.016 20.3 325.76 19.916 325.744V325.504C20.244 325.528 20.672 325.54 21.2 325.54C21.776 325.54 22.208 325.528 22.496 325.504V325.744C22.28 325.76 22.128 325.8 22.04 325.864C21.952 325.928 21.908 326.028 21.908 326.164C21.908 326.292 21.952 326.488 22.04 326.752L23.792 332.104L25.256 327.46L24.932 326.512C24.772 326.016 24.536 325.76 24.224 325.744V325.504C24.512 325.528 24.9 325.54 25.388 325.54C26.076 325.54 26.588 325.528 26.924 325.504V325.744C26.62 325.76 26.408 325.796 26.288 325.852C26.168 325.9 26.108 326.008 26.108 326.176C26.108 326.32 26.148 326.512 26.228 326.752L27.956 332.092L29.432 327.448C29.56 327.056 29.624 326.732 29.624 326.476C29.624 326.212 29.544 326.028 29.384 325.924C29.224 325.812 28.964 325.752 28.604 325.744V325.504C29.06 325.528 29.52 325.54 29.984 325.54ZM36.9876 332.992C37.1796 333.488 37.4556 333.744 37.8156 333.76V334C37.4956 333.976 37.0676 333.964 36.5316 333.964C35.8436 333.964 35.3316 333.976 34.9956 334V333.76C35.2996 333.744 35.5156 333.708 35.6436 333.652C35.7796 333.588 35.8476 333.476 35.8476 333.316C35.8476 333.18 35.7996 332.992 35.7036 332.752L34.9716 330.784H32.0676L31.5756 332.056C31.4156 332.488 31.3356 332.816 31.3356 333.04C31.3356 333.288 31.4196 333.468 31.5876 333.58C31.7636 333.692 32.0276 333.752 32.3796 333.76V334C31.9236 333.976 31.4636 333.964 30.9996 333.964C30.6396 333.964 30.3396 333.976 30.0996 334V333.76C30.4996 333.664 30.8156 333.316 31.0476 332.716L33.8676 325.444H34.0596L36.9876 332.992ZM34.8756 330.544L33.5316 326.956L32.1636 330.544H34.8756ZM45.5478 325.744C45.2678 325.76 45.0598 325.804 44.9238 325.876C44.7878 325.94 44.6958 326.052 44.6478 326.212C44.5998 326.364 44.5758 326.592 44.5758 326.896V334.06H44.2998L39.2598 326.272V332.608C39.2598 332.92 39.2838 333.152 39.3318 333.304C39.3878 333.456 39.4918 333.568 39.6438 333.64C39.7958 333.704 40.0318 333.744 40.3518 333.76V334C40.0638 333.976 39.6558 333.964 39.1278 333.964C38.6478 333.964 38.2758 333.976 38.0118 334V333.76C38.2918 333.744 38.4998 333.704 38.6358 333.64C38.7718 333.568 38.8638 333.456 38.9118 333.304C38.9598 333.144 38.9838 332.912 38.9838 332.608V326.776C38.9838 326.472 38.9598 326.252 38.9118 326.116C38.8638 325.98 38.7718 325.888 38.6358 325.84C38.5078 325.792 38.2998 325.76 38.0118 325.744V325.504C38.2758 325.528 38.6478 325.54 39.1278 325.54C39.4878 325.54 39.7998 325.528 40.0638 325.504L44.2998 332.032V326.896C44.2998 326.584 44.2718 326.352 44.2158 326.2C44.1678 326.048 44.0678 325.94 43.9158 325.876C43.7638 325.804 43.5278 325.76 43.2078 325.744V325.504C43.4958 325.528 43.9038 325.54 44.4318 325.54C44.9118 325.54 45.2838 325.528 45.5478 325.504V325.744ZM50.4104 325.336C50.8824 325.336 51.2704 325.404 51.5744 325.54C51.8784 325.668 52.2104 325.86 52.5704 326.116C52.6744 326.196 52.7544 326.236 52.8104 326.236C52.9624 326.236 53.0624 325.992 53.1104 325.504H53.3864C53.3544 326.024 53.3384 326.944 53.3384 328.264H53.0624C52.9904 327.84 52.9144 327.492 52.8344 327.22C52.7544 326.94 52.6304 326.696 52.4624 326.488C52.2304 326.2 51.9264 325.972 51.5504 325.804C51.1824 325.636 50.7944 325.552 50.3864 325.552C49.8584 325.552 49.3944 325.724 48.9944 326.068C48.5944 326.412 48.2864 326.904 48.0704 327.544C47.8544 328.176 47.7464 328.916 47.7464 329.764C47.7464 331.204 47.9744 332.26 48.4304 332.932C48.8944 333.596 49.6184 333.928 50.6024 333.928C51.0824 333.928 51.4984 333.804 51.8504 333.556C51.9944 333.46 52.0864 333.368 52.1264 333.28C52.1744 333.184 52.1984 333.056 52.1984 332.896V331.744C52.1984 331.408 52.1664 331.164 52.1024 331.012C52.0384 330.86 51.9264 330.756 51.7664 330.7C51.6064 330.644 51.3464 330.608 50.9864 330.592V330.352C51.4024 330.376 51.9664 330.388 52.6784 330.388C53.2224 330.388 53.6384 330.376 53.9264 330.352V330.592C53.7424 330.608 53.6064 330.64 53.5184 330.688C53.4384 330.736 53.3824 330.828 53.3504 330.964C53.3264 331.1 53.3144 331.32 53.3144 331.624V334H53.0744C53.0664 333.84 53.0344 333.688 52.9784 333.544C52.9224 333.392 52.8464 333.316 52.7504 333.316C52.7024 333.316 52.6544 333.328 52.6064 333.352C52.5584 333.376 52.4744 333.432 52.3544 333.52C52.0744 333.736 51.7824 333.896 51.4784 334C51.1824 334.112 50.8504 334.168 50.4824 334.168C49.6584 334.168 48.9504 334 48.3584 333.664C47.7744 333.32 47.3264 332.828 47.0144 332.188C46.7024 331.548 46.5464 330.784 46.5464 329.896C46.5464 328.984 46.7104 328.184 47.0384 327.496C47.3744 326.8 47.8344 326.268 48.4184 325.9C49.0024 325.524 49.6664 325.336 50.4104 325.336ZM66.9098 325.54C67.2698 325.54 67.5698 325.528 67.8098 325.504V325.744C67.3618 325.848 67.0458 326.196 66.8618 326.788L64.5938 334.06H64.4978H64.4018L62.3138 327.88L60.4058 334.06H60.3098H60.2138L57.6698 326.512C57.5018 326.016 57.2258 325.76 56.8418 325.744V325.504C57.1698 325.528 57.5978 325.54 58.1258 325.54C58.7018 325.54 59.1338 325.528 59.4218 325.504V325.744C59.2058 325.76 59.0538 325.8 58.9658 325.864C58.8778 325.928 58.8338 326.028 58.8338 326.164C58.8338 326.292 58.8778 326.488 58.9658 326.752L60.7178 332.104L62.1818 327.46L61.8578 326.512C61.6978 326.016 61.4618 325.76 61.1498 325.744V325.504C61.4378 325.528 61.8258 325.54 62.3138 325.54C63.0018 325.54 63.5138 325.528 63.8498 325.504V325.744C63.5458 325.76 63.3338 325.796 63.2138 325.852C63.0938 325.9 63.0338 326.008 63.0338 326.176C63.0338 326.32 63.0738 326.512 63.1538 326.752L64.8818 332.092L66.3578 327.448C66.4858 327.056 66.5498 326.732 66.5498 326.476C66.5498 326.212 66.4698 326.028 66.3098 325.924C66.1498 325.812 65.8898 325.752 65.5298 325.744V325.504C65.9858 325.528 66.4458 325.54 66.9098 325.54ZM71.3531 325.744C71.0651 325.76 70.8531 325.792 70.7171 325.84C70.5891 325.888 70.5011 325.98 70.4531 326.116C70.4051 326.252 70.3811 326.472 70.3811 326.776V332.728C70.3811 333.032 70.4051 333.252 70.4531 333.388C70.5011 333.524 70.5891 333.616 70.7171 333.664C70.8531 333.712 71.0651 333.744 71.3531 333.76V334C70.9851 333.976 70.4771 333.964 69.8291 333.964C69.1411 333.964 68.6291 333.976 68.2931 334V333.76C68.5811 333.744 68.7891 333.712 68.9171 333.664C69.0531 333.616 69.1451 333.524 69.1931 333.388C69.2411 333.252 69.2651 333.032 69.2651 332.728V326.776C69.2651 326.472 69.2411 326.252 69.1931 326.116C69.1451 325.98 69.0531 325.888 68.9171 325.84C68.7891 325.792 68.5811 325.76 68.2931 325.744V325.504C68.6291 325.528 69.1411 325.54 69.8291 325.54C70.4691 325.54 70.9771 325.528 71.3531 325.504V325.744ZM79.8955 325.744C79.6155 325.76 79.4075 325.804 79.2715 325.876C79.1355 325.94 79.0435 326.052 78.9955 326.212C78.9475 326.364 78.9235 326.592 78.9235 326.896V334.06H78.6475L73.6075 326.272V332.608C73.6075 332.92 73.6315 333.152 73.6795 333.304C73.7355 333.456 73.8395 333.568 73.9915 333.64C74.1435 333.704 74.3795 333.744 74.6995 333.76V334C74.4115 333.976 74.0035 333.964 73.4755 333.964C72.9955 333.964 72.6235 333.976 72.3595 334V333.76C72.6395 333.744 72.8475 333.704 72.9835 333.64C73.1195 333.568 73.2115 333.456 73.2595 333.304C73.3075 333.144 73.3315 332.912 73.3315 332.608V326.776C73.3315 326.472 73.3075 326.252 73.2595 326.116C73.2115 325.98 73.1195 325.888 72.9835 325.84C72.8555 325.792 72.6475 325.76 72.3595 325.744V325.504C72.6235 325.528 72.9955 325.54 73.4755 325.54C73.8355 325.54 74.1475 325.528 74.4115 325.504L78.6475 332.032V326.896C78.6475 326.584 78.6195 326.352 78.5635 326.2C78.5155 326.048 78.4155 325.94 78.2635 325.876C78.1115 325.804 77.8755 325.76 77.5555 325.744V325.504C77.8435 325.528 78.2515 325.54 78.7795 325.54C79.2595 325.54 79.6315 325.528 79.8955 325.504V325.744ZM86.9761 332.464C86.9761 332.92 87.0041 333.432 87.0601 334C86.5161 333.976 85.6001 333.964 84.3121 333.964C82.7761 333.964 81.6161 333.976 80.8321 334V333.76C81.1201 333.744 81.3281 333.712 81.4561 333.664C81.5921 333.616 81.6841 333.524 81.7321 333.388C81.7801 333.252 81.8041 333.032 81.8041 332.728V326.776C81.8041 326.472 81.7801 326.252 81.7321 326.116C81.6841 325.98 81.5921 325.888 81.4561 325.84C81.3281 325.792 81.1201 325.76 80.8321 325.744V325.504C81.6161 325.528 82.7761 325.54 84.3121 325.54C85.4881 325.54 86.3241 325.528 86.8201 325.504C86.7641 326.032 86.7361 326.504 86.7361 326.92C86.7361 327.232 86.7481 327.48 86.7721 327.664H86.4961C86.4401 327.144 86.3681 326.76 86.2801 326.512C86.1921 326.256 86.0441 326.072 85.8361 325.96C85.6281 325.84 85.3121 325.78 84.8881 325.78H83.8921C83.6041 325.78 83.3921 325.804 83.2561 325.852C83.1281 325.892 83.0401 325.98 82.9921 326.116C82.9441 326.252 82.9201 326.472 82.9201 326.776V329.608H83.7121C83.9921 329.608 84.2081 329.544 84.3601 329.416C84.5121 329.28 84.6121 329.124 84.6601 328.948C84.7161 328.764 84.7601 328.536 84.7921 328.264L84.8281 328.024H85.1041C85.0801 328.36 85.0681 328.736 85.0681 329.152V329.728C85.0681 330.136 85.0921 330.704 85.1401 331.432H84.8641C84.8561 331.376 84.8321 331.184 84.7921 330.856C84.7521 330.52 84.6401 330.268 84.4561 330.1C84.2801 329.932 84.0321 329.848 83.7121 329.848H82.9201V332.728C82.9201 333.032 82.9441 333.252 82.9921 333.388C83.0401 333.524 83.1281 333.616 83.2561 333.664C83.3921 333.704 83.6041 333.724 83.8921 333.724H84.7681C85.2641 333.724 85.6401 333.66 85.8961 333.532C86.1601 333.396 86.3521 333.184 86.4721 332.896C86.5921 332.6 86.6801 332.168 86.7361 331.6H87.0121C86.9881 331.816 86.9761 332.104 86.9761 332.464ZM95.5606 333.4C95.3766 333.672 95.1926 333.868 95.0086 333.988C94.8246 334.108 94.5806 334.168 94.2766 334.168C93.9486 334.168 93.6766 334.072 93.4606 333.88C93.2526 333.688 93.0966 333.352 92.9926 332.872L92.7286 331.672C92.6326 331.256 92.5406 330.936 92.4526 330.712C92.3726 330.488 92.2486 330.308 92.0806 330.172C91.9126 330.036 91.6766 329.968 91.3726 329.968H90.2326V332.728C90.2326 333.032 90.2566 333.252 90.3046 333.388C90.3526 333.524 90.4406 333.616 90.5686 333.664C90.7046 333.712 90.9166 333.744 91.2046 333.76V334C90.8366 333.976 90.3286 333.964 89.6806 333.964C88.9926 333.964 88.4806 333.976 88.1446 334V333.76C88.4326 333.744 88.6406 333.712 88.7686 333.664C88.9046 333.616 88.9966 333.524 89.0446 333.388C89.0926 333.252 89.1166 333.032 89.1166 332.728V326.776C89.1166 326.472 89.0926 326.252 89.0446 326.116C88.9966 325.98 88.9046 325.888 88.7686 325.84C88.6406 325.792 88.4326 325.76 88.1446 325.744V325.504C88.4806 325.528 88.9686 325.54 89.6086 325.54L90.9046 325.528C91.0566 325.52 91.2286 325.516 91.4206 325.516C92.3486 325.516 93.0606 325.712 93.5566 326.104C94.0606 326.488 94.3126 326.988 94.3126 327.604C94.3126 327.916 94.2366 328.232 94.0846 328.552C93.9406 328.864 93.6926 329.148 93.3406 329.404C92.9966 329.652 92.5446 329.82 91.9846 329.908L92.1286 329.932C92.6566 330.02 93.0406 330.18 93.2806 330.412C93.5206 330.644 93.6966 331.012 93.8086 331.516L94.1086 332.74C94.1886 333.108 94.2726 333.364 94.3606 333.508C94.4486 333.652 94.5686 333.724 94.7206 333.724C94.8566 333.724 94.9686 333.688 95.0566 333.616C95.1526 333.544 95.2606 333.428 95.3806 333.268L95.5606 333.4ZM91.1206 325.744C90.8726 325.744 90.6846 325.772 90.5566 325.828C90.4366 325.884 90.3526 325.984 90.3046 326.128C90.2566 326.272 90.2326 326.488 90.2326 326.776V329.728H91.0366C91.8286 329.728 92.3726 329.552 92.6686 329.2C92.9646 328.848 93.1126 328.36 93.1126 327.736C93.1126 327.08 92.9566 326.584 92.6446 326.248C92.3326 325.912 91.8246 325.744 91.1206 325.744ZM101.027 325.54C101.387 325.54 101.687 325.528 101.927 325.504V325.744C101.767 325.784 101.611 325.888 101.459 326.056C101.307 326.216 101.143 326.468 100.967 326.812L99.0831 330.544V332.728C99.0831 333.032 99.1071 333.252 99.1551 333.388C99.2031 333.524 99.2911 333.616 99.4191 333.664C99.5551 333.712 99.7671 333.744 100.055 333.76V334C99.6871 333.976 99.1791 333.964 98.5311 333.964C97.8431 333.964 97.3311 333.976 96.9951 334V333.76C97.2831 333.744 97.4911 333.712 97.6191 333.664C97.7551 333.616 97.8471 333.524 97.8951 333.388C97.9431 333.252 97.9671 333.032 97.9671 332.728V330.928L95.5311 326.428C95.3871 326.164 95.2591 325.988 95.1471 325.9C95.0431 325.804 94.9391 325.756 94.8351 325.756V325.504C95.1471 325.528 95.4991 325.54 95.8911 325.54C96.6671 325.54 97.2271 325.528 97.5711 325.504V325.756C97.0111 325.756 96.7311 325.908 96.7311 326.212C96.7311 326.332 96.7711 326.472 96.8511 326.632L98.8431 330.46L100.379 327.412C100.595 326.988 100.703 326.644 100.703 326.38C100.703 326.156 100.615 325.996 100.439 325.9C100.263 325.804 99.9991 325.752 99.6471 325.744V325.504C100.103 325.528 100.563 325.54 101.027 325.54Z" fill="#786F84"/>
<path d="M42.9438 282.36C42.6238 282.68 42.2718 282.904 41.8878 283.032C41.5038 283.16 41.0558 283.224 40.5438 283.224C39.8078 283.224 39.2371 283.096 38.8318 282.84C38.4265 282.573 38.1758 282.125 38.0798 281.496L37.8398 279.896C37.7331 279.149 37.5838 278.584 37.3918 278.2C37.2105 277.816 36.9331 277.624 36.5598 277.624H35.8398V281.304C35.8398 281.709 35.8665 282.003 35.9198 282.184C35.9838 282.365 36.0905 282.488 36.2398 282.552C36.3891 282.616 36.6345 282.659 36.9758 282.68V283C36.3571 282.968 35.4665 282.952 34.3038 282.952C33.0131 282.952 32.0638 282.968 31.4558 283V282.68C31.7971 282.659 32.0425 282.616 32.1918 282.552C32.3518 282.488 32.4585 282.365 32.5118 282.184C32.5651 282.003 32.5918 281.709 32.5918 281.304V273.368C32.5918 272.963 32.5598 272.669 32.4958 272.488C32.4425 272.307 32.3411 272.184 32.1918 272.12C32.0425 272.056 31.7971 272.013 31.4558 271.992V271.672C32.0638 271.704 32.9811 271.72 34.2078 271.72L36.0478 271.704C36.2611 271.693 36.5065 271.688 36.7838 271.688C38.4051 271.688 39.6105 271.917 40.3998 272.376C41.1998 272.835 41.5998 273.533 41.5998 274.472C41.5998 275.272 41.3011 275.955 40.7038 276.52C40.1065 277.085 39.1038 277.432 37.6958 277.56C38.7838 277.635 39.6051 277.843 40.1598 278.184C40.7145 278.515 41.0558 279.005 41.1838 279.656L41.5198 281.32C41.5945 281.715 41.6851 281.987 41.7918 282.136C41.8985 282.285 42.0478 282.36 42.2398 282.36C42.4318 282.36 42.5971 282.291 42.7358 282.152L42.9438 282.36ZM36.7038 271.992C36.4585 271.992 36.2718 272.029 36.1438 272.104C36.0265 272.179 35.9465 272.312 35.9038 272.504C35.8611 272.696 35.8398 272.984 35.8398 273.368V277.304H36.2718C37.0291 277.304 37.5465 277.075 37.8238 276.616C38.1011 276.147 38.2398 275.491 38.2398 274.648C38.2398 273.773 38.1171 273.112 37.8718 272.664C37.6371 272.216 37.2478 271.992 36.7038 271.992ZM45.1151 270.488C45.6697 270.488 46.0964 270.605 46.3951 270.84C46.7044 271.075 46.8591 271.416 46.8591 271.864C46.8591 272.312 46.7044 272.653 46.3951 272.888C46.0964 273.123 45.6697 273.24 45.1151 273.24C44.5497 273.24 44.1177 273.123 43.8191 272.888C43.5204 272.653 43.3711 272.312 43.3711 271.864C43.3711 271.416 43.5204 271.075 43.8191 270.84C44.1177 270.605 44.5497 270.488 45.1151 270.488ZM46.6511 281.512C46.6511 281.949 46.7151 282.253 46.8431 282.424C46.9817 282.584 47.2164 282.664 47.5471 282.664V283C46.3951 282.957 45.6377 282.936 45.2751 282.936C44.9124 282.936 44.1124 282.957 42.8751 283V282.664C43.2057 282.664 43.4351 282.584 43.5631 282.424C43.7017 282.253 43.7711 281.949 43.7711 281.512V276.44C43.7711 275.949 43.7017 275.592 43.5631 275.368C43.4351 275.144 43.2057 275.032 42.8751 275.032V274.696C43.2164 274.728 43.5471 274.744 43.8671 274.744C44.9764 274.744 45.9044 274.669 46.6511 274.52V281.512ZM53.1483 281.48C53.927 281.48 54.5723 281.123 55.0843 280.408L55.3563 280.504C55.1216 281.251 54.7216 281.891 54.1563 282.424C53.6016 282.957 52.887 283.224 52.0123 283.224C50.8923 283.224 49.9963 282.877 49.3243 282.184C48.6523 281.491 48.3163 280.381 48.3163 278.856C48.3163 277.395 48.6896 276.301 49.4363 275.576C50.1936 274.84 51.191 274.472 52.4283 274.472C54.4443 274.472 55.4523 275.667 55.4523 278.056H51.3243C51.3136 278.184 51.3083 278.376 51.3083 278.632C51.3083 279.656 51.4843 280.387 51.8363 280.824C52.199 281.261 52.6363 281.48 53.1483 281.48ZM52.3163 274.84C51.719 274.84 51.367 275.811 51.2603 277.752H53.1163C53.127 276.899 53.063 276.2 52.9243 275.656C52.7963 275.112 52.5936 274.84 52.3163 274.84ZM59.5632 274.472C59.9792 274.472 60.3685 274.52 60.7312 274.616C61.1045 274.701 61.3872 274.797 61.5792 274.904C61.6965 274.968 61.7925 275 61.8672 275C62.0912 275 62.2245 274.829 62.2672 274.488H62.5872C62.5445 275.043 62.5232 276.003 62.5232 277.368H62.2032C62.1179 276.664 61.9152 276.072 61.5952 275.592C61.2859 275.101 60.8325 274.856 60.2352 274.856C59.9685 274.856 59.7445 274.936 59.5632 275.096C59.3819 275.256 59.2912 275.475 59.2912 275.752C59.2912 276.104 59.4085 276.419 59.6432 276.696C59.8779 276.963 60.2459 277.293 60.7472 277.688C60.7685 277.699 60.9232 277.821 61.2112 278.056C61.8085 278.547 62.2459 278.984 62.5232 279.368C62.8005 279.741 62.9392 280.205 62.9392 280.76C62.9392 281.229 62.7952 281.656 62.5072 282.04C62.2192 282.413 61.8245 282.707 61.3232 282.92C60.8325 283.123 60.2939 283.224 59.7072 283.224C59.0352 283.224 58.4859 283.091 58.0592 282.824C57.8779 282.728 57.7285 282.659 57.6112 282.616C57.4939 282.573 57.3765 282.552 57.2592 282.552C57.0565 282.552 56.9072 282.739 56.8112 283.112H56.4912C56.5339 282.504 56.5552 281.437 56.5552 279.912H56.8752C56.9712 280.787 57.2059 281.491 57.5792 282.024C57.9525 282.557 58.4219 282.824 58.9872 282.824C59.2539 282.824 59.4725 282.749 59.6432 282.6C59.8245 282.451 59.9152 282.232 59.9152 281.944C59.9152 281.645 59.8512 281.379 59.7232 281.144C59.6059 280.909 59.4565 280.701 59.2752 280.52C59.1045 280.328 58.8219 280.056 58.4272 279.704C57.9792 279.288 57.6379 278.957 57.4032 278.712C57.1685 278.467 56.9659 278.184 56.7952 277.864C56.6352 277.533 56.5552 277.171 56.5552 276.776C56.5552 276.317 56.6939 275.912 56.9712 275.56C57.2485 275.208 57.6165 274.941 58.0752 274.76C58.5339 274.568 59.0299 274.472 59.5632 274.472ZM67.4781 281.512C67.4781 281.949 67.5421 282.253 67.6701 282.424C67.8087 282.584 68.0434 282.664 68.3741 282.664V283C67.2221 282.957 66.4647 282.936 66.1021 282.936C65.7394 282.936 64.9394 282.957 63.7021 283V282.664C64.0327 282.664 64.2621 282.584 64.3901 282.424C64.5287 282.253 64.5981 281.949 64.5981 281.512V272.408C64.5981 271.917 64.5287 271.56 64.3901 271.336C64.2621 271.112 64.0327 271 63.7021 271V270.664C64.0327 270.696 64.3634 270.712 64.6941 270.712C65.8034 270.712 66.7314 270.637 67.4781 270.488V281.512ZM71.2401 270.488C71.7947 270.488 72.2214 270.605 72.5201 270.84C72.8294 271.075 72.9841 271.416 72.9841 271.864C72.9841 272.312 72.8294 272.653 72.5201 272.888C72.2214 273.123 71.7947 273.24 71.2401 273.24C70.6747 273.24 70.2427 273.123 69.9441 272.888C69.6454 272.653 69.4961 272.312 69.4961 271.864C69.4961 271.416 69.6454 271.075 69.9441 270.84C70.2427 270.605 70.6747 270.488 71.2401 270.488ZM72.7761 281.512C72.7761 281.949 72.8401 282.253 72.9681 282.424C73.1067 282.584 73.3414 282.664 73.6721 282.664V283C72.5201 282.957 71.7627 282.936 71.4001 282.936C71.0374 282.936 70.2374 282.957 69.0001 283V282.664C69.3307 282.664 69.5601 282.584 69.6881 282.424C69.8267 282.253 69.8961 281.949 69.8961 281.512V276.44C69.8961 275.949 69.8267 275.592 69.6881 275.368C69.5601 275.144 69.3307 275.032 69.0001 275.032V274.696C69.3414 274.728 69.6721 274.744 69.9921 274.744C71.1014 274.744 72.0294 274.669 72.7761 274.52V281.512ZM80.6013 274.472C81.4546 274.472 82.0573 274.685 82.4093 275.112C82.5693 275.304 82.6866 275.565 82.7613 275.896C82.836 276.216 82.8733 276.643 82.8733 277.176V281.512C82.8733 281.949 82.9373 282.253 83.0653 282.424C83.204 282.584 83.4386 282.664 83.7693 282.664V283C82.6173 282.957 81.8706 282.936 81.5293 282.936C81.1666 282.936 80.4093 282.957 79.2573 283V282.664C79.5346 282.664 79.7266 282.584 79.8333 282.424C79.94 282.253 79.9933 281.949 79.9933 281.512V276.312C79.9933 275.971 79.9293 275.72 79.8013 275.56C79.684 275.389 79.4866 275.304 79.2093 275.304C78.9 275.304 78.628 275.416 78.3933 275.64C78.1693 275.853 78.0573 276.125 78.0573 276.456V281.512C78.0573 281.949 78.1106 282.253 78.2173 282.424C78.324 282.584 78.516 282.664 78.7933 282.664V283C77.7266 282.957 77.0226 282.936 76.6813 282.936C76.3186 282.936 75.5186 282.957 74.2813 283V282.664C74.612 282.664 74.8413 282.584 74.9693 282.424C75.108 282.253 75.1773 281.949 75.1773 281.512V276.44C75.1773 275.949 75.108 275.592 74.9693 275.368C74.8413 275.144 74.612 275.032 74.2813 275.032V274.696C74.6226 274.728 74.9533 274.744 75.2733 274.744C76.3826 274.744 77.3106 274.669 78.0573 274.52V275.672C78.5373 274.872 79.3853 274.472 80.6013 274.472ZM92.1232 276.312C91.8992 276.312 91.7019 276.237 91.5312 276.088C91.3712 275.928 91.2912 275.709 91.2912 275.432C91.2912 275.176 91.3659 274.899 91.5152 274.6C91.0459 274.792 90.6992 275.064 90.4752 275.416C90.8699 275.832 91.0672 276.371 91.0672 277.032C91.0672 277.875 90.7525 278.515 90.1232 278.952C89.5045 279.379 88.6725 279.592 87.6272 279.592C87.4245 279.592 87.2752 279.587 87.1792 279.576C86.9019 279.768 86.7632 279.992 86.7632 280.248C86.7632 280.589 86.9552 280.76 87.3392 280.76H88.8912C89.9792 280.76 90.8272 280.947 91.4352 281.32C92.0539 281.683 92.3632 282.253 92.3632 283.032C92.3632 283.587 92.1819 284.088 91.8192 284.536C91.4672 284.984 90.9179 285.341 90.1712 285.608C89.4352 285.875 88.5125 286.008 87.4032 286.008C86.3045 286.008 85.4405 285.885 84.8112 285.64C84.1819 285.395 83.8672 285.048 83.8672 284.6C83.8672 284.291 84.0219 284.008 84.3312 283.752C84.6405 283.496 85.1099 283.293 85.7392 283.144L85.8992 283.4C85.6112 283.752 85.4672 284.093 85.4672 284.424C85.4672 284.84 85.6539 285.16 86.0272 285.384C86.4112 285.619 86.9445 285.736 87.6272 285.736C88.3312 285.736 88.8699 285.592 89.2432 285.304C89.6272 285.027 89.8192 284.653 89.8192 284.184C89.8192 283.853 89.6912 283.587 89.4352 283.384C89.1899 283.192 88.7525 283.096 88.1232 283.096H87.2592C86.5339 283.096 85.9792 282.957 85.5952 282.68C85.2112 282.403 85.0192 282.029 85.0192 281.56C85.0192 281.133 85.1685 280.76 85.4672 280.44C85.7765 280.12 86.2192 279.821 86.7952 279.544C85.9845 279.437 85.3445 279.176 84.8752 278.76C84.4165 278.333 84.1872 277.757 84.1872 277.032C84.1872 276.189 84.4965 275.555 85.1152 275.128C85.7445 274.691 86.5819 274.472 87.6272 274.472C88.7472 274.472 89.6112 274.707 90.2192 275.176C90.4219 274.899 90.6672 274.68 90.9552 274.52C91.2432 274.36 91.5472 274.28 91.8672 274.28C92.2192 274.28 92.4912 274.381 92.6832 274.584C92.8752 274.776 92.9712 275.027 92.9712 275.336C92.9712 275.635 92.8912 275.875 92.7312 276.056C92.5712 276.227 92.3685 276.312 92.1232 276.312ZM87.6272 279.304C87.8405 279.304 88.0005 279.133 88.1072 278.792C88.2245 278.44 88.2832 277.853 88.2832 277.032C88.2832 276.211 88.2245 275.629 88.1072 275.288C88.0005 274.936 87.8405 274.76 87.6272 274.76C87.4139 274.76 87.2485 274.936 87.1312 275.288C87.0245 275.629 86.9712 276.211 86.9712 277.032C86.9712 277.853 87.0245 278.44 87.1312 278.792C87.2485 279.133 87.4139 279.304 87.6272 279.304Z" fill="#786F84"/>
</svg>
