<svg width="124" height="495" viewBox="0 0 124 495" fill="none" xmlns="http://www.w3.org/2000/svg">
<path d="M54.2696 0.30429C45.2697 0.801995 43.1545 1.21674 41.6614 2.75126C40.4587 3.954 40.3757 4.20287 40.2513 7.85258C40.1269 10.7972 39.9195 11.8756 39.3389 12.4976C38.7583 13.1613 38.5509 14.447 38.3435 19.5897C38.0532 25.562 38.0947 25.9352 38.9656 27.4283C40.0025 29.1703 40.0025 28.3822 38.7168 70.5614C38.385 81.2617 38.0947 93.3721 38.0947 97.3951C38.0947 106.188 37.4311 116.349 36.6016 120.33C35.5233 125.763 34.1546 127.796 26.2331 135.925C15.1595 147.288 9.7264 155.334 5.82784 166.159C2.46844 175.532 1.68043 179.929 1.18274 192.288C-0.0614804 223.31 -0.476221 475.929 0.685053 477.339C0.933897 477.629 1.68043 479.62 2.38549 481.777C4.70804 488.993 5.95226 490.196 12.3807 491.689C21.5465 493.846 34.9426 494.634 63.6012 494.634C99.7666 494.634 111.545 493.182 117.476 487.956C118.596 487.003 119.176 485.883 120.172 482.897C121.831 477.795 122.204 475.39 122.66 466.846C122.909 462.699 123.117 400.197 123.158 321.894C123.282 178.104 123.365 183.246 121.623 175.698C119.757 167.528 115.402 157.947 109.845 149.569C107.025 145.339 105.075 143.058 99.3519 137.335C92.2598 130.201 90.9326 128.501 89.481 124.644C87.3659 119.128 86.7438 112.989 86.2046 93.1647C85.8313 79.6442 84.9604 51.4418 84.3797 35.0181C84.2138 29.9997 84.2553 29.6265 85.2092 27.8431C86.1216 26.1012 86.2046 25.479 86.2046 20.2119C86.2046 14.7788 86.1631 14.447 85.1677 13.1198C84.2553 11.8756 84.1309 11.2949 84.1309 8.30878C84.1309 6.27656 83.882 4.32729 83.5088 3.45634C82.9281 2.08769 82.7208 1.96327 79.9005 1.29965C74.2186 0.0139575 65.4676 -0.31783 54.2696 0.30429Z" fill="#D0CCD2"/>
<rect x="1" y="212" width="122" height="151" fill="#EFEEEE"/>
<path d="M29.984 325.54C30.344 325.54 30.644 325.528 30.884 325.504V325.744C30.436 325.848 30.12 326.196 29.936 326.788L27.668 334.06H27.572H27.476L25.388 327.88L23.48 334.06H23.384H23.288L20.744 326.512C20.576 326.016 20.3 325.76 19.916 325.744V325.504C20.244 325.528 20.672 325.54 21.2 325.54C21.776 325.54 22.208 325.528 22.496 325.504V325.744C22.28 325.76 22.128 325.8 22.04 325.864C21.952 325.928 21.908 326.028 21.908 326.164C21.908 326.292 21.952 326.488 22.04 326.752L23.792 332.104L25.256 327.46L24.932 326.512C24.772 326.016 24.536 325.76 24.224 325.744V325.504C24.512 325.528 24.9 325.54 25.388 325.54C26.076 325.54 26.588 325.528 26.924 325.504V325.744C26.62 325.76 26.408 325.796 26.288 325.852C26.168 325.9 26.108 326.008 26.108 326.176C26.108 326.32 26.148 326.512 26.228 326.752L27.956 332.092L29.432 327.448C29.56 327.056 29.624 326.732 29.624 326.476C29.624 326.212 29.544 326.028 29.384 325.924C29.224 325.812 28.964 325.752 28.604 325.744V325.504C29.06 325.528 29.52 325.54 29.984 325.54ZM36.9876 332.992C37.1796 333.488 37.4556 333.744 37.8156 333.76V334C37.4956 333.976 37.0676 333.964 36.5316 333.964C35.8436 333.964 35.3316 333.976 34.9956 334V333.76C35.2996 333.744 35.5156 333.708 35.6436 333.652C35.7796 333.588 35.8476 333.476 35.8476 333.316C35.8476 333.18 35.7996 332.992 35.7036 332.752L34.9716 330.784H32.0676L31.5756 332.056C31.4156 332.488 31.3356 332.816 31.3356 333.04C31.3356 333.288 31.4196 333.468 31.5876 333.58C31.7636 333.692 32.0276 333.752 32.3796 333.76V334C31.9236 333.976 31.4636 333.964 30.9996 333.964C30.6396 333.964 30.3396 333.976 30.0996 334V333.76C30.4996 333.664 30.8156 333.316 31.0476 332.716L33.8676 325.444H34.0596L36.9876 332.992ZM34.8756 330.544L33.5316 326.956L32.1636 330.544H34.8756ZM45.5478 325.744C45.2678 325.76 45.0598 325.804 44.9238 325.876C44.7878 325.94 44.6958 326.052 44.6478 326.212C44.5998 326.364 44.5758 326.592 44.5758 326.896V334.06H44.2998L39.2598 326.272V332.608C39.2598 332.92 39.2838 333.152 39.3318 333.304C39.3878 333.456 39.4918 333.568 39.6438 333.64C39.7958 333.704 40.0318 333.744 40.3518 333.76V334C40.0638 333.976 39.6558 333.964 39.1278 333.964C38.6478 333.964 38.2758 333.976 38.0118 334V333.76C38.2918 333.744 38.4998 333.704 38.6358 333.64C38.7718 333.568 38.8638 333.456 38.9118 333.304C38.9598 333.144 38.9838 332.912 38.9838 332.608V326.776C38.9838 326.472 38.9598 326.252 38.9118 326.116C38.8638 325.98 38.7718 325.888 38.6358 325.84C38.5078 325.792 38.2998 325.76 38.0118 325.744V325.504C38.2758 325.528 38.6478 325.54 39.1278 325.54C39.4878 325.54 39.7998 325.528 40.0638 325.504L44.2998 332.032V326.896C44.2998 326.584 44.2718 326.352 44.2158 326.2C44.1678 326.048 44.0678 325.94 43.9158 325.876C43.7638 325.804 43.5278 325.76 43.2078 325.744V325.504C43.4958 325.528 43.9038 325.54 44.4318 325.54C44.9118 325.54 45.2838 325.528 45.5478 325.504V325.744ZM50.4104 325.336C50.8824 325.336 51.2704 325.404 51.5744 325.54C51.8784 325.668 52.2104 325.86 52.5704 326.116C52.6744 326.196 52.7544 326.236 52.8104 326.236C52.9624 326.236 53.0624 325.992 53.1104 325.504H53.3864C53.3544 326.024 53.3384 326.944 53.3384 328.264H53.0624C52.9904 327.84 52.9144 327.492 52.8344 327.22C52.7544 326.94 52.6304 326.696 52.4624 326.488C52.2304 326.2 51.9264 325.972 51.5504 325.804C51.1824 325.636 50.7944 325.552 50.3864 325.552C49.8584 325.552 49.3944 325.724 48.9944 326.068C48.5944 326.412 48.2864 326.904 48.0704 327.544C47.8544 328.176 47.7464 328.916 47.7464 329.764C47.7464 331.204 47.9744 332.26 48.4304 332.932C48.8944 333.596 49.6184 333.928 50.6024 333.928C51.0824 333.928 51.4984 333.804 51.8504 333.556C51.9944 333.46 52.0864 333.368 52.1264 333.28C52.1744 333.184 52.1984 333.056 52.1984 332.896V331.744C52.1984 331.408 52.1664 331.164 52.1024 331.012C52.0384 330.86 51.9264 330.756 51.7664 330.7C51.6064 330.644 51.3464 330.608 50.9864 330.592V330.352C51.4024 330.376 51.9664 330.388 52.6784 330.388C53.2224 330.388 53.6384 330.376 53.9264 330.352V330.592C53.7424 330.608 53.6064 330.64 53.5184 330.688C53.4384 330.736 53.3824 330.828 53.3504 330.964C53.3264 331.1 53.3144 331.32 53.3144 331.624V334H53.0744C53.0664 333.84 53.0344 333.688 52.9784 333.544C52.9224 333.392 52.8464 333.316 52.7504 333.316C52.7024 333.316 52.6544 333.328 52.6064 333.352C52.5584 333.376 52.4744 333.432 52.3544 333.52C52.0744 333.736 51.7824 333.896 51.4784 334C51.1824 334.112 50.8504 334.168 50.4824 334.168C49.6584 334.168 48.9504 334 48.3584 333.664C47.7744 333.32 47.3264 332.828 47.0144 332.188C46.7024 331.548 46.5464 330.784 46.5464 329.896C46.5464 328.984 46.7104 328.184 47.0384 327.496C47.3744 326.8 47.8344 326.268 48.4184 325.9C49.0024 325.524 49.6664 325.336 50.4104 325.336ZM66.9098 325.54C67.2698 325.54 67.5698 325.528 67.8098 325.504V325.744C67.3618 325.848 67.0458 326.196 66.8618 326.788L64.5938 334.06H64.4978H64.4018L62.3138 327.88L60.4058 334.06H60.3098H60.2138L57.6698 326.512C57.5018 326.016 57.2258 325.76 56.8418 325.744V325.504C57.1698 325.528 57.5978 325.54 58.1258 325.54C58.7018 325.54 59.1338 325.528 59.4218 325.504V325.744C59.2058 325.76 59.0538 325.8 58.9658 325.864C58.8778 325.928 58.8338 326.028 58.8338 326.164C58.8338 326.292 58.8778 326.488 58.9658 326.752L60.7178 332.104L62.1818 327.46L61.8578 326.512C61.6978 326.016 61.4618 325.76 61.1498 325.744V325.504C61.4378 325.528 61.8258 325.54 62.3138 325.54C63.0018 325.54 63.5138 325.528 63.8498 325.504V325.744C63.5458 325.76 63.3338 325.796 63.2138 325.852C63.0938 325.9 63.0338 326.008 63.0338 326.176C63.0338 326.32 63.0738 326.512 63.1538 326.752L64.8818 332.092L66.3578 327.448C66.4858 327.056 66.5498 326.732 66.5498 326.476C66.5498 326.212 66.4698 326.028 66.3098 325.924C66.1498 325.812 65.8898 325.752 65.5298 325.744V325.504C65.9858 325.528 66.4458 325.54 66.9098 325.54ZM71.3531 325.744C71.0651 325.76 70.8531 325.792 70.7171 325.84C70.5891 325.888 70.5011 325.98 70.4531 326.116C70.4051 326.252 70.3811 326.472 70.3811 326.776V332.728C70.3811 333.032 70.4051 333.252 70.4531 333.388C70.5011 333.524 70.5891 333.616 70.7171 333.664C70.8531 333.712 71.0651 333.744 71.3531 333.76V334C70.9851 333.976 70.4771 333.964 69.8291 333.964C69.1411 333.964 68.6291 333.976 68.2931 334V333.76C68.5811 333.744 68.7891 333.712 68.9171 333.664C69.0531 333.616 69.1451 333.524 69.1931 333.388C69.2411 333.252 69.2651 333.032 69.2651 332.728V326.776C69.2651 326.472 69.2411 326.252 69.1931 326.116C69.1451 325.98 69.0531 325.888 68.9171 325.84C68.7891 325.792 68.5811 325.76 68.2931 325.744V325.504C68.6291 325.528 69.1411 325.54 69.8291 325.54C70.4691 325.54 70.9771 325.528 71.3531 325.504V325.744ZM79.8955 325.744C79.6155 325.76 79.4075 325.804 79.2715 325.876C79.1355 325.94 79.0435 326.052 78.9955 326.212C78.9475 326.364 78.9235 326.592 78.9235 326.896V334.06H78.6475L73.6075 326.272V332.608C73.6075 332.92 73.6315 333.152 73.6795 333.304C73.7355 333.456 73.8395 333.568 73.9915 333.64C74.1435 333.704 74.3795 333.744 74.6995 333.76V334C74.4115 333.976 74.0035 333.964 73.4755 333.964C72.9955 333.964 72.6235 333.976 72.3595 334V333.76C72.6395 333.744 72.8475 333.704 72.9835 333.64C73.1195 333.568 73.2115 333.456 73.2595 333.304C73.3075 333.144 73.3315 332.912 73.3315 332.608V326.776C73.3315 326.472 73.3075 326.252 73.2595 326.116C73.2115 325.98 73.1195 325.888 72.9835 325.84C72.8555 325.792 72.6475 325.76 72.3595 325.744V325.504C72.6235 325.528 72.9955 325.54 73.4755 325.54C73.8355 325.54 74.1475 325.528 74.4115 325.504L78.6475 332.032V326.896C78.6475 326.584 78.6195 326.352 78.5635 326.2C78.5155 326.048 78.4155 325.94 78.2635 325.876C78.1115 325.804 77.8755 325.76 77.5555 325.744V325.504C77.8435 325.528 78.2515 325.54 78.7795 325.54C79.2595 325.54 79.6315 325.528 79.8955 325.504V325.744ZM86.9761 332.464C86.9761 332.92 87.0041 333.432 87.0601 334C86.5161 333.976 85.6001 333.964 84.3121 333.964C82.7761 333.964 81.6161 333.976 80.8321 334V333.76C81.1201 333.744 81.3281 333.712 81.4561 333.664C81.5921 333.616 81.6841 333.524 81.7321 333.388C81.7801 333.252 81.8041 333.032 81.8041 332.728V326.776C81.8041 326.472 81.7801 326.252 81.7321 326.116C81.6841 325.98 81.5921 325.888 81.4561 325.84C81.3281 325.792 81.1201 325.76 80.8321 325.744V325.504C81.6161 325.528 82.7761 325.54 84.3121 325.54C85.4881 325.54 86.3241 325.528 86.8201 325.504C86.7641 326.032 86.7361 326.504 86.7361 326.92C86.7361 327.232 86.7481 327.48 86.7721 327.664H86.4961C86.4401 327.144 86.3681 326.76 86.2801 326.512C86.1921 326.256 86.0441 326.072 85.8361 325.96C85.6281 325.84 85.3121 325.78 84.8881 325.78H83.8921C83.6041 325.78 83.3921 325.804 83.2561 325.852C83.1281 325.892 83.0401 325.98 82.9921 326.116C82.9441 326.252 82.9201 326.472 82.9201 326.776V329.608H83.7121C83.9921 329.608 84.2081 329.544 84.3601 329.416C84.5121 329.28 84.6121 329.124 84.6601 328.948C84.7161 328.764 84.7601 328.536 84.7921 328.264L84.8281 328.024H85.1041C85.0801 328.36 85.0681 328.736 85.0681 329.152V329.728C85.0681 330.136 85.0921 330.704 85.1401 331.432H84.8641C84.8561 331.376 84.8321 331.184 84.7921 330.856C84.7521 330.52 84.6401 330.268 84.4561 330.1C84.2801 329.932 84.0321 329.848 83.7121 329.848H82.9201V332.728C82.9201 333.032 82.9441 333.252 82.9921 333.388C83.0401 333.524 83.1281 333.616 83.2561 333.664C83.3921 333.704 83.6041 333.724 83.8921 333.724H84.7681C85.2641 333.724 85.6401 333.66 85.8961 333.532C86.1601 333.396 86.3521 333.184 86.4721 332.896C86.5921 332.6 86.6801 332.168 86.7361 331.6H87.0121C86.9881 331.816 86.9761 332.104 86.9761 332.464ZM95.5606 333.4C95.3766 333.672 95.1926 333.868 95.0086 333.988C94.8246 334.108 94.5806 334.168 94.2766 334.168C93.9486 334.168 93.6766 334.072 93.4606 333.88C93.2526 333.688 93.0966 333.352 92.9926 332.872L92.7286 331.672C92.6326 331.256 92.5406 330.936 92.4526 330.712C92.3726 330.488 92.2486 330.308 92.0806 330.172C91.9126 330.036 91.6766 329.968 91.3726 329.968H90.2326V332.728C90.2326 333.032 90.2566 333.252 90.3046 333.388C90.3526 333.524 90.4406 333.616 90.5686 333.664C90.7046 333.712 90.9166 333.744 91.2046 333.76V334C90.8366 333.976 90.3286 333.964 89.6806 333.964C88.9926 333.964 88.4806 333.976 88.1446 334V333.76C88.4326 333.744 88.6406 333.712 88.7686 333.664C88.9046 333.616 88.9966 333.524 89.0446 333.388C89.0926 333.252 89.1166 333.032 89.1166 332.728V326.776C89.1166 326.472 89.0926 326.252 89.0446 326.116C88.9966 325.98 88.9046 325.888 88.7686 325.84C88.6406 325.792 88.4326 325.76 88.1446 325.744V325.504C88.4806 325.528 88.9686 325.54 89.6086 325.54L90.9046 325.528C91.0566 325.52 91.2286 325.516 91.4206 325.516C92.3486 325.516 93.0606 325.712 93.5566 326.104C94.0606 326.488 94.3126 326.988 94.3126 327.604C94.3126 327.916 94.2366 328.232 94.0846 328.552C93.9406 328.864 93.6926 329.148 93.3406 329.404C92.9966 329.652 92.5446 329.82 91.9846 329.908L92.1286 329.932C92.6566 330.02 93.0406 330.18 93.2806 330.412C93.5206 330.644 93.6966 331.012 93.8086 331.516L94.1086 332.74C94.1886 333.108 94.2726 333.364 94.3606 333.508C94.4486 333.652 94.5686 333.724 94.7206 333.724C94.8566 333.724 94.9686 333.688 95.0566 333.616C95.1526 333.544 95.2606 333.428 95.3806 333.268L95.5606 333.4ZM91.1206 325.744C90.8726 325.744 90.6846 325.772 90.5566 325.828C90.4366 325.884 90.3526 325.984 90.3046 326.128C90.2566 326.272 90.2326 326.488 90.2326 326.776V329.728H91.0366C91.8286 329.728 92.3726 329.552 92.6686 329.2C92.9646 328.848 93.1126 328.36 93.1126 327.736C93.1126 327.08 92.9566 326.584 92.6446 326.248C92.3326 325.912 91.8246 325.744 91.1206 325.744ZM101.027 325.54C101.387 325.54 101.687 325.528 101.927 325.504V325.744C101.767 325.784 101.611 325.888 101.459 326.056C101.307 326.216 101.143 326.468 100.967 326.812L99.0831 330.544V332.728C99.0831 333.032 99.1071 333.252 99.1551 333.388C99.2031 333.524 99.2911 333.616 99.4191 333.664C99.5551 333.712 99.7671 333.744 100.055 333.76V334C99.6871 333.976 99.1791 333.964 98.5311 333.964C97.8431 333.964 97.3311 333.976 96.9951 334V333.76C97.2831 333.744 97.4911 333.712 97.6191 333.664C97.7551 333.616 97.8471 333.524 97.8951 333.388C97.9431 333.252 97.9671 333.032 97.9671 332.728V330.928L95.5311 326.428C95.3871 326.164 95.2591 325.988 95.1471 325.9C95.0431 325.804 94.9391 325.756 94.8351 325.756V325.504C95.1471 325.528 95.4991 325.54 95.8911 325.54C96.6671 325.54 97.2271 325.528 97.5711 325.504V325.756C97.0111 325.756 96.7311 325.908 96.7311 326.212C96.7311 326.332 96.7711 326.472 96.8511 326.632L98.8431 330.46L100.379 327.412C100.595 326.988 100.703 326.644 100.703 326.38C100.703 326.156 100.615 325.996 100.439 325.9C100.263 325.804 99.9991 325.752 99.6471 325.744V325.504C100.103 325.528 100.563 325.54 101.027 325.54Z" fill="#786F84"/>
<path d="M22.0068 271.448C22.6468 271.448 23.1908 271.539 23.6388 271.72C24.0868 271.901 24.5241 272.157 24.9508 272.488C25.0575 272.584 25.1588 272.632 25.2548 272.632C25.4681 272.632 25.6068 272.312 25.6708 271.672H26.0388C25.9961 272.429 25.9748 273.763 25.9748 275.672H25.6068C25.5321 274.819 25.3935 274.147 25.1908 273.656C24.9881 273.165 24.6361 272.755 24.1348 272.424C23.6335 272.104 23.1375 271.944 22.6468 271.944C21.5375 271.944 20.7588 272.477 20.3108 273.544C19.8628 274.611 19.6388 275.885 19.6388 277.368C19.6388 278.851 19.8628 280.125 20.3108 281.192C20.7588 282.259 21.5375 282.792 22.6468 282.792C23.1375 282.792 23.6335 282.632 24.1348 282.312C24.6361 282.003 24.9881 281.587 25.1908 281.064C25.3935 280.541 25.5321 279.8 25.6068 278.84H25.9748C25.9748 280.835 25.9961 282.221 26.0388 283H25.6708C25.6388 282.659 25.5908 282.419 25.5268 282.28C25.4735 282.131 25.3935 282.056 25.2868 282.056C25.2015 282.056 25.0895 282.099 24.9508 282.184C24.4708 282.525 24.0121 282.787 23.5748 282.968C23.1375 283.139 22.6095 283.224 21.9908 283.224C20.7855 283.224 19.7295 282.995 18.8228 282.536C17.9161 282.077 17.2121 281.416 16.7108 280.552C16.2095 279.677 15.9588 278.637 15.9588 277.432C15.9588 276.259 16.2148 275.219 16.7268 274.312C17.2388 273.405 17.9535 272.701 18.8708 272.2C19.7881 271.699 20.8335 271.448 22.0068 271.448ZM30.9156 275.672C31.3956 274.872 32.2436 274.472 33.4596 274.472C34.3129 274.472 34.9156 274.685 35.2676 275.112C35.4276 275.304 35.5449 275.565 35.6196 275.896C35.6942 276.216 35.7316 276.643 35.7316 277.176V281.512C35.7316 281.949 35.7956 282.253 35.9236 282.424C36.0622 282.584 36.2969 282.664 36.6276 282.664V283C35.4756 282.957 34.7289 282.936 34.3876 282.936C34.0249 282.936 33.2676 282.957 32.1156 283V282.664C32.3929 282.664 32.5849 282.584 32.6916 282.424C32.7982 282.253 32.8516 281.949 32.8516 281.512V276.312C32.8516 275.971 32.7876 275.72 32.6596 275.56C32.5422 275.389 32.3449 275.304 32.0676 275.304C31.7582 275.304 31.4862 275.416 31.2516 275.64C31.0276 275.853 30.9156 276.125 30.9156 276.456V281.512C30.9156 281.949 30.9689 282.253 31.0756 282.424C31.1822 282.584 31.3742 282.664 31.6516 282.664V283C30.5849 282.957 29.8809 282.936 29.5396 282.936C29.1769 282.936 28.3769 282.957 27.1396 283V282.664C27.4702 282.664 27.6996 282.584 27.8276 282.424C27.9662 282.253 28.0356 281.949 28.0356 281.512V272.408C28.0356 271.917 27.9662 271.56 27.8276 271.336C27.6996 271.112 27.4702 271 27.1396 271V270.664C27.4702 270.696 27.8009 270.712 28.1316 270.712C29.2409 270.712 30.1689 270.637 30.9156 270.488V275.672ZM39.2207 283.112C38.538 283.112 38.0207 282.931 37.6687 282.568C37.3274 282.195 37.1567 281.731 37.1567 281.176C37.1567 280.696 37.2794 280.301 37.5247 279.992C37.7807 279.672 38.0794 279.427 38.4207 279.256C38.762 279.085 39.2047 278.909 39.7487 278.728C40.3247 278.536 40.746 278.36 41.0127 278.2C41.2794 278.04 41.4127 277.816 41.4127 277.528V276.104C41.4127 275.763 41.3274 275.459 41.1567 275.192C40.986 274.925 40.6927 274.792 40.2767 274.792C39.946 274.792 39.6474 274.883 39.3807 275.064C39.7434 275.192 40.01 275.384 40.1807 275.64C40.362 275.885 40.4527 276.163 40.4527 276.472C40.4527 276.888 40.3034 277.224 40.0047 277.48C39.7167 277.725 39.3647 277.848 38.9487 277.848C38.5327 277.848 38.202 277.72 37.9567 277.464C37.722 277.197 37.6047 276.861 37.6047 276.456C37.6047 276.136 37.6847 275.859 37.8447 275.624C38.0047 275.389 38.2554 275.176 38.5967 274.984C39.194 274.643 40.0474 274.472 41.1567 274.472C41.7434 274.472 42.25 274.531 42.6767 274.648C43.1034 274.755 43.466 274.963 43.7647 275.272C43.978 275.496 44.1167 275.779 44.1807 276.12C44.2554 276.451 44.2927 276.915 44.2927 277.512V281.8C44.2927 282.067 44.3087 282.248 44.3407 282.344C44.3834 282.44 44.4527 282.488 44.5487 282.488C44.6234 282.488 44.7034 282.467 44.7887 282.424C44.874 282.371 44.954 282.312 45.0287 282.248L45.1887 282.52C44.73 282.915 44.074 283.112 43.2207 283.112C42.5807 283.112 42.1327 283.005 41.8767 282.792C41.6207 282.568 41.482 282.269 41.4607 281.896C40.9594 282.707 40.2127 283.112 39.2207 283.112ZM40.8207 281.832C41.0447 281.832 41.242 281.741 41.4127 281.56V278.184C41.3167 278.344 41.1407 278.552 40.8847 278.808C40.5967 279.085 40.378 279.357 40.2287 279.624C40.0794 279.88 40.0047 280.232 40.0047 280.68C40.0047 281.448 40.2767 281.832 40.8207 281.832ZM51.4807 274.472C52.0034 274.472 52.3767 274.632 52.6007 274.952C52.8354 275.272 52.9527 275.651 52.9527 276.088C52.9527 276.568 52.814 276.952 52.5367 277.24C52.27 277.517 51.918 277.656 51.4807 277.656C51.022 277.656 50.67 277.555 50.4247 277.352C50.1794 277.139 50.0567 276.856 50.0567 276.504C50.0567 275.875 50.3287 275.379 50.8727 275.016C50.6807 275.016 50.51 275.053 50.3607 275.128C50.094 275.245 49.87 275.437 49.6887 275.704C49.5074 275.96 49.4167 276.243 49.4167 276.552V281.352C49.4167 281.853 49.518 282.2 49.7207 282.392C49.934 282.573 50.2914 282.664 50.7927 282.664V283C50.654 283 50.5367 282.995 50.4407 282.984C49.3207 282.952 48.574 282.936 48.2007 282.936C47.87 282.936 47.1287 282.952 45.9767 282.984C45.8914 282.995 45.7794 283 45.6407 283V282.664C45.9714 282.664 46.2007 282.584 46.3287 282.424C46.4674 282.253 46.5367 281.949 46.5367 281.512V276.44C46.5367 275.949 46.4674 275.592 46.3287 275.368C46.2007 275.144 45.9714 275.032 45.6407 275.032V274.696C45.982 274.728 46.3127 274.744 46.6327 274.744C47.742 274.744 48.67 274.669 49.4167 274.52V275.672C49.822 274.872 50.51 274.472 51.4807 274.472ZM61.4436 281.24C61.4436 281.731 61.5076 282.088 61.6356 282.312C61.7742 282.536 62.0089 282.648 62.3396 282.648V282.984C62.0089 282.952 61.6782 282.936 61.3476 282.936C60.2382 282.936 59.3102 283.011 58.5636 283.16V282.024C58.3396 282.44 58.0729 282.744 57.7636 282.936C57.4649 283.128 57.0809 283.224 56.6116 283.224C55.6302 283.224 54.8409 282.861 54.2436 282.136C53.6462 281.4 53.3476 280.285 53.3476 278.792C53.3476 277.373 53.6622 276.301 54.2916 275.576C54.9316 274.84 55.8009 274.472 56.8996 274.472C57.5822 274.472 58.1369 274.605 58.5636 274.872V272.408C58.5636 271.917 58.4942 271.56 58.3556 271.336C58.2276 271.112 57.9982 271 57.6676 271V270.664C57.9982 270.696 58.3289 270.712 58.6596 270.712C59.7689 270.712 60.6969 270.637 61.4436 270.488V281.24ZM57.4116 282.392C57.7209 282.392 57.9876 282.285 58.2116 282.072C58.4462 281.848 58.5636 281.571 58.5636 281.24V275.208C58.3289 275.069 58.0782 275 57.8116 275C57.3102 275 56.9369 275.32 56.6916 275.96C56.4569 276.589 56.3396 277.549 56.3396 278.84C56.3396 280.152 56.4356 281.075 56.6276 281.608C56.8196 282.131 57.0809 282.392 57.4116 282.392ZM67.2096 274.472C68.5216 274.472 69.5349 274.819 70.2496 275.512C70.9642 276.195 71.3216 277.309 71.3216 278.856C71.3216 280.403 70.9642 281.517 70.2496 282.2C69.5349 282.883 68.5216 283.224 67.2096 283.224C65.8976 283.224 64.8842 282.883 64.1696 282.2C63.4549 281.517 63.0976 280.403 63.0976 278.856C63.0976 277.309 63.4549 276.195 64.1696 275.512C64.8842 274.819 65.8976 274.472 67.2096 274.472ZM67.2096 274.792C66.8682 274.792 66.5962 275.128 66.3936 275.8C66.1909 276.472 66.0896 277.491 66.0896 278.856C66.0896 280.221 66.1909 281.24 66.3936 281.912C66.5962 282.573 66.8682 282.904 67.2096 282.904C67.5509 282.904 67.8229 282.573 68.0256 281.912C68.2282 281.24 68.3296 280.221 68.3296 278.856C68.3296 277.491 68.2282 276.472 68.0256 275.8C67.8229 275.128 67.5509 274.792 67.2096 274.792ZM78.4763 274.472C79.3296 274.472 79.9323 274.685 80.2843 275.112C80.4443 275.304 80.5616 275.565 80.6363 275.896C80.711 276.216 80.7483 276.643 80.7483 277.176V281.512C80.7483 281.949 80.8123 282.253 80.9403 282.424C81.079 282.584 81.3136 282.664 81.6443 282.664V283C80.4923 282.957 79.7456 282.936 79.4043 282.936C79.0416 282.936 78.2843 282.957 77.1323 283V282.664C77.4096 282.664 77.6016 282.584 77.7083 282.424C77.815 282.253 77.8683 281.949 77.8683 281.512V276.312C77.8683 275.971 77.8043 275.72 77.6763 275.56C77.559 275.389 77.3616 275.304 77.0843 275.304C76.775 275.304 76.503 275.416 76.2683 275.64C76.0443 275.853 75.9323 276.125 75.9323 276.456V281.512C75.9323 281.949 75.9856 282.253 76.0923 282.424C76.199 282.584 76.391 282.664 76.6683 282.664V283C75.6016 282.957 74.8976 282.936 74.5563 282.936C74.1936 282.936 73.3936 282.957 72.1563 283V282.664C72.487 282.664 72.7163 282.584 72.8443 282.424C72.983 282.253 73.0523 281.949 73.0523 281.512V276.44C73.0523 275.949 72.983 275.592 72.8443 275.368C72.7163 275.144 72.487 275.032 72.1563 275.032V274.696C72.4976 274.728 72.8283 274.744 73.1483 274.744C74.2576 274.744 75.1856 274.669 75.9323 274.52V275.672C76.4123 274.872 77.2603 274.472 78.4763 274.472ZM88.4763 274.472C89.3296 274.472 89.9323 274.685 90.2843 275.112C90.4443 275.304 90.5616 275.565 90.6363 275.896C90.711 276.216 90.7483 276.643 90.7483 277.176V281.512C90.7483 281.949 90.8123 282.253 90.9403 282.424C91.079 282.584 91.3136 282.664 91.6443 282.664V283C90.4923 282.957 89.7456 282.936 89.4043 282.936C89.0416 282.936 88.2843 282.957 87.1323 283V282.664C87.4096 282.664 87.6016 282.584 87.7083 282.424C87.815 282.253 87.8683 281.949 87.8683 281.512V276.312C87.8683 275.971 87.8043 275.72 87.6763 275.56C87.559 275.389 87.3616 275.304 87.0843 275.304C86.775 275.304 86.503 275.416 86.2683 275.64C86.0443 275.853 85.9323 276.125 85.9323 276.456V281.512C85.9323 281.949 85.9856 282.253 86.0923 282.424C86.199 282.584 86.391 282.664 86.6683 282.664V283C85.6016 282.957 84.8976 282.936 84.5563 282.936C84.1936 282.936 83.3936 282.957 82.1563 283V282.664C82.487 282.664 82.7163 282.584 82.8443 282.424C82.983 282.253 83.0523 281.949 83.0523 281.512V276.44C83.0523 275.949 82.983 275.592 82.8443 275.368C82.7163 275.144 82.487 275.032 82.1563 275.032V274.696C82.4976 274.728 82.8283 274.744 83.1483 274.744C84.2576 274.744 85.1856 274.669 85.9323 274.52V275.672C86.4123 274.872 87.2603 274.472 88.4763 274.472ZM94.2363 283.112C93.5536 283.112 93.0363 282.931 92.6843 282.568C92.343 282.195 92.1723 281.731 92.1723 281.176C92.1723 280.696 92.295 280.301 92.5403 279.992C92.7963 279.672 93.095 279.427 93.4363 279.256C93.7776 279.085 94.2203 278.909 94.7643 278.728C95.3403 278.536 95.7616 278.36 96.0283 278.2C96.295 278.04 96.4283 277.816 96.4283 277.528V276.104C96.4283 275.763 96.343 275.459 96.1723 275.192C96.0016 274.925 95.7083 274.792 95.2923 274.792C94.9616 274.792 94.663 274.883 94.3963 275.064C94.759 275.192 95.0256 275.384 95.1963 275.64C95.3776 275.885 95.4683 276.163 95.4683 276.472C95.4683 276.888 95.319 277.224 95.0203 277.48C94.7323 277.725 94.3803 277.848 93.9643 277.848C93.5483 277.848 93.2176 277.72 92.9723 277.464C92.7376 277.197 92.6203 276.861 92.6203 276.456C92.6203 276.136 92.7003 275.859 92.8603 275.624C93.0203 275.389 93.271 275.176 93.6123 274.984C94.2096 274.643 95.063 274.472 96.1723 274.472C96.759 274.472 97.2656 274.531 97.6923 274.648C98.119 274.755 98.4816 274.963 98.7803 275.272C98.9936 275.496 99.1323 275.779 99.1963 276.12C99.271 276.451 99.3083 276.915 99.3083 277.512V281.8C99.3083 282.067 99.3243 282.248 99.3563 282.344C99.399 282.44 99.4683 282.488 99.5643 282.488C99.639 282.488 99.719 282.467 99.8043 282.424C99.8896 282.371 99.9696 282.312 100.044 282.248L100.204 282.52C99.7456 282.915 99.0896 283.112 98.2363 283.112C97.5963 283.112 97.1483 283.005 96.8923 282.792C96.6363 282.568 96.4976 282.269 96.4763 281.896C95.975 282.707 95.2283 283.112 94.2363 283.112ZM95.8363 281.832C96.0603 281.832 96.2576 281.741 96.4283 281.56V278.184C96.3323 278.344 96.1563 278.552 95.9003 278.808C95.6123 279.085 95.3936 279.357 95.2443 279.624C95.095 279.88 95.0203 280.232 95.0203 280.68C95.0203 281.448 95.2923 281.832 95.8363 281.832ZM107.316 274.76C107.924 274.76 108.335 274.739 108.548 274.696V275.032C108.324 275.107 108.116 275.261 107.924 275.496C107.743 275.731 107.572 276.093 107.412 276.584L105.412 282.536L104.74 284.472C104.548 285.027 104.314 285.411 104.036 285.624C103.706 285.88 103.21 286.008 102.548 286.008C102.015 286.008 101.519 285.88 101.06 285.624C100.602 285.379 100.372 285.005 100.372 284.504C100.372 284.131 100.516 283.832 100.804 283.608C101.092 283.384 101.471 283.272 101.94 283.272C102.388 283.272 102.74 283.373 102.996 283.576C103.252 283.779 103.38 284.072 103.38 284.456C103.38 284.712 103.29 284.952 103.108 285.176C102.938 285.411 102.682 285.581 102.34 285.688C102.447 285.709 102.628 285.72 102.884 285.72C103.62 285.72 104.127 285.293 104.404 284.44L104.484 284.168L100.756 275.928C100.596 275.565 100.436 275.325 100.276 275.208C100.127 275.091 99.9778 275.032 99.8284 275.032V274.696C100.682 274.76 101.551 274.792 102.436 274.792C103.13 274.792 103.903 274.76 104.756 274.696V275.032C104.447 275.032 104.207 275.053 104.036 275.096C103.876 275.139 103.796 275.235 103.796 275.384C103.796 275.469 103.818 275.555 103.86 275.64L105.828 280.328L106.5 278.28C106.703 277.661 106.804 277.117 106.804 276.648C106.804 276.147 106.698 275.757 106.484 275.48C106.271 275.203 105.988 275.053 105.636 275.032V274.696C106.031 274.739 106.591 274.76 107.316 274.76Z" fill="#786F84"/>
</svg>
