<svg width="216" height="122" viewBox="0 0 216 122" fill="none" xmlns="http://www.w3.org/2000/svg">
<path fill-rule="evenodd" clip-rule="evenodd" d="M208.623 1.42096C211.954 -0.379326 216 2.03305 216 5.81975V39.2261C208.948 39.2262 203.23 44.9433 203.23 51.9957C203.23 59.0482 208.948 64.7653 216 64.7654V116.649C216 119.41 213.761 121.649 211 121.649H5.91474C0.724269 121.649 -1.02872 114.717 3.53763 112.25L208.623 1.42096ZM103.395 93.7874C103.395 100.84 97.6776 106.557 90.6251 106.557C83.5725 106.557 77.8554 100.84 77.8554 93.7874C77.8554 86.7349 83.5725 81.0178 90.6251 81.0178C97.6776 81.0178 103.395 86.7349 103.395 93.7874ZM155.634 115.844C165.251 115.844 173.048 108.048 173.048 98.431C173.048 88.8139 165.251 81.0178 155.634 81.0178C146.017 81.0178 138.221 88.8139 138.221 98.431C138.221 108.048 146.017 115.844 155.634 115.844ZM163.761 64.7654C170.813 64.7654 176.53 59.0482 176.53 51.9957C176.53 44.9432 170.813 39.2261 163.761 39.2261C156.708 39.2261 150.991 44.9432 150.991 51.9957C150.991 59.0482 156.708 64.7654 163.761 64.7654Z" fill="white"/>
</svg>
