<svg width="310" height="232" viewBox="0 0 310 232" fill="none" xmlns="http://www.w3.org/2000/svg">
<path d="M141.43 0.127992C137.772 0.224885 128.615 0.903137 123.892 1.41182C108.365 3.10745 92.4501 6.49871 77.359 11.3191C75.7603 11.8278 73.4833 12.5545 72.2721 12.9179C64.9567 15.098 53.6929 21.7109 43.7614 29.6561C29.3485 41.2106 17.6729 55.2843 11.9805 67.9773C9.77614 72.8462 8.20163 77.8604 7.37804 82.5597C7.28115 83.0199 6.74824 84.2069 6.16688 85.1758C1.90359 92.249 -0.324952 110.102 0.0383966 133.913C0.207959 144.377 0.401745 145.734 2.26694 150.748C2.77562 152.08 3.38121 154.357 3.64766 155.835C4.97994 163.732 8.46809 170.781 15.3233 179.332C18.8356 183.74 26.3933 190.717 28.9852 191.952C29.7361 192.315 29.9299 192.315 30.3901 192.025C30.6566 191.831 31.8193 191.08 32.9336 190.329C37.5844 187.18 52.288 179.913 74.8156 169.594C88.3321 163.393 109.455 154.018 109.891 154.018C110.157 154.018 110.375 155.52 110.569 158.742C110.86 163.32 110.133 171.362 108.001 187.325C106.451 198.928 106.233 201.205 106.209 205.372C106.209 209.126 106.257 209.49 106.863 211.258C107.953 214.431 109.673 216.757 112.216 218.573C118.175 222.812 130.19 226.954 144.457 229.692C153.42 231.412 157.78 231.702 168.196 231.339C177.304 231 187.284 230.443 191.208 230.055C199.59 229.256 214.753 225.961 226.816 222.352C236.07 219.591 256.756 212.275 262.546 209.732C268.408 207.164 281.924 196.99 286.914 191.419C293.334 184.249 299.123 173.082 303.943 158.742C308.57 144.886 309.176 142.1 309.805 131.248C310.847 113.565 307.553 83.238 303.653 74.9778C303.192 74.0089 302.635 72.3133 302.417 71.1748C300.794 63.278 294.084 49.5434 288.707 43.1243C286.842 40.8957 283.62 38.1827 280.471 36.1964C276.571 33.7256 262.836 26.1195 258.912 24.2544C225.896 8.53346 186.17 -0.283803 149.787 0.00687624C146.468 0.0310995 142.689 0.079546 141.43 0.127992Z" fill="white"/>
</svg>
