<svg width="310" height="188" viewBox="0 0 310 188" fill="none" xmlns="http://www.w3.org/2000/svg">
<path d="M220.322 0.933294C217.589 2.33853 216.778 4.04185 217.034 7.95947C217.205 10.0886 217.717 12.1326 218.785 14.8579L220.365 18.6904L219.682 21.7563C218.529 27.3773 216.65 30.6562 209.219 40.0244C206.7 43.1755 204.095 46.5822 203.454 47.5616L202.259 49.3926H197.305C194.572 49.3926 190.729 49.6056 188.764 49.8185L185.22 50.2869L180.907 48.4984C167.156 42.8775 156.566 40.7057 142.602 40.7057C133.719 40.7057 128.296 41.3019 120.182 43.2181C89.6063 50.4146 62.5749 72.3448 47.5432 102.153C46.0486 105.091 44.2977 108.881 43.6572 110.584C42.8885 112.501 42.2052 113.693 41.8209 113.693C40.1128 113.693 31.7428 111.479 28.7963 110.244C26.2341 109.179 24.8675 108.285 22.9459 106.369C20.8107 104.239 20.2555 103.899 18.889 103.899C17.9923 103.899 16.1133 104.452 14.7041 105.134C4.28437 110.073 -3.82933 127.916 1.89297 133.281C2.96056 134.26 3.00326 134.26 6.50496 133.707C13.5938 132.514 22.0064 133.153 27.6433 135.368C28.7536 135.793 30.3336 136.304 31.145 136.475C33.878 137.028 38.5754 139.498 41.7355 142.01C43.4436 143.373 47.9702 148.057 51.8136 152.401C55.6569 156.744 60.0127 161.471 61.5073 162.834C76.9233 177.099 94.6881 184.082 123.385 187.234C132.908 188.255 156.181 188.255 165.021 187.234C177.362 185.743 186.928 183.784 196.451 180.761C229.931 170.03 251.923 148.44 251.923 126.34C251.923 124.211 251.624 121.869 251.24 120.634L250.556 118.505L253.887 114.119C268.748 94.5731 273.232 73.6223 265.332 60.3364C264.521 58.9738 263.88 57.6963 263.88 57.4834C263.88 56.7595 282.456 38.4488 285.317 36.2771C288.136 34.2331 288.307 34.148 291.936 33.8499C299.452 33.2963 304.619 31.3801 307.523 28.1864C308.932 26.6534 310 24.2261 310 22.608C310 20.9898 308.804 18.4349 307.139 16.5612C303.509 12.5584 297.103 10.7699 290.527 11.9623L287.025 12.601L286.257 11.1532C284.506 7.87431 278.399 5.4045 274.428 6.34132C273.275 6.59682 271.78 7.19298 271.14 7.66139C268.236 9.70537 267.766 14.4747 269.859 20.4363C270.542 22.4377 271.14 24.7371 271.14 25.5462C271.14 28.9103 269.047 34.2757 266.015 38.7469C264.606 40.7909 258.329 48.8816 256.578 50.8405C256.364 51.0534 255.254 50.7979 253.973 50.2443C251.795 49.3075 251.368 49.2649 244.45 49.5204C233.646 49.9036 224.208 52.2031 216.351 56.3337L213.874 57.6111L212.166 55.8227L210.415 54.0342L211.91 52.2457C216.607 46.5396 229.717 33.5944 234.457 29.9748C236.806 28.1864 237.446 27.9309 240.777 27.3773C245.005 26.6534 249.361 24.8223 251.453 22.8635C255.467 19.031 255.425 13.4527 251.282 9.83312C248.379 7.32073 246.329 6.6394 240.82 6.46907L235.909 6.29874L234.5 4.63801C232.578 2.38111 228.521 0.464882 225.02 0.166802C222.671 -0.0461126 221.945 0.0816361 220.322 0.933294Z" fill="white"/>
</svg>
