<svg width="310" height="140" viewBox="0 0 310 140" fill="none" xmlns="http://www.w3.org/2000/svg">
<path d="M63.9567 0.875473C63.4482 1.03627 61.8691 1.46507 60.4774 1.84027C59.0857 2.21546 57.5869 2.67106 57.1319 2.83186C54.8837 3.71625 49.1027 6.77143 47.2293 8.08463C44.7134 9.79981 41.6356 12.8282 40.2974 14.865C39.4409 16.1514 36.2025 23.8429 35.7475 25.6117C35.6672 26.0137 35.2658 27.0321 34.8643 27.8897C34.4896 28.7205 33.6599 30.8645 33.0444 32.6333C31.7865 36.1708 29.458 41.2896 27.9057 43.8356C25.3096 48.2308 21.295 52.1703 13.9349 57.6375C12.9714 58.3343 11.4994 59.4867 10.6162 60.2371C9.73295 60.9607 8.10035 62.2739 6.97627 63.1583C5.85218 64.0159 4.59427 65.0342 4.16605 65.4362C3.25608 66.267 1.51642 69.8582 0.954376 72.0826C0.204985 75.111 -0.30353 82.8293 0.204985 83.5797C0.606445 84.1425 1.32907 84.1693 3.3899 83.6869C5.79865 83.0973 11.8473 80.6585 14.1222 79.3722C16.9325 77.7642 18.0565 77.2014 19.1003 76.8262C20.3315 76.3706 25.256 73.5298 29.6989 70.6622C31.385 69.5902 33.3923 68.3574 34.1417 67.9018C34.8911 67.473 36.2828 66.5082 37.2463 65.7846C39.548 63.9891 42.1976 62.2471 46.4263 59.7011C52.0735 56.2707 54.8302 54.9307 56.1952 54.8503C56.8643 54.8235 57.8545 54.7163 58.3898 54.6091C59.3533 54.4215 59.3801 54.4215 59.5674 55.4131C59.8618 56.9943 59.5139 61.0947 58.8716 63.4531C58.2292 65.9186 56.4896 69.2954 54.4823 72.029C53.7329 73.0474 48.8886 78.193 43.7232 83.4725C32.7232 94.6749 30.6088 97.3012 28.6818 102.152C26.2998 108.155 26.5675 114.48 29.4045 119.572C32.9373 125.923 36.4701 129.917 42.6526 134.58C43.8035 135.437 48.1125 137.474 49.2366 137.662C52.2609 138.171 59.621 138.627 67.7037 138.761C97.5723 139.297 121.446 139.323 128.11 138.841C132.472 138.519 139.056 138.814 141.706 139.431C143.098 139.752 151.876 139.752 162.047 139.431C166.463 139.297 173.341 139.109 177.302 139.029C208.161 138.385 216.859 138.01 221.73 137.126C224.112 136.697 230.884 135.116 233.774 134.339C234.818 134.044 237.789 133.401 240.438 132.865C245.952 131.766 247.183 131.23 250.368 128.657C253.098 126.459 254.543 124.878 259.307 118.929C264.793 112.095 270.494 106.279 275.258 102.688C277.346 101.107 282.859 97.4084 284.304 96.6044C286.847 95.184 292.815 92.2361 295.331 91.1909C296.803 90.5745 298.917 89.6365 300.015 89.1273C301.112 88.6181 302.638 87.9749 303.36 87.7069C307.295 86.3401 308.231 85.8845 309.141 85.0269C310.372 83.8477 310.292 83.0169 308.82 81.7037C307.482 80.4709 306.278 79.8813 303.494 79.0506C299.667 77.8982 288.132 74.9234 284.492 74.173C283.528 73.9586 281.682 73.4762 280.343 73.101C279.032 72.699 275.713 71.9218 272.983 71.3322C261.956 69.0006 259.815 68.3306 259.655 67.1782C259.494 66.0258 260.19 65.1682 263.295 62.6759C265.061 61.2823 267.175 59.3795 268.005 58.4683C270.146 56.0831 271.458 53.2423 270.521 53.0815C270.334 53.0279 267.818 53.0011 264.954 53.0011H259.735L259.815 52.1703C259.922 50.9911 259.441 49.9191 258.798 49.9191C258.504 49.9191 257.514 50.2139 256.604 50.5623C251.786 52.3847 248.173 53.3763 245.095 53.6979C241.429 54.0463 220.124 54.1535 210.088 53.8855C200.319 53.5907 187.098 52.8403 182.253 52.2775C178.667 51.8755 172.592 51.6611 166.195 51.6879C161.833 51.7147 160.039 51.8487 157.363 52.3043C155.516 52.6259 152.867 53.0815 151.475 53.3227C144.784 54.4483 141.144 55.6275 134.025 58.9775C132.82 59.5671 131.027 60.3711 130.064 60.7731C129.1 61.1751 127.735 61.7647 126.986 62.1131C124.256 63.3995 118.689 65.7578 115.049 67.1782C112.319 68.2234 108.545 69.215 108.278 68.947C107.635 68.3038 107.02 64.8466 106.859 61.1751C106.699 56.6459 107.02 53.0279 107.983 49.2492C109.536 43.1388 110.392 36.9748 110.365 32.0973C110.339 28.7473 110.312 28.4793 109.188 25.1293C107.502 20.0373 106.672 18.6706 103.193 15.2402C99.9275 12.051 98.1075 10.577 95.672 9.12982C94.7888 8.62062 93.2097 7.68263 92.1659 7.06623C88.526 4.94905 82.1295 2.45666 77.9543 1.59907C74.3947 0.821874 65.6696 0.393077 63.9567 0.875473Z" fill="white"/>
</svg>
