<svg width="155" height="462" viewBox="0 0 155 462" fill="none" xmlns="http://www.w3.org/2000/svg">
<path d="M68.6564 212.377C63.305 212.863 57.8789 213.761 52.2281 215.146C47.9995 216.193 41.6752 218.214 40.5899 218.887C40.4403 219 41.75 221.843 43.4714 225.248C52.4527 242.835 58.4028 259.598 61.3591 275.575C61.9578 278.606 62.1075 280.327 61.883 280.477C61.621 280.627 61.621 281.899 61.883 284.293C62.4817 289.42 62.3695 296.866 61.7333 300.982C61.3965 302.927 61.2468 304.985 61.3591 305.509C61.621 306.632 59.9745 312.469 57.7666 318.344C55.1096 325.453 52.041 332.113 45.118 345.733C37.2594 361.187 34.116 367.847 31.3842 374.732C24.7231 391.757 23.3385 404.778 26.931 417.201C29.1014 424.722 34.3779 433.328 40.2906 438.941C43.0972 441.597 47.8872 445.376 50.4319 446.911C51.8165 447.771 52.2656 448.22 51.2926 447.846C50.6939 447.622 49.0473 449.642 48.7105 450.989C48.4111 452.299 49.1221 454.357 50.3571 455.554C52.6398 457.687 58.3279 459.782 64.7271 460.755C74.569 462.289 91.3714 461.765 99.3423 459.707C104.207 458.473 107.987 456.49 109.409 454.469C110.831 452.486 110.12 449.418 107.874 447.771C107.538 447.509 107.014 447.06 106.714 446.798C106.34 446.424 106.003 446.387 105.479 446.649C104.357 447.247 105.218 446.536 108.698 443.955C117.417 437.444 124.378 428.127 127.371 418.885C130.402 409.643 130.552 398.679 127.783 387.828C125.35 378.287 121.983 370.391 110.756 347.791C100.428 327.062 98.2945 322.272 95.5253 313.928C94.1032 309.663 93.6167 307.642 93.5419 305.509C93.4671 303.975 93.2425 301.693 93.018 300.458C92.4941 297.652 92.4941 288.035 92.9806 283.807C93.2051 281.936 93.2051 280.589 93.018 280.439C92.5315 280.178 93.8413 272.918 95.6375 265.884C98.9681 252.75 105.741 235.576 112.552 222.891L114.648 219.037L113.263 218.438C101.176 213.35 84.1116 211.03 68.6564 212.377Z" fill="white"/>
<path fill-rule="evenodd" clip-rule="evenodd" d="M50.5366 2.13052C50.1255 1.79412 50.2376 1.53246 51.0973 0.859668C51.6953 0.373762 52.2934 0 52.4055 0C52.5177 0 53.1157 0.560679 53.7137 1.27085C54.7977 2.46693 54.9472 2.5043 57.7505 2.57905C59.3951 2.61643 61.0023 2.8033 61.3761 2.99019C62.3105 3.51347 64.2168 3.43874 66.6837 2.80332C68.2909 2.39217 69.2627 2.35476 70.4214 2.61641C71.8418 2.91543 72.066 2.87806 72.8509 2.05576C74.1218 0.672799 75.2805 0.523305 76.8503 1.49512C78.009 2.20529 78.5323 2.28 80.4012 2.09312C81.971 1.90623 82.9428 2.01839 84.0641 2.42954C85.4097 2.9902 86.1573 2.9902 91.6518 2.5043C97.4079 2.01839 97.819 2.01839 98.5292 2.65381C98.9404 2.9902 100.211 3.70035 101.332 4.22363C102.454 4.74692 104.285 5.98036 105.407 6.98955C107.238 8.63416 107.462 9.04531 107.649 10.6525C107.836 12.2224 108.023 12.5214 108.808 12.7083C109.331 12.8204 109.78 13.1942 109.855 13.5306C110.004 14.3529 108.322 16.2218 106.378 17.3805C102.94 19.3615 100.884 23.0245 99.6879 29.1543C98.4171 35.5085 95.8007 41.6758 92.6609 45.6004C91.8386 46.647 91.2032 47.5814 91.3154 47.6562C91.6518 47.9925 95.2774 44.8155 95.7259 43.7689C96.2118 42.5728 96.9967 42.1243 96.5856 43.2456C96.4361 43.6194 97.1088 43.2082 98.0433 42.3859C98.9403 41.5263 100.959 40.0312 102.491 39.0594C109.182 34.6862 113.891 30.2383 115.872 26.2763C116.582 24.856 120.918 20.9687 121.367 21.3799C121.442 21.492 120.731 22.5012 119.76 23.6225C117.181 26.5753 114.377 30.2009 112.62 32.78C110.976 35.1721 108.06 38.0128 105.631 39.5453C103.687 40.7413 100.211 43.6941 100.211 44.1053C100.211 44.2922 100.921 44.2174 101.781 43.881C104.734 42.8345 103.5 43.8437 99.8374 45.4135C99.1272 45.7125 97.5574 46.7965 96.3239 47.8057C93.0347 50.609 87.2038 53.0759 82.6438 53.6366C79.8405 53.9729 79.5415 54.2346 78.9808 56.3277C78.7192 57.2995 77.9343 59.3927 77.2241 60.9251C75.8411 64.0274 75.3926 66.0832 74.7946 71.4656C74.346 75.8761 74.3087 85.1083 74.7572 85.3699C75.2057 85.6689 83.653 79.3148 85.335 77.4459C86.1199 76.5862 86.8301 75.8761 86.9048 75.8761C87.2038 75.8761 87.8766 80.4361 88.1009 84.0991C88.2131 86.267 88.4747 88.2106 88.699 88.4723C89.1101 88.9582 88.9232 91.5746 88.3252 94.0041C87.3534 97.9287 87.1291 99.5733 87.5402 99.835C87.8019 99.9845 87.6524 100.919 86.9796 102.788C86.4189 104.283 86.0825 105.815 86.1947 106.152C86.3442 106.638 85.8209 107.348 84.3258 108.619C83.2045 109.59 82.27 110.562 82.27 110.749C82.27 110.936 81.8589 111.571 81.3356 112.207C80.8123 112.805 80.4012 113.515 80.4012 113.777C80.4012 114.001 79.2799 115.384 77.8969 116.804L75.3552 119.421L75.5795 124.654C75.6916 127.532 75.9159 132.129 76.1028 134.82C76.3644 139.605 76.4018 139.791 77.1867 139.791C77.6726 139.791 79.0182 140.09 80.2517 140.502C84.0268 141.698 85.1107 141.885 89.297 142.146L91.278 142.296L92.7731 139.754C93.558 138.371 94.2308 136.876 94.2308 136.465C94.2308 136.054 94.4177 135.605 94.6046 135.493C94.9784 135.269 95.9875 133.848 97.6321 131.307C98.0433 130.634 98.7161 129.999 99.0899 129.886C99.4636 129.774 100.548 128.728 101.519 127.606C102.977 125.924 103.313 125.214 103.426 123.906C103.463 123.009 103.837 121.813 104.173 121.215C105.257 119.533 108.472 116.617 109.219 116.617C110.228 116.617 112.695 114.973 114.975 112.88C115.984 111.908 117.367 110.936 117.965 110.749C118.601 110.562 119.423 109.889 119.834 109.217C120.245 108.581 121.255 107.796 122.077 107.46C122.899 107.124 123.946 106.488 124.394 106.04C124.88 105.628 125.366 105.404 125.516 105.516C125.628 105.666 125.441 106.04 125.03 106.339C124.357 106.862 124.432 106.862 125.628 106.675C126.338 106.526 127.497 106.114 128.169 105.741C129.665 104.881 130.001 104.844 129.366 105.591C128.73 106.339 129.291 106.301 131.309 105.516C133.963 104.507 135.645 103.236 136.467 101.779C136.916 100.994 137.177 100.657 137.065 100.994C136.804 101.816 137.29 101.853 138.747 101.106C139.345 100.769 139.981 100.62 140.168 100.695C140.354 100.807 141.177 100.583 141.999 100.171C143.905 99.2369 144.055 99.2369 143.756 100.171C143.532 100.919 143.532 100.956 144.877 100.358C146.522 99.6855 146.671 99.6855 146.372 100.171C146.073 100.657 146.597 100.657 147.83 100.171C148.54 99.9097 148.764 99.9471 148.69 100.284C148.652 100.545 148.951 100.695 149.437 100.62C150.334 100.508 152.24 102.078 151.493 102.339C151.231 102.414 151.044 102.638 151.044 102.863C151.044 103.124 151.642 103.199 152.652 103.049C153.773 102.9 154.035 102.937 153.586 103.199C152.689 103.685 152.726 104.283 153.661 104.283C154.222 104.283 154.371 104.507 154.334 105.217C154.296 105.741 154.109 106.152 153.96 106.152C153.81 106.152 153.25 106.638 152.689 107.236C152.166 107.834 151.007 108.507 150.073 108.768C148.764 109.142 147.979 109.74 146.41 111.534C145.326 112.805 143.905 114.599 143.27 115.533C142.522 116.655 141.737 117.365 141.065 117.552C138.56 118.15 137.476 119.869 139.084 120.729C139.495 120.953 139.831 121.327 139.831 121.551C139.831 121.813 140.541 122.747 141.401 123.607L142.971 125.214L142.298 126.522C141.924 127.195 141.214 128.167 140.728 128.616C140.242 129.064 139.831 129.662 139.831 129.924C139.831 130.185 139.532 130.484 139.158 130.634C138.149 130.933 137.402 132.69 138.037 133.138C138.411 133.362 138.374 133.587 137.775 134.035C137.364 134.334 136.654 134.671 136.206 134.82C135.346 135.007 135.01 135.68 135.72 135.68C135.944 135.68 136.093 135.829 136.093 136.016C136.093 136.241 135.159 136.689 134.038 137.025C132.206 137.624 131.309 138.296 132.356 138.296C133.253 138.296 132.617 139.044 131.347 139.455C130.562 139.679 129.702 140.128 129.44 140.427C129.179 140.688 128.693 140.913 128.394 140.913C128.095 140.913 127.908 141.1 127.983 141.361C128.02 141.623 127.31 141.959 126.188 142.146C125.179 142.37 124.245 142.669 124.133 142.819C123.946 143.081 121.105 143.043 114.415 142.669C113.331 142.595 112.583 142.744 112.321 143.081C111.798 143.791 109.742 142.931 107.238 140.913C106.192 140.09 105.22 139.418 105.033 139.418C104.883 139.418 104.659 139.081 104.51 138.67C104.397 138.259 103.613 137.1 102.79 136.054C101.968 135.007 101.146 133.774 100.959 133.25C100.772 132.727 100.435 132.316 100.249 132.316C99.3141 132.316 92.8852 142.109 93.3337 142.819C93.4459 143.006 93.7823 143.155 94.0813 143.155C94.4924 143.155 94.6046 143.641 94.5672 145.323C94.4924 147.08 94.7167 147.902 95.5016 149.36C96.3239 150.892 96.4361 151.416 96.137 152.201C95.9502 152.724 95.5764 153.285 95.3895 153.434C94.642 153.883 94.9783 154.256 95.9502 154.07L96.8846 153.883L96.137 155.116C95.7633 155.789 95.5016 156.536 95.6138 156.798C95.6885 157.097 95.0905 157.695 94.0813 158.293C92.2498 159.377 91.876 159.826 93.1095 159.489C93.558 159.377 93.1842 159.9 92.0629 160.947C91.0911 161.844 90.194 162.554 90.0445 162.592C89.8576 162.592 89.7455 162.741 89.7455 162.928C89.7455 163.115 90.1193 163.19 90.6052 163.077C91.2406 162.928 91.1285 163.115 90.0072 164.087C89.0353 164.909 88.6616 165.507 88.8111 165.956C88.9232 166.292 88.7363 166.815 88.4373 167.077C88.1009 167.339 87.5029 168.049 87.0543 168.684C86.4563 169.544 86.3815 169.843 86.7553 170.067C87.0917 170.291 86.6806 170.74 85.335 171.562C84.251 172.198 83.4661 172.87 83.5782 173.057C83.653 173.207 83.2419 173.431 82.6438 173.581L81.5225 173.767V176.571C81.5225 183.448 79.8405 198.96 78.1585 207.669C77.2988 212.266 77.2241 213.163 77.8595 212.939C78.1211 212.864 78.7566 213.088 79.2425 213.462C80.2143 214.21 80.9618 214.397 80.5881 213.799C80.2143 213.201 80.6254 213.35 82.6812 214.584C83.9894 215.331 84.6996 215.593 84.8865 215.294C85.0733 214.995 85.5219 215.182 86.3068 215.854C86.9422 216.415 87.6524 216.751 87.8393 216.639C88.0262 216.49 88.4373 216.751 88.7363 217.2C89.1101 217.686 89.3717 217.835 89.5586 217.574C89.895 216.976 90.4931 217.462 90.4931 218.321C90.4931 218.695 90.6799 219.031 90.8668 219.031C91.0911 219.031 91.2406 218.845 91.2406 218.658C91.2406 217.761 91.9882 218.433 92.7357 219.966C93.1842 220.9 93.7075 221.536 93.8944 221.424C94.2421 221.206 96.3207 223.048 98 224.82V233.54H72.7429C72.8173 230.551 72.7406 227.181 72.4772 225.722C72.2529 224.414 72.2155 222.993 72.4398 221.984C72.8883 219.816 72.4398 217.462 71.2811 215.929C70.7578 215.256 69.786 213.201 69.0758 211.369C68.67 210.301 68.0689 208.745 67.4678 207.189L67.465 207.182C67.0151 206.017 66.5654 204.853 66.1978 203.894C65.3007 201.614 64.0299 198.586 63.3197 197.166C61.4135 193.316 52.6298 177.916 52.3308 177.916C52.1813 177.916 51.7701 178.365 51.3963 178.926C50.8357 179.785 50.6862 180.757 50.6488 183.897C50.574 189.802 50.3871 191.073 49.6396 190.812C49.4153 190.699 48.8547 191.26 48.4061 192.008C47.995 192.793 47.4343 193.391 47.1727 193.316C46.8737 193.241 46.2756 193.577 45.7897 194.026L44.8927 194.848V194.026C44.8927 193.241 44.8553 193.241 44.0704 193.764C42.9864 194.512 42.2762 194.512 42.2762 193.764C42.2762 193.204 42.2015 193.204 41.3418 193.764C40.3326 194.437 39.2861 194.549 39.2861 193.989C39.2861 193.764 38.8001 193.615 38.1647 193.615C37.4546 193.615 37.0808 193.428 37.1555 193.129C37.1929 192.905 37.006 192.718 36.7444 192.792C36.4454 192.83 36.1464 192.531 36.0342 192.12C35.9221 191.709 35.5109 191.372 35.0998 191.372C34.6139 191.372 34.2027 190.961 33.9411 190.251C33.6047 189.316 33.3431 189.13 32.7076 189.279C32.2217 189.429 31.5116 189.204 30.9509 188.756C30.3902 188.307 29.4558 188.008 28.5214 188.008C27.3627 188.008 26.9889 187.859 26.8394 187.261C26.7273 186.85 26.3161 186.513 25.905 186.513C25.5312 186.513 24.5594 186.102 23.7744 185.579C23.0269 185.055 21.2702 184.345 19.9246 184.046C18.5416 183.71 17.2708 183.336 17.0465 183.149C16.8596 183 15.6636 182.588 14.4301 182.215C13.1967 181.878 11.552 181.168 10.7671 180.645C9.94482 180.159 8.74874 179.636 8.03857 179.524C7.3284 179.411 6.76774 179.187 6.76774 179.038C6.76774 178.739 3.29165 178.066 0.600475 177.842C-0.371337 177.729 -0.259206 177.655 1.64704 177.019C2.84312 176.645 3.88968 176.122 4.03919 175.935C4.1887 175.674 4.00182 175.636 3.55329 175.786C3.03 175.973 3.14213 175.786 3.88968 175.15C5.04838 174.066 5.16052 173.73 4.26346 174.029C3.7028 174.216 3.7028 174.141 4.33821 173.618C4.71866 173.307 5.32312 172.867 5.73703 172.567L5.73725 172.566L5.73752 172.566L5.83331 172.497C6.54348 172.011 6.54348 171.973 5.53429 171.973L4.45035 171.936L5.64642 170.927C6.73036 170.03 6.80512 169.88 6.1697 169.656C5.60904 169.469 5.90806 169.245 7.40316 168.721C9.42153 168.011 9.94482 167.451 8.63661 167.451C7.29102 167.451 7.85169 166.703 9.38416 166.479C10.2065 166.329 10.8793 166.105 10.8793 165.918C10.8793 165.731 10.6924 165.582 10.4681 165.582C9.49629 165.582 10.6924 164.872 12.4117 164.423C14.0937 163.975 14.2432 163.862 13.6452 163.451C13.0471 163.003 13.0845 162.965 13.9442 162.965C14.5049 162.965 15.0655 162.778 15.1776 162.592C15.2898 162.367 15.7757 162.218 16.2242 162.218C17.0091 162.18 17.0091 162.18 16.3737 161.695C15.7757 161.246 15.7757 161.171 16.299 160.947C16.6354 160.835 17.2334 160.91 17.6072 161.097C18.5416 161.582 19.8872 161.582 19.7377 161.059C19.7003 160.797 20.3357 160.573 21.3449 160.498C22.2794 160.386 23.2885 160.237 23.5876 160.125C24.0735 159.975 24.0735 159.9 23.5876 159.564C23.1764 159.302 23.5502 159.228 24.8958 159.302C26.3161 159.377 26.7273 159.302 26.6525 158.891C26.5778 158.517 26.8394 158.443 27.5122 158.592C28.0728 158.667 29.7548 158.517 31.2499 158.218C33.9037 157.658 34.0532 157.695 35.0998 158.443C35.6978 158.854 36.2959 159.115 36.408 159.003C36.6696 158.742 38.389 161.059 38.7254 162.143C38.8375 162.592 39.0992 162.891 39.2487 162.778C39.5477 162.592 41.9025 165.657 41.9025 166.255C41.9025 167.114 45.0795 170.889 46.3504 171.525C47.7707 172.272 50.4993 172.945 50.4993 172.534C50.4993 172.422 50.0134 171.263 49.4527 169.992C48.2566 167.376 45.2664 159.19 45.2664 158.555C45.2664 157.807 43.8835 157.359 41.753 157.359C40.6316 157.359 39.5851 157.172 39.4729 156.985C39.3608 156.761 38.9497 156.611 38.5759 156.611C38.2395 156.611 37.0808 156.2 36.0716 155.677C34.5391 154.892 33.9785 154.369 33.1935 152.761C32.6329 151.677 32.1844 150.593 32.1844 150.332C32.1844 150.108 31.5489 149.472 30.764 148.986C29.9791 148.5 28.8951 147.566 28.3345 146.93C27.4748 145.884 25.8302 142.184 25.8302 141.249C25.8302 140.352 22.8026 135.231 20.5226 132.241C19.7377 131.232 19.2892 130.073 18.9154 127.756C18.0557 122.897 17.7567 121.514 17.3082 121.028C16.7475 120.28 15.3645 115.571 15.3645 114.225C15.3645 113.59 15.1403 112.73 14.8413 112.319C14.2058 111.385 13.8694 108.693 14.2806 107.983C14.4301 107.684 14.6544 106.937 14.7665 106.301C14.8413 105.703 14.9534 105.217 14.9908 105.217C15.0281 105.217 15.1029 104.619 15.1403 103.909C15.2524 102.227 16.5232 97.555 16.8596 97.555C17.3082 97.555 18.0931 93.892 17.8688 93.0323C17.7567 92.5838 17.7567 92.3595 17.8688 92.4716C18.5042 93.0697 19.9993 88.7339 21.0459 83.2768C21.2328 82.305 21.6066 81.0341 21.9056 80.4735C22.4289 79.5017 22.4662 79.5017 22.4662 80.2492C22.4662 80.7351 22.9521 81.6322 23.5876 82.305C24.4846 83.3142 24.7463 83.4263 25.0453 82.9778C25.3443 82.5293 25.4564 82.5666 25.6807 83.1647C25.8302 83.5758 26.2787 84.3234 26.6525 84.8093C27.0181 85.2765 27.1851 85.4898 27.2613 85.4612C27.3253 85.4372 27.3253 85.2424 27.3253 84.884C27.3253 83.8748 27.886 83.8375 27.9607 84.884C28.0728 86.0427 29.1568 87.1267 29.867 86.7529C30.3155 86.4913 30.5771 86.7155 31.0257 87.6126C31.4368 88.4349 31.8853 88.7713 32.5208 88.7713C33.0814 88.7713 33.5299 89.0703 33.7168 89.631C34.0906 90.6028 34.6886 90.7149 34.9129 89.7805C35.025 89.3319 35.1745 89.4441 35.5483 90.3411C35.9968 91.5372 36.6696 92.0231 36.6696 91.1261C36.6696 90.8644 37.0808 91.2382 37.5667 91.911C38.3142 92.9202 38.5011 93.0323 38.6133 92.4343C38.7628 91.8736 38.8749 91.911 39.2487 92.7333C39.8467 93.9667 41.7903 95.4244 42.4631 95.2002C42.7622 95.0507 43.0238 95.3871 43.1733 96.0972C43.2854 96.7327 43.6218 97.1812 43.9582 97.1812C44.2572 97.1812 44.5189 97.4428 44.5189 97.7419C44.5189 98.0409 44.8553 98.3025 45.2291 98.3025C45.6402 98.3025 46.2756 98.7884 46.6494 99.4238C47.3969 100.695 47.8829 100.882 47.8829 99.8724C47.9202 99.3865 48.9668 101.779 49.0042 102.339C49.0042 102.414 49.3032 102.377 49.677 102.265C50.2002 102.078 50.4619 102.339 50.8357 103.348C51.2842 104.657 51.8075 105.03 52.0691 104.208C52.1813 103.946 52.4429 104.545 52.7045 105.516C53.1904 107.161 53.8259 107.871 53.9006 106.787C53.9006 106.563 54.1996 107.273 54.5734 108.394C54.9472 109.516 55.1714 110.6 55.0967 110.787C54.9846 110.936 55.2462 110.973 55.6573 110.861C56.3301 110.637 56.4423 110.787 56.7039 112.319C56.8908 113.552 57.0777 114.001 57.4515 113.851C57.8252 113.702 57.9747 114.038 57.9747 115.122C57.9747 115.945 58.1616 116.617 58.3485 116.617C58.5728 116.617 58.6475 117.029 58.498 117.552C58.3111 118.299 58.3859 118.449 58.797 118.299C59.2456 118.113 59.3203 118.374 59.0961 119.682C58.9839 120.579 58.7223 121.551 58.5354 121.85C58.3111 122.224 58.3859 122.299 58.8344 122.112C59.3577 121.925 59.3577 122.037 58.8718 123.42C58.199 125.401 58.199 125.812 58.9839 125.177C59.5446 124.691 59.5446 124.728 59.2082 125.401C58.6102 126.56 58.2364 129.064 58.6849 128.765C59.1708 128.466 59.2082 129.139 58.7597 130.746C58.498 131.531 58.5354 131.942 58.797 131.942C59.0213 131.942 59.0587 132.353 58.9092 132.951C58.7597 133.549 58.5728 134.82 58.498 135.792C58.4233 136.801 58.2738 137.736 58.1616 137.96C58.0121 138.147 58.2738 138.296 58.6849 138.296C59.3577 138.296 59.3951 138.371 58.8718 140.24L58.8149 140.451C58.4133 141.938 58.3148 142.303 58.4272 142.387C58.4637 142.415 58.5224 142.413 58.6002 142.41L58.6426 142.408C58.6562 142.408 58.6703 142.408 58.6849 142.408C58.8718 142.408 59.1334 142.109 59.2082 141.735C59.3577 141.212 59.3951 141.249 59.4325 141.885C59.4325 142.296 59.0587 143.193 58.5354 143.903C57.4515 145.361 57.2646 146.631 58.199 146.258C58.7597 146.071 58.7597 146.146 58.2364 147.117C57.9 147.715 57.1151 148.762 56.4797 149.397C55.62 150.294 55.4705 150.631 55.919 150.631C56.9656 150.631 56.1432 151.341 54.6108 151.79C53.7885 152.051 53.1157 152.388 53.1157 152.574C53.1157 152.724 52.7045 152.873 52.1812 152.873C50.873 152.873 47.1353 156.723 47.1353 158.069C47.1353 159.751 48.1071 163.003 49.6396 166.703C49.8973 167.312 50.1881 168.002 50.4843 168.705L50.4868 168.711L50.4872 168.712L50.4885 168.715C51.136 170.252 51.8089 171.848 52.2186 172.796L53.2652 175.337L53.938 174.478C54.9472 173.207 55.1714 172.011 54.4986 171.263C52.9288 169.469 52.2186 166.217 52.7793 163.264C52.9662 162.18 53.34 159.863 53.6016 158.106C53.9754 155.826 54.3865 154.481 55.1341 153.359C56.1059 151.902 58.3111 149.883 58.9092 149.883C59.0587 149.883 59.6567 149.547 60.2548 149.098C60.8528 148.687 61.563 148.388 61.8246 148.5C62.4227 148.725 64.142 147.454 65.7866 145.622C68.0293 143.081 68.9637 142.221 70.1972 141.361L71.3932 140.539L71.2437 136.315C71.0568 130.522 70.384 127.457 69.188 126.784L69.1878 126.784L69.1876 126.784C68.7655 126.555 68.5421 126.434 68.5565 126.39C68.5726 126.34 68.8891 126.386 69.5614 126.485L69.5617 126.485L70.8699 126.709L70.8326 123.233C70.8326 120.467 70.5709 119.084 69.6365 116.057C68.4404 112.282 68.104 109.03 68.8516 108.544C69.0758 108.432 69.188 107.796 69.0758 107.124C68.9637 106.488 69.1132 105.03 69.3748 103.909C70.085 101.031 70.4214 92.5464 69.9355 90.2664C69.2253 86.7903 69.0384 76.3994 69.5991 71.3908C70.3467 64.5507 70.2345 61.3363 69.1506 57.2248C68.0666 53.188 67.7676 52.9264 63.843 52.5152C62.0863 52.3283 61.1518 51.9172 58.9839 50.4594C55.6947 48.2542 55.0219 47.1329 52.6298 40.1433C50.1255 32.8547 49.7143 30.1636 49.976 22.7628C50.1629 17.53 50.0881 16.3339 49.6022 15.3995C48.8547 13.9417 48.8547 11.9982 49.6022 9.30698C50.1629 7.40074 50.1629 7.10169 49.6022 6.05513C48.8173 4.52265 49.1537 3.84987 51.0226 3.28921C52.1439 2.99019 52.3681 2.80329 51.8075 2.69116C51.3963 2.61641 50.8357 2.35478 50.5366 2.13052ZM65.824 178.178C61.9741 176.459 60.8154 175.786 59.283 174.44C58.3859 173.693 57.4141 173.057 57.1151 173.057C56.816 173.057 56.0311 173.954 55.3957 175.076L54.2744 177.131L55.1341 179.112C55.62 180.234 57.0029 182.701 58.1616 184.644C61.2266 189.69 65.5997 198.25 66.6089 201.09C67.0574 202.436 67.7302 203.856 68.104 204.267C68.4404 204.679 68.8889 205.688 69.0011 206.51C69.487 209.052 69.8981 209.313 69.9355 207.071C69.9355 205.538 70.2345 204.417 71.0568 202.772C71.8044 201.24 72.1408 199.969 72.1781 198.736C72.1781 197.764 72.3277 196.979 72.5519 196.979C72.7388 196.979 73.0752 196.418 73.2621 195.745C73.5237 194.886 73.5985 194.774 73.6359 195.372C73.6732 195.82 73.8601 196.231 74.0844 196.306C74.346 196.381 74.1965 197.166 73.6732 198.474C71.767 203.221 71.767 203.258 72.0286 207.145C72.1781 209.164 72.4398 210.921 72.6267 211.033C73.8975 211.855 76.7382 196.156 77.2241 185.354C77.3362 182.813 77.4857 179.785 77.5979 178.664C77.6726 177.505 77.5979 176.346 77.411 176.047C77.112 175.562 77.0372 175.599 77.0372 176.122C77.0372 176.533 76.8503 176.683 76.4765 176.571C76.1775 176.421 75.6169 176.459 75.2805 176.645C74.3834 177.019 74.1965 177.057 73.2247 177.131C72.4398 177.206 72.4024 177.244 73.0004 177.692C73.5611 178.103 73.4116 178.253 71.6175 178.813C69.4496 179.486 68.4778 179.374 65.824 178.178Z" fill="white"/>
<path fill-rule="evenodd" clip-rule="evenodd" d="M50.495 2.13037C50.0839 1.79395 50.1959 1.53223 51.0558 0.859863C51.6537 0.373535 52.2518 0 52.3639 0C52.4274 0 52.6469 0.179688 52.934 0.464844C53.1537 0.683105 53.413 0.962891 53.6722 1.271C54.756 2.4668 54.9056 2.50439 57.7089 2.5791C59.3534 2.61621 60.9608 2.80322 61.3346 2.99023C62.2689 3.51367 64.1752 3.43896 66.642 2.80322C68.2494 2.39209 69.2211 2.35498 70.3798 2.61621C71.8002 2.91553 72.0245 2.87793 72.8094 2.05566C74.0802 0.672852 75.2389 0.523438 76.8087 1.49512C77.9674 2.20508 78.4906 2.27979 80.3595 2.09326C81.9293 1.90625 82.9012 2.01855 84.0226 2.42969C85.368 2.99023 86.1156 2.99023 91.6102 2.50439C97.3663 2.01855 97.7775 2.01855 98.4877 2.65381C98.8988 2.99023 100.17 3.7002 101.291 4.22363C102.412 4.74707 104.244 5.98047 105.365 6.98975C107.197 8.63428 107.421 9.04541 107.608 10.6523C107.795 12.2222 107.982 12.5215 108.766 12.7085C109.29 12.8203 109.738 13.1943 109.813 13.5308C109.963 14.353 108.28 16.2217 106.337 17.3804C102.898 19.3613 100.842 23.0244 99.6464 29.1543C98.3754 35.5083 95.7592 41.6758 92.6193 45.6006C91.797 46.647 91.1617 47.5815 91.2738 47.6562C91.6102 47.9927 95.2357 44.8154 95.6842 43.769C96.1703 42.5728 96.9552 42.1245 96.5441 43.2456C96.3944 43.6196 97.0673 43.208 98.0016 42.3857C98.8988 41.5264 100.917 40.0312 102.45 39.0596C109.14 34.686 113.85 30.2383 115.831 26.2764C116.541 24.856 120.877 20.9688 121.325 21.3799C121.4 21.4922 120.69 22.501 119.718 23.6226C117.139 26.5752 114.336 30.2007 112.579 32.7798C110.934 35.1719 108.019 38.0127 105.589 39.5454C103.646 40.7412 100.17 43.6943 100.17 44.1055C100.17 44.292 100.88 44.2173 101.739 43.8809C104.692 42.8345 103.459 43.8438 99.7958 45.4136C99.0856 45.7124 97.5157 46.7964 96.2823 47.8057C92.993 50.6089 87.1622 53.0757 82.6022 53.6367C81.7035 53.7446 81.0621 53.8447 80.587 54H67.943C67.246 52.9624 66.202 52.7666 63.8014 52.5151C62.0446 52.3281 61.1102 51.917 58.9423 50.4595C55.6532 48.2544 54.9803 47.1328 52.5883 40.1431C50.0839 32.8545 49.6727 30.1636 49.9344 22.7627C50.1212 17.5298 50.0465 16.334 49.5607 15.3994C48.8131 13.9419 48.8131 11.998 49.5607 9.30713C50.1212 7.40088 50.1212 7.10156 49.5607 6.05518C48.7758 4.52246 49.1122 3.8501 50.9811 3.28906C52.1022 2.99023 52.3265 2.80322 51.766 2.69092C51.3549 2.61621 50.7941 2.35498 50.495 2.13037Z" fill="#C9729E"/>
</svg>
