<svg width="155" height="462" viewBox="0 0 155 462" fill="none" xmlns="http://www.w3.org/2000/svg">
<path d="M68.6564 212.377C63.305 212.863 57.8789 213.761 52.2281 215.146C47.9995 216.193 41.6752 218.214 40.5899 218.887C40.4403 219 41.75 221.843 43.4714 225.248C52.4527 242.835 58.4028 259.598 61.3591 275.575C61.9578 278.606 62.1075 280.327 61.883 280.477C61.621 280.627 61.621 281.899 61.883 284.293C62.4817 289.42 62.3695 296.866 61.7333 300.982C61.3965 302.927 61.2468 304.985 61.3591 305.509C61.621 306.632 59.9745 312.469 57.7666 318.344C55.1096 325.453 52.041 332.113 45.118 345.733C37.2594 361.187 34.116 367.847 31.3842 374.732C24.7231 391.757 23.3385 404.778 26.931 417.201C29.1014 424.722 34.3779 433.328 40.2906 438.941C43.0972 441.597 47.8872 445.376 50.4319 446.911C51.8165 447.771 52.2656 448.22 51.2926 447.846C50.6939 447.622 49.0473 449.642 48.7105 450.989C48.4111 452.299 49.1221 454.357 50.3571 455.554C52.6398 457.687 58.3279 459.782 64.7271 460.755C74.569 462.289 91.3714 461.765 99.3423 459.707C104.207 458.473 107.987 456.49 109.409 454.469C110.831 452.486 110.12 449.418 107.874 447.771C107.538 447.509 107.014 447.06 106.714 446.798C106.34 446.424 106.003 446.387 105.479 446.649C104.357 447.247 105.218 446.536 108.698 443.955C117.417 437.444 124.378 428.127 127.371 418.885C130.402 409.643 130.552 398.679 127.783 387.828C125.35 378.287 121.983 370.391 110.756 347.791C100.428 327.062 98.2945 322.272 95.5253 313.928C94.1032 309.663 93.6167 307.642 93.5419 305.509C93.4671 303.975 93.2425 301.693 93.018 300.458C92.4941 297.652 92.4941 288.035 92.9806 283.807C93.2051 281.936 93.2051 280.589 93.018 280.439C92.5315 280.178 93.8413 272.919 95.6375 265.884C98.9681 252.75 105.741 235.576 112.552 222.891L114.648 219.037L113.263 218.438C101.176 213.35 84.1116 211.03 68.6564 212.377Z" fill="white"/>
<path fill-rule="evenodd" clip-rule="evenodd" d="M50.5366 2.13052C50.1255 1.79412 50.2376 1.53246 51.0973 0.859668C51.6953 0.373762 52.2934 0 52.4055 0C52.5177 0 53.1157 0.560679 53.7137 1.27085C54.7977 2.46693 54.9472 2.5043 57.7505 2.57905C59.3951 2.61643 61.0023 2.8033 61.3761 2.99019C62.3105 3.51347 64.2168 3.43874 66.6837 2.80332C68.2909 2.39217 69.2627 2.35476 70.4214 2.61641C71.8418 2.91543 72.066 2.87806 72.8509 2.05576C74.1218 0.672799 75.2805 0.523305 76.8503 1.49512C78.009 2.20529 78.5323 2.28 80.4012 2.09312C81.971 1.90623 82.9428 2.01839 84.0641 2.42954C85.4097 2.9902 86.1573 2.9902 91.6518 2.5043C97.4079 2.01839 97.819 2.01839 98.5292 2.65381C98.9404 2.9902 100.211 3.70035 101.332 4.22363C102.454 4.74692 104.285 5.98036 105.407 6.98955C107.238 8.63416 107.462 9.04531 107.649 10.6525C107.836 12.2224 108.023 12.5214 108.808 12.7083C109.331 12.8204 109.78 13.1942 109.855 13.5306C110.004 14.3529 108.322 16.2218 106.378 17.3805C102.94 19.3615 100.884 23.0245 99.6879 29.1543C98.4171 35.5085 95.8007 41.6758 92.6609 45.6004C91.8386 46.647 91.2032 47.5814 91.3154 47.6562C91.6518 47.9925 95.2774 44.8155 95.7259 43.7689C96.2118 42.5728 96.9967 42.1243 96.5856 43.2456C96.4361 43.6194 97.1088 43.2082 98.0433 42.3859C98.9403 41.5263 100.959 40.0312 102.491 39.0594C109.182 34.6862 113.891 30.2383 115.872 26.2763C116.582 24.856 120.918 20.9687 121.367 21.3799C121.442 21.492 120.731 22.5012 119.76 23.6225C117.181 26.5753 114.377 30.2009 112.62 32.78C110.976 35.1721 108.06 38.0128 105.631 39.5453C103.687 40.7413 100.211 43.6941 100.211 44.1053C100.211 44.2922 100.921 44.2174 101.781 43.881C104.734 42.8345 103.5 43.8437 99.8374 45.4135C99.1272 45.7125 97.5574 46.7965 96.3239 47.8057C93.0347 50.609 87.2038 53.0759 82.6438 53.6366C79.8405 53.9729 79.5415 54.2346 78.9808 56.3277C78.7192 57.2995 77.9343 59.3927 77.2241 60.9251C75.8411 64.0274 75.3926 66.0832 74.7946 71.4656C74.346 75.8761 74.3087 85.1083 74.7572 85.3699C75.2057 85.6689 83.653 79.3148 85.335 77.4459C86.1199 76.5862 86.8301 75.8761 86.9048 75.8761C87.2038 75.8761 87.8766 80.4361 88.1009 84.0991C88.2131 86.267 88.4747 88.2106 88.699 88.4723C89.1101 88.9582 88.9232 91.5746 88.3252 94.0041C87.3534 97.9287 87.1291 99.5733 87.5402 99.835C87.8019 99.9845 87.6524 100.919 86.9796 102.788C86.4189 104.283 86.0825 105.815 86.1947 106.152C86.3442 106.638 85.8209 107.348 84.3258 108.619C83.2045 109.59 82.27 110.562 82.27 110.749C82.27 110.936 81.8589 111.571 81.3356 112.207C80.8123 112.805 80.4012 113.515 80.4012 113.777C80.4012 114.001 79.2799 115.384 77.8969 116.804L75.3552 119.421L75.5795 124.654C75.6916 127.532 75.9159 132.129 76.1028 134.82C76.3644 139.605 76.4018 139.791 77.1867 139.791C77.6726 139.791 79.0182 140.09 80.2517 140.502C84.0268 141.698 85.1107 141.885 89.297 142.146L91.278 142.296L92.7731 139.754C93.558 138.371 94.2308 136.876 94.2308 136.465C94.2308 136.054 94.4177 135.605 94.6046 135.493C94.9784 135.269 95.9875 133.848 97.6321 131.307C98.0433 130.634 98.7161 129.999 99.0899 129.886C99.4636 129.774 100.548 128.728 101.519 127.606C102.977 125.924 103.313 125.214 103.426 123.906C103.463 123.009 103.837 121.813 104.173 121.215C105.257 119.533 108.472 116.617 109.219 116.617C110.228 116.617 112.695 114.973 114.975 112.88C115.984 111.908 117.367 110.936 117.965 110.749C118.601 110.562 119.423 109.889 119.834 109.217C120.245 108.581 121.255 107.796 122.077 107.46C122.899 107.124 123.946 106.488 124.394 106.04C124.88 105.628 125.366 105.404 125.516 105.516C125.628 105.666 125.441 106.04 125.03 106.339C124.357 106.862 124.432 106.862 125.628 106.675C126.338 106.526 127.497 106.114 128.169 105.741C129.665 104.881 130.001 104.844 129.366 105.591C128.73 106.339 129.291 106.301 131.309 105.516C133.963 104.507 135.645 103.236 136.467 101.779C136.916 100.994 137.177 100.657 137.065 100.994C136.804 101.816 137.29 101.853 138.747 101.106C139.345 100.769 139.981 100.62 140.168 100.695C140.354 100.807 141.177 100.583 141.999 100.171C143.905 99.2369 144.055 99.2369 143.756 100.171C143.532 100.919 143.532 100.956 144.877 100.358C146.522 99.6855 146.671 99.6855 146.372 100.171C146.073 100.657 146.597 100.657 147.83 100.171C148.54 99.9097 148.764 99.9471 148.69 100.284C148.652 100.545 148.951 100.695 149.437 100.62C150.334 100.508 152.24 102.078 151.493 102.339C151.231 102.414 151.044 102.638 151.044 102.863C151.044 103.124 151.642 103.199 152.652 103.049C153.773 102.9 154.035 102.937 153.586 103.199C152.689 103.685 152.726 104.283 153.661 104.283C154.222 104.283 154.371 104.507 154.334 105.217C154.296 105.741 154.109 106.152 153.96 106.152C153.81 106.152 153.25 106.638 152.689 107.236C152.166 107.834 151.007 108.507 150.073 108.768C148.764 109.142 147.979 109.74 146.41 111.534C145.326 112.805 143.905 114.599 143.27 115.533C142.522 116.655 141.737 117.365 141.065 117.552C138.56 118.15 137.476 119.869 139.084 120.729C139.495 120.953 139.831 121.327 139.831 121.551C139.831 121.813 140.541 122.747 141.401 123.607L142.971 125.214L142.298 126.522C141.924 127.195 141.214 128.167 140.728 128.616C140.242 129.064 139.831 129.662 139.831 129.924C139.831 130.185 139.532 130.484 139.158 130.634C138.149 130.933 137.402 132.69 138.037 133.138C138.411 133.362 138.374 133.587 137.775 134.035C137.364 134.334 136.654 134.671 136.206 134.82C135.346 135.007 135.01 135.68 135.72 135.68C135.944 135.68 136.093 135.829 136.093 136.016C136.093 136.241 135.159 136.689 134.038 137.025C132.206 137.624 131.309 138.296 132.356 138.296C133.253 138.296 132.617 139.044 131.347 139.455C130.562 139.679 129.702 140.128 129.44 140.427C129.179 140.688 128.693 140.913 128.394 140.913C128.095 140.913 127.908 141.1 127.983 141.361C128.02 141.623 127.31 141.959 126.188 142.146C125.179 142.37 124.245 142.669 124.133 142.819C123.946 143.081 121.105 143.043 114.415 142.669C113.331 142.595 112.583 142.744 112.321 143.081C111.798 143.791 109.742 142.931 107.238 140.913C106.192 140.09 105.22 139.418 105.033 139.418C104.883 139.418 104.659 139.081 104.51 138.67C104.397 138.259 103.613 137.1 102.79 136.054C101.968 135.007 101.146 133.774 100.959 133.25C100.772 132.727 100.435 132.316 100.249 132.316C99.3141 132.316 92.8852 142.109 93.3337 142.819C93.4459 143.006 93.7823 143.155 94.0813 143.155C94.4924 143.155 94.6046 143.641 94.5672 145.323C94.4924 147.08 94.7167 147.902 95.5016 149.36C96.3239 150.892 96.4361 151.416 96.137 152.201C95.9502 152.724 95.5764 153.285 95.3895 153.434C94.642 153.883 94.9783 154.256 95.9502 154.07L96.8846 153.883L96.137 155.116C95.7633 155.789 95.5016 156.536 95.6138 156.798C95.6885 157.097 95.0905 157.695 94.0813 158.293C92.2498 159.377 91.876 159.826 93.1095 159.489C93.558 159.377 93.1842 159.9 92.0629 160.947C91.0911 161.844 90.194 162.554 90.0445 162.592C89.8576 162.592 89.7455 162.741 89.7455 162.928C89.7455 163.115 90.1193 163.19 90.6052 163.077C91.2406 162.928 91.1285 163.115 90.0072 164.087C89.0353 164.909 88.6616 165.507 88.8111 165.956C88.9232 166.292 88.7363 166.815 88.4373 167.077C88.1009 167.339 87.5029 168.049 87.0543 168.684C86.4563 169.544 86.3815 169.843 86.7553 170.067C87.0917 170.291 86.6806 170.74 85.335 171.562C84.251 172.198 83.4661 172.87 83.5782 173.057C83.653 173.207 83.2419 173.431 82.6438 173.581L81.5225 173.767V176.571C81.5225 183.448 79.8405 198.96 78.1585 207.669C77.2988 212.266 77.2241 213.163 77.8595 212.939C78.1211 212.864 78.7566 213.088 79.2425 213.462C80.2143 214.21 80.9618 214.397 80.5881 213.799C80.2143 213.201 80.6254 213.35 82.6812 214.584C83.9894 215.331 84.6996 215.593 84.8865 215.294C85.0733 214.995 85.5219 215.182 86.3068 215.854C86.9422 216.415 87.6524 216.751 87.8393 216.639C88.0262 216.49 88.4373 216.751 88.7363 217.2C89.1101 217.686 89.3717 217.835 89.5586 217.574C89.895 216.976 90.4931 217.462 90.4931 218.321C90.4931 218.695 90.6799 219.031 90.8668 219.031C91.0911 219.031 91.2406 218.845 91.2406 218.658C91.2406 217.761 91.9882 218.433 92.7357 219.966C93.1842 220.9 93.7075 221.536 93.8944 221.424C94.2421 221.206 96.3207 223.048 98 224.82V233.54H72.7429C72.8173 230.551 72.7406 227.181 72.4772 225.722C72.2529 224.414 72.2155 222.993 72.4398 221.984C72.8883 219.816 72.4398 217.462 71.2811 215.929C70.7578 215.256 69.786 213.201 69.0758 211.369C68.67 210.301 68.0689 208.745 67.4678 207.189L67.465 207.182C67.0151 206.017 66.5654 204.853 66.1978 203.894C65.3007 201.614 64.0299 198.586 63.3197 197.166C61.4135 193.316 52.6298 177.916 52.3308 177.916C52.1813 177.916 51.7701 178.365 51.3963 178.926C50.8357 179.785 50.6862 180.757 50.6488 183.897C50.574 189.802 50.3871 191.073 49.6396 190.812C49.4153 190.699 48.8547 191.26 48.4061 192.008C47.995 192.793 47.4343 193.391 47.1727 193.316C46.8737 193.241 46.2756 193.577 45.7897 194.026L44.8927 194.848V194.026C44.8927 193.241 44.8553 193.241 44.0704 193.764C42.9864 194.512 42.2762 194.512 42.2762 193.764C42.2762 193.204 42.2015 193.204 41.3418 193.764C40.3326 194.437 39.2861 194.549 39.2861 193.989C39.2861 193.764 38.8001 193.615 38.1647 193.615C37.4546 193.615 37.0808 193.428 37.1555 193.129C37.1929 192.905 37.006 192.718 36.7444 192.792C36.4454 192.83 36.1464 192.531 36.0342 192.12C35.9221 191.709 35.5109 191.372 35.0998 191.372C34.6139 191.372 34.2027 190.961 33.9411 190.251C33.6047 189.316 33.3431 189.13 32.7076 189.279C32.2217 189.429 31.5116 189.204 30.9509 188.756C30.3902 188.307 29.4558 188.008 28.5214 188.008C27.3627 188.008 26.9889 187.859 26.8394 187.261C26.7273 186.85 26.3161 186.513 25.905 186.513C25.5312 186.513 24.5594 186.102 23.7744 185.579C23.0269 185.055 21.2702 184.345 19.9246 184.046C18.5416 183.71 17.2708 183.336 17.0465 183.149C16.8596 183 15.6636 182.588 14.4301 182.215C13.1967 181.878 11.552 181.168 10.7671 180.645C9.94482 180.159 8.74874 179.636 8.03857 179.524C7.3284 179.411 6.76774 179.187 6.76774 179.038C6.76774 178.739 3.29165 178.066 0.600475 177.842C-0.371337 177.729 -0.259206 177.655 1.64704 177.019C2.84312 176.645 3.88968 176.122 4.03919 175.935C4.1887 175.674 4.00182 175.636 3.55329 175.786C3.03 175.973 3.14213 175.786 3.88968 175.15C5.04838 174.066 5.16052 173.73 4.26346 174.029C3.7028 174.216 3.7028 174.141 4.33821 173.618C4.71866 173.307 5.32312 172.867 5.73703 172.567L5.73725 172.566L5.73752 172.566L5.83331 172.497C6.54348 172.011 6.54348 171.973 5.53429 171.973L4.45035 171.936L5.64642 170.927C6.73036 170.03 6.80512 169.88 6.1697 169.656C5.60904 169.469 5.90806 169.245 7.40316 168.721C9.42153 168.011 9.94482 167.451 8.63661 167.451C7.29102 167.451 7.85169 166.703 9.38416 166.479C10.2065 166.329 10.8793 166.105 10.8793 165.918C10.8793 165.731 10.6924 165.582 10.4681 165.582C9.49629 165.582 10.6924 164.872 12.4117 164.423C14.0937 163.975 14.2432 163.862 13.6452 163.451C13.0471 163.003 13.0845 162.965 13.9442 162.965C14.5049 162.965 15.0655 162.778 15.1776 162.592C15.2898 162.367 15.7757 162.218 16.2242 162.218C17.0091 162.18 17.0091 162.18 16.3737 161.695C15.7757 161.246 15.7757 161.171 16.299 160.947C16.6354 160.835 17.2334 160.91 17.6072 161.097C18.5416 161.582 19.8872 161.582 19.7377 161.059C19.7003 160.797 20.3357 160.573 21.3449 160.498C22.2794 160.386 23.2885 160.237 23.5876 160.125C24.0735 159.975 24.0735 159.9 23.5876 159.564C23.1764 159.302 23.5502 159.228 24.8958 159.302C26.3161 159.377 26.7273 159.302 26.6525 158.891C26.5778 158.517 26.8394 158.443 27.5122 158.592C28.0728 158.667 29.7548 158.517 31.2499 158.218C33.9037 157.658 34.0532 157.695 35.0998 158.443C35.6978 158.854 36.2959 159.115 36.408 159.003C36.6696 158.742 38.389 161.059 38.7254 162.143C38.8375 162.592 39.0992 162.891 39.2487 162.778C39.5477 162.592 41.9025 165.657 41.9025 166.255C41.9025 167.114 45.0795 170.889 46.3504 171.525C47.7707 172.272 50.4993 172.945 50.4993 172.534C50.4993 172.422 50.0134 171.263 49.4527 169.992C48.2566 167.376 45.2664 159.19 45.2664 158.555C45.2664 157.807 43.8835 157.359 41.753 157.359C40.6316 157.359 39.5851 157.172 39.4729 156.985C39.3608 156.761 38.9497 156.611 38.5759 156.611C38.2395 156.611 37.0808 156.2 36.0716 155.677C34.5391 154.892 33.9785 154.369 33.1935 152.761C32.6329 151.677 32.1844 150.593 32.1844 150.332C32.1844 150.108 31.5489 149.472 30.764 148.986C29.9791 148.5 28.8951 147.566 28.3345 146.93C27.4748 145.884 25.8302 142.184 25.8302 141.249C25.8302 140.352 22.8026 135.231 20.5226 132.241C19.7377 131.232 19.2892 130.073 18.9154 127.756C18.0557 122.897 17.7567 121.514 17.3082 121.028C16.7475 120.28 15.3645 115.571 15.3645 114.225C15.3645 113.59 15.1403 112.73 14.8413 112.319C14.2058 111.385 13.8694 108.693 14.2806 107.983C14.4301 107.684 14.6544 106.937 14.7665 106.301C14.8413 105.703 14.9534 105.217 14.9908 105.217C15.0281 105.217 15.1029 104.619 15.1403 103.909C15.2524 102.227 16.5232 97.555 16.8596 97.555C17.3082 97.555 18.0931 93.892 17.8688 93.0323C17.7567 92.5838 17.7567 92.3595 17.8688 92.4716C18.5042 93.0697 19.9993 88.7339 21.0459 83.2768C21.2328 82.305 21.6066 81.0341 21.9056 80.4735C22.4289 79.5017 22.4662 79.5017 22.4662 80.2492C22.4662 80.7351 22.9521 81.6322 23.5876 82.305C24.4846 83.3142 24.7463 83.4263 25.0453 82.9778C25.3443 82.5293 25.4564 82.5666 25.6807 83.1647C25.8302 83.5758 26.2787 84.3234 26.6525 84.8093C27.0181 85.2765 27.1851 85.4898 27.2613 85.4612C27.3253 85.4372 27.3253 85.2424 27.3253 84.884C27.3253 83.8748 27.886 83.8375 27.9607 84.884C28.0728 86.0427 29.1568 87.1267 29.867 86.7529C30.3155 86.4913 30.5771 86.7155 31.0257 87.6126C31.4368 88.4349 31.8853 88.7713 32.5208 88.7713C33.0814 88.7713 33.5299 89.0703 33.7168 89.631C34.0906 90.6028 34.6886 90.7149 34.9129 89.7805C35.025 89.3319 35.1745 89.4441 35.5483 90.3411C35.9968 91.5372 36.6696 92.0231 36.6696 91.1261C36.6696 90.8644 37.0808 91.2382 37.5667 91.911C38.3142 92.9202 38.5011 93.0323 38.6133 92.4343C38.7628 91.8736 38.8749 91.911 39.2487 92.7333C39.8467 93.9667 41.7903 95.4244 42.4631 95.2002C42.7622 95.0507 43.0238 95.3871 43.1733 96.0972C43.2854 96.7327 43.6218 97.1812 43.9582 97.1812C44.2572 97.1812 44.5189 97.4428 44.5189 97.7419C44.5189 98.0409 44.8553 98.3025 45.2291 98.3025C45.6402 98.3025 46.2756 98.7884 46.6494 99.4238C47.3969 100.695 47.8829 100.882 47.8829 99.8724C47.9202 99.3865 48.9668 101.779 49.0042 102.339C49.0042 102.414 49.3032 102.377 49.677 102.265C50.2002 102.078 50.4619 102.339 50.8357 103.348C51.2842 104.657 51.8075 105.03 52.0691 104.208C52.1813 103.946 52.4429 104.545 52.7045 105.516C53.1904 107.161 53.8259 107.871 53.9006 106.787C53.9006 106.563 54.1996 107.273 54.5734 108.394C54.9472 109.516 55.1714 110.6 55.0967 110.787C54.9846 110.936 55.2462 110.973 55.6573 110.861C56.3301 110.637 56.4423 110.787 56.7039 112.319C56.8908 113.552 57.0777 114.001 57.4515 113.851C57.8252 113.702 57.9747 114.038 57.9747 115.122C57.9747 115.945 58.1616 116.617 58.3485 116.617C58.5728 116.617 58.6475 117.029 58.498 117.552C58.3111 118.299 58.3859 118.449 58.797 118.299C59.2456 118.113 59.3203 118.374 59.0961 119.682C58.9839 120.579 58.7223 121.551 58.5354 121.85C58.3111 122.224 58.3859 122.299 58.8344 122.112C59.3577 121.925 59.3577 122.037 58.8718 123.42C58.199 125.401 58.199 125.812 58.9839 125.177C59.5446 124.691 59.5446 124.728 59.2082 125.401C58.6102 126.56 58.2364 129.064 58.6849 128.765C59.1708 128.466 59.2082 129.139 58.7597 130.746C58.498 131.531 58.5354 131.942 58.797 131.942C59.0213 131.942 59.0587 132.353 58.9092 132.951C58.7597 133.549 58.5728 134.82 58.498 135.792C58.4233 136.801 58.2738 137.736 58.1616 137.96C58.0121 138.147 58.2738 138.296 58.6849 138.296C59.3577 138.296 59.3951 138.371 58.8718 140.24L58.8149 140.451C58.4133 141.938 58.3148 142.303 58.4272 142.387C58.4637 142.415 58.5224 142.413 58.6002 142.41L58.6426 142.408C58.6562 142.408 58.6703 142.408 58.6849 142.408C58.8718 142.408 59.1334 142.109 59.2082 141.735C59.3577 141.212 59.3951 141.249 59.4325 141.885C59.4325 142.296 59.0587 143.193 58.5354 143.903C57.4515 145.361 57.2646 146.631 58.199 146.258C58.7597 146.071 58.7597 146.146 58.2364 147.117C57.9 147.715 57.1151 148.762 56.4797 149.397C55.62 150.294 55.4705 150.631 55.919 150.631C56.9656 150.631 56.1432 151.341 54.6108 151.79C53.7885 152.051 53.1157 152.388 53.1157 152.574C53.1157 152.724 52.7045 152.873 52.1812 152.873C50.873 152.873 47.1353 156.723 47.1353 158.069C47.1353 159.751 48.1071 163.003 49.6396 166.703C49.8973 167.312 50.1881 168.002 50.4843 168.705L50.4868 168.711L50.4872 168.712L50.4885 168.715C51.136 170.252 51.8089 171.848 52.2186 172.796L53.2652 175.337L53.938 174.478C54.9472 173.207 55.1714 172.011 54.4986 171.263C52.9288 169.469 52.2186 166.217 52.7793 163.264C52.9662 162.18 53.34 159.863 53.6016 158.106C53.9754 155.826 54.3865 154.481 55.1341 153.359C56.1059 151.902 58.3111 149.883 58.9092 149.883C59.0587 149.883 59.6567 149.547 60.2548 149.098C60.8528 148.687 61.563 148.388 61.8246 148.5C62.4227 148.725 64.142 147.454 65.7866 145.622C68.0293 143.081 68.9637 142.221 70.1972 141.361L71.3932 140.539L71.2437 136.315C71.0568 130.522 70.384 127.457 69.188 126.784L69.1878 126.784L69.1876 126.784C68.7655 126.555 68.5421 126.434 68.5565 126.39C68.5726 126.34 68.8891 126.386 69.5614 126.485L69.5617 126.485L70.8699 126.709L70.8326 123.233C70.8326 120.467 70.5709 119.084 69.6365 116.057C68.4404 112.282 68.104 109.03 68.8516 108.544C69.0758 108.432 69.188 107.796 69.0758 107.124C68.9637 106.488 69.1132 105.03 69.3748 103.909C70.085 101.031 70.4214 92.5464 69.9355 90.2664C69.2253 86.7903 69.0384 76.3994 69.5991 71.3908C70.3467 64.5507 70.2345 61.3363 69.1506 57.2248C68.0666 53.188 67.7676 52.9264 63.843 52.5152C62.0863 52.3283 61.1518 51.9172 58.9839 50.4594C55.6947 48.2542 55.0219 47.1329 52.6298 40.1433C50.1255 32.8547 49.7143 30.1636 49.976 22.7628C50.1629 17.53 50.0881 16.3339 49.6022 15.3995C48.8547 13.9417 48.8547 11.9982 49.6022 9.30698C50.1629 7.40074 50.1629 7.10169 49.6022 6.05513C48.8173 4.52265 49.1537 3.84987 51.0226 3.28921C52.1439 2.99019 52.3681 2.80329 51.8075 2.69116C51.3963 2.61641 50.8357 2.35478 50.5366 2.13052ZM65.824 178.178C61.9741 176.459 60.8154 175.786 59.283 174.44C58.3859 173.693 57.4141 173.057 57.1151 173.057C56.816 173.057 56.0311 173.954 55.3957 175.076L54.2744 177.131L55.1341 179.112C55.62 180.234 57.0029 182.701 58.1616 184.644C61.2266 189.69 65.5997 198.25 66.6089 201.09C67.0574 202.436 67.7302 203.856 68.104 204.267C68.4404 204.679 68.8889 205.688 69.0011 206.51C69.487 209.052 69.8981 209.313 69.9355 207.071C69.9355 205.538 70.2345 204.417 71.0568 202.772C71.8044 201.24 72.1408 199.969 72.1781 198.736C72.1781 197.764 72.3277 196.979 72.5519 196.979C72.7388 196.979 73.0752 196.418 73.2621 195.745C73.5237 194.886 73.5985 194.774 73.6359 195.372C73.6732 195.82 73.8601 196.231 74.0844 196.306C74.346 196.381 74.1965 197.166 73.6732 198.474C71.767 203.221 71.767 203.258 72.0286 207.145C72.1781 209.164 72.4398 210.921 72.6267 211.033C73.8975 211.855 76.7382 196.156 77.2241 185.354C77.3362 182.813 77.4857 179.785 77.5979 178.664C77.6726 177.505 77.5979 176.346 77.411 176.047C77.112 175.562 77.0372 175.599 77.0372 176.122C77.0372 176.533 76.8503 176.683 76.4765 176.571C76.1775 176.421 75.6169 176.459 75.2805 176.645C74.3834 177.019 74.1965 177.057 73.2247 177.131C72.4398 177.206 72.4024 177.244 73.0005 177.692C73.5611 178.103 73.4116 178.253 71.6175 178.813C69.4496 179.486 68.4778 179.374 65.824 178.178Z" fill="white"/>
<mask id="path-3-inside-1" fill="white">
<path fill-rule="evenodd" clip-rule="evenodd" d="M50.4951 2.13052C50.0839 1.79414 50.1961 1.53247 51.0558 0.859668C51.6538 0.373779 52.2518 0 52.364 0C52.4761 0 53.0741 0.560693 53.6722 1.27085C54.7561 2.46694 54.9056 2.5043 57.7089 2.57905C59.3535 2.61641 60.9608 2.80332 61.3345 2.99019C62.269 3.51348 64.1752 3.43872 66.6421 2.80332C68.2493 2.39219 69.2212 2.35479 70.3799 2.61641C71.8002 2.91543 72.0245 2.87808 72.8094 2.05576C74.0802 0.672803 75.2389 0.523291 76.8088 1.49512C77.9675 2.20527 78.4907 2.27998 80.3596 2.09312C81.9295 1.90625 82.9013 2.01841 84.0226 2.42954C85.3682 2.99019 86.1157 2.99019 91.6102 2.5043C97.3663 2.01841 97.7775 2.01841 98.4876 2.65381C98.8988 2.99019 100.17 3.70034 101.291 4.22363C102.412 4.74692 104.244 5.98037 105.365 6.98955C107.197 8.63418 107.421 9.04531 107.608 10.6525C107.795 12.2224 107.981 12.5214 108.766 12.7083C109.29 12.8204 109.738 13.1942 109.813 13.5306C109.962 14.3529 108.281 16.2218 106.337 17.3805C102.898 19.3615 100.842 23.0245 99.6463 29.1543C98.3755 35.5085 95.7591 41.6758 92.6194 45.6004C91.7971 46.6469 91.1617 47.5814 91.2738 47.6562C91.6102 47.9926 95.2358 44.8155 95.6843 43.7689C96.1702 42.5729 96.9552 42.1243 96.544 43.2456C96.3945 43.6194 97.0673 43.2083 98.0017 42.3859C98.8988 41.5263 100.917 40.0312 102.45 39.0594C109.14 34.6862 113.85 30.2383 115.831 26.2763C116.541 24.856 120.877 20.9688 121.325 21.3799C121.4 21.492 120.69 22.5012 119.718 23.6225C117.139 26.5753 114.336 30.2009 112.579 32.78C110.934 35.1721 108.019 38.0128 105.589 39.5453C103.646 40.7413 100.17 43.6941 100.17 44.1053C100.17 44.2922 100.88 44.2174 101.739 43.881C104.692 42.8345 103.459 43.8437 99.7958 45.4135C99.0857 45.7126 97.5158 46.7965 96.2824 47.8057C92.9932 50.609 87.1623 53.0759 82.6023 53.6365C81.7032 53.7444 81.0618 53.8446 80.5866 54H67.9431C67.2461 52.9622 66.202 52.7667 63.8014 52.5152C62.0447 52.3283 61.1103 51.9172 58.9424 50.4594C55.6532 48.2542 54.9804 47.1329 52.5882 40.1433C50.0839 32.8547 49.6728 30.1636 49.9344 22.7628C50.1213 17.53 50.0466 16.3339 49.5607 15.3995C48.8131 13.9417 48.8131 11.9981 49.5607 9.30698C50.1213 7.40073 50.1213 7.10171 49.5607 6.05513C48.7757 4.52266 49.1121 3.84985 50.981 3.28921C52.1023 2.99019 52.3266 2.80327 51.7659 2.69116C51.3548 2.61641 50.7941 2.35479 50.4951 2.13052Z"/>
</mask>
<path fill-rule="evenodd" clip-rule="evenodd" d="M50.4951 2.13052C50.0839 1.79414 50.1961 1.53247 51.0558 0.859668C51.6538 0.373779 52.2518 0 52.364 0C52.4761 0 53.0741 0.560693 53.6722 1.27085C54.7561 2.46694 54.9056 2.5043 57.7089 2.57905C59.3535 2.61641 60.9608 2.80332 61.3345 2.99019C62.269 3.51348 64.1752 3.43872 66.6421 2.80332C68.2493 2.39219 69.2212 2.35479 70.3799 2.61641C71.8002 2.91543 72.0245 2.87808 72.8094 2.05576C74.0802 0.672803 75.2389 0.523291 76.8088 1.49512C77.9675 2.20527 78.4907 2.27998 80.3596 2.09312C81.9295 1.90625 82.9013 2.01841 84.0226 2.42954C85.3682 2.99019 86.1157 2.99019 91.6102 2.5043C97.3663 2.01841 97.7775 2.01841 98.4876 2.65381C98.8988 2.99019 100.17 3.70034 101.291 4.22363C102.412 4.74692 104.244 5.98037 105.365 6.98955C107.197 8.63418 107.421 9.04531 107.608 10.6525C107.795 12.2224 107.981 12.5214 108.766 12.7083C109.29 12.8204 109.738 13.1942 109.813 13.5306C109.962 14.3529 108.281 16.2218 106.337 17.3805C102.898 19.3615 100.842 23.0245 99.6463 29.1543C98.3755 35.5085 95.7591 41.6758 92.6194 45.6004C91.7971 46.6469 91.1617 47.5814 91.2738 47.6562C91.6102 47.9926 95.2358 44.8155 95.6843 43.7689C96.1702 42.5729 96.9552 42.1243 96.544 43.2456C96.3945 43.6194 97.0673 43.2083 98.0017 42.3859C98.8988 41.5263 100.917 40.0312 102.45 39.0594C109.14 34.6862 113.85 30.2383 115.831 26.2763C116.541 24.856 120.877 20.9688 121.325 21.3799C121.4 21.492 120.69 22.5012 119.718 23.6225C117.139 26.5753 114.336 30.2009 112.579 32.78C110.934 35.1721 108.019 38.0128 105.589 39.5453C103.646 40.7413 100.17 43.6941 100.17 44.1053C100.17 44.2922 100.88 44.2174 101.739 43.881C104.692 42.8345 103.459 43.8437 99.7958 45.4135C99.0857 45.7126 97.5158 46.7965 96.2824 47.8057C92.9932 50.609 87.1623 53.0759 82.6023 53.6365C81.7032 53.7444 81.0618 53.8446 80.5866 54H67.9431C67.2461 52.9622 66.202 52.7667 63.8014 52.5152C62.0447 52.3283 61.1103 51.9172 58.9424 50.4594C55.6532 48.2542 54.9804 47.1329 52.5882 40.1433C50.0839 32.8547 49.6728 30.1636 49.9344 22.7628C50.1213 17.53 50.0466 16.3339 49.5607 15.3995C48.8131 13.9417 48.8131 11.9981 49.5607 9.30698C50.1213 7.40073 50.1213 7.10171 49.5607 6.05513C48.7757 4.52266 49.1121 3.84985 50.981 3.28921C52.1023 2.99019 52.3266 2.80327 51.7659 2.69116C51.3548 2.61641 50.7941 2.35479 50.4951 2.13052Z" fill="#C9729E"/>
<path d="M51.0558 0.859668L52.9047 3.22217L52.9262 3.2053L52.9475 3.18805L51.0558 0.859668ZM50.4951 2.13052L48.5954 4.45244L48.6444 4.49252L48.6951 4.5305L50.4951 2.13052ZM53.6722 1.27085L51.3775 3.20328L51.4126 3.24499L51.4492 3.28539L53.6722 1.27085ZM57.7089 2.57905L57.629 5.57801L57.6408 5.57828L57.7089 2.57905ZM61.3345 2.99019L62.8004 0.372676L62.739 0.338302L62.676 0.306842L61.3345 2.99019ZM66.6421 2.80332L65.8986 -0.1031L65.8938 -0.101859L66.6421 2.80332ZM70.3799 2.61641L69.7191 5.54274L69.7404 5.54755L69.7618 5.55205L70.3799 2.61641ZM72.8094 2.05576L74.9795 4.12717L74.9991 4.10659L75.0184 4.08564L72.8094 2.05576ZM76.8088 1.49512L75.2297 4.04593L75.2411 4.05293L76.8088 1.49512ZM80.3596 2.09312L80.6581 5.07823L80.6862 5.07542L80.7142 5.07208L80.3596 2.09312ZM84.0226 2.42954L85.1764 -0.3397L85.1164 -0.364715L85.0553 -0.387104L84.0226 2.42954ZM91.6102 2.5043L91.3579 -0.485095L91.3459 -0.484041L91.6102 2.5043ZM98.4876 2.65381L96.4873 4.88955L96.5367 4.93375L96.588 4.97573L98.4876 2.65381ZM101.291 4.22363L102.56 1.50509L102.56 1.50509L101.291 4.22363ZM105.365 6.98955L103.358 9.21945L103.361 9.22168L105.365 6.98955ZM107.608 10.6525L104.628 10.999L104.629 11.0072L107.608 10.6525ZM108.766 12.7083L108.072 15.6267L108.105 15.6346L108.138 15.6417L108.766 12.7083ZM109.813 13.5306L112.765 12.994L112.754 12.9366L112.742 12.8798L109.813 13.5306ZM106.337 17.3805L107.834 19.98L107.854 19.9688L107.873 19.9573L106.337 17.3805ZM99.6463 29.1543L102.588 29.7427L102.591 29.7289L99.6463 29.1543ZM92.6194 45.6004L90.2768 43.7263L90.2686 43.7366L90.2604 43.7469L92.6194 45.6004ZM91.2738 47.6562L93.3951 45.5348L93.1851 45.3248L92.9379 45.16L91.2738 47.6562ZM95.6843 43.7689L98.4418 44.9507L98.453 44.9245L98.4637 44.898L95.6843 43.7689ZM96.544 43.2456L99.3294 44.3598L99.3456 44.3193L99.3606 44.2784L96.544 43.2456ZM98.0017 42.3859L99.9836 44.6381L100.031 44.596L100.077 44.5519L98.0017 42.3859ZM102.45 39.0594L104.056 41.5929L104.074 41.5818L104.091 41.5705L102.45 39.0594ZM115.831 26.2763L118.514 27.618L118.514 27.618L115.831 26.2763ZM121.325 21.3799L123.821 19.7156L123.62 19.4136L123.352 19.1684L121.325 21.3799ZM119.718 23.6225L121.978 25.596L121.985 25.5873L119.718 23.6225ZM112.579 32.78L115.051 34.4796L115.058 34.4689L112.579 32.78ZM105.589 39.5453L107.162 42.1002L107.176 42.0915L107.19 42.0827L105.589 39.5453ZM101.739 43.881L100.737 41.0534L100.691 41.0696L100.646 41.0873L101.739 43.881ZM99.7958 45.4135L100.96 48.1784L100.969 48.1747L100.978 48.171L99.7958 45.4135ZM96.2824 47.8057L94.3827 45.4838L94.3594 45.5029L94.3364 45.5224L96.2824 47.8057ZM82.6023 53.6365L82.9597 56.6152L82.9684 56.6141L82.6023 53.6365ZM80.5866 54V57H81.0647L81.5191 56.8514L80.5866 54ZM67.9431 54L65.4526 55.6726L66.3441 57H67.9431V54ZM63.8014 52.5152L63.4841 55.4984L63.4889 55.4989L63.8014 52.5152ZM58.9424 50.4594L60.6164 47.9699L60.613 47.9677L58.9424 50.4594ZM52.5882 40.1433L55.4266 39.1719L55.4254 39.1685L52.5882 40.1433ZM49.9344 22.7628L46.9363 22.6558L46.9363 22.6568L49.9344 22.7628ZM49.5607 15.3995L46.8912 16.7684L46.8951 16.776L46.899 16.7835L49.5607 15.3995ZM49.5607 9.30698L46.6826 8.46048L46.6762 8.48222L46.6701 8.50405L49.5607 9.30698ZM49.5607 6.05513L46.8905 7.42276L46.9031 7.44739L46.9162 7.47178L49.5607 6.05513ZM50.981 3.28921L50.208 0.390507L50.1633 0.402429L50.119 0.415724L50.981 3.28921ZM51.7659 2.69116L52.3542 -0.250603L52.3284 -0.25575L52.3026 -0.260446L51.7659 2.69116ZM49.2068 -1.50283C48.9582 -1.3083 48.6814 -1.08047 48.4313 -0.831479C48.2094 -0.610676 47.8176 -0.189951 47.5519 0.415308C47.2275 1.15436 47.1297 2.09192 47.5139 3.02591C47.8286 3.79094 48.3515 4.25285 48.5954 4.45244L52.3947 -0.191408C52.4331 -0.16 52.8158 0.143061 53.0628 0.743397C53.3792 1.51269 53.2862 2.27971 53.0458 2.8272C52.9463 3.05379 52.8376 3.20941 52.7763 3.28975C52.7134 3.37204 52.668 3.41706 52.664 3.42103C52.6638 3.42121 52.7234 3.36403 52.9047 3.22217L49.2068 -1.50283ZM52.364 -3C51.7324 -3 51.2477 -2.79287 51.1971 -2.77287C51.0317 -2.70749 50.8928 -2.63798 50.8015 -2.59C50.6114 -2.49017 50.4246 -2.37609 50.2623 -2.27109C49.9293 -2.0556 49.543 -1.77665 49.164 -1.46871L52.9475 3.18805C53.1665 3.0101 53.3783 2.85921 53.5218 2.76634C53.5978 2.71716 53.619 2.70742 53.5912 2.72199C53.5811 2.72733 53.5119 2.76385 53.4031 2.80689C53.3483 2.82856 53.2465 2.86662 53.112 2.90257C53.0428 2.92108 52.9481 2.94356 52.8338 2.96216C52.7229 2.98019 52.561 3 52.364 3V-3ZM55.9669 -0.661586C55.6077 -1.08808 55.237 -1.48418 54.9144 -1.79417C54.7587 -1.94376 54.5743 -2.11183 54.3828 -2.26198C54.2928 -2.33258 54.1427 -2.44563 53.9557 -2.55634C53.8627 -2.61133 53.7069 -2.69798 53.506 -2.77845C53.3482 -2.84166 52.9265 -3 52.364 -3V3C52.0661 3 51.8243 2.95504 51.665 2.91619C51.5005 2.87607 51.3678 2.82851 51.2751 2.79139C51.0956 2.71948 50.9647 2.64557 50.9 2.6073C50.7695 2.53003 50.6892 2.46632 50.6803 2.45939C50.6512 2.43656 50.6748 2.45305 50.7573 2.5324C50.9113 2.6803 51.1386 2.91962 51.3775 3.20328L55.9669 -0.661586ZM57.7889 -0.419881C57.07 -0.439052 56.614 -0.454013 56.278 -0.479855C55.9398 -0.505876 55.8957 -0.532535 55.9638 -0.510639C56.0975 -0.467662 56.2194 -0.390633 56.2713 -0.347928C56.2768 -0.343376 56.2529 -0.362592 56.1847 -0.432149C56.1148 -0.503546 56.0267 -0.598517 55.8951 -0.74369L51.4492 3.28539C51.9556 3.84422 52.7472 4.75778 54.1278 5.20154C55.162 5.53398 56.4334 5.54611 57.629 5.57799L57.7889 -0.419881ZM62.676 0.306842C62.1775 0.0576147 61.6404 -0.0486253 61.4126 -0.0927954C61.0824 -0.156818 60.7129 -0.209306 60.3389 -0.252045C59.5862 -0.338072 58.6819 -0.399622 57.777 -0.420174L57.6408 5.57828C58.3806 5.59508 59.1022 5.64566 59.6576 5.70915C59.9378 5.74117 60.143 5.77278 60.2706 5.79753C60.3348 5.80997 60.3522 5.81548 60.3349 5.81068C60.3251 5.80794 60.2927 5.79872 60.2442 5.78143C60.1998 5.76566 60.1091 5.73155 59.993 5.67353L62.676 0.306842ZM65.8938 -0.101859C64.7953 0.181097 63.9256 0.310724 63.3049 0.333233C62.5948 0.358987 62.5495 0.232212 62.8004 0.372676L59.8687 5.6077C61.054 6.27145 62.429 6.36894 63.5224 6.32929C64.7052 6.2864 66.0221 6.06094 67.3904 5.7085L65.8938 -0.101859ZM71.0406 -0.309928C69.2941 -0.704269 67.8234 -0.595449 65.8986 -0.103096L67.3856 5.70974C68.6753 5.37982 69.1482 5.41384 69.7191 5.54274L71.0406 -0.309928ZM70.6393 -0.0156502C70.5585 0.0689708 70.5102 0.116847 70.4811 0.144286C70.4523 0.171409 70.4635 0.158321 70.5057 0.126847C70.5513 0.0928626 70.6374 0.0340699 70.7607 -0.0257195C70.8883 -0.087633 71.0282 -0.137308 71.1734 -0.170032C71.4547 -0.233403 71.6342 -0.205031 71.5772 -0.211326C71.5526 -0.214038 71.4972 -0.221492 71.3941 -0.240141C71.2917 -0.258677 71.1649 -0.284088 70.9979 -0.319241L69.7618 5.55205C70.3008 5.66552 71.3997 5.92943 72.4924 5.6832C73.8046 5.3875 74.6142 4.50985 74.9795 4.12717L70.6393 -0.0156502ZM78.3878 -1.05567C77.2992 -1.72962 75.8997 -2.30149 74.2878 -2.07957C72.6769 -1.85779 71.478 -0.929165 70.6004 0.0258832L75.0184 4.08564C75.1104 3.9855 75.1837 3.91587 75.2384 3.86885C75.2928 3.82201 75.3235 3.8021 75.3302 3.79794C75.336 3.79436 75.3171 3.80668 75.2747 3.82262C75.231 3.83904 75.1734 3.85509 75.1061 3.86436C75.0388 3.87363 74.9785 3.87381 74.931 3.86971C74.8848 3.86573 74.8619 3.85872 74.8666 3.86007C74.8723 3.86174 74.9051 3.87183 74.9677 3.9011C75.0306 3.93049 75.1172 3.97625 75.2297 4.0459L78.3878 -1.05567ZM80.0611 -0.892C79.615 -0.847396 79.3208 -0.826051 79.105 -0.820702C78.898 -0.815571 78.8201 -0.827197 78.8066 -0.829423C78.801 -0.830345 78.8021 -0.83037 78.8051 -0.829498C78.8074 -0.828788 78.7996 -0.830852 78.7769 -0.84061C78.7226 -0.864029 78.6098 -0.919683 78.3764 -1.0627L75.2411 4.05293C75.9541 4.48994 76.7618 4.91419 77.8291 5.09042C78.776 5.24677 79.7379 5.17024 80.6581 5.07823L80.0611 -0.892ZM85.0553 -0.387104C83.4168 -0.987865 81.9586 -1.1184 80.005 -0.885854L80.7142 5.07208C81.9003 4.9309 82.3857 5.02468 82.9899 5.24619L85.0553 -0.387104ZM91.3459 -0.484041C88.5438 -0.236245 87.1503 -0.132772 86.2875 -0.14051C85.6394 -0.146323 85.4983 -0.205567 85.1764 -0.3397L82.8688 5.19878C83.8924 5.62529 84.7979 5.84637 86.2337 5.85925C87.4546 5.8702 89.1821 5.73073 91.8745 5.49263L91.3459 -0.484041ZM100.488 0.418066C100.185 0.146638 99.688 -0.260457 98.9342 -0.530355C98.2597 -0.771834 97.5875 -0.828803 97.0027 -0.8408C95.8922 -0.863579 94.1471 -0.720522 91.3579 -0.485072L91.8625 5.49367C94.8294 5.24323 96.1679 5.14334 96.8796 5.15794C97.2059 5.16463 97.1293 5.19643 96.9116 5.11847C96.6145 5.0121 96.4356 4.84328 96.4873 4.88955L100.488 0.418066ZM102.56 1.50509C102.069 1.27605 101.536 1.00152 101.088 0.750691C100.864 0.625589 100.677 0.514943 100.536 0.426406C100.373 0.323898 100.343 0.295474 100.387 0.33189L96.588 4.97573C97.0211 5.3301 97.6547 5.70494 98.1579 5.98656C98.7282 6.30573 99.3917 6.64792 100.022 6.94218L102.56 1.50509ZM107.372 4.75965C106.063 3.58152 103.987 2.17126 102.56 1.50509L100.022 6.94218C100.837 7.32259 102.425 8.37922 103.358 9.21945L107.372 4.75965ZM110.588 10.306C110.486 9.42818 110.331 8.37409 109.669 7.28121C109.096 6.33402 108.243 5.54214 107.369 4.75742L103.361 9.22168C103.807 9.62228 104.093 9.89324 104.292 10.101C104.484 10.3028 104.534 10.3839 104.537 10.3889C104.538 10.39 104.536 10.3878 104.534 10.3831C104.531 10.3784 104.529 10.3734 104.527 10.3689C104.523 10.3587 104.526 10.363 104.534 10.3926C104.554 10.472 104.585 10.6285 104.628 10.999L110.588 10.306ZM109.461 9.78987C109.382 9.77097 109.571 9.80401 109.829 9.95957C109.971 10.045 110.119 10.1581 110.259 10.3019C110.397 10.4447 110.497 10.5878 110.568 10.7106C110.694 10.9322 110.71 11.0684 110.685 10.9575C110.663 10.8555 110.63 10.6618 110.587 10.2979L104.629 11.0072C104.71 11.689 104.838 12.7781 105.358 13.6874C106.129 15.0372 107.346 15.454 108.072 15.6267L109.461 9.78987ZM112.742 12.8798C112.499 11.7894 111.806 11.0718 111.332 10.6928C110.796 10.2643 110.13 9.93244 109.395 9.77487L108.138 15.6417C107.926 15.5963 107.746 15.5074 107.584 15.3779C107.498 15.3093 107.38 15.1993 107.259 15.0324C107.145 14.8734 106.975 14.5895 106.884 14.1815L112.742 12.8798ZM107.873 19.9573C109.098 19.2268 110.239 18.2796 111.088 17.3387C111.509 16.8717 111.928 16.329 112.245 15.7429C112.495 15.2813 112.991 14.241 112.765 12.994L106.861 14.0673C106.776 13.5996 106.851 13.2492 106.889 13.1062C106.931 12.9516 106.975 12.8757 106.967 12.8894C106.95 12.9212 106.856 13.0722 106.632 13.3201C106.191 13.8088 105.519 14.3755 104.801 14.8036L107.873 19.9573ZM102.591 29.7289C103.719 23.9477 105.501 21.324 107.834 19.98L104.839 14.781C100.295 17.399 97.966 22.1013 96.7019 28.5798L102.591 29.7289ZM94.962 47.4745C98.4804 43.0765 101.252 36.4251 102.588 29.7427L96.7046 28.566C95.4994 34.5919 93.0378 40.275 90.2768 43.7263L94.962 47.4745ZM92.9379 45.16C93.9094 45.8076 94.1807 46.765 94.2413 47.2852C94.2978 47.7702 94.2174 48.1439 94.1846 48.2822C94.1133 48.5827 94.0111 48.7787 94.0099 48.7812C93.9817 48.8381 93.9933 48.8063 94.0971 48.6496C94.2835 48.3683 94.5943 47.9427 94.9783 47.4539L90.2604 43.7469C89.8222 44.3047 89.4041 44.8695 89.0952 45.3358C88.9514 45.5529 88.7738 45.8341 88.6324 46.1199C88.5745 46.2369 88.4347 46.5264 88.3468 46.8964C88.3058 47.0694 88.2225 47.4719 88.2815 47.9793C88.3447 48.5219 88.6243 49.4953 89.6097 50.1523L92.9379 45.16ZM92.9269 42.5872C93.0189 42.3725 93.0933 42.3018 92.998 42.4263C92.9308 42.5141 92.818 42.648 92.6546 42.8241C92.3292 43.1747 91.8993 43.5886 91.4563 43.978C91.0044 44.3753 90.6102 44.6842 90.3599 44.8537C90.2149 44.9519 90.229 44.9273 90.3587 44.8717C90.408 44.8505 90.6626 44.7403 91.0406 44.698C91.3485 44.6636 92.46 44.5997 93.3951 45.5348L89.1525 49.7775C90.1296 50.7546 91.309 50.7054 91.7071 50.6609C92.1754 50.6085 92.5428 50.4635 92.7244 50.3856C93.1184 50.2165 93.4745 49.9908 93.7237 49.8221C94.2618 49.4577 94.8652 48.9701 95.4177 48.4843C95.9793 47.9907 96.5609 47.4351 97.052 46.9061C97.4349 46.4937 98.0984 45.7518 98.4418 44.9507L92.9269 42.5872ZM99.3606 44.2784C99.4492 44.037 99.539 43.7493 99.5962 43.4362C99.6428 43.1811 99.7235 42.6287 99.568 41.9833C99.3866 41.2307 98.7397 40.0003 97.2144 39.6707C96.061 39.4215 95.1869 39.9003 94.9244 40.0555C94.2756 40.4388 93.85 40.9827 93.6273 41.2995C93.3504 41.6933 93.1045 42.1484 92.9049 42.6398L98.4637 44.898C98.5071 44.7914 98.5416 44.7419 98.5357 44.7503C98.5326 44.7546 98.5033 44.7964 98.4405 44.8617C98.393 44.9111 98.2397 45.0656 97.9768 45.221C97.817 45.3154 97.0317 45.7697 95.9472 45.5354C94.4908 45.2207 93.893 44.0446 93.735 43.389C93.6028 42.8405 93.6812 42.4277 93.6939 42.358C93.7172 42.2303 93.7417 42.174 93.7274 42.2129L99.3606 44.2784ZM96.0198 40.1338C95.8251 40.3052 95.6577 40.4429 95.5254 40.5451C95.3826 40.6553 95.3203 40.6934 95.3295 40.6879C95.3313 40.6868 95.4065 40.641 95.536 40.5868C95.5854 40.5662 96.0218 40.3725 96.6391 40.3853C96.9857 40.3924 97.59 40.4689 98.2047 40.8778C98.881 41.3278 99.2705 41.9807 99.4303 42.6004C99.6803 43.5696 99.3459 44.3186 99.3294 44.3598L93.7586 42.1314C93.7047 42.2662 93.3587 43.084 93.6205 44.099C93.7862 44.7417 94.1875 45.4117 94.8812 45.8733C95.5133 46.2938 96.1406 46.3763 96.5155 46.384C97.1894 46.3979 97.7039 46.1838 97.8503 46.1226C98.0769 46.0278 98.2683 45.9213 98.4032 45.8408C98.9088 45.5392 99.4744 45.0862 99.9836 44.6381L96.0198 40.1338ZM100.843 36.5258C99.2333 37.5466 97.0279 39.164 95.926 40.22L100.077 44.5519C100.77 43.8886 102.601 42.5157 104.056 41.5929L100.843 36.5258ZM113.147 24.9347C111.533 28.164 107.381 32.252 100.808 36.5482L104.091 41.5705C110.899 37.1205 116.167 32.3126 118.514 27.618L113.147 24.9347ZM123.352 19.1684C122.395 18.2913 121.293 18.3228 120.869 18.3696C120.392 18.4221 120.012 18.5691 119.809 18.656C119.377 18.8409 118.979 19.0938 118.684 19.2957C118.054 19.7261 117.341 20.3111 116.677 20.9042C116.003 21.5069 115.309 22.1815 114.718 22.8225C114.199 23.3864 113.532 24.1658 113.147 24.9347L118.514 27.618C118.485 27.6767 118.625 27.4375 119.133 26.8859C119.57 26.4115 120.121 25.8736 120.675 25.3784C121.24 24.8735 121.739 24.4751 122.071 24.2478C122.257 24.1209 122.276 24.1265 122.17 24.1719C122.13 24.1891 121.89 24.2934 121.526 24.3335C121.215 24.3677 120.199 24.4171 119.298 23.5914L123.352 19.1684ZM121.985 25.5873C122.518 24.9718 123.001 24.3639 123.357 23.8638C123.528 23.6243 123.713 23.3492 123.863 23.0799C123.93 22.9598 124.051 22.7326 124.149 22.4524C124.196 22.3191 124.283 22.0483 124.316 21.699C124.342 21.4292 124.395 20.5767 123.821 19.7156L118.829 23.0442C118.534 22.6019 118.415 22.1682 118.366 21.857C118.318 21.548 118.328 21.2911 118.344 21.1234C118.375 20.8018 118.453 20.5653 118.486 20.4725C118.525 20.3587 118.563 20.277 118.581 20.2386C118.602 20.196 118.617 20.1686 118.622 20.1599C118.629 20.1464 118.59 20.2147 118.471 20.3817C118.248 20.6945 117.889 21.1519 117.451 21.6577L121.985 25.5873ZM115.058 34.4689C116.741 31.999 119.469 28.468 121.977 25.596L117.458 21.649C114.809 24.6827 111.931 28.4029 110.099 31.0911L115.058 34.4689ZM107.19 42.0827C109.979 40.3234 113.186 37.1921 115.051 34.4795L110.107 31.0804C108.682 33.1521 106.059 35.7022 103.989 37.0079L107.19 42.0827ZM103.17 44.1053C103.17 44.5857 103.051 44.9469 102.988 45.1136C102.918 45.3017 102.843 45.4386 102.801 45.5099C102.756 45.5875 102.718 45.6427 102.697 45.6711C102.676 45.7014 102.661 45.7199 102.657 45.725C102.655 45.7274 102.71 45.6626 102.856 45.5176C103.134 45.2416 103.563 44.8534 104.086 44.4116C105.15 43.5131 106.375 42.5846 107.162 42.1002L104.017 36.9903C102.861 37.702 101.375 38.848 100.215 39.8276C99.6261 40.325 99.0648 40.8268 98.6306 41.2575C98.4205 41.4658 98.1883 41.7085 97.9886 41.9558C97.8925 42.0748 97.7504 42.2603 97.6171 42.489C97.5574 42.5916 97.1696 43.2244 97.1696 44.1053H103.17ZM100.646 41.0873C100.379 41.1918 100.227 41.2169 100.242 41.2149C100.254 41.2133 100.302 41.2074 100.378 41.2058C100.444 41.2045 100.601 41.2045 100.812 41.2414C100.978 41.2705 101.452 41.3667 101.954 41.7282C102.572 42.1728 103.17 42.9984 103.17 44.1053H97.1696C97.1696 45.2589 97.7894 46.1231 98.4493 46.598C98.9938 46.9899 99.5302 47.1083 99.7764 47.1514C100.301 47.2433 100.77 47.197 101.022 47.1639C101.607 47.0872 102.24 46.9066 102.833 46.6748L100.646 41.0873ZM100.978 48.171C101.94 47.7585 102.768 47.3724 103.426 47.0355C104.013 46.7355 104.663 46.3764 105.123 46.0087C105.242 45.9134 105.474 45.7195 105.698 45.44C105.811 45.2998 105.998 45.0442 106.149 44.6865C106.296 44.3364 106.494 43.6801 106.323 42.8726C105.915 40.9361 104.147 40.555 103.871 40.5048C103.4 40.4193 103.004 40.4604 102.852 40.4781C102.225 40.5506 101.445 40.8025 100.737 41.0534L102.742 46.7087C103.51 46.4363 103.683 46.4219 103.541 46.4383C103.51 46.4419 103.206 46.4822 102.799 46.4082C102.586 46.3696 100.854 46.0125 100.453 44.1116C100.286 43.3218 100.481 42.6863 100.618 42.3598C100.759 42.0256 100.929 41.7964 101.018 41.6853C101.196 41.4641 101.355 41.3394 101.374 41.3235C101.437 41.2735 101.277 41.3957 100.694 41.6937C100.183 41.9549 99.4833 42.2836 98.6141 42.6561L100.978 48.171ZM98.1821 50.1275C98.7311 49.6784 99.363 49.2065 99.9287 48.8197C100.211 48.6267 100.46 48.4662 100.662 48.3455C100.884 48.2125 100.975 48.1722 100.96 48.1784L98.6317 42.6486C97.9715 42.9266 97.1833 43.4284 96.542 43.8669C95.8369 44.3491 95.0671 44.9238 94.3827 45.4838L98.1821 50.1275ZM82.9684 56.6141C88.0611 55.988 94.4546 53.3052 98.2283 50.0889L94.3364 45.5224C91.5317 47.9128 86.2635 50.1638 82.2362 50.659L82.9684 56.6141ZM81.5191 56.8514C81.6746 56.8006 82.0356 56.7261 82.9597 56.6152L82.2448 50.6579C81.3708 50.7628 80.449 50.8887 79.6542 51.1486L81.5191 56.8514ZM67.9431 57H80.5866V51H67.9431V57ZM63.4889 55.4989C64.0824 55.5611 64.5333 55.614 64.8991 55.6712C65.2669 55.7289 65.4724 55.7797 65.5863 55.8167C65.6866 55.8492 65.6604 55.8534 65.5856 55.7994C65.5498 55.7737 65.5165 55.7443 65.4889 55.7153C65.4621 55.6871 65.4506 55.6696 65.4526 55.6726L70.4335 52.3274C69.6601 51.1758 68.6325 50.4966 67.4359 50.1088C66.4363 49.7849 65.2539 49.651 64.114 49.5315L63.4889 55.4989ZM57.2684 52.949C58.3783 53.6953 59.3502 54.298 60.3508 54.7241C61.4206 55.1796 62.4001 55.3831 63.4841 55.4984L64.1188 49.532C63.446 49.4605 63.08 49.3649 62.7014 49.2037C62.2536 49.013 61.6743 48.6813 60.6164 47.9699L57.2684 52.949ZM49.7499 41.1147C50.9216 44.5383 51.7879 46.9001 52.8728 48.6659C54.0801 50.631 55.4809 51.7506 57.2717 52.9512L60.613 47.9677C59.1146 46.963 58.5344 46.4193 57.985 45.5251C57.3132 44.4315 56.647 42.7379 55.4266 39.1719L49.7499 41.1147ZM46.9363 22.6568C46.8036 26.4094 46.8323 29.1567 47.2585 31.948C47.6837 34.7323 48.4854 37.4345 49.751 41.1181L55.4254 39.1685C54.1868 35.5635 53.5308 33.2758 53.1897 31.0423C52.8497 28.8156 52.8036 26.517 52.9326 22.8688L46.9363 22.6568ZM46.899 16.7835C46.8998 16.7851 46.9061 16.7889 46.922 16.8602C46.945 16.9637 46.9808 17.1839 47.004 17.6262C47.052 18.5425 47.0305 20.0182 46.9363 22.6558L52.9325 22.8699C53.0252 20.2747 53.0599 18.5359 52.9957 17.3123C52.9284 16.0264 52.742 15.0149 52.2223 14.0154L46.899 16.7835ZM46.6701 8.50405C45.8524 11.4477 45.6271 14.3035 46.8912 16.7684L52.2301 14.0305C51.9991 13.58 51.7738 12.5486 52.4512 10.1099L46.6701 8.50405ZM46.9162 7.47178C47.0418 7.70615 47.0499 7.74386 47.0373 7.70717C47.0075 7.61996 46.9812 7.48762 46.9812 7.35868C46.9812 7.27151 46.9947 7.28067 46.9488 7.48527C46.9021 7.69323 46.8219 7.98685 46.6826 8.46048L52.4388 10.1535C52.6877 9.30716 52.9812 8.31796 52.9812 7.35868C52.9812 6.13376 52.5293 5.24374 52.2051 4.63847L46.9162 7.47178ZM50.119 0.415724C49.5467 0.587394 48.9175 0.816569 48.3397 1.15632C47.7504 1.50282 47.0564 2.05762 46.6041 2.94292C45.6571 4.79653 46.4645 6.59093 46.8905 7.42276L52.2308 4.6875C52.0976 4.42739 52.1209 4.40582 52.1448 4.54456C52.1781 4.73723 52.1987 5.18033 51.9472 5.67255C51.7145 6.128 51.406 6.3137 51.3808 6.32848C51.3672 6.33651 51.4808 6.27135 51.843 6.16269L50.119 0.415724ZM51.1777 5.63293C51.166 5.63058 51.0646 5.61077 50.9173 5.55738C50.8269 5.52463 50.4044 5.37294 49.9804 4.97354C49.44 4.46447 48.8202 3.42598 49.1509 2.1163C49.3943 1.15252 50.0297 0.655266 50.1623 0.552075C50.5054 0.28526 50.7867 0.209567 50.6373 0.263474C50.5813 0.283682 50.4488 0.326289 50.208 0.390507L51.754 6.18791C52.0738 6.10262 52.3899 6.00973 52.6738 5.90728C52.8643 5.83854 53.3769 5.65305 53.8461 5.28811C54.0418 5.13586 54.714 4.59247 54.9683 3.58532C55.31 2.23228 54.6753 1.1532 54.0946 0.606166C53.6303 0.168809 53.1421 -0.0182134 52.961 -0.0838189C52.723 -0.170048 52.506 -0.220233 52.3542 -0.250603L51.1777 5.63293ZM48.6951 4.5305C49.3321 5.00825 50.3191 5.47729 51.2293 5.64277L52.3026 -0.260446C52.3229 -0.256753 52.3393 -0.253288 52.3515 -0.250518C52.3637 -0.247735 52.3729 -0.24539 52.379 -0.243776C52.3851 -0.242153 52.3888 -0.241046 52.3901 -0.240637C52.3915 -0.240221 52.3911 -0.240324 52.3889 -0.241054C52.3843 -0.242618 52.375 -0.245893 52.3616 -0.251155C52.3484 -0.256373 52.3333 -0.262689 52.3172 -0.269923C52.3011 -0.27715 52.2857 -0.284503 52.2718 -0.291524C52.2578 -0.298591 52.2472 -0.304323 52.2406 -0.30808C52.2374 -0.309885 52.2357 -0.310896 52.2355 -0.311021C52.2353 -0.311162 52.2371 -0.310102 52.2407 -0.307743C52.2444 -0.30541 52.2506 -0.3013 52.2593 -0.29531C52.2679 -0.289365 52.28 -0.280785 52.2951 -0.269465L48.6951 4.5305Z" fill="white" mask="url(#path-3-inside-1)"/>
</svg>
