<svg width="427" height="646" viewBox="0 0 427 646" fill="none" xmlns="http://www.w3.org/2000/svg">
<path d="M107.388 0.230264C107.088 0.530264 103.688 1.43026 99.6877 2.33026C88.9877 4.53026 78.2877 9.03026 66.0877 16.3303C47.1877 27.7303 33.0877 39.8303 28.5877 48.7303C26.1877 53.3303 25.8877 60.1303 27.8877 63.7303C28.5877 65.0303 46.4877 83.7303 67.7877 105.23C96.9877 135.03 106.088 144.83 105.388 145.93C104.888 146.73 103.288 150.93 101.888 155.33C99.7877 161.53 99.1877 165.53 99.0877 173.13L98.9877 182.93L96.4877 182.43C80.5877 178.83 64.9877 179.53 50.5877 184.63C26.8877 193.03 8.68769 212.83 1.88769 237.93C-0.612309 246.73 -0.612309 266.93 1.78769 275.83C4.18769 285.03 11.4877 299.23 17.5877 306.63C26.8877 317.93 42.2877 327.73 56.5877 331.53L63.0877 333.23L59.3877 340.53C53.1877 352.93 51.0877 362.23 51.0877 377.83C50.9877 393.83 52.5877 400.93 59.0877 414.53C64.5877 426.03 73.3877 437.03 82.6877 444.13C92.7877 451.63 97.4877 454.23 108.488 457.93C116.888 460.73 119.588 461.23 131.488 461.63C141.688 461.93 146.688 461.63 151.788 460.43C155.588 459.53 158.788 458.83 158.988 458.83C159.288 458.83 159.188 463.03 158.888 468.03C157.388 491.03 165.688 513.53 181.888 530.53C189.888 539.03 197.288 544.43 207.788 549.43C219.588 554.93 226.188 556.33 241.688 556.33C249.288 556.33 255.488 556.33 255.488 556.43C255.488 556.43 254.588 560.03 253.488 564.33C251.088 573.83 250.888 587.93 252.988 596.33C260.888 626.83 288.888 647.53 319.488 645.53C346.188 643.83 368.288 626.93 377.188 601.63C380.188 593.23 381.388 577.33 379.588 569.83C378.588 565.63 378.688 565.23 380.788 563.93C381.988 563.13 386.388 559.03 390.588 554.83C402.888 542.63 408.788 528.13 408.888 510.33C408.988 499.23 406.688 489.73 401.688 480.33L397.988 473.43L406.588 464.83C420.288 451.23 426.788 435.83 426.788 416.83C426.788 405.23 424.788 397.13 419.388 385.83C413.588 374.03 401.388 361.83 389.588 356.03L381.388 352.03L386.388 348.43C399.688 338.63 411.288 321.03 416.088 303.33C418.688 293.73 418.788 270.23 416.188 260.83C409.888 237.53 393.488 217.43 371.788 206.53C365.988 203.53 350.588 198.83 346.888 198.83H344.488L347.388 193.53C362.488 166.63 357.388 132.43 335.088 110.33C326.788 102.13 318.088 96.8303 306.988 93.1303C299.988 90.8303 297.388 90.4303 285.988 90.4303C274.588 90.4303 271.988 90.8303 264.988 93.1303C243.688 100.23 226.588 116.93 220.188 137.03C218.988 140.73 217.788 143.83 217.488 143.83C217.188 143.83 215.688 141.83 214.188 139.43C207.188 128.23 191.188 116.83 177.488 113.33C169.188 111.13 154.888 111.03 146.688 113.23C143.188 114.13 140.188 114.83 139.988 114.83C139.088 114.83 133.388 94.9303 130.088 80.5303C126.088 63.4303 122.288 40.8303 119.988 20.9303C118.388 7.13026 117.888 5.43026 114.788 2.63026C112.888 0.830264 108.288 -0.569736 107.388 0.230264Z" fill="white"/>
</svg>
