<svg width="154" height="192" viewBox="0 0 154 192" fill="none" xmlns="http://www.w3.org/2000/svg">
<mask id="path-1-inside-1" fill="white">
<path d="M45.2429 1.93965C44.744 2.85053 43.9426 3.4952 42.3545 4.28455L41.9325 4.49682L43.4874 5.37002C45.253 6.35211 46.245 7.34305 47.0469 8.98023C47.3272 9.53349 48.2276 11.723 49.0529 13.817C50.4456 17.4125 50.6335 17.9905 52.1559 23.734C54.4744 32.5715 55.4448 37.4873 56.9053 48.1752C58.1349 57.139 59.0535 62.416 60.2261 67.1618C60.5218 68.3889 60.7556 69.3846 60.7402 69.3887C60.7094 69.397 60.3085 69.2564 59.8294 69.0706C58.1085 68.4403 56.1119 68.1981 53.9792 68.3727C53.0752 68.4495 52.5984 68.3954 51.9477 68.1233C49.1852 66.9949 47.2095 65.7218 42.1474 61.8032L38.5677 59.0417L36.6263 58.6359C34.6848 58.2301 34.6458 58.2075 32.6607 56.8377C31.5643 56.0732 30.6561 55.4567 30.6253 55.4649C30.6099 55.4691 30.8725 55.8948 31.237 56.3924C31.5902 56.9096 31.8612 57.3662 31.8232 57.4094C31.8048 57.4639 31.245 57.5313 30.5803 57.5771C29.9269 57.6033 29.3784 57.6511 29.3671 57.6706C29.3558 57.6902 29.5865 58.0583 29.8646 58.4799C30.984 60.1312 30.8582 61.1406 29.4921 61.3413L28.7432 61.4427L26.6168 64.2283L24.5016 66.9944L23.5048 66.8481L22.508 66.7018L21.028 67.7102C20.2214 68.2736 19.58 68.7761 19.5924 68.8224C19.609 68.8841 19.8303 69.1555 20.0907 69.4496C20.3511 69.7436 20.6014 70.123 20.651 70.3082C20.7998 70.8636 20.24 71.6089 19.3345 72.0499C17.8767 72.7713 15.0198 74.2478 14.986 74.3065C14.9593 74.3302 15.2956 74.5377 15.7172 74.7555C16.1974 75.0072 16.5389 75.296 16.5968 75.512C16.696 75.8822 15.986 77.1143 15.3273 77.7372C14.996 78.041 14.9302 78.0421 14.2197 77.6702C12.518 76.8033 11.4066 76.9688 9.91273 78.2951C9.3905 78.7492 9.0039 79.2166 9.03284 79.3246C9.05764 79.4172 9.34737 80.0672 9.66491 80.7593C10.5525 82.6546 10.5544 82.5384 9.45243 83.4785C8.60182 84.186 8.29899 84.3498 7.31309 84.614C6.6815 84.7832 6.12806 84.9977 6.09125 85.1067C6.0503 85.2004 6.05896 85.4792 6.12097 85.7106C6.25326 86.2043 6.21118 86.2321 5.65095 86.0515C4.68981 85.7303 2.97802 86.3047 1.64613 87.3727L1.051 87.8628L2.18538 88.5841C3.31976 89.3054 3.94952 89.9304 4.10248 90.5013C4.16036 90.7173 3.6047 91.478 2.17929 93.1828C1.07586 94.4872 0.185825 95.6021 0.202361 95.6638C0.218897 95.7255 0.856539 96.1334 1.61855 96.5742L3.00993 97.3919L2.64562 99.6062C2.44618 100.834 2.06229 102.359 1.80646 103.006C1.30193 104.266 1.28239 104.254 2.5253 104.087C3.70659 103.935 5.25197 104.034 6.03839 104.319L6.74666 104.56L6.99096 105.718C7.23827 106.826 7.26607 106.868 7.60498 106.777C7.78983 106.727 7.96041 106.748 7.98108 106.825C8.03483 107.026 7.55811 108.327 7.28648 108.731C6.90102 109.264 5.47896 110.488 5.09384 110.592C4.49306 110.753 4.62796 110.948 5.84349 111.664L7.07443 112.376L6.01499 114.214L4.96682 116.033L6.18197 116.501C6.84402 116.754 7.41365 117.031 7.44258 117.139C7.47152 117.247 7.22927 118.684 6.90212 120.36C6.55242 122.074 6.37066 123.429 6.46835 123.485C6.56605 123.542 7.48959 123.476 8.53937 123.327C9.57374 123.182 10.7141 123.125 11.044 123.185C11.564 123.278 11.6782 123.396 11.8567 123.877C11.9868 124.239 12.0183 124.727 11.9256 125.181C11.8512 125.582 11.8456 125.931 11.9237 125.976C12.0019 126.021 12.5948 126.077 13.2298 126.105C13.8843 126.145 14.4227 126.183 14.4577 126.19C14.4772 126.201 14.4675 126.534 14.4435 126.938C14.4194 127.341 14.4097 127.674 14.4251 127.67C14.46 127.677 14.8948 127.759 15.3952 127.84L16.2955 127.996L15.9728 128.578C15.688 129.118 15.4119 129.936 14.5103 132.856L14.2282 133.775L15.933 134.592C18.2115 135.701 18.3392 135.931 18.2722 139.008C18.267 139.605 18.2956 140.143 18.3696 140.173C18.4282 140.207 18.9489 140.117 19.5343 139.96C20.1505 139.795 20.5984 139.741 20.6232 139.834C20.6728 140.019 21.3709 145.52 21.4585 146.34L21.5025 146.874L22.1649 146.696C23.5051 146.337 24.9476 146.976 25.6769 148.219C25.8366 148.507 26.3327 149.681 26.7896 150.831C27.2466 151.982 27.7539 153.136 27.9053 153.393L28.2112 153.857L29.4609 153.406L30.6951 152.96L31.9772 154.171C33.5854 155.675 36.7865 159.364 38.5451 161.737C39.2699 162.717 39.9463 163.578 40.0244 163.623C40.298 163.781 41.1473 160.296 41.0146 159.554C40.9462 159.176 40.9774 158.737 41.0634 158.566C41.169 158.405 41.2291 158.075 41.2133 157.831C41.1677 156.983 41.4754 155.975 42.2425 154.463C42.6614 153.623 43.063 152.904 43.1164 152.856C43.1697 152.809 43.5504 153.12 43.9558 153.524L44.7039 154.283L45.213 153.287C45.55 152.634 45.9159 151.412 46.2595 149.798C46.5337 148.418 46.7846 147.26 46.8072 147.221C46.8297 147.182 47.21 147.245 47.6725 147.369L48.504 147.576L49.4459 146.1C49.9542 145.286 51.3255 143.133 52.4743 141.32L54.5568 138.001L55.2553 137.896C56.6131 137.664 57.4161 138.69 57.9134 141.285L58.1611 142.64L59.0591 142.664C60.553 142.694 61.2763 143.36 62.0151 145.378L62.4052 146.464L62.965 146.397C64.1895 146.284 65.3559 147.063 65.9365 148.428C66.2705 149.182 66.6778 149.47 68.8083 150.52L69.7214 150.969L70.3935 150.459C71.2606 149.813 71.7115 149.709 72.2041 150.007C72.4232 150.146 73.3791 151.064 74.3557 152.059C76.0176 153.764 76.1822 153.885 76.9623 154.023C77.8975 154.186 78.8188 154.667 79.3704 155.246C79.5639 155.476 80.0408 156.208 80.4199 156.883C81.1617 158.173 83.5308 160.73 83.6401 160.337C83.677 160.227 83.8566 160.097 84.0568 160.043C84.6422 159.886 85.6154 160.684 86.8314 162.326C87.3379 162.984 87.6013 163.227 87.8015 163.174C88.5564 162.971 89.8824 164.038 91.1438 165.85C91.8894 166.907 91.9326 166.945 92.4379 166.859C93.7609 166.62 94.3594 167.006 95.8257 169.027C96.6535 170.145 96.7399 170.221 97.0735 170.049C97.5417 169.824 98.3161 170.311 99.6395 171.676C100.774 172.828 100.875 172.899 101.461 172.743C102.185 172.549 103.282 173.379 105.251 175.613C105.863 176.292 106.023 176.398 106.377 176.303C106.978 176.142 107.268 176.362 108.373 177.836C108.927 178.547 110.106 180.05 111.01 181.147C112.856 183.414 115.48 187.292 116.851 189.818C117.35 190.759 117.801 191.515 117.847 191.503C117.893 191.49 117.525 188.083 117.035 183.915C116.083 175.985 116.055 175.265 116.595 173.152C116.733 172.619 116.953 171.899 117.09 171.548C117.32 170.99 117.416 170.915 117.975 170.848C118.311 170.807 118.734 170.843 118.925 170.94C119.229 171.09 119.288 170.876 119.785 167.866L120.337 164.626L121.208 164.425C122.217 164.188 122.17 164.382 121.873 162.163C121.587 159.925 121.963 157.939 122.665 158.032C122.801 158.045 123.021 158.069 123.142 158.086C123.297 158.111 123.385 157.823 123.401 157.207C123.489 155.132 125.076 154.029 127.672 154.227C128.179 154.273 128.329 154.216 128.741 153.841C129.876 152.842 130.113 151.324 129.432 149.704C129.246 149.257 129.104 148.849 129.126 148.81C129.137 148.791 129.865 148.794 130.721 148.846C131.577 148.898 132.374 148.915 132.482 148.887C132.59 148.858 132.752 148.417 132.833 147.916C132.963 147.17 132.937 146.764 132.639 145.653L132.275 144.295L132.848 144.522C133.366 144.731 133.574 144.708 135.095 144.284C136.016 144.021 136.804 143.76 136.842 143.716C136.876 143.658 136.843 143.104 136.783 142.509C136.699 141.704 136.423 140.736 135.821 138.98C134.539 135.305 134.626 135.447 133.251 134.443C132.581 133.977 132.052 133.54 132.078 133.517C132.101 133.478 132.797 133.489 133.618 133.534C135.048 133.631 135.16 133.617 136.3 133.13C136.953 132.855 137.499 132.61 137.525 132.586C137.532 132.551 137.04 131.146 136.423 129.459L135.302 126.386L136.013 126.08C136.854 125.705 138.202 124.699 138.767 124.035C138.995 123.776 139.196 123.54 139.223 123.516C139.234 123.497 137.896 122.202 136.245 120.66C134.589 119.102 133.13 117.724 133.003 117.56C132.834 117.357 132.782 117.04 132.815 116.486C132.846 116.047 132.735 115.201 132.561 114.553L132.251 113.396L133.252 113.127L134.254 112.859L134.045 112.452C133.271 111.039 132.279 110.048 130.228 108.679L128.756 107.685L129.069 106.757C129.242 106.232 129.381 105.764 129.368 105.718C129.352 105.656 128.905 105.528 128.385 105.436C127.092 105.171 125.483 104.527 123.604 103.492C122.596 102.936 120.637 102.154 118.2 101.319C114.293 99.9846 113.47 99.5603 112.992 98.5803C112.527 97.6465 113.126 96.428 114.513 95.4443C115.224 94.9561 115.628 94.7984 117.712 94.2566C119.025 93.9212 120.771 93.536 121.566 93.4222C122.959 93.1978 123.195 93.2172 126.391 93.8658C128.243 94.246 130.659 94.8222 131.74 95.1608C133.65 95.757 133.716 95.7559 133.667 95.3886C133.644 95.1798 133.706 94.9812 133.814 94.9523C134.03 94.8945 135.04 95.3351 136.847 96.2893C137.886 96.8379 138.165 96.8953 139.403 96.8942C141.183 96.8805 141.229 96.8681 140.916 96.4393C140.575 95.9684 140.691 95.9704 141.683 96.4654C142.424 96.829 142.699 96.871 144.009 96.7681C144.832 96.6964 146.391 96.4771 147.471 96.254C148.554 96.0463 150.364 95.7763 151.492 95.6725C152.635 95.5646 153.593 95.4404 153.611 95.3858C153.634 95.3467 152.573 93.9772 151.226 92.3374L148.811 89.3631L149.436 89.0467C150.015 88.7428 150.064 88.68 149.953 88.2634C149.816 87.7543 149.138 87.01 147.378 85.4312L146.25 84.427L146.78 84.1858C147.371 83.9281 147.851 83.2539 148.012 82.4997C148.116 82.0253 148.065 81.9564 145.966 79.8563C144.789 78.667 143.804 77.641 143.788 77.5793C143.771 77.5176 144.293 76.8155 144.941 76.0301C146.226 74.4786 146.223 74.529 145.441 73.399C144.822 72.5066 143.057 70.8465 142.523 70.6422C141.188 70.1567 141.263 70.2523 141.438 69.4281C141.528 69.0237 141.569 68.6821 141.534 68.6749C141.499 68.6678 140.79 68.3618 139.936 68.0116L138.397 67.3822L139.272 65.8414C140.305 64.0268 140.337 64.0844 137.916 63.9228C136.769 63.8332 135.993 63.8925 134.867 64.128C133.363 64.4317 133.348 64.4358 133.144 64.044C132.832 63.4331 131.861 63.0152 128.307 61.9502C128.038 61.8733 128.028 61.7107 128.194 60.3598L128.385 58.8535L125.898 57.337C123.607 55.9336 123.419 55.7856 123.395 55.3288C123.352 54.3649 123.729 53.1228 124.566 51.6253L125.395 50.0968L124.786 49.7969C123.479 49.1715 121.853 48.6481 120.001 48.2679C118.953 48.0527 118.04 47.8508 118.001 47.8282C117.79 47.7193 118.159 45.5205 118.573 44.4173L119.051 43.1813L117.742 42.9201C117.024 42.7653 116.413 42.5817 116.389 42.4891C116.314 42.2114 116.835 40.7655 117.36 39.8309C117.611 39.3503 118.3 38.2232 118.865 37.3112C119.866 35.687 119.877 35.6674 119.517 35.4332C118.895 35.0211 116.436 34.6548 114.96 34.7527L113.56 34.83L113.56 34.3341C113.569 33.5049 113.513 33.4206 112.943 33.5733C112.666 33.6476 112.114 33.7458 111.717 33.8027L110.999 33.8959L111.175 32.7075C111.28 32.051 111.333 31.5078 111.278 31.4893C111.239 31.4667 109.761 31.6809 107.986 31.958C106.215 32.2506 104.737 32.4648 104.683 32.4463C104.644 32.4237 104.609 31.7386 104.622 30.9248C104.62 30.1151 104.604 29.4413 104.585 29.43C104.561 29.4033 103.049 29.6761 101.24 30.0119C99.4161 30.3519 97.9155 30.6051 97.8764 30.5825C97.8373 30.5599 97.7726 29.9489 97.7098 29.2216C97.6625 28.4902 97.5801 27.7516 97.5346 27.5818C97.4148 27.1344 95.4252 26.8572 94.3469 27.1462L93.5151 27.3691L93.0562 25.6565L92.5973 23.944L92.1333 24.184C90.2998 25.1053 89.0937 25.8418 88.3931 26.4926L87.5857 27.2381L87.0746 26.9947C86.7898 26.856 86.502 26.7678 86.425 26.7884C86.348 26.8091 86.1496 27.4244 85.9689 28.1674C85.7841 28.8949 85.5929 29.4753 85.5539 29.4527C85.4994 29.4342 85.3896 28.9014 85.3013 28.2636L85.131 27.1351L84.6482 27.1818C84.378 27.2211 83.051 27.4444 81.7168 27.7027C80.3826 27.961 79.264 28.1615 79.225 28.1389C79.2054 28.1276 78.8233 27.5024 78.3968 26.7733C77.9661 26.0289 77.4911 25.1805 77.316 24.8967L77.009 24.3671L75.7527 25.7786C74.724 26.9306 72.702 28.8119 72.4093 28.8903C72.363 28.9027 72.2364 28.7382 72.1241 28.5037C72.0004 28.2888 71.7573 27.8744 71.5935 27.571L71.2782 27.0106L70.6601 27.292C69.3357 27.8949 68.422 28.9831 68.3139 30.12C68.2643 30.6128 68.0701 30.5656 67.3261 29.8224C67.0112 29.5099 66.682 29.2674 66.605 29.288C66.2045 29.3953 66.084 31.8419 66.3243 34.3406C66.436 35.4352 66.4909 36.3795 66.4458 36.4578C66.3853 36.5401 66.0539 36.8439 65.6639 37.1137L64.9764 37.6287L63.7105 36.9096L62.4292 36.1946L61.9247 37.4542C61.2594 39.0381 61.0355 40.4209 61.1867 41.786C61.2472 42.3816 61.2988 43.8065 61.2955 44.9649L61.3009 47.0801L62.9048 52.3883C63.7756 55.33 64.611 58.0165 64.7564 58.3744C65.0071 59.0017 64.9928 59.0717 64.2666 60.49C63.3725 62.2674 62.5178 64.3154 62.3804 65.0963C62.3161 65.4112 62.2087 65.688 62.1317 65.7087C61.8544 65.783 61.1632 62.0326 60.909 59.1738C60.6514 56.1175 60.3056 53.1013 59.8827 50.1059C59.2342 45.4676 59.3989 46.2668 55.9843 31.059C54.213 23.2159 51.3349 11.9818 50.5943 10.0802C50.064 8.7175 45.9718 0.901011 45.826 0.973144C45.7839 1.00096 45.5206 1.43532 45.2429 1.93965Z"/>
</mask>
<path d="M45.2429 1.93965C44.744 2.85053 43.9426 3.4952 42.3545 4.28455L41.9325 4.49682L43.4874 5.37002C45.253 6.35211 46.245 7.34305 47.0469 8.98023C47.3272 9.53349 48.2276 11.723 49.0529 13.817C50.4456 17.4125 50.6335 17.9905 52.1559 23.734C54.4744 32.5715 55.4448 37.4873 56.9053 48.1752C58.1349 57.139 59.0535 62.416 60.2261 67.1618C60.5218 68.3889 60.7556 69.3846 60.7402 69.3887C60.7094 69.397 60.3085 69.2564 59.8294 69.0706C58.1085 68.4403 56.1119 68.1981 53.9792 68.3727C53.0752 68.4495 52.5984 68.3954 51.9477 68.1233C49.1852 66.9949 47.2095 65.7218 42.1474 61.8032L38.5677 59.0417L36.6263 58.6359C34.6848 58.2301 34.6458 58.2075 32.6607 56.8377C31.5643 56.0732 30.6561 55.4567 30.6253 55.4649C30.6099 55.4691 30.8725 55.8948 31.237 56.3924C31.5902 56.9096 31.8612 57.3662 31.8232 57.4094C31.8048 57.4639 31.245 57.5313 30.5803 57.5771C29.9269 57.6033 29.3784 57.6511 29.3671 57.6706C29.3558 57.6902 29.5865 58.0583 29.8646 58.4799C30.984 60.1312 30.8582 61.1406 29.4921 61.3413L28.7432 61.4427L26.6168 64.2283L24.5016 66.9944L23.5048 66.8481L22.508 66.7018L21.028 67.7102C20.2214 68.2736 19.58 68.7761 19.5924 68.8224C19.609 68.8841 19.8303 69.1555 20.0907 69.4496C20.3511 69.7436 20.6014 70.123 20.651 70.3082C20.7998 70.8636 20.24 71.6089 19.3345 72.0499C17.8767 72.7713 15.0198 74.2478 14.986 74.3065C14.9593 74.3302 15.2956 74.5377 15.7172 74.7555C16.1974 75.0072 16.5389 75.296 16.5968 75.512C16.696 75.8822 15.986 77.1143 15.3273 77.7372C14.996 78.041 14.9302 78.0421 14.2197 77.6702C12.518 76.8033 11.4066 76.9688 9.91273 78.2951C9.3905 78.7492 9.0039 79.2166 9.03284 79.3246C9.05764 79.4172 9.34737 80.0672 9.66491 80.7593C10.5525 82.6546 10.5544 82.5384 9.45243 83.4785C8.60182 84.186 8.29899 84.3498 7.31309 84.614C6.6815 84.7832 6.12806 84.9977 6.09125 85.1067C6.0503 85.2004 6.05896 85.4792 6.12097 85.7106C6.25326 86.2043 6.21118 86.2321 5.65095 86.0515C4.68981 85.7303 2.97802 86.3047 1.64613 87.3727L1.051 87.8628L2.18538 88.5841C3.31976 89.3054 3.94952 89.9304 4.10248 90.5013C4.16036 90.7173 3.6047 91.478 2.17929 93.1828C1.07586 94.4872 0.185825 95.6021 0.202361 95.6638C0.218897 95.7255 0.856539 96.1334 1.61855 96.5742L3.00993 97.3919L2.64562 99.6062C2.44618 100.834 2.06229 102.359 1.80646 103.006C1.30193 104.266 1.28239 104.254 2.5253 104.087C3.70659 103.935 5.25197 104.034 6.03839 104.319L6.74666 104.56L6.99096 105.718C7.23827 106.826 7.26607 106.868 7.60498 106.777C7.78983 106.727 7.96041 106.748 7.98108 106.825C8.03483 107.026 7.55811 108.327 7.28648 108.731C6.90102 109.264 5.47896 110.488 5.09384 110.592C4.49306 110.753 4.62796 110.948 5.84349 111.664L7.07443 112.376L6.01499 114.214L4.96682 116.033L6.18197 116.501C6.84402 116.754 7.41365 117.031 7.44258 117.139C7.47152 117.247 7.22927 118.684 6.90212 120.36C6.55242 122.074 6.37066 123.429 6.46835 123.485C6.56605 123.542 7.48959 123.476 8.53937 123.327C9.57374 123.182 10.7141 123.125 11.044 123.185C11.564 123.278 11.6782 123.396 11.8567 123.877C11.9868 124.239 12.0183 124.727 11.9256 125.181C11.8512 125.582 11.8456 125.931 11.9237 125.976C12.0019 126.021 12.5948 126.077 13.2298 126.105C13.8843 126.145 14.4227 126.183 14.4577 126.19C14.4772 126.201 14.4675 126.534 14.4435 126.938C14.4194 127.341 14.4097 127.674 14.4251 127.67C14.46 127.677 14.8948 127.759 15.3952 127.84L16.2955 127.996L15.9728 128.578C15.688 129.118 15.4119 129.936 14.5103 132.856L14.2282 133.775L15.933 134.592C18.2115 135.701 18.3392 135.931 18.2722 139.008C18.267 139.605 18.2956 140.143 18.3696 140.173C18.4282 140.207 18.9489 140.117 19.5343 139.96C20.1505 139.795 20.5984 139.741 20.6232 139.834C20.6728 140.019 21.3709 145.52 21.4585 146.34L21.5025 146.874L22.1649 146.696C23.5051 146.337 24.9476 146.976 25.6769 148.219C25.8366 148.507 26.3327 149.681 26.7896 150.831C27.2466 151.982 27.7539 153.136 27.9053 153.393L28.2112 153.857L29.4609 153.406L30.6951 152.96L31.9772 154.171C33.5854 155.675 36.7865 159.364 38.5451 161.737C39.2699 162.717 39.9463 163.578 40.0244 163.623C40.298 163.781 41.1473 160.296 41.0146 159.554C40.9462 159.176 40.9774 158.737 41.0634 158.566C41.169 158.405 41.2291 158.075 41.2133 157.831C41.1677 156.983 41.4754 155.975 42.2425 154.463C42.6614 153.623 43.063 152.904 43.1164 152.856C43.1697 152.809 43.5504 153.12 43.9558 153.524L44.7039 154.283L45.213 153.287C45.55 152.634 45.9159 151.412 46.2595 149.798C46.5337 148.418 46.7846 147.26 46.8072 147.221C46.8297 147.182 47.21 147.245 47.6725 147.369L48.504 147.576L49.4459 146.1C49.9542 145.286 51.3255 143.133 52.4743 141.32L54.5568 138.001L55.2553 137.896C56.6131 137.664 57.4161 138.69 57.9134 141.285L58.1611 142.64L59.0591 142.664C60.553 142.694 61.2763 143.36 62.0151 145.378L62.4052 146.464L62.965 146.397C64.1895 146.284 65.3559 147.063 65.9365 148.428C66.2705 149.182 66.6778 149.47 68.8083 150.52L69.7214 150.969L70.3935 150.459C71.2606 149.813 71.7115 149.709 72.2041 150.007C72.4232 150.146 73.3791 151.064 74.3557 152.059C76.0176 153.764 76.1822 153.885 76.9623 154.023C77.8975 154.186 78.8188 154.667 79.3704 155.246C79.5639 155.476 80.0408 156.208 80.4199 156.883C81.1617 158.173 83.5308 160.73 83.6401 160.337C83.677 160.227 83.8566 160.097 84.0568 160.043C84.6422 159.886 85.6154 160.684 86.8314 162.326C87.3379 162.984 87.6013 163.227 87.8015 163.174C88.5564 162.971 89.8824 164.038 91.1438 165.85C91.8894 166.907 91.9326 166.945 92.4379 166.859C93.7609 166.62 94.3594 167.006 95.8257 169.027C96.6535 170.145 96.7399 170.221 97.0735 170.049C97.5417 169.824 98.3161 170.311 99.6395 171.676C100.774 172.828 100.875 172.899 101.461 172.743C102.185 172.549 103.282 173.379 105.251 175.613C105.863 176.292 106.023 176.398 106.377 176.303C106.978 176.142 107.268 176.362 108.373 177.836C108.927 178.547 110.106 180.05 111.01 181.147C112.856 183.414 115.48 187.292 116.851 189.818C117.35 190.759 117.801 191.515 117.847 191.503C117.893 191.49 117.525 188.083 117.035 183.915C116.083 175.985 116.055 175.265 116.595 173.152C116.733 172.619 116.953 171.899 117.09 171.548C117.32 170.99 117.416 170.915 117.975 170.848C118.311 170.807 118.734 170.843 118.925 170.94C119.229 171.09 119.288 170.876 119.785 167.866L120.337 164.626L121.208 164.425C122.217 164.188 122.17 164.382 121.873 162.163C121.587 159.925 121.963 157.939 122.665 158.032C122.801 158.045 123.021 158.069 123.142 158.086C123.297 158.111 123.385 157.823 123.401 157.207C123.489 155.132 125.076 154.029 127.672 154.227C128.179 154.273 128.329 154.216 128.741 153.841C129.876 152.842 130.113 151.324 129.432 149.704C129.246 149.257 129.104 148.849 129.126 148.81C129.137 148.791 129.865 148.794 130.721 148.846C131.577 148.898 132.374 148.915 132.482 148.887C132.59 148.858 132.752 148.417 132.833 147.916C132.963 147.17 132.937 146.764 132.639 145.653L132.275 144.295L132.848 144.522C133.366 144.731 133.574 144.708 135.095 144.284C136.016 144.021 136.804 143.76 136.842 143.716C136.876 143.658 136.843 143.104 136.783 142.509C136.699 141.704 136.423 140.736 135.821 138.98C134.539 135.305 134.626 135.447 133.251 134.443C132.581 133.977 132.052 133.54 132.078 133.517C132.101 133.478 132.797 133.489 133.618 133.534C135.048 133.631 135.16 133.617 136.3 133.13C136.953 132.855 137.499 132.61 137.525 132.586C137.532 132.551 137.04 131.146 136.423 129.459L135.302 126.386L136.013 126.08C136.854 125.705 138.202 124.699 138.767 124.035C138.995 123.776 139.196 123.54 139.223 123.516C139.234 123.497 137.896 122.202 136.245 120.66C134.589 119.102 133.13 117.724 133.003 117.56C132.834 117.357 132.782 117.04 132.815 116.486C132.846 116.047 132.735 115.201 132.561 114.553L132.251 113.396L133.252 113.127L134.254 112.859L134.045 112.452C133.271 111.039 132.279 110.048 130.228 108.679L128.756 107.685L129.069 106.757C129.242 106.232 129.381 105.764 129.368 105.718C129.352 105.656 128.905 105.528 128.385 105.436C127.092 105.171 125.483 104.527 123.604 103.492C122.596 102.936 120.637 102.154 118.2 101.319C114.293 99.9846 113.47 99.5603 112.992 98.5803C112.527 97.6465 113.126 96.428 114.513 95.4443C115.224 94.9561 115.628 94.7984 117.712 94.2566C119.025 93.9212 120.771 93.536 121.566 93.4222C122.959 93.1978 123.195 93.2172 126.391 93.8658C128.243 94.246 130.659 94.8222 131.74 95.1608C133.65 95.757 133.716 95.7559 133.667 95.3886C133.644 95.1798 133.706 94.9812 133.814 94.9523C134.03 94.8945 135.04 95.3351 136.847 96.2893C137.886 96.8379 138.165 96.8953 139.403 96.8942C141.183 96.8805 141.229 96.8681 140.916 96.4393C140.575 95.9684 140.691 95.9704 141.683 96.4654C142.424 96.829 142.699 96.871 144.009 96.7681C144.832 96.6964 146.391 96.4771 147.471 96.254C148.554 96.0463 150.364 95.7763 151.492 95.6725C152.635 95.5646 153.593 95.4404 153.611 95.3858C153.634 95.3467 152.573 93.9772 151.226 92.3374L148.811 89.3631L149.436 89.0467C150.015 88.7428 150.064 88.68 149.953 88.2634C149.816 87.7543 149.138 87.01 147.378 85.4312L146.25 84.427L146.78 84.1858C147.371 83.9281 147.851 83.2539 148.012 82.4997C148.116 82.0253 148.065 81.9564 145.966 79.8563C144.789 78.667 143.804 77.641 143.788 77.5793C143.771 77.5176 144.293 76.8155 144.941 76.0301C146.226 74.4786 146.223 74.529 145.441 73.399C144.822 72.5066 143.057 70.8465 142.523 70.6422C141.188 70.1567 141.263 70.2523 141.438 69.4281C141.528 69.0237 141.569 68.6821 141.534 68.6749C141.499 68.6678 140.79 68.3618 139.936 68.0116L138.397 67.3822L139.272 65.8414C140.305 64.0268 140.337 64.0844 137.916 63.9228C136.769 63.8332 135.993 63.8925 134.867 64.128C133.363 64.4317 133.348 64.4358 133.144 64.044C132.832 63.4331 131.861 63.0152 128.307 61.9502C128.038 61.8733 128.028 61.7107 128.194 60.3598L128.385 58.8535L125.898 57.337C123.607 55.9336 123.419 55.7856 123.395 55.3288C123.352 54.3649 123.729 53.1228 124.566 51.6253L125.395 50.0968L124.786 49.7969C123.479 49.1715 121.853 48.6481 120.001 48.2679C118.953 48.0527 118.04 47.8508 118.001 47.8282C117.79 47.7193 118.159 45.5205 118.573 44.4173L119.051 43.1813L117.742 42.9201C117.024 42.7653 116.413 42.5817 116.389 42.4891C116.314 42.2114 116.835 40.7655 117.36 39.8309C117.611 39.3503 118.3 38.2232 118.865 37.3112C119.866 35.687 119.877 35.6674 119.517 35.4332C118.895 35.0211 116.436 34.6548 114.96 34.7527L113.56 34.83L113.56 34.3341C113.569 33.5049 113.513 33.4206 112.943 33.5733C112.666 33.6476 112.114 33.7458 111.717 33.8027L110.999 33.8959L111.175 32.7075C111.28 32.051 111.333 31.5078 111.278 31.4893C111.239 31.4667 109.761 31.6809 107.986 31.958C106.215 32.2506 104.737 32.4648 104.683 32.4463C104.644 32.4237 104.609 31.7386 104.622 30.9248C104.62 30.1151 104.604 29.4413 104.585 29.43C104.561 29.4033 103.049 29.6761 101.24 30.0119C99.4161 30.3519 97.9155 30.6051 97.8764 30.5825C97.8373 30.5599 97.7726 29.9489 97.7098 29.2216C97.6625 28.4902 97.5801 27.7516 97.5346 27.5818C97.4148 27.1344 95.4252 26.8572 94.3469 27.1462L93.5151 27.3691L93.0562 25.6565L92.5973 23.944L92.1333 24.184C90.2998 25.1053 89.0937 25.8418 88.3931 26.4926L87.5857 27.2381L87.0746 26.9947C86.7898 26.856 86.502 26.7678 86.425 26.7884C86.348 26.8091 86.1496 27.4244 85.9689 28.1674C85.7841 28.8949 85.5929 29.4753 85.5539 29.4527C85.4994 29.4342 85.3896 28.9014 85.3013 28.2636L85.131 27.1351L84.6482 27.1818C84.378 27.2211 83.051 27.4444 81.7168 27.7027C80.3826 27.961 79.264 28.1615 79.225 28.1389C79.2054 28.1276 78.8233 27.5024 78.3968 26.7733C77.9661 26.0289 77.4911 25.1805 77.316 24.8967L77.009 24.3671L75.7527 25.7786C74.724 26.9306 72.702 28.8119 72.4093 28.8903C72.363 28.9027 72.2364 28.7382 72.1241 28.5037C72.0004 28.2888 71.7573 27.8744 71.5935 27.571L71.2782 27.0106L70.6601 27.292C69.3357 27.8949 68.422 28.9831 68.3139 30.12C68.2643 30.6128 68.0701 30.5656 67.3261 29.8224C67.0112 29.5099 66.682 29.2674 66.605 29.288C66.2045 29.3953 66.084 31.8419 66.3243 34.3406C66.436 35.4352 66.4909 36.3795 66.4458 36.4578C66.3853 36.5401 66.0539 36.8439 65.6639 37.1137L64.9764 37.6287L63.7105 36.9096L62.4292 36.1946L61.9247 37.4542C61.2594 39.0381 61.0355 40.4209 61.1867 41.786C61.2472 42.3816 61.2988 43.8065 61.2955 44.9649L61.3009 47.0801L62.9048 52.3883C63.7756 55.33 64.611 58.0165 64.7564 58.3744C65.0071 59.0017 64.9928 59.0717 64.2666 60.49C63.3725 62.2674 62.5178 64.3154 62.3804 65.0963C62.3161 65.4112 62.2087 65.688 62.1317 65.7087C61.8544 65.783 61.1632 62.0326 60.909 59.1738C60.6514 56.1175 60.3056 53.1013 59.8827 50.1059C59.2342 45.4676 59.3989 46.2668 55.9843 31.059C54.213 23.2159 51.3349 11.9818 50.5943 10.0802C50.064 8.7175 45.9718 0.901011 45.826 0.973144C45.7839 1.00096 45.5206 1.43532 45.2429 1.93965Z" stroke="white" stroke-width="2" mask="url(#path-1-inside-1)"/>
</svg>
