<svg width="302" height="160" viewBox="0 0 302 160" fill="none" xmlns="http://www.w3.org/2000/svg">
<path d="M272.943 0.688989C272.943 1.23319 273.25 1.56444 274.5 2.51086C276.27 3.8122 281.909 10.4372 281.909 11.1707C281.909 12.0698 283.348 15.5479 285.164 19.0734C286.816 22.2439 287.052 22.8354 287.17 24.3024C287.264 25.2015 287.477 27.118 287.665 28.5613C287.878 29.981 288.043 31.8738 288.043 32.7256C288.043 34.2635 288.043 34.2872 288.633 34.1926C289.647 33.9796 289.789 33.5537 289.388 32.0394C289.199 31.306 288.963 29.9336 288.892 28.9872C288.066 19.097 283.041 8.54435 275.916 1.75372C273.91 -0.162797 272.943 -0.494047 272.943 0.688989Z" fill="white"/>
<path d="M262.774 4.71135C263.34 5.79975 264.661 6.60421 266.761 7.14841C267.516 7.33769 267.894 7.62163 268.318 8.28413C268.625 8.75733 269.993 10.6029 271.362 12.3538C273.957 15.6663 275.326 17.9377 275.892 19.8542C276.954 23.4743 277.19 24.7756 277.19 26.7631C277.19 28.4194 277.307 29.1765 277.779 30.4306C278.298 31.8265 278.369 32.3707 278.369 35.139C278.369 38.6172 277.85 44.7689 277.307 47.8448C277.119 48.9569 276.954 50.6605 276.954 51.6306C276.93 52.6006 276.812 53.689 276.647 54.0439C276.128 55.227 268.625 61.7337 266.407 62.9404L265.062 63.6502L263.269 62.2779C256.616 57.1908 242.247 49.1935 236.278 47.2533C234.862 46.8038 233.282 46.1886 232.739 45.8573C231.394 45.0765 220.588 41.5747 218.441 41.2198C216.931 40.9596 216.577 40.8176 216.058 40.2024L215.445 39.4689L210.632 39.7529C202.492 40.2497 197.089 41.3381 193.432 43.231C192.795 43.5622 192.606 43.5622 191.639 43.231C189.869 42.6395 187.604 42.8524 184.183 43.9408C183.05 44.3194 182.791 44.3194 182.461 44.0591C181.8 43.5149 181.257 42.1426 180.691 39.8002C179.889 36.3221 180.054 36.464 176.657 35.8725C175.052 35.5886 171.655 34.9734 169.13 34.5002C166.606 34.0033 163.09 33.4118 161.344 33.1515C157.428 32.56 149.854 32.2998 147.565 32.6547L145.938 32.9149L144.616 32.1105C142.139 30.5725 138.458 29.4131 134.188 28.798C131.333 28.3957 127.039 28.3484 125.222 28.6797C122.179 29.2712 118.805 31.6136 116.846 34.5239C116.351 35.281 115.926 35.9198 115.903 35.9672C115.879 36.0145 114.605 35.7306 113.071 35.3283C106.913 33.7904 101.416 32.9859 95.3525 32.7493C86.0802 32.3707 78.1291 33.2462 70.5791 35.423C68.9983 35.8725 67.5119 36.2511 67.2995 36.2511C67.0872 36.2511 66.3558 35.8252 65.6952 35.3283C65.0345 34.8078 64.1616 34.2636 63.7841 34.1216C63.383 33.9797 61.3775 33.7431 59.3013 33.6011C56.2577 33.4118 55.2431 33.2698 54.087 32.7966C52.1995 32.0395 51.5389 32.0868 47.7639 33.0569C44.7439 33.8377 44.2956 33.885 38.6095 34.098C31.8853 34.3582 31.1067 34.5002 28.7238 36.0618C27.4025 36.9373 27.025 37.0556 25.5622 37.1502C24.3353 37.2212 23.7455 37.3868 23.2028 37.789C22.2827 38.4752 20.23 39.4926 17.4459 40.6283C14.1664 41.9533 13.2463 42.5448 11.3588 44.4377C9.89594 45.9283 9.44766 46.5908 8.22078 49.0989C7.44219 50.7078 6.80516 52.1274 6.80516 52.2457C6.78157 52.364 6.33328 52.7899 5.79063 53.1922C3.57282 54.8247 2.1336 57.877 1.92125 61.4261C1.80328 63.2243 1.68532 63.6975 1.18985 64.3364C-0.17859 66.1819 -0.343747 68.1221 0.57641 72.8069C0.930316 74.6761 1.21344 77.1841 1.28422 79.1953C1.42578 82.3185 1.47297 82.6024 2.22797 84.164C2.65266 85.0631 3.6436 86.6247 4.44578 87.5948C5.22438 88.5649 6.16813 89.9846 6.52203 90.7181C7.08828 91.9011 7.30063 92.114 8.33875 92.5636C9.21172 92.9185 9.66 93.2734 9.99032 93.8886C10.2263 94.3618 11.2408 95.4029 12.2317 96.231C13.1991 97.0355 14.2136 97.9346 14.4495 98.2185C14.7091 98.5024 15.1809 98.7154 15.582 98.7154C16.4314 98.7154 17.3988 99.1886 19.0503 100.419C21.5041 102.288 26.5767 104.252 31.9325 105.459C40.9217 107.47 51.3266 108.44 55.5498 107.635C58.7586 107.02 58.9709 106.878 59.7023 104.725C60.0563 103.708 60.363 102.596 60.4102 102.288C60.6225 100.632 63.5245 100.206 66.1906 101.413L67.677 102.099L67.158 102.951C66.8748 103.424 66.3558 104.157 65.9783 104.583C65.6244 105.009 65.3177 105.53 65.3177 105.766C65.3177 105.979 64.7986 107.233 64.1616 108.535C62.9347 111.043 56.7767 119.537 55.833 120.034C54.9128 120.531 53.2377 122.234 52.7894 123.157C52.5298 123.654 52.3411 124.387 52.3883 124.766L52.4591 125.452L54.1342 124.174C56.1397 122.636 57.4138 121.974 58.6406 121.761C59.4664 121.643 59.608 121.69 59.9619 122.234C60.1978 122.565 60.5045 122.849 60.6697 122.849C61.0708 122.849 62.7223 120.791 66.0255 116.106C68.8567 112.107 69.7769 110.901 71.9711 108.393C73.0092 107.186 73.3395 106.642 73.3395 106.074C73.3395 105.08 73.7642 105.127 75.227 106.358C75.8877 106.902 76.855 107.683 77.3505 108.109C79.0256 109.457 81.5737 109.67 86.6464 108.889C88.3216 108.629 89.7136 108.416 89.7608 108.416C89.808 108.416 89.8552 108.606 89.8552 108.842C89.8552 109.552 91.1764 111.35 92.3089 112.155C93.7009 113.172 95.3053 113.858 98.3489 114.805C99.7173 115.207 100.897 115.633 100.991 115.704C101.18 115.917 99.6938 118.496 98.868 119.371C98.5377 119.726 97.9006 120.128 97.4759 120.294C96.9333 120.483 96.6738 120.767 96.5794 121.217C96.3198 122.376 94.857 123.985 91.4831 126.777C88.6047 129.167 87.7317 130.042 87.7317 130.515C87.7317 130.586 88.18 130.752 88.7463 130.894C89.2889 131.036 89.9023 131.202 90.0911 131.273C90.5158 131.414 87.8497 133.213 85.6319 134.277L84.0983 135.011L84.9948 135.768C86.7408 137.282 88.18 137.022 91.4359 134.632C93.7245 132.929 94.5503 132.456 95.6592 132.219C96.2255 132.101 96.7681 131.58 97.9006 130.113C98.7264 129.048 100.944 126.304 102.832 124.032C104.719 121.761 107.102 118.874 108.093 117.62C109.91 115.325 109.91 115.325 111.184 115.183C111.892 115.089 114.629 115.136 117.295 115.278C119.961 115.42 122.603 115.514 123.17 115.467L124.184 115.396L124.467 117.644C125.081 122.684 125.317 130.515 125.175 141.896C125.104 148.143 125.104 154.555 125.175 156.164L125.317 159.074L126.52 159.003L127.723 158.932L127.841 155.383C127.912 153.419 128.053 151.668 128.171 151.479C128.572 150.793 129.351 150.059 129.634 150.059C130.389 150.059 130.743 155.856 130.106 157.938L129.776 159.05H131.168H132.536L132.772 158.151C133.456 155.454 133.244 151.786 132.182 148.001C131.593 145.895 131.593 145.777 131.946 144.333C132.583 141.66 132.631 139.601 132.182 132.763C131.781 126.327 131.781 125.949 132.182 120.412C132.442 116.863 132.725 114.615 132.89 114.521C133.032 114.426 133.456 114.331 133.834 114.331H134.495L134.329 116.082L134.164 117.857L135.155 118.922C136.878 120.791 140.063 121.879 141.172 120.956C141.62 120.578 141.691 120.814 141.974 123.323C142.28 126.067 142.776 128.078 144.569 133.733C145.348 136.147 146.103 138.584 146.244 139.152C146.409 139.743 146.976 141.021 147.518 141.991C148.934 144.475 150.184 147.338 150.845 149.562C151.152 150.603 151.506 151.644 151.647 151.905C152.025 152.638 153.086 153.372 153.7 153.372C154.219 153.372 154.266 153.277 154.266 152.212C154.266 151.573 153.983 150.106 153.653 148.971C152.497 145.114 152.143 143.552 152.143 142.251C152.143 139.057 153.157 140.5 154.408 145.516C155.163 148.521 156.201 150.982 156.814 151.195C157.31 151.36 157.687 149.278 157.687 146.392C157.664 142.204 156.578 138.749 154.62 136.738C153.912 136.005 153.889 135.934 154.172 135.153C154.596 133.993 154.573 131.793 154.125 130.231C153.912 129.474 153.157 127.629 152.473 126.114C151.765 124.6 151.199 123.252 151.199 123.157C151.199 123.039 152.662 122.542 154.455 122.068C156.224 121.572 159.008 120.791 160.636 120.341C163.373 119.56 164.105 119.489 165.166 119.892C165.45 120.01 165.662 119.844 165.945 119.324C166.37 118.472 167.384 117.928 169.767 117.194C170.711 116.91 171.843 116.39 172.245 116.035C172.669 115.656 173.825 114.899 174.793 114.331C175.76 113.764 176.94 113.006 177.412 112.628L178.261 111.942L181.069 113.693C185.74 116.603 189.185 118.164 193.29 119.182C196.617 120.01 198.504 120.247 201.996 120.247H205.016L206.479 121.382C212.897 126.304 221.886 129.261 238.614 131.959C241.893 132.503 244.512 133.047 245.692 133.473C247.461 134.112 249.797 134.585 255.955 135.508C257.324 135.721 260.037 136.312 261.972 136.809C266.124 137.898 266.832 137.992 271.055 138.11C273.509 138.158 274.807 138.323 276.718 138.797C278.865 139.341 279.856 139.459 284.15 139.577C294.531 139.861 299.769 138.513 301.515 135.106C302.128 133.923 302.081 133.781 301.137 133.331C300.406 132.976 300.311 132.834 300.311 132.03C300.311 129.948 299.061 128.552 295.758 126.943C294.672 126.398 293.092 125.405 292.266 124.718C288.09 121.217 272.211 113.03 256.191 106.098C251.968 104.276 247.863 102.477 247.06 102.123C246.235 101.768 245.574 101.365 245.574 101.223C245.574 100.821 244.229 98.0765 243.97 97.9109C243.828 97.8399 243.049 97.9819 242.247 98.2422C240.43 98.81 239.864 98.6917 239.369 97.627C238.92 96.7042 238.519 96.6332 236.254 97.1774C234.296 97.6506 234.249 97.6506 234.249 96.7279C234.249 95.4029 233.871 95.2846 231.418 95.8524C229.695 96.2783 229.105 96.3256 228.35 96.1127C227.595 95.8997 227.171 95.9471 225.944 96.373C224.41 96.8935 222.499 96.8935 221.862 96.3493C221.65 96.16 221.414 96.3256 220.942 96.9408C220.163 97.9346 219.22 98.4551 216.554 99.2832C215.445 99.6145 214.407 99.993 214.218 100.111C214.005 100.253 213.298 100.04 212.142 99.4962C208.956 98.0292 204.356 97.1301 195.437 96.231C193.361 96.0181 190.176 95.6631 188.359 95.4029C182.932 94.6694 182.107 94.6221 180.951 95.0243C179.677 95.4975 178.945 95.4975 178.568 95.0716C178.285 94.6931 178.568 94.5747 181.257 93.9832C182.461 93.723 183.617 93.2024 184.254 92.6346C184.985 92.0194 191.285 91.3332 209.169 89.9609C223.325 88.8725 227.147 88.5176 232.692 87.7131C234.91 87.3819 237.316 87.1216 238.095 87.1216C239.038 87.1216 240.147 86.885 241.539 86.4118C243.922 85.5837 244.489 85.5364 249.939 85.8913C252.251 86.0332 257.135 86.0806 261.5 86.0096L269.05 85.8913L272.589 88.281C274.547 89.606 277.024 91.3332 278.133 92.114C279.219 92.8948 280.398 93.581 280.729 93.6756C281.059 93.7466 281.696 94.0779 282.144 94.4328C282.923 95.0006 283.088 95.0243 285.683 95.0006C288.397 94.9533 288.397 94.9533 288.798 94.2908C289.741 92.7765 289.152 90.3395 287.028 86.814C286.273 85.5837 286.037 84.9922 286.273 84.9922C286.462 84.9922 286.721 84.7792 286.863 84.5189C287.099 84.0694 287.052 84.0457 285.943 84.0457C284.928 84.0457 284.692 83.9511 284.173 83.3122C283.206 82.1765 283.442 81.4431 284.763 81.4431C285.046 81.4431 285.211 81.2774 285.211 80.9698C285.211 80.4493 284.81 80.3783 283.607 80.7096C282.97 80.8989 282.758 80.8515 282.144 80.3547C281.767 80.0234 280.87 78.935 280.162 77.9413C279.455 76.9475 278.676 75.9064 278.393 75.6698C277.685 75.031 278.157 74.5814 279.478 74.5814C280.634 74.5814 281.531 74.2265 281.295 73.848C281.224 73.706 280.304 73.6823 278.865 73.777C276.836 73.9189 276.529 73.8953 276.151 73.4931C275.727 73.0672 275.727 73.0435 276.387 72.7596C276.765 72.5939 277.284 72.4756 277.567 72.452C277.827 72.452 278.251 72.2864 278.511 72.0734C278.935 71.7422 278.888 71.7185 277.874 71.8605C276.529 72.0261 274.759 71.6475 273.839 71.0087C273.462 70.7247 272.895 70.1096 272.589 69.6127L272.022 68.6899L272.848 67.4359C274.028 65.7087 274.618 64.4783 276.01 60.9292C276.694 59.273 277.591 57.2381 278.039 56.41C278.676 55.2743 278.77 54.9431 278.487 54.9431C278.298 54.9431 278.133 54.7538 278.133 54.5172C278.133 53.973 278.841 53.2868 279.407 53.2868C279.808 53.2868 279.808 53.3341 279.455 53.8783C278.983 54.5881 278.983 54.9431 279.407 54.9431C280.233 54.9431 284.126 49.5247 285.801 46.0703C289.293 38.7355 289.812 37.0792 289.104 35.423L288.727 34.5002L288.255 34.9971C287.901 35.352 287.712 35.9672 287.571 37.1029C287.358 39.0667 287.24 39.3506 285.73 42.0953C285.07 43.2547 284.386 44.6743 284.197 45.2658C284.008 45.8337 283.489 46.6855 283.041 47.1587C282.616 47.6082 281.79 48.8859 281.2 49.9506C280.092 52.0564 279.478 52.577 278.629 52.1274C277.968 51.7489 277.992 51.3939 278.723 51.3939C279.289 51.3939 279.313 51.323 279.313 50.0926C279.313 49.3828 279.478 47.6082 279.69 46.1413C280.21 42.6631 280.21 39.4926 279.714 38.3332L279.36 37.4578L279.974 37.5051C280.587 37.5524 280.611 37.5288 280.54 36.3694C280.493 35.7069 280.139 33.3408 279.761 31.0931C279.384 28.8453 279.077 26.7395 279.077 26.4082C279.077 26.077 278.818 25.3198 278.511 24.7047C278.18 24.0422 277.732 22.3623 277.425 20.7533C277.024 18.4346 276.788 17.7011 276.151 16.731C275.703 16.0685 274.665 14.4832 273.839 13.1819C270.465 8.00019 266.879 4.94796 263.505 4.40377C262.561 4.23814 262.514 4.2618 262.774 4.71135ZM130.908 34.9971C132.796 35.4466 138.977 37.1975 139.237 37.3631C139.567 37.5761 138.435 38.5935 137.562 38.8774C136.642 39.185 134.613 39.0431 131.994 38.4752C131.073 38.2622 129.351 38.0966 128.171 38.073L126.024 38.0256L126.874 36.1801L127.723 34.3582L128.549 34.4765C128.997 34.5712 130.059 34.7841 130.908 34.9971ZM155.092 39.4453C155.965 39.8948 156.649 40.0368 157.805 40.0368C160.07 40.0368 164.718 40.4864 166.96 40.8886C170.168 41.4801 172.41 42.3792 174.179 43.7989C175.029 44.485 176.421 46.1176 176.444 46.4489C176.444 46.8038 174.038 47.2533 172.315 47.2297C170.003 47.1823 168.611 46.8274 162.925 44.8636C159.669 43.7515 158.159 43.3493 157.239 43.3493C156.555 43.3493 154.95 43.0417 153.653 42.6631C152.379 42.2846 150.963 41.906 150.562 41.8114C150.137 41.7167 149.783 41.5511 149.783 41.4328C149.783 41.0069 151.671 39.327 152.426 39.114C153.582 38.7828 153.794 38.8064 155.092 39.4453ZM203.058 56.3864C206.573 56.623 207.895 56.9542 210.065 58.1372C211.953 59.1783 214.171 59.9118 215.468 59.9118C216.412 59.9118 216.648 60.0538 218.04 61.3078C218.889 62.0649 219.904 62.7747 220.305 62.8694C220.824 62.9877 221.178 63.3189 221.626 64.0761C222.405 65.3774 223.608 66.3002 226.345 67.6252C227.525 68.1931 229.035 68.9975 229.743 69.3761C230.45 69.7783 231.323 70.0859 231.701 70.0859C232.81 70.0859 234.414 70.5591 237.552 71.7895C239.18 72.452 241.256 73.1618 242.153 73.3984L243.804 73.8243L242.79 74.1082C242.011 74.2975 241.233 74.3212 239.723 74.1082C237.481 73.848 229.011 73.4694 219.031 73.2091C211.788 73.0198 212.236 73.1381 210.254 70.7957C209.31 69.66 209.287 69.589 209.287 67.8381C209.263 66.4422 209.169 65.8506 208.72 65.0462C207.895 63.5556 206.668 63.035 202.822 62.6091C199.401 62.2306 197.655 61.8283 197.513 61.4261C197.466 61.2841 197.844 60.598 198.386 59.8881C199.354 58.5868 199.613 57.4511 199.047 56.8832C198.74 56.5756 199.236 55.7948 199.613 56.0314C199.731 56.1024 201.288 56.2681 203.058 56.3864ZM274.004 61.6864C273.556 62.6801 272.612 64.36 271.905 65.4721L270.607 67.4596L269.852 67.1756C268.696 66.7497 267.304 65.3538 267.139 64.4547C266.997 63.6975 266.997 63.6975 267.964 63.6975C269.191 63.6975 269.616 63.4846 271.409 61.923C273.226 60.3614 273.886 59.9118 274.405 59.9118C274.759 59.9118 274.712 60.1484 274.004 61.6864ZM214.43 74.2029C216.058 74.3685 217.875 74.4631 218.465 74.3922C219.55 74.2975 220.565 74.6288 220.565 75.0547C220.565 75.3859 218.63 75.3386 214.784 74.9364C210.891 74.5341 210.136 74.3922 210.325 74.0846C210.49 73.8006 210.915 73.8243 214.43 74.2029ZM236.231 74.8417L239.793 74.8654L238.378 75.3386C236.254 76.0484 232.833 76.1431 226.77 75.6225C223.891 75.3859 221.555 75.1493 221.603 75.102C221.909 74.8181 225.472 74.6288 228.799 74.7234C230.922 74.7707 234.272 74.8181 236.231 74.8417ZM216.082 75.8828C217.828 76.0721 221.343 76.3323 223.868 76.498C226.392 76.6399 229.436 76.8292 230.592 76.9239L232.715 77.0895L231.182 77.61C227.831 78.7457 226.581 78.8877 217.663 79.006C211.906 79.077 209.122 79.0533 208.956 78.8877C208.697 78.6274 208.768 78.3198 209.688 76.1431L210.065 75.2439L211.481 75.3859C212.26 75.4806 214.336 75.6935 216.082 75.8828ZM247.886 75.4332C248.169 75.5279 248.405 75.6698 248.405 75.7881C248.405 76.0721 246.801 76.4743 245.597 76.4743C244.677 76.4743 244.607 76.427 244.89 76.0957C245.48 75.3859 246.683 75.1256 247.886 75.4332ZM245.597 77.0895C246.47 77.1841 247.863 77.1131 248.759 76.9712C250.127 76.7346 250.481 76.7346 251.095 77.0422C251.496 77.2314 252.746 77.681 253.879 78.0122C255.011 78.3435 255.979 78.6984 256.05 78.8167C256.238 79.1006 255.46 79.5739 253.006 80.6149C251.85 81.1118 250.269 81.8216 249.514 82.2002L248.169 82.8627L241.138 82.5078C233.541 82.1056 226.51 81.5614 226.321 81.3721C226.015 81.0881 227.36 80.6859 229.247 80.4966C231.488 80.2837 235.523 79.1716 239.557 77.681C241.539 76.9475 242.365 76.7346 243.097 76.8292C243.616 76.9002 244.748 77.0185 245.597 77.0895ZM260.32 80.8515C260.981 81.1355 261.736 81.656 262.042 81.9636L262.585 82.5551L260.509 82.8154C259.376 82.9573 256.993 83.1466 255.247 83.2176L252.062 83.3596L252.699 82.8154C253.053 82.5078 254.256 81.9163 255.365 81.4667C256.474 81.0172 257.512 80.4966 257.63 80.331C257.937 79.9761 258.645 80.1181 260.32 80.8515ZM211.717 81.3247C214.973 82.1765 229.577 84.1404 235.075 84.4716L237.906 84.6372L237.222 85.1105C236.632 85.489 235.948 85.6073 233.093 85.7256C231.205 85.8203 227.69 86.1752 225.283 86.5064C220.163 87.2163 215.94 87.5239 208.98 87.7368C204.639 87.8788 203.742 87.8551 202.563 87.5002C201.595 87.2163 200.533 87.1216 198.788 87.1689C196.688 87.2399 196.31 87.1689 195.744 86.7667C195.39 86.5064 195.13 86.1989 195.178 86.0569C195.248 85.773 197.631 85.1814 201.312 84.4953C203.176 84.164 204.308 83.8328 204.568 83.5725C204.78 83.3359 205.441 82.9573 206.031 82.7444C206.621 82.5078 207.045 82.2239 206.975 82.1056C206.904 81.9872 206.975 81.5614 207.116 81.1828C207.399 80.4966 207.47 80.473 208.508 80.6149C209.098 80.7096 210.561 81.0172 211.717 81.3247ZM225.614 81.798C226.628 81.8689 229.648 82.2475 232.338 82.6497C235.004 83.0283 238.661 83.4069 240.454 83.5015C244.323 83.6672 244.3 84.0457 240.383 84.235C237.434 84.377 234.485 84.0931 227.171 82.981C224.245 82.5314 221.06 82.1056 220.093 81.9872L218.323 81.798L219.621 81.656C220.918 81.514 222.122 81.5377 225.614 81.798ZM264.567 83.5725C265.322 83.7381 266.313 84.5426 266.336 84.9922C266.336 85.1578 248.24 85.1341 248.075 84.9685C247.98 84.8739 248.216 84.6136 248.57 84.377C249.16 83.9747 249.75 83.9274 254.775 83.9038C257.819 83.8801 260.91 83.7618 261.618 83.6435C263.34 83.3122 263.482 83.3122 264.567 83.5725Z" fill="white"/>
</svg>
