<svg width="310" height="93" viewBox="0 0 310 93" fill="none" xmlns="http://www.w3.org/2000/svg">
<path d="M19.0854 0.920865C18.2096 1.72366 18.088 1.99125 18.088 2.89135C18.088 3.64549 18.2582 4.13203 18.6961 4.66723C19.0367 5.05646 19.3043 5.64031 19.3043 5.95656C19.3043 6.27281 19.4259 6.61339 19.5476 6.68637C19.8395 6.88098 19.8882 13.7899 19.5719 13.9601C19.4746 14.0331 19.28 14.8846 19.207 15.8333C19.1097 16.7821 18.8907 17.7795 18.7448 18.0228C18.5258 18.3877 18.5745 18.5823 19.134 19.1661C19.7665 19.823 20.0341 21.088 19.6206 21.5015C19.4989 21.5988 19.4259 21.9151 19.4016 22.207C19.353 23.399 19.0124 25.2965 18.7934 25.4425C18.6718 25.5155 18.5745 26.8048 18.5745 28.3131C18.5745 30.4782 18.5015 31.135 18.2096 31.3783C18.015 31.5486 17.8447 31.8648 17.8447 32.0838C17.8447 32.3027 17.6014 32.6433 17.3095 32.8379C17.0176 33.0325 16.5067 33.4947 16.1661 33.8596C15.8255 34.2489 15.4363 34.5408 15.3147 34.5408C14.8525 34.5408 12.2495 37.4844 12.2495 37.9952C12.2495 38.2628 11.9819 38.798 11.6413 39.2116C10.9845 39.9901 10.9115 40.4036 11.3007 41.1334C11.6413 41.7903 11.2521 42.2281 9.76812 42.885C8.6734 43.3715 8.60042 43.4445 8.60042 44.3203C8.60042 44.8311 8.4058 45.5609 8.18686 45.9258C7.57869 46.9233 5.87579 48.6505 5.51089 48.6505C5.31627 48.6505 5.073 48.9181 4.95137 49.2343C4.82973 49.5506 4.61079 49.8911 4.48915 49.9885C4.34319 50.0614 4.22156 50.3534 4.22156 50.621C4.22156 50.8642 4.12425 51.0832 3.97829 51.0832C3.85665 51.0832 3.73502 51.3021 3.73502 51.5454C3.73502 52.1779 2.22674 53.0293 1.05905 53.0293C-0.181633 53.0293 -0.327595 53.5402 0.596832 54.6106C1.32664 55.4377 1.42395 55.462 3.00521 55.462C3.92963 55.462 4.73242 55.3647 4.82973 55.2188C4.90271 55.0971 5.63252 54.9268 6.43532 54.8295C7.21378 54.7322 7.94359 54.5619 8.01657 54.4646C8.08955 54.343 8.62475 54.2457 9.2086 54.2457C9.79244 54.2457 10.3276 54.1484 10.4006 54.0267C10.4736 53.9294 11.2034 53.7591 11.9819 53.6618C12.7847 53.5645 13.5145 53.3942 13.5875 53.2726C13.6848 53.1266 14.0497 53.0293 14.4389 53.0293C14.8281 53.0293 15.2174 52.932 15.2903 52.7861C15.3633 52.6644 15.9715 52.4941 16.6527 52.3968C17.3095 52.2995 17.9177 52.1292 17.9906 52.0319C18.0636 51.9103 18.3799 51.813 18.6718 51.813C18.9881 51.813 19.5719 51.6427 19.9368 51.4481C20.326 51.2535 20.9829 51.0832 21.4208 51.0832C21.8343 51.0832 22.2722 50.9615 22.3452 50.8399C22.4182 50.7183 22.7831 50.5966 23.148 50.5966C23.5129 50.5966 24.0237 50.4263 24.267 50.2317C24.6076 49.9641 25.3861 49.8668 26.87 49.8668C28.0377 49.8668 29.0838 49.7452 29.1567 49.6236C29.2297 49.4776 29.8866 49.3803 30.5677 49.3803C31.2975 49.3803 32.0273 49.21 32.2949 49.0154C32.5625 48.8208 33.2923 48.6505 33.9248 48.6505C34.5573 48.6505 35.1412 48.5532 35.2142 48.4315C35.2872 48.3099 37.3306 48.1396 39.739 48.0423C42.1474 47.945 44.1908 47.7747 44.2638 47.6531C44.3368 47.5314 44.7017 47.4341 45.0909 47.4341C45.4802 47.4341 45.8694 47.3125 45.9424 47.1908C46.137 46.8746 55.2353 46.8746 55.4299 47.1908C55.5029 47.3125 56.5976 47.4341 57.8383 47.4341C59.0547 47.4341 60.1737 47.5314 60.3197 47.6774C60.4413 47.799 61.3414 47.9693 62.3145 48.0666C63.2632 48.1639 64.066 48.3342 64.066 48.4315C64.066 48.5532 64.4309 48.6505 64.8688 48.6505C65.2824 48.6505 65.8662 48.8208 66.1095 49.0154C66.3771 49.21 66.8393 49.3803 67.1312 49.3803C67.4475 49.3803 67.7637 49.4776 67.8367 49.6236C67.9097 49.7452 68.3962 49.8668 68.8828 49.8668C69.3693 49.8668 70.0018 50.0371 70.2451 50.2317C70.5127 50.4263 71.1452 50.5966 71.6317 50.5966C72.1426 50.5966 72.6291 50.7183 72.7021 50.8399C72.7751 50.9615 73.4319 51.0832 74.1374 51.0832C74.8672 51.0832 75.597 51.2291 75.8889 51.4481C76.1322 51.6427 76.7647 51.813 77.2513 51.813C77.7378 51.813 78.2243 51.9103 78.2973 52.0563C78.3703 52.1779 78.6379 52.2995 78.8812 52.2995C79.1244 52.2995 79.465 52.4698 79.6353 52.6644C79.8056 52.859 80.2435 53.0293 80.6327 53.0293C80.9976 53.0293 81.3869 53.151 81.4598 53.2726C81.5328 53.3942 81.8491 53.5159 82.1653 53.5159C82.4572 53.5159 82.9195 53.6862 83.1871 53.8808C83.4303 54.0754 83.9412 54.2457 84.3061 54.2457C84.671 54.2457 85.0116 54.343 85.0846 54.4646C85.1575 54.5863 85.936 54.7566 86.8118 54.8539C87.6875 54.9268 88.4417 55.1215 88.5147 55.2431C88.612 55.3647 89.0742 55.462 89.5607 55.462C90.4852 55.462 91.7988 56.3621 91.7988 56.9946C91.7988 57.5055 91.2636 57.8947 90.5825 57.8947C90.2419 57.8947 89.7553 58.065 89.5121 58.2596C89.2445 58.4543 88.7823 58.6245 88.4903 58.6245C88.1741 58.6245 87.8822 58.7219 87.8092 58.8435C87.7362 58.9408 87.128 59.1111 86.4712 59.2084C85.79 59.3057 85.1819 59.476 85.1089 59.5976C85.0359 59.7436 84.1115 59.8409 83.0411 59.8409C81.7518 59.8409 81.1193 59.9382 81.0463 60.1328C80.8517 60.6437 81.0949 61.0572 81.6058 61.0572C81.9707 61.0572 82.068 61.2275 82.068 61.8357C82.068 62.3709 82.287 62.8331 82.6762 63.2224C83.333 63.8305 83.4546 64.4387 82.9924 64.9009C82.7735 65.1199 82.7978 65.3145 83.0411 65.801C83.2844 66.2876 83.3087 66.4822 83.0897 66.7011C82.9195 66.8714 82.7978 67.5282 82.7978 68.1607C82.7978 68.8176 82.6519 69.5474 82.5059 69.815C82.2626 70.2042 82.2626 70.3988 82.5059 70.7881C82.8708 71.3962 82.8951 72.418 82.5302 72.6369C82.3843 72.7099 82.1653 72.6369 82.0437 72.4666C81.9464 72.2963 81.7761 72.2233 81.6788 72.3207C81.5815 72.3936 81.6544 72.6369 81.8004 72.8315C81.995 73.0748 82.0194 73.2208 81.8247 73.3424C81.7031 73.4154 81.5815 74.1452 81.5815 74.9236C81.5815 75.7021 81.4598 76.4319 81.3382 76.5049C81.2166 76.5779 81.0949 76.7482 81.0949 76.8941C81.0949 77.2347 82.3843 77.1374 82.8951 76.7482C83.1627 76.5536 83.6249 76.3833 83.9169 76.3833C84.2331 76.3833 84.5494 76.2616 84.6223 76.14C84.6953 75.994 85.0846 75.8967 85.4738 75.8967C85.863 75.8967 86.2523 75.7994 86.3252 75.6535C86.3982 75.5318 87.0064 75.3615 87.6875 75.2642C88.3444 75.1669 88.9526 74.9966 89.0255 74.8993C89.0985 74.7777 89.4634 74.6804 89.8283 74.6804C90.2176 74.6804 90.6554 74.5101 90.8257 74.3155C90.996 74.1209 91.5069 73.9506 91.9448 73.9506C92.407 73.9506 92.7719 73.8289 92.7719 73.7073C92.7719 73.5613 93.0638 73.464 93.4531 73.464C93.818 73.464 94.3288 73.2937 94.5721 73.0991C94.8397 72.9045 95.2533 72.7342 95.4722 72.7342C95.8371 72.7342 97.1264 72.1747 98.9023 71.2503C99.1456 71.1286 99.4618 71.0313 99.6321 71.0313C99.8024 71.0313 100.605 70.6907 101.408 70.3015C102.211 69.9123 103.014 69.5717 103.184 69.5717C103.354 69.5717 103.67 69.4744 103.914 69.3528C104.133 69.2311 104.765 68.9392 105.3 68.6959C105.836 68.4283 106.419 68.0878 106.614 67.9175C107.246 67.3336 108.098 67.139 110.239 67.139C111.65 67.139 112.598 67.2606 113.061 67.5039C113.863 67.9175 116.174 67.9904 116.904 67.6012C117.245 67.4066 117.464 67.4066 117.658 67.6012C117.804 67.7472 118.218 67.8688 118.583 67.8688C118.948 67.8688 119.337 67.9661 119.41 68.1121C119.483 68.2337 119.97 68.3554 120.48 68.3554C120.967 68.3554 121.599 68.5256 121.867 68.7203C122.183 68.9635 122.986 69.0608 124.567 69.0852C125.784 69.0852 126.854 69.1825 126.951 69.3284C127.024 69.4501 127.754 69.6204 128.557 69.7177C129.335 69.815 130.065 69.9853 130.138 70.0826C130.211 70.2042 131.184 70.3015 132.303 70.3015C133.422 70.3015 134.395 70.3988 134.493 70.5205C134.566 70.6664 135.125 70.8367 135.709 70.934C136.317 71.007 136.877 71.1773 136.95 71.2989C137.023 71.4206 139.091 71.5179 141.523 71.5179C145.197 71.5179 146.048 71.5908 146.291 71.8828C146.486 72.126 147.045 72.2477 148.019 72.2477C148.797 72.2477 149.502 72.345 149.575 72.4909C149.648 72.6126 150.695 72.7342 151.862 72.7342C153.346 72.7342 154.125 72.8315 154.465 73.0991C154.708 73.2937 155.317 73.464 155.803 73.464C156.387 73.464 156.752 73.5857 156.849 73.8533C157.117 74.5101 157.02 75.1669 156.63 75.3129C156.436 75.4102 156.265 75.6535 156.265 75.8724C156.241 76.0913 155.925 76.6995 155.536 77.2347C155.122 77.7699 154.66 78.5484 154.465 78.9376C154.271 79.3512 153.881 79.8864 153.614 80.1296C153.2 80.5189 153.103 80.8838 153.103 82.2461C153.103 83.1462 153.006 83.9733 152.86 84.0463C152.519 84.2409 152.543 87.0872 152.884 87.0872C153.03 87.0872 153.103 87.5494 153.054 88.2305C152.981 89.3009 152.933 89.3982 152.324 89.4712C151.96 89.5199 151.424 89.3739 151.108 89.1793C150.792 88.9603 150.305 88.863 149.989 88.9603C149.551 89.0576 149.454 89.2523 149.454 90.1037C149.454 91.0281 149.551 91.1254 150.403 91.539C150.986 91.8066 151.911 91.9526 153.006 91.9526C154.003 91.9526 154.83 92.0742 155 92.2445C155.219 92.4634 155.365 92.4634 155.584 92.2445C155.755 92.0742 156.63 91.9526 157.749 91.9526C158.795 91.9526 159.696 91.8553 159.768 91.7336C159.866 91.612 160.352 91.4417 160.888 91.3444C161.423 91.2471 161.861 91.0768 161.861 90.9552C161.861 90.8335 162.055 90.7362 162.323 90.7362C162.566 90.7362 162.907 90.5659 163.077 90.3713C163.247 90.1767 163.564 90.0064 163.782 90.0064C164.391 89.9821 166.702 87.1601 167.748 85.141C168.064 84.5328 168.551 83.7787 168.867 83.4381C169.159 83.0975 169.402 82.7083 169.402 82.5867C169.402 82.2461 170.91 80.7621 171.251 80.7621C171.567 80.7621 172.565 79.7161 172.565 79.3755C172.565 79.2539 172.783 78.9376 173.075 78.67C173.343 78.4267 173.805 77.7213 174.073 77.1131C174.34 76.5049 175.046 75.5562 175.63 74.9723C176.627 74.0235 176.797 73.9506 178.038 73.9506C178.768 73.9506 179.376 73.8289 179.376 73.7073C179.376 73.537 182.976 73.464 189.666 73.464C198.351 73.464 200.03 73.4154 200.443 73.0991C200.784 72.8559 201.587 72.7585 203.387 72.7342C204.749 72.7342 205.917 72.6369 205.99 72.5153C206.063 72.3936 207.06 72.272 208.204 72.199C209.347 72.1504 210.417 71.9558 210.563 71.8098C210.734 71.6395 211.244 71.5179 211.731 71.5179C212.218 71.5179 212.728 71.3962 212.85 71.2746C212.996 71.1286 214.066 70.934 215.234 70.861C216.402 70.7881 217.399 70.6178 217.472 70.4961C217.545 70.3988 217.91 70.3015 218.299 70.3015C218.689 70.3015 219.078 70.1799 219.151 70.0582C219.224 69.9123 219.832 69.815 220.464 69.815C221.097 69.815 221.827 69.6447 222.094 69.4501C222.338 69.2555 223.019 69.0852 223.578 69.0852C224.138 69.0852 224.673 68.9635 224.746 68.8419C224.819 68.6959 225.087 68.5986 225.305 68.5986C225.524 68.5986 226.035 68.4283 226.425 68.2337C226.789 68.0391 227.738 67.8688 228.492 67.8688C229.344 67.8688 230.074 67.7229 230.366 67.5039C230.633 67.3093 231.363 67.139 232.093 67.139C232.774 67.139 233.431 67.0174 233.504 66.8957C233.577 66.7498 234.063 66.6525 234.574 66.6525C235.061 66.6525 235.693 66.4822 235.961 66.2876C236.204 66.0929 236.715 65.9227 237.08 65.9227C237.445 65.9227 237.81 65.801 237.883 65.6794C237.956 65.5334 238.515 65.4361 239.075 65.4361C239.731 65.4361 240.242 65.2902 240.437 65.0712C240.607 64.8766 240.948 64.7063 241.191 64.7063C241.459 64.7063 241.653 64.609 241.653 64.4874C241.653 64.3657 242.091 64.1954 242.626 64.0981C243.162 64.0008 243.648 63.8305 243.745 63.7089C243.818 63.5873 244.183 63.49 244.572 63.49C244.962 63.49 245.351 63.3683 245.424 63.2467C245.497 63.1007 245.886 63.0034 246.3 63.0034C246.689 63.0034 247.565 62.7358 248.222 62.4196C248.903 62.079 250.192 61.7384 251.068 61.6411C252.819 61.4708 253.987 60.9356 255.155 59.8166C255.568 59.4273 256.103 59.1111 256.347 59.1111C256.59 59.1111 257.125 58.8678 257.539 58.5759C258.609 57.7974 259.388 57.4082 259.874 57.4082C260.117 57.4082 260.507 57.2379 260.774 57.0433C261.115 56.8 261.942 56.7027 263.839 56.6784C265.275 56.6784 266.491 56.5811 266.588 56.4594C266.661 56.3378 267.075 56.1432 267.489 56.0459C267.926 55.9729 268.462 55.8026 268.705 55.681C268.948 55.5593 269.337 55.3647 269.581 55.2431C269.824 55.1215 270.359 54.9512 270.797 54.8782C271.211 54.7809 271.624 54.5863 271.697 54.4646C271.794 54.343 272.135 54.2457 272.5 54.2457C272.865 54.2457 273.376 54.0754 273.619 53.8808C273.887 53.6862 274.349 53.5159 274.616 53.5159C274.908 53.5159 275.346 53.2969 275.589 53.0293C275.857 52.7374 276.49 52.4941 277.219 52.3968C277.852 52.2995 278.46 52.1292 278.533 52.0319C278.606 51.9103 279.19 51.813 279.822 51.813C280.455 51.813 281.185 51.6427 281.452 51.4481C281.696 51.2535 282.158 51.0832 282.45 51.0832C282.742 51.0832 283.496 50.8156 284.128 50.475C284.761 50.1344 285.636 49.8668 286.074 49.8668C286.512 49.8668 286.95 49.7452 287.023 49.6236C287.096 49.4776 287.388 49.3803 287.68 49.3803C287.948 49.3803 288.458 49.2343 288.799 49.0397C289.164 48.8694 289.894 48.5045 290.429 48.2612C290.964 47.9936 291.718 47.4828 292.132 47.1179C292.521 46.753 293.981 45.9015 295.343 45.2204C296.705 44.5635 297.97 43.8824 298.141 43.7121C298.943 42.9823 300.817 41.8389 301.23 41.8389C302.665 41.8389 307.482 38.0196 308.942 35.7085C309.258 35.1976 309.526 34.5165 309.526 34.1759C309.526 33.8353 309.672 33.3488 309.818 33.0812C310.061 32.6919 310.061 32.4973 309.818 32.1081C309.672 31.8405 309.526 31.4756 309.526 31.3053C309.526 30.7944 308.747 30.2106 307.944 30.1133C307.263 30.0403 307.215 29.9673 307.142 28.9699C307.093 28.1915 306.874 27.7292 306.387 27.267C305.414 26.3183 304.247 25.7831 303.201 25.7831C302.69 25.7831 302.179 25.6614 302.106 25.5398C302.033 25.3938 301.279 25.2965 300.427 25.2965C299.479 25.2965 298.749 25.1749 298.433 24.9316C298.116 24.6884 297.362 24.5911 296.097 24.5667C295.075 24.5667 294.151 24.4451 294.078 24.3235C294.005 24.2018 293.518 24.0802 293.032 24.0802C292.545 24.0559 291.694 23.9099 291.159 23.7153C290.624 23.5207 289.845 23.3504 289.407 23.3504C288.994 23.3504 288.556 23.2287 288.483 23.1071C288.41 22.9611 287.875 22.8638 287.315 22.8638C285.491 22.8638 282.888 22.5962 282.669 22.353C282.523 22.2313 281.841 22.134 281.16 22.134C280.455 22.134 279.798 22.0124 279.725 21.8908C279.652 21.7448 279.409 21.6475 279.19 21.6475C278.995 21.6475 278.484 21.5015 278.071 21.3069C277.633 21.1123 276.635 20.8933 275.833 20.8447C274.495 20.7717 273.351 20.4555 272.257 19.9203C272.013 19.7986 271.138 19.7013 270.31 19.7013C269.337 19.677 268.608 19.5554 268.316 19.3364C267.951 19.0445 267.051 18.9715 264.496 18.9715C262.526 18.9715 261.091 18.8742 260.993 18.7282C260.92 18.6066 259.996 18.485 258.95 18.485C257.685 18.485 256.931 18.3633 256.59 18.1201C256.249 17.8768 255.447 17.7795 253.646 17.7552C252.284 17.7552 251.116 17.6579 251.043 17.5605C250.97 17.4389 249.316 17.2686 247.346 17.1956C245.351 17.1227 243.648 16.928 243.526 16.8064C243.38 16.6604 242.359 16.5388 241.24 16.5388C240.048 16.5388 239.221 16.4415 239.221 16.2955C239.221 16.1253 234.404 16.0523 225.257 16.0523C216.183 16.0523 211.22 16.1496 211.123 16.2955C211.05 16.4172 210.247 16.5388 209.347 16.5388C208.301 16.5631 207.547 16.6848 207.255 16.9037C206.89 17.1713 206.063 17.2686 204.044 17.2686C202.462 17.2686 201.246 17.3659 201.149 17.5119C201.076 17.6335 200.589 17.7552 200.078 17.7552C199.592 17.7552 198.959 17.9254 198.692 18.1201C198.4 18.339 197.646 18.4606 196.6 18.485C195.7 18.485 194.897 18.5823 194.824 18.7282C194.751 18.8499 193.729 18.9715 192.561 18.9715C191.077 18.9958 190.299 19.0931 189.983 19.3364C189.715 19.531 189.204 19.7013 188.839 19.7013C188.474 19.7013 188.085 19.7986 188.012 19.9446C187.939 20.0662 187.404 20.1879 186.844 20.1879C186.285 20.1879 185.506 20.3582 185.117 20.5528C184.704 20.7717 183.755 20.9177 182.685 20.9177C181.711 20.9177 180.836 21.015 180.69 21.1366C180.568 21.2583 178.865 21.4042 176.895 21.4529C174.462 21.5015 173.221 21.6232 173.002 21.8178C172.832 22.0124 172.054 22.134 171.056 22.134C170.156 22.134 169.402 22.2313 169.402 22.353C169.402 22.4503 168.624 22.6206 167.65 22.6935C166.702 22.7665 165.802 22.9611 165.656 23.1071C165.534 23.2287 164.95 23.3504 164.391 23.3504C163.807 23.3504 163.272 23.4477 163.199 23.5936C163.126 23.7153 162.688 23.8369 162.274 23.8369C161.836 23.8369 161.179 24.0072 160.79 24.2018C160.425 24.3964 159.477 24.5667 158.698 24.5667C157.92 24.5667 156.971 24.737 156.606 24.9316C156.168 25.1506 155.219 25.2965 154.027 25.2965C153.006 25.2965 152.081 25.3938 152.008 25.5398C151.935 25.6614 151.278 25.7831 150.573 25.7831C149.843 25.7831 149.113 25.929 148.821 26.148C148.14 26.6588 139.066 26.6832 138.361 26.148C137.753 25.6858 135.174 25.6858 134.371 26.148C133.933 26.3913 132.863 26.4886 130.479 26.5129C128.241 26.5129 127.073 26.6102 126.878 26.8048C126.659 27.0238 126.513 27.0238 126.295 26.8048C125.93 26.4399 124.738 26.4156 124.519 26.7562C124.421 26.9021 119.678 26.9994 111.041 26.9994C99.7051 26.9994 97.6616 27.0481 97.2481 27.3643C96.9318 27.6076 96.129 27.7049 94.5721 27.7292C93.3801 27.7292 92.2854 27.8265 92.1394 27.9482C92.0178 28.0698 88.9769 28.2644 85.4008 28.3617C81.8247 28.459 78.8325 28.6293 78.7595 28.7266C78.5649 29.0429 70.7803 28.9942 70.464 28.678C70.3181 28.532 69.5396 28.3617 68.7125 28.2888C67.8854 28.2158 67.1555 28.0455 67.0826 27.9482C67.0096 27.8265 66.6447 27.7292 66.2554 27.7292C65.8662 27.7292 65.5013 27.6319 65.404 27.5103C65.2337 27.2184 63.8471 26.5129 63.4822 26.5129C63.3362 26.5129 62.6794 25.9777 61.9982 25.2965C61.3414 24.6397 60.6359 24.1045 60.4656 24.0802C60.2953 24.0802 59.6872 23.6423 59.1033 23.1071C58.5195 22.5719 57.887 22.134 57.6923 22.134C57.4977 22.134 57.2301 22.0124 57.0842 21.8664C56.9382 21.7205 56.5976 21.4772 56.33 21.3069C56.0624 21.1609 55.211 20.6014 54.4325 20.0906C53.6297 19.5554 52.1944 18.7039 51.2214 18.2174C50.2239 17.7065 49.2265 17.1227 49.0076 16.928C48.7643 16.7091 48.4967 16.5388 48.4237 16.5388C48.3264 16.5388 47.8156 16.2712 47.2804 15.9306C46.7452 15.5901 46.1857 15.3225 45.991 15.3225C45.8208 15.3225 44.872 14.4953 43.8746 13.4979C42.8772 12.5005 41.8798 11.6734 41.6608 11.6734C41.4662 11.6734 41.0283 11.4058 40.7121 11.0652C40.3958 10.7247 40.0309 10.4571 39.9336 10.4571C39.812 10.4571 39.3498 10.1895 38.9119 9.84888C38.474 9.5083 38.0118 9.2407 37.8901 9.2407C37.7685 9.2407 37.3793 8.97311 37.0144 8.63253C36.6495 8.29195 36.2846 8.02435 36.1873 8.02435C36.0899 8.02435 35.5061 7.53781 34.8979 6.97829C34.2654 6.39444 33.195 5.61598 32.4895 5.2754C31.7841 4.9105 30.8596 4.30232 30.4218 3.88876C30.0082 3.4752 29.3757 3.08597 29.0351 3.01299C28.6945 2.94001 27.3322 2.33183 25.9942 1.675C24.1211 0.774903 23.2939 0.482979 22.4182 0.482979C21.7857 0.482979 21.2018 0.361344 21.1288 0.239709C20.8369 -0.246832 20.0584 0.0207655 19.0854 0.920865Z" fill="white"/>
</svg>
