<svg width="310" height="93" viewBox="0 0 310 93" fill="none" xmlns="http://www.w3.org/2000/svg">
<path d="M131.296 0.570917C129.333 1.68542 124.512 6.0223 117.994 12.4913C114.893 15.5683 113.052 17.022 110.411 18.4272C109.538 18.9118 108.182 19.6871 107.382 20.1717C106.583 20.6562 105.395 21.2135 104.717 21.4073C103.53 21.7465 98.7326 22.4249 93.6931 22.9822C92.2879 23.1275 90.3981 23.3456 89.4532 23.4667C88.5325 23.6121 87.1757 23.7575 86.4489 23.8301C84.9467 23.9755 78.1143 25.0416 74.795 25.6473C74.1893 25.7684 72.7356 26.0107 71.5242 26.2288C70.337 26.4226 68.641 26.7618 67.7688 26.9556C66.8966 27.1494 64.401 27.6825 62.1963 28.167C59.9915 28.6274 56.8903 29.3542 55.2912 29.7661C53.6921 30.178 51.5116 30.7352 50.4455 31.0017C47.5139 31.7528 44.243 32.8431 40.7299 34.2726C38.9855 34.9752 35.9327 36.0655 33.946 36.6712C26.7744 38.876 18.0037 42.1952 13.7395 44.3031C12.7462 44.7877 10.6141 45.781 9.015 46.4837C7.41593 47.2105 5.71995 48.0343 5.25961 48.3008C4.79927 48.5915 3.92705 49.0519 3.32134 49.3184C1.72227 50.021 0.77736 50.9175 0.292792 52.1773C-0.11909 53.2918 -0.11909 53.2918 0.438163 53.8975C0.995415 54.479 1.11656 54.5033 2.95791 54.3579C3.99973 54.2852 5.11424 54.1641 5.40498 54.0914C5.69572 54.0187 6.54371 54.0671 7.31902 54.2125C8.40929 54.4063 9.06346 54.7455 10.4202 55.8116C13.1823 57.9195 14.0787 58.7432 13.7638 58.937C13.5215 59.0824 8.74849 58.6705 8.40929 58.4767C8.33661 58.4282 7.63399 58.3313 6.83445 58.2344C6.03491 58.1617 4.72658 57.8225 3.87859 57.4833C2.30375 56.8534 0.946958 56.8534 0.413934 57.4833C0.00205199 57.9921 -0.0948615 59.1793 0.220107 59.5912C0.680446 60.1485 5.06578 62.8378 5.30806 62.7167C5.42921 62.644 8.09433 63.7827 9.98414 64.6792C10.5172 64.9215 12.8673 65.8179 15.1932 66.6901C17.5192 67.5381 20.475 68.7011 21.7591 69.2341C23.0432 69.7914 24.6908 70.3486 25.3934 70.4697C26.1202 70.5909 28.01 70.9785 29.6091 71.3177C32.7103 71.9961 35.9812 72.4565 36.2719 72.2869C36.3931 72.2142 36.8776 72.3353 37.3622 72.5534C37.871 72.7472 39.1066 72.9653 40.1242 72.9895C41.1418 73.038 42.4017 73.1833 42.9347 73.3287C44.0977 73.6679 50.3728 75.1701 56.1392 76.5268C64.2072 78.4167 78.6473 80.2095 91.9972 81.0091C93.257 81.0818 94.638 81.1787 95.0257 81.2514C95.4376 81.3241 98.7084 81.5421 102.294 81.7359C105.904 81.9298 111.356 82.269 114.408 82.4628C117.485 82.6808 122.016 82.8262 124.512 82.802L129.067 82.7535L131.053 83.9649C134.251 85.9274 136.941 87.2842 140.333 88.7137C147.068 91.5 149.297 92.1541 153.222 92.4449C155.427 92.5902 155.451 92.5902 155.718 92.0088C155.912 91.5969 155.912 91.2092 155.742 90.7973C155.451 89.9978 153.658 87.8415 151.357 85.4913C149.782 83.8923 148.788 82.6082 148.982 82.4628C149.031 82.4386 150.848 82.269 153.053 82.1236C155.257 81.954 158.698 81.6148 160.685 81.3483C167.129 80.5003 172.12 79.6038 182.345 77.4717C182.926 77.3506 184.404 77.1325 185.616 76.9872C187.505 76.7691 188.16 76.5753 190.195 75.5335C192.254 74.4674 192.86 74.2978 194.798 74.0798C196.034 73.9344 197.439 73.8859 197.948 73.9586C199.183 74.1525 206.452 76.8903 209.989 78.4651C217.258 81.7359 221.813 83.2623 224.866 83.4804C226.828 83.6257 226.876 83.6015 227.724 82.8504C228.33 82.3174 229.081 81.0818 230.196 78.8043C231.141 76.866 232.522 74.5159 233.612 73.0137C234.63 71.6327 235.696 69.864 236.011 69.0887C236.301 68.3134 236.859 67.2231 237.198 66.6659C237.925 65.5029 238.022 64.7761 237.488 64.558C237.295 64.4853 236.374 64.34 235.478 64.2673C234.581 64.1704 233.442 63.9523 232.909 63.7827C232.401 63.5889 231.359 63.4435 230.632 63.4435C228.306 63.4435 229.13 63.1286 234.46 62.014C237.101 61.4568 241.583 60.8995 247.422 60.3907C250.184 60.1727 257.38 60.2454 258.809 60.5119C262.516 61.2387 271.675 64.9457 280.494 69.3068C292.778 75.3881 295.83 76.7691 301.427 78.7316C305.279 80.0884 307.387 80.5245 308.187 80.1126C308.478 79.9673 308.865 79.7734 309.035 79.7008C309.204 79.6281 309.544 79.2646 309.762 78.9012C310.149 78.2713 310.125 78.1259 309.229 75.5092C308.696 74.0071 308.138 72.5534 307.969 72.2626C307 70.8089 305.11 65.4302 304.335 61.9898C303.874 59.9304 303.317 57.7499 303.123 57.1441C302.905 56.5384 302.493 55.1816 302.178 54.1156C301.863 53.0496 301.33 51.3536 300.967 50.3602C300.24 48.325 300.264 47.1378 301.088 44.3031C301.33 43.4309 301.597 42.3164 301.669 41.8318C301.912 40.3297 302.784 37.3011 303.414 35.9928C303.729 35.2902 303.995 34.4422 303.995 34.0787C303.995 33.2065 305.061 29.548 305.643 28.3851C305.909 27.8763 306.37 26.4226 306.66 25.1627C306.951 23.9028 307.508 22.2068 307.872 21.4073C308.599 19.8809 309.083 17.87 309.253 15.8106C309.35 14.7203 309.301 14.5022 308.817 14.163C308.502 13.945 307.896 13.7754 307.484 13.7754C306.588 13.7754 303.947 14.5507 302.057 15.3502C301.33 15.6652 299.368 16.489 297.72 17.1673C294.134 18.6453 289.168 21.0923 286.309 22.7883C285.17 23.4667 283.498 24.4601 282.553 24.9931C281.633 25.5504 278.507 27.4644 275.648 29.2573C270.318 32.5766 267.096 34.3695 266.441 34.3695C266.005 34.3695 263.704 35.1932 260.82 36.4047C258.47 37.3738 257.38 37.4707 254.327 36.9135C248.537 35.8716 245.532 35.3144 244.03 34.951C242.068 34.5149 242.334 34.5633 237.004 33.473C234.751 33.0127 232.255 32.5524 231.456 32.4312C229.784 32.1889 229.638 32.0678 230.172 31.5105C230.486 31.2198 231.02 31.0987 232.231 31.0744C234.799 31.0502 235.817 30.1295 235.041 28.5789C234.339 27.1737 232.304 26.3014 228.984 25.9865C226.731 25.7684 224.429 26.1803 220.165 27.5129C218.227 28.1186 216.264 28.6758 215.804 28.7243C215.077 28.8212 208.633 27.9974 205.022 27.3433C204.368 27.2221 203.375 27.0525 202.842 27.0041C202.309 26.9314 201.049 26.7618 200.056 26.6164C195.719 26.0349 184.768 24.7993 181.763 24.5328C180.964 24.4843 179.437 24.3147 178.371 24.1936C177.305 24.0724 175.512 23.9028 174.374 23.8301C173.235 23.7575 172.048 23.6363 171.708 23.5879C171.369 23.5394 169.916 23.4183 168.438 23.3456C166.984 23.2729 165.118 23.1518 164.319 23.1033C163.519 23.0306 160.37 22.861 157.293 22.7399C150.388 22.4491 147.892 22.2311 148.134 21.9888C148.449 21.6981 151.09 21.2862 152.713 21.2862C153.561 21.2862 154.531 21.165 154.87 20.9954C155.694 20.632 155.887 19.7598 155.354 18.936C154.7 17.9669 150.145 13.5331 149.782 13.5331C149.225 13.5331 145.227 10.1653 140.72 5.87693C136.82 2.14576 135.463 1.00703 134.421 0.449775C133.161 -0.180162 132.555 -0.155934 131.296 0.570917Z" fill="white"/>
</svg>
