<svg width="311" height="107" viewBox="0 0 311 107" fill="none" xmlns="http://www.w3.org/2000/svg">
<path d="M131.359 0.26964C129.74 0.401512 126.898 0.599327 125.08 0.7312C116.257 1.2587 105.285 2.31371 99.5352 3.23683C89.8194 4.75339 87.8696 5.21495 75.5101 8.97339C69.826 10.6878 64.869 12.0065 61.8617 12.6659C60.7051 12.8967 57.9291 13.9846 55.682 15.0726C50.5266 17.5453 45.4705 19.1607 40.8109 19.8531C32.9788 21.007 31.3264 21.3696 26.7659 22.9192C14.9352 26.9414 2.90609 34.1945 1.61727 38.0848C1.31984 39.0079 1.12156 39.2057 0.592813 39.0409C-0.0681245 38.876 -0.101171 38.975 0.130157 43.7225C0.956329 61.7564 2.93914 71.8448 6.24383 74.8779C8.09445 76.5593 28.2861 87.7028 35.7877 91.1315C39.1585 92.681 41.0422 93.802 42.4632 95.0218C44.8426 97.0989 47.3211 98.5165 48.9073 98.7473C49.5352 98.8462 51.1876 99.6045 52.5425 100.429C53.8974 101.253 55.8472 102.275 56.8386 102.671C58.0283 103.165 58.6892 103.627 58.7553 104.055C58.8214 104.55 59.3171 104.748 61.0686 105.077C69.1981 106.462 81.2602 106.891 106.905 106.66C118.901 106.528 129.112 106.363 129.641 106.231C130.467 106.033 130.5 106 129.971 105.572C129.443 105.209 129.839 105.143 132.714 105.11C134.565 105.11 136.548 105.011 137.109 104.912C137.903 104.748 138.134 104.814 138.134 105.242C138.134 105.539 138.332 105.77 138.564 105.77C138.762 105.77 144.38 105.473 151.022 105.11C176.931 103.726 186.217 103.099 186.415 102.737C186.581 102.506 186.68 102.506 186.746 102.769C186.878 103.132 208.788 101.879 215.662 101.121L219 100.725L219.859 97.8901C220.817 94.6592 222.271 92.6481 224.485 91.5601C225.576 90.9996 226.27 90.9007 228.484 90.9996C231.789 91.1315 233.177 91.7909 238.2 95.6153C240.216 97.1318 242.132 98.3846 242.463 98.4176C242.793 98.4506 243.95 98.8132 245.041 99.2089C246.693 99.8353 247.85 100 251.815 100.099C264.538 100.462 295.668 97.0989 303.864 94.5273C305.153 94.0987 306.442 93.802 306.739 93.8679C307.995 94.0328 308.755 91.3293 309.185 84.9993C309.284 83.285 309.581 80.9442 309.845 79.7903C310.11 78.6364 310.407 76.7242 310.506 75.5043C310.804 71.9437 310.077 41.019 309.647 40.8871C309.482 40.8212 309.317 40.4256 309.317 40.03C309.317 39.6343 309.085 39.0079 308.821 38.6453C308.557 38.3156 308.325 37.7881 308.325 37.5243C308.292 36.1726 303.137 32.3153 297.916 29.7107C292.826 27.1721 284.895 24.5017 279.409 23.4796L278.087 23.2489L279.079 23.0181C279.806 22.8203 279.475 22.7543 277.823 22.7214C275.378 22.6884 265.298 20.4465 265.563 20.0179C265.728 19.7542 263.514 19.0289 257.929 17.5782C256.111 17.0837 254.558 16.6551 254.426 16.5892C254.327 16.5232 252.41 16.2265 250.13 15.9628C243.355 15.1385 238.101 14.9737 232.78 15.4353C228.088 15.7979 227.559 15.7979 221.247 14.9737C213.349 13.9187 209.019 13.0945 206.177 12.0065C205.021 11.5779 202.278 10.8196 200.097 10.3581C197.916 9.86355 194.875 9.03933 193.322 8.51183C191.769 7.98433 188.134 7.16011 185.226 6.69855C182.318 6.23699 179.443 5.64355 178.848 5.34683C178.253 5.08308 176.931 4.72042 175.873 4.55558C174.849 4.35777 173.164 3.99512 172.172 3.73136C170.057 3.13793 168.669 2.87417 162.423 1.75323C159.879 1.29167 156.838 0.698241 155.649 0.434483C153.996 0.0718246 151.254 -0.0270768 143.917 0.00589441C138.663 0.00589441 133.012 0.137767 131.359 0.26964ZM128.352 105.44C127.856 105.934 123.296 106.231 121.082 105.902C119.231 105.605 119.363 105.605 123.428 105.44C125.807 105.341 127.955 105.209 128.22 105.176C128.517 105.143 128.583 105.209 128.352 105.44Z" fill="white"/>
</svg>
