<svg width="85" height="170" viewBox="0 0 85 170" fill="none" xmlns="http://www.w3.org/2000/svg">
<path d="M12.6095 0.654709C10.9459 3.85571 4.19381 27.3782 1.55167 39.0424C-3.46349 61.2312 3.72899 78.8124 22.3952 90.0644C24.4747 91.3011 26.5541 92.3924 31.8139 94.9144C36.1441 97.0241 37.881 100.371 38.7373 108.276C39.5691 115.988 39.4223 138.395 38.4927 145.16C37.7587 150.592 36.3643 154.012 33.8444 156.558C30.9577 159.468 27.1902 161.529 20.3891 163.954C17.6981 164.9 14.6645 166.064 13.6615 166.525C11.949 167.301 10.4811 168.368 10.4811 168.828C10.4811 168.925 24.8416 169.022 42.4069 169.022C77.244 169.022 75.3602 169.095 73.501 167.689C72.449 166.888 70.0026 165.87 64.547 163.93C58.2597 161.699 54.4189 159.686 51.6789 157.091C48.3517 153.963 46.9817 150.301 46.15 142.347C45.7096 138.079 45.7096 112.205 46.15 108.519C46.8839 102.505 48.1316 98.9156 50.2355 96.9029C51.0673 96.1026 52.584 95.2054 56.058 93.5079C63.1037 90.0644 67.4094 87.2271 71.7151 83.1774C79.7393 75.6599 83.9472 66.7601 84.8768 55.4112C85.2193 51.4584 84.8279 45.7597 83.9472 41.4674C81.8922 31.3309 74.9688 6.81421 72.5713 1.13971L72.082 -3.91397e-05H42.5048H12.952L12.6095 0.654709Z" fill="white"/>
</svg>
