<svg id="e4j6pketv1nv1" xmlns="http://www.w3.org/2000/svg" xmlns:xlink="http://www.w3.org/1999/xlink" viewBox="0 0 505.200000 534" shape-rendering="geometricPrecision" text-rendering="geometricPrecision"><style><![CDATA[#e4j6pketv1nv2_to {animation: e4j6pketv1nv2_to__to 6000ms linear infinite normal forwards}@keyframes e4j6pketv1nv2_to__to { 0% {transform: translate(-2.464237px,-111.767957px)} 16.666667% {transform: translate(0px,0px)} 61.666667% {transform: translate(0px,0px)} 80% {transform: translate(0px,-86.899985px)} 100% {transform: translate(0px,-86.899985px)} }#e4j6pketv1nv3_to {animation: e4j6pketv1nv3_to__to 6000ms linear infinite normal forwards}@keyframes e4j6pketv1nv3_to__to { 0% {transform: translate(0px,7px)} 16.666667% {transform: translate(0px,7px)} 75% {transform: translate(-0.115665px,-61.450020px)} 100% {transform: translate(-0.115665px,-61.450020px)} }]]></style><g id="e4j6pketv1nv2_to" transform="translate(-2.464237,-111.767957)"><rect id="e4j6pketv1nv2" width="7.900000" height="126.699997" rx="0" ry="0" transform="translate(437.200012,324.299988)" fill="rgb(209,167,105)" stroke="none" stroke-width="1"/></g><g id="e4j6pketv1nv3_to" transform="translate(0,7)"><rect id="e4j6pketv1nv3" width="95.800003" height="95.800003" rx="0" ry="0" transform="translate(414.899994,445.100006)" fill="rgb(209,167,105)" stroke="none" stroke-width="1"/></g><path id="e4j6pketv1nv4" d="M384.700000,85.500000L384.700000,553.600000L534.800000,553.600000L534.800000,85.500000L384.700000,85.500000ZM505,419.200000C504.100000,430.500000,499.900000,439.400000,491.800000,447C487.500000,451,483.200000,453.900000,476.100000,457.300000C472.600000,459,471.100000,459.900000,470.300000,460.700000C468.200000,462.700000,466.900000,466.300000,466.200000,472.300000C465.800000,476,465.800000,501.900000,466.200000,506.100000C467,514.100000,468.400000,517.700000,471.700000,520.800000C474.400000,523.400000,478.300000,525.400000,484.600000,527.600000C490.100000,529.500000,492.500000,530.600000,493.600000,531.400000C495.500000,532.800000,497.300000,532.700000,462.500000,532.700000C444.900000,532.700000,430.600000,532.600000,430.600000,532.500000C430.600000,532,432.100000,531,433.800000,530.200000C434.800000,529.700000,437.800000,528.600000,440.500000,527.600000C447.300000,525.200000,451.100000,523.100000,454,520.200000C456.500000,517.700000,457.900000,514.200000,458.600000,508.800000C459.500000,502,459.700000,479.600000,458.800000,471.900000C457.900000,464,456.200000,460.600000,451.900000,458.500000C446.600000,456,444.600000,454.900000,442.500000,453.700000C423.800000,442.400000,416.600000,424.900000,421.700000,402.700000C424.300000,391,431.100000,367.500000,432.800000,364.300000L433.100000,363.600000L462.700000,363.600000L492.300000,363.600000L492.800000,364.700000C495.200000,370.400000,502.100000,394.900000,504.200000,405C505,409.600000,505.400000,415.300000,505,419.200000Z" fill="rgb(209,167,105)" stroke="none" stroke-width="1"/><path id="e4j6pketv1nv5" d="M470.400000,460.900000C471.200000,460.100000,472.700000,459.200000,476.200000,457.500000C483.200000,454.100000,487.600000,451.200000,491.900000,447.200000C499.900000,439.700000,504.100000,430.800000,505.100000,419.400000C505.400000,415.400000,505.100000,409.700000,504.200000,405.500000C502.100000,395.400000,495.200000,370.800000,492.800000,365.200000L492.300000,364.100000L462.700000,364.100000L433.100000,364.100000L432.800000,364.800000C431.100000,368,424.400000,391.500000,421.700000,403.200000C416.700000,425.400000,423.900000,443,442.500000,454.200000C444.600000,455.400000,446.700000,456.500000,451.900000,459C456.200000,461.100000,458,464.500000,458.800000,472.400000C459.600000,480.100000,459.500000,502.500000,458.600000,509.300000C457.900000,514.700000,456.500000,518.200000,454,520.700000C451.100000,523.600000,447.300000,525.700000,440.500000,528.100000C437.800000,529,434.800000,530.200000,433.800000,530.700000C432.100000,531.500000,430.600000,532.500000,430.600000,533C430.600000,533.100000,445,533.200000,462.500000,533.200000C497.300000,533.200000,495.500000,533.300000,493.600000,531.900000C492.500000,531.100000,490.100000,530.100000,484.600000,528.100000C478.300000,525.900000,474.500000,523.900000,471.700000,521.300000C468.400000,518.200000,467,514.500000,466.200000,506.600000C465.800000,502.300000,465.800000,476.500000,466.200000,472.800000C467,466.500000,468.300000,462.900000,470.400000,460.900000ZM461.200000,452.800000C454.900000,452.800000,446.900000,448.800000,445,447.700000C428.700000,437.800000,422.400000,422.500000,426.800000,403C429.100000,392.800000,435,372.200000,436.500000,369.400000L436.800000,368.800000L462.700000,368.800000L488.600000,368.800000L489,369.800000C491.100000,374.800000,497.200000,396.200000,499,405.100000C499.800000,408.900000,500.100000,413.800000,499.800000,417.300000C499,427.200000,495.300000,435,488.300000,441.600000C484.500000,445.100000,480.800000,447.600000,474.600000,450.600000C471.500000,452.200000,469.800000,452.800000,461.200000,452.800000Z" fill="rgb(255,255,255)" stroke="none" stroke-width="1"/><path id="e4j6pketv1nv6" d="M446.800000,324.300000C451.400000,316.600000,452.200000,314.600000,451.800000,312.500000C451.500000,310.800000,451.300000,310.600000,448.400000,308.500000C446,306.800000,445.200000,306,445.100000,305.200000C444.900000,304.300000,443.900000,303.500000,439.800000,300.400000C435,296.800000,434.700000,296.700000,432.900000,296.500000C430.900000,296.400000,431.500000,296.800000,397.200000,272.200000C388.500000,266,378.600000,259,375.300000,256.700000C368,251.800000,359.900000,245.600000,357.100000,242.700000C353.200000,238.800000,352.300000,236.500000,349.900000,225.400000C346.600000,209.900000,343,200.900000,336.200000,191.600000C330.300000,183.600000,327.100000,180.500000,317.100000,173.200000C292,154.700000,82.600000,13.500000,80.800000,13.600000C80.400000,13.600000,78.400000,13.200000,76.200000,12.500000C68.900000,10.400000,67.200000,10.800000,62.400000,15.300000C55.500000,21.700000,47.400000,32.400000,31.400000,56.200000C11.200000,86.200000,5.900000,96.800000,6.900000,104.600000C7.100000,106.100000,7.700000,107.200000,9.600000,109.700000C12.900000,113.900000,14.700000,115.600000,21.500000,120.700000C24.800000,123.200000,76.600000,158.300000,141.500000,202C260.800000,282.300000,256.400000,279.500000,263.700000,282.300000C271.500000,285.300000,281.900000,287,292,287.100000C297.100000,287.100000,300.100000,286.800000,308,285.200000C317.900000,283.300000,320,283.100000,324,284.100000C329.800000,285.400000,335.200000,288.300000,352,298.900000C363.400000,306.100000,387.300000,321.100000,401.300000,329.800000C405.600000,332.500000,405.800000,332.700000,406.800000,334.500000C407.700000,336.200000,408.200000,336.600000,412.600000,339.600000C417.100000,342.600000,417.400000,342.800000,419.100000,342.700000C420.600000,342.600000,421.200000,342.900000,423.700000,344.500000C425.400000,345.600000,427.100000,346.500000,428.100000,346.700000C429.600000,347,429.800000,346.900000,431.900000,344.900000C435.900000,341,441,333.900000,446.800000,324.300000Z" transform="matrix(1 0 0 1 7.85961305000001 17.27339980000005)" fill="rgb(208,204,210)" stroke="none" stroke-width="1"/></svg>